<mxfile host="app.diagrams.net" modified="2023-05-06T05:29:54.210Z" agent="Mozilla/5.0 (Windows NT 10.0; Win64; x64) AppleWebKit/537.36 (KHTML, like Gecko) Chrome/112.0.0.0 Safari/537.36" etag="NVFq4hM_wJD0bqcAjki3" version="21.2.9" type="github">
  <diagram id="q0kaoFBc5JSRlgmIiqIF" name="第 1 页">
    <mxGraphModel dx="1562" dy="837" grid="1" gridSize="10" guides="1" tooltips="1" connect="1" arrows="1" fold="1" page="1" pageScale="1" pageWidth="827" pageHeight="1169" math="0" shadow="0">
      <root>
        <mxCell id="0" />
        <mxCell id="1" parent="0" />
        <mxCell id="oqc9B1S6U0OL1mSsrtgY-3" style="edgeStyle=orthogonalEdgeStyle;rounded=0;orthogonalLoop=1;jettySize=auto;html=1;entryX=0.459;entryY=0.002;entryDx=0;entryDy=0;entryPerimeter=0;" parent="1" source="oqc9B1S6U0OL1mSsrtgY-1" target="oqc9B1S6U0OL1mSsrtgY-2" edge="1">
          <mxGeometry relative="1" as="geometry" />
        </mxCell>
        <mxCell id="oqc9B1S6U0OL1mSsrtgY-6" value="&lt;font style=&quot;font-size: 16px;&quot;&gt;babel&lt;/font&gt;" style="edgeLabel;html=1;align=center;verticalAlign=middle;resizable=0;points=[];" parent="oqc9B1S6U0OL1mSsrtgY-3" vertex="1" connectable="0">
          <mxGeometry x="-0.3007" y="-3" relative="1" as="geometry">
            <mxPoint as="offset" />
          </mxGeometry>
        </mxCell>
        <mxCell id="oqc9B1S6U0OL1mSsrtgY-1" value="" style="shape=image;verticalLabelPosition=bottom;labelBackgroundColor=default;verticalAlign=top;aspect=fixed;imageAspect=0;image=data:image/png,iVBORw0KGgoAAAANSUhEUgAAAfYAAAHhCAYAAACcOJyfAAAAAXNSR0IArs4c6QAAAARnQU1BAACxjwv8YQUAAAAJcEhZcwAAEnQAABJ0Ad5mH3gAAGbVSURBVHhe7d1vcFP3ge//ndn9bfdvp/fun+50G18BBtV/Ime8Jkps4mJCcGz+GBkHY6exHQq4CCgCAqICO7o2zTrUBMo1JDgw0GWgTR2WNaQ1kwCTjkPWFxqPM2HobNMn7bPto/ZR++h+fuevdI70lXSko39H+jx4TRud75FsMH7rfM85X/1JRUUFiIiIqDQw7ERERCWEYSciIiohDDsREVEJYdiJiIhKCMNeTCpbsLh2hXhbuav+Kv7jvb/C5999TLxdc/zf/ga/Pf8VNAm25dqeQ3+Pzz/+C+AXf6L4/LvicUREuVS4sHuCaAjdQ8fZR9h8XjO5gI6RM1giGl/qnnobbZPqn0NHICgeU7Yew4/e+4IazI//HqPCMZJv/AN++1CO6p/lPe793/0S/qgE/c/wx4+/iM+nv4QZv3gsEVEuFSbsjZciEdss/W/HaSnoEp/82PglLBXt4wRPjOLpsPRm5bW30/4elmy9F32D4+Q/A6EOTH32Y/zqV6rZ79cIxiQ2evGvtaj/HUarxWN0Tdv+Dr9XAvuFlEf32fNPePhpvl+TiEisAGHfgPoRNWC+4ZNYWhmzvbLO/N9OsvFm5mGuHsUzp6R9JxewurdfPMap9g/hkRZ1xc924RnROIGm7+hHwl/ETKt4TKz+sS+qbwQ+/SL+w+I+trysvZmYk954iLYTEeVRAcI+imblyPQ+vI2i7Q5mJ+wl7JV3f6AE/dF/vqUF/v/g9NfFY02qv4JPHshR/1P85o10joQfw3/M/Lka9/e+jC3CMVn03S9FXku4nYgojwoY9lvwuETbHYxhF9Cn4X+Aqf3RKXkr0/EHz/6tGsxMjoQ3/wN+K+/7i7/EJ7k+182wE1ERKWDYb6JWuN3gqUtoSxLKpTvuqyENjZq36fspj9dhaddNtOoX6U0+wvpjV1HrqTbvY1KNxc0n0XTsvnreX9uvY+wWGtZsMI2tDWnbLWjeaHwNif51xor9foTk7+sqVo0toEvfb3IBa49dg+dJ0ekM7c9d+bOUvr81l7Dq1KPIvj7pe6tvzsFpEH0a/tFrCEn/HbpxVZ2Ov7sjxXS84Wj9e5mdt/7Bv2tH7f/+T7m9kI5hJ6IikoewD6FJuzhOF4lJzOOy1X090X3thn3kKpaPLESiJz9/px7qCemNxTLDPhGtqD1kjqXytU3oETS/IakJRL/2yBX+8psA/TGDpnbj60gazmC1ccxb2v6pwu7ajnr9+5J0Tqj7R7638/Kf4/aY/bSwn74J7/776veifZ3RNy/3sPwp4z72Rabhb6h/r9Vj31PD/quTGE82HR/4n+q59U+/hB+kuGAuoe9owf3Fl/CjTJ/DCoadiIpIHsKuH6Fb07bDcOGY3bDrz7k7iMX6tL/ndazUArxqS+w949XSc97ToreAlbEXsS3bjlr/GVQZHzOyORWf8PsxqUbNfi3qE9JRtvHo3LUBVbu1r//8/ZhIm/8eTBcuVu6Cd1x9vGP3PsM+dkWn3mfGFquPVW/FjBL2H+POG4mn44+e166En/myjaPtf8LnStj/HA+/I9qeJQw7ERWR0p6Kl7TtiD1yrYB7txrGzv0x94svex2rlKNXKeqdreZtVuQj7J4zWKN8b/fx9ErR6YRWPBFWv3fz9xcNu096/sWmfSrg2nJXfe3XzsRty1jkavjv4bXIEXMNTv9MDXuy6fgfvScH+U/w+4v/LNxuzVdx90P1eX579quC7dmgX6iX+SkDIqJsKu2wv5HefpG4nb4Kt+Fxy/IQ9sjXmOQ1xGP0P/cEFy3m4MI/fRo+9va2Z77/f9THTcE3+mfcm1ODbHf1tuy8QYh3/P98CZ9PfxG///TPlKj/ceYfcTSX0/1ERBaVdtjT3M9KWJPKQ9gtfY2Nl7BWHmP6M07x5571sCe5At63F7NK2A1T9CbFH3b9eRUP/hafjH21IMvYEhHFYtgtPG5ZsYR95VV0yGMmCxj2yDT8Wzjni93+NC7+pxr2X93aimrTNlnxh113MPD3+I2+6twIp+KJqPCcEfY0p9QzDXtkWddM45aHsC/uS30uPDIVf/xtw7r7+Q17ZBo+JfF0/H/MZCPI+TjHXoEtb2gr3U3/k3A7EVE+OSPsovPCjW+jVb9NK0thjxzpJrwwLYV1N9Ur0jM8R2/paLz5KtZrX6P41rRNqH9N3h5zh0Few25eGz4V0XT86L/9lRpLm1fFq2u4/wU+CYi2Z4l+VfzHf4+jou1ERHlU3GF3SWO1eJuubm9+G6sn1MeFIcw07IYobp64i+Uxi9GkvN0tcsW69PV+a5d4TBKWwm74GrveuIbaJ8y3u9Xq96jH3aefx7DvHsKCEu23cLFbsF2xClc+UcMu3+MeNx2fjXvQs3EvvBV62LlWPBEVgeIOe0U13Lu12Em6zi5EF4qZvAdvQJtyzlrYJdXS13dafT1FigVqzAz3mBv31cQuULOk765pe2SBmhT7KV+j4Y1N3AI18kIzjbEzDvkL+7ff0abh//MVvCDYrnvhwlvquEevIRwX3q/gk3k57A5aeY5hJ6IiUORhl8iLruy4hfWG6LWG3kaVvCSsHqNshl0mv+bATax5I3651vrmmKP4OK1w914z76uJXVI28nWkELcUrayyH7XSn0tr5A2H/MbnPtYEXsfSZaLTCPkK+1pMLahH4skWoFFEro6/iulX46fjD577GzWYD/4njsdsS6n1H/Ebed9f/BXuvSzYnk0MOxEVkQKEnciiav0c+Z+mefHbY/jR9BeU2P4x10frMoadiIoIw05FbcuI/nnsf4172+K3i/RLodXPrf8oH5/Hvo2fx05ExYNhp6I3elFbN95CqJv0yP7iC7ldH96o+svamvRfwOff5b3sRFRYDDs5wGP40Xvq1Dpmk9xStv7LkcVifvNGfleCG9U/tOYXf4Y/fvhFfD79Jczk+nPgiYgEGHZyhuqvYmbmr1McET+GH/z73+A3Z79SkOVdj479D/x2TnsDIrG7ah4RUSYYdiIiohLCsBMREZUQhp2IiKiEMOxEREQlJOdhDwQCGBgYEG4jIiKi7GLYiYiISgjDTkREVEIYdiIiohLCsBMREZUQhp2IiKiEMOxEREQlhGEnyobKFiyuXSHeRkQ50VizDCuXiLeVM4adKKFRNJ9/hM3nb6JWuF3z1Ntom5THPUJHICge4yg/xJFf/T+cj/XJR3hSOJ5KwTcG/Jj//mGJH28vlx9bhOOH5f+WHFuPrYJ9CmcRXv32fvVrO/kyTj0hGpMF617U/kwO49116mN7tge0x17EMVfM+CLBsDvY043/iiv7f4oPB0shJsXIWtiXbL2nRF0xfglLBWOc5The/MkvEdR99IeSCfuTl38XeaMyduGgcEzHLXX7kbH4baVsXc82LVjbcKpWfezV/WrU5kfb8I2Y8YX1FN49qX1thuhm3eoXMKe8xn78cLX6WPQN0It4NXZ8kWDYHayn96e499qHuOdn2HPD4hF79SieOSWNm1zA6t5+8RgnG/tlSYb9/MLP8XXBmHINe/ToNBqs4g17BbZ+Q3ojIsd9tAMHlorH2La8DbPKn4k+i8GwKxj23GHYrXGv6EVgbzca0p42sxj2UleCYT/1n/+Nt6T/Db+xJW4Mwx4N1tatu9XH9jfFjy8HgrBXrdf+nJK92WnwYc/eAbRUC7blAcPuYAx7ap61gwgNhxEOhxHweYRjEmPYFSUY9vHLd3DgkfQ9/ecd1MeMKduw69PO4y/ggPZY5Oi0XMNeuxozStijpycib4ASht2N9p3q75xwaA983kWCMbnFsGdFEFfkwH7n++iR/vtrNbtx0j+ND49Jj8mPH53C5Orn8bW4/WRfQ9vT/xuX9kuR1sePfoCf+Mext+ZrMWO7ceY72piUfooz/2LcV/saX/sBQqbn1LT+QN1P+x6M20J+w/O5nsfeF67iJ/9be53Rn+L6S/vRFns0/C/fx/vyduVNx+Poaf9BdB/p+3x//1m8Evf9ZZMbjS8eUP9xDYcwuDZZ1KuxuPkkmo7dh0+7CE7mO72ArkRhf+oS2rRxJqFR8zidawjPnFXHrNqS6Or5atSG1DGdrwwJttuw4TRevP7fOCXHTI605K3PfocjF87Bk+qoIo2wL+46jU2Xf4ljn/xBOSLWX2vi/i8xOHJUuI+qCZ7Dd3DkvrTff0X3O/9ff8DEJ7/EJp9oH1l6+0XDPoqvvyNfO/AH7NptHpMw7P9yEM++8RGCH/0OE4bXUv4cL19Cfdyfo3oR4qmr0s/EjjsIL6jjJ352B43S2OpXP8O49jzj1y+h2rSvavHADzH4we+i35v0fZ366DNsGmiLG2ubfnRqCFaysKvb5AvIKvGdndL/l6fFT/rxwzWV0s97LU4d0i4ye60Pp7zmfStci7B1dSsuHR7E3PhBdZxs3I+ZnS34VlXMeE3k1IBJ9GhaSP++lO9hEb7R8QLu6K958iBmj3TgO3q04zThXeU1DNPuKcMucdWgpT+o/f4JYmBVjXhcjjDsWRGN5qvLx/ETPdCvfoAPR7X//9oHuNQSG7KvoX/zdCR2P9n7A1wZvIrrR7V9jk3jzHLjPp04vk96zmGN/tzHDI9FTOG46UpRu2H/EFfaXsLJQ9prSm8+PnxV+/+SD7+52/zGRQ/7vrM4I33Nyjjt64y8gXlV+lpycW7M5ZHeMYe0f1QB9K5wi8cpWlG1+54W8EfoemsBHVLQO7QIqwRhbziD1fI43Vva2ERhl9TsX1DHjL2NJYLtFctexyrljcUCnmmvjt+eoWopzBNyFDRvfSZFT6KHN+WRqeWwj2LwE8HrGCIoBzV+vyY0Gs99P1L3i36Nv8PgN2P3yWw/Y9gruu9gTPr/b924ZBqTKOym8/P6axneKJ2//5ES7Og+2t0FH/wcu+SoS1HW/ywOTKivLT+P+rXGv8Ew/r2d+ki9kDF8X/1vefyRscJez6GG3Y9L2/uk/z2IueNaLIdacWzXfiWakWgfakajcf/ItL/kRABzYxJ9f9lxKaSCuH9npzZWoV0VbzXsoU68HdKvpN+vPIfyZkR5vS14Neu/ixbB69uDkPx7KBzCHp8Xi4Tjso9hzwo9mnK85GBN4eTTj2vbVklh1MK293/jacN+T6/+AT5U9okN+OPY9qIW/FfPY2+Cc8PpTcXbD7sa5A9w/YWt8GjbnpX2U76H16ZwzPgPQw+75id9uyNH9V+rOYofa0fv1zc8Fd0nG9yN6N0v/0OSHN6G1hRHo4u33FWjPnkPT6/ZYN6+7CRWJQp7jKU77qcMe0XzVaxXnu8+lj8Vv31x3131OU5dhTtmW8Z2fIRxLQ4TH/wUTxpncaq3oPG7P8eLhw2PiVgO+1FsuvoROnb2Y7Hx8eo9aH1Xj+Kv0f11wzaZFlglxLsFR6Ir+rFM9PeYwX6msFdsQfddef//Rn93dEyisNd/7+cY/O5xVJtmwuQZA+nIW/k6Ys/ZG24bfPRLdDwvPfa9Xyv//Zb8hkB7I/D1d9W7DsYm90T3/ab+9xYbcOn1vqcH3/x1V1T0YOL9ecw/sOCdZLMn1kQvIjuMOwO1qKqoxdvHpP8el6L5/f14d5105L60RZ3KNkzvK1pa8cMX6tEdE9O6htWYGVefc/abdaZt8fSjaYth19zZvhzrtN9FVbXNuKG93sym3EyZ16waQFA7HRjsb0FN2tf6pI9hzwpD2F+9imNPxByZN57VAm6M6vrI0e9PXlhvHq/YikntyP1Kq3jKOu9hl6L+4w2dMacUBjE5rG6/ot0OojCE/Se9L8WdhtjZp77ZkY/0jY/bUtcOf0j9BxTa7YM35cIVu+CVr2aXYrpqS6tgu/Vz7JbCXrEJDWPq663370q4rXVgU8y2TOnhkkLywXXhVK8laUzFJ1R9XYuc4Oj7u9rzP/oM7SneiJlksJ857NJjRz5TInnqneORMemfY2/Cpg/UfcwzEtGwh7+vxVn/szQcocd9TdLztd9Q94udTVBF/17Nr9eHix8/xMOHFtwYMeyXmUjYX+vAHiVWUthHtYBGjtAFU9kpWL9gL/2wq29AzNv1+9Lndi03PZ5V8sV0Ie2AY1+3hd9N9jDsWaFH8wNMPiOIcCRyhqjW/CuuK49N4XiNYaxBaFAN44d9g8Lt+Q77h1sHBdcJRM/7X2k1PK5/z0e+j37TeFW2L/yTr3w/kO674oa3tfPkt+ARjs922Cvg2nxLnSE4ew01xm360fzkLTyxzPC4HV//KcJ6RPYLtluVjbBHpukFYf/6de3rlF/jl3hx/0HzEX8iGewXH9GD6P9PaX/Dm4NMLp6Lf16ZFvbPDLfV6X+WP/splmmPxe97Tr2wT3rswBFtvxj1l9R9jM+Tb3rYo0e6etgDuPSMPi79sEem6bMd9gSL7ETeoOT6AkF3CwYOanG3MJtoB8OeFXo0Yy9YSyIS+5/i+qB8bj3ej4PaFH6C+OU77O/3dpseT0r//gTPJ8tl2ENbW62FfeNNNcYJF5XJftijF9GZz6O7/er+Wb1oLjKd+0t0iLZblWbYFz93HK3fu4NdxkVufvJrjCuxEoRdUn3w5xgznIvXLxLrP3I0aazT3U8U4GVvqNPj+lF10rD/Sz8aj1xH/zvG7+2XOKKd+xaG3fjnpv9Z3vphZFz81xQ90h//wPw6EUWwaJAexOjiMHrYjaFNEnbXInR//SkcH+jEu9/eEnUkR0fsCS52y1/YG9G7j2F3EDtht4Bht8YwFR/e14tGt2CMUSHCLtEvousafh0u5bFgNPbyediY8RnLd9irj6L7Ay04CYnDru6/B1/Xrjo3XlF//rNfo7s3yS/dNPYTHllXX1KPkLUFa8Rhb0L9939tughRJNthT8n0d1KYqfhMwv5cSwfuGFaOEyqlsEu/mwYP67+bOBXvEBmE/Ylx/ETZ5ypezfBiiszCnuD1SiHsMtPFc4NorxOM0T1/DZ1yjGOnxXXVJ7E6B2GPm3Zv176ObF40J3tJD3uSmFphMezq7WPSuEe/Rv/+gzEXriWZihfRLuw79pm8j+SjO5ELNpNKsZ8w7IbH5alvYdh3/xyn5Of71R8QnjyN+hUW3jDYCHtQeS3pz2qHtp8lhbl4Lu2wL23GDS3qd3Y1YWtVzEVruZqKL1DYMzpNaBPDnhUZhD1y0dkHuNKa2ZXhXfqtcjFX24sZvsbYfwRfk7ZpF8A5Puwyq7e7ec5gjRJuwVXqru1YflzeJsty2A0XyskX7en3rmfvojndaezSAnfq3dOC7RZZCnv0Vrfw9+NXc6uoPo5d6YRdt//n2lFymrMOCfZLFHb9fL18sdomQdj1/cTntJukNzXZDPsWdP9M/Rrivs4iknHY9XCPdWCP/phBXYd8+5yV0BZ/2Bs28nY3B8sk7FLcIvewT2OyZX3MEcnX8LRnEMe2jmOv6XGDlvParWbSm4O2RAvg6KIXuX0oxfRZ7fGv1ezHpSPq44pSCLvCygI1G1A/oka1M3wSS/R30p4gnpajPrkAnzJFnu2wGy6iG7mr3ruezYvmDOon/1sNiXSkeexyzGI0Wb3d7Si+qZ1nPiXFMXoFfhs8Rz6KHkELwr5sx2k0rhW8GZD21YMpeu1M9ksYdikS6pXov0ZYi6ox7JGL1RY+Q6vhdMnirksY/Fn09EN2wi59b9/Vb2n7A45MjMbdtidfx9Bx+efY9JL58XzKOOzPb1FDenIbTtXr4ypQtbQWx76tRdZSaIs47FygphRkFvYKVyeO7dEukJMdk6KrLzCjL+JiukUu1nocf0UbJ5MXjUm4QE0Fnt0wFTdWfY0P8OO+HyQMsTPDrkq5pGzjpchHrsohlxebUe9rX0Dzxn1YPi5viw/7kr670cVpjAvUaM+ha2o37xdhWIlOeWOR7ZXmIvrR8RPzee+UC9SMfBZZ6CV2ERbj48cmzdO50TcREnnlN2lMdMW032FcWXktPuyRo2GJ/rUp++rPJe0TOBIf8Ez2Sxx2SWS6XWX6c4ncM69SXsvw5zL+ifpnnK2wy39vz0bu/VdFvsfIxYK/wzedGHbXcvzwuPyY7GDc4jRzo7vVpW3jQvsUfhhZnMa4QI3kuOHx0Gp0G/fLe9jdWL1dmzHkkrJOlmHYFY+jZ8338eNDhphLPjwyhSu9QfQvFd/DHiG9OXil9yp+YlgFTiX6WkRLu57Hq/WPJw2xk8MuS/khMM0nsXJMD/ojrD92DZ4n5cUx+hOGPXKEnkLzRvN+UdWoeUVbie78Ap5eKRqTLeqyq8rFZYYryN/65L8RmDgdv6SsHp8U4uPYhiff+AzHtKVTFY9+h2PXr6NxRZN27jo+7J7v/hzh++ZQyuSlWo9d/ym+vkH8CzeT/ZKGXb717aPo88S+4Vk8cB0B4wV6+vKuO6Q3D9qfWfbCLpP+3vb+VHnN2CVsw+/8FM925WBZ2TRkHHZJVe1ynNk/iDn9Ajp5lbpXX8SZ1ctQp4c4LrT6c6UQG/BCHLHzQ2CIiIgoWxh2IiKiEsKwExERlRCGnYiIqIQw7ERERCWEYSciIiohDDsREVEJYdiJiIhKCMNORERUQhh2G1auXImnn35auI2IiKgQGHYbGHYiIio2DLsNDDsRERUbht0Ghp2IiIoNw24Dw05ERMWGYbeBYSciomLDsNvAsBMRUbFh2G1g2ImIqNgw7DYw7Ek8dQlt5x9h8/glLBVtLxIjNx7i4cOHmB4Vb8+2vgtzyuvFSvX6+tdpNoeLA+LxRcfVgoEjYYTDAfgeN2+rDUk/J9LPSvNG8+NElBmG3QaGPQlbYa/D0q5rWPPGArrk55B0nb2HlTuGsMQlGp+5fId9ffgipq9Pa2YwO2/t9f2n9X1ktzHnsLBXtvmlqEth39mOyphttsLu2oCqgVtonZB+RrSflc5Td9HUuwuLReOJygDDbgPDnkSmYa/cheVj6i9ome/0AjoMv7S7jkvPl8W45zvsZn24+HEmrz+CaUeF3QPfPvlofQgDK+O3Zxx2z+toPq39rEw+Qof8s3JW+2+JLzTKuFNZYthtKPuwuxvRuzeA7gbBtgzDvmTgnhJx38glVHmqo9uapeeTfnnLv7DX+3eZ9olo8GHP3gG0VAu2JcCwp8e9oheBvd1oSOfNlbcXQfloPdgLr2B7ZmF/EjWHFpT91h56HUsr9cersbjzJnzyz55k1eYVhn10brT0B7DH58WiuG1Ezsew21DWYa9rx+Bh+ShMss8HT+z2jKfiW1G744zwqNy9W/1FLn5ON9p3al9PaA983kUx28UYdus8awcRGlb/jAM+j3CMSMvLQ8o+/rZK4faMj9hd21G/Q3RUvgJPhNXn3CwdtZu3SRqlNxra9xHsb0FNlk/vEBUaw25DuYZdPmo7oP1iDA22wyP6xWgKu3bO/JQ2pS4dea8fjjkit2LjTfWX9fmbqBVtd9VIR2JBNe7DQQysqokfE8MY9qp1h3DuvVnMf6o+9nB+FtOv96FOsJ+qCut3n8DUHcMFcZ/OY/a9czi0rkowPlZ+wq58X/J5ef37kj2Yxcybh7C+SryPmRuNLx7Q/lxDGFxrPeoVle3wyz8rRwbQkiCgprB7gmgI3YNPm52Rr614pqtfuF8yS3fcV39WEryxXOT1YU9I+xne7YN3SfwYIqdi2G0ox7B71voRkn/BSwI9jXALxigiYb+K5Ye0i+AmF5TzoJ3aL+3NE9fSOlpybbmr7vdGslmARfD69mhfYyjldKse9plL5zCrh+/BPOa1i9pktyc2CfatwvbJ2ciY2Rn1Yrjbc/p+s7j4zVRxz33YW49MaRfaSaQ3HfMx39vDuSkcXSPeV+HyoH1nSIt6AL0r3OJxCXh8AWXfYI9XuF2mh33lt95Gq/az0TlhPl++pk/0d5BYZHbn6OvC7YrqFgwcVH+WwwfTO4VDVMwYdhvKK+zmo7Zta1IcDeth16zdP4TFesSrX8dK7Zf2qi2ic6AiK/DEsLpP5ytDgu1mNasGLE236mFXzN/GuZ112jYp3Je0I/EHVxCI2a8pPI15Zb/YgNfBf0kL/vwUDiU9Is5x2F+YwG1lnPTG46r56LzupROY0QI/f2METcb9dPI1FPu18B3ehta0w+dFb1DeP/4WNyM97IqJu2ho1v8OqrH0W9qR9+mrid9ExtkF7yn1+VoHUrwhWOKFb7f2xiWNUzhExYxht6Fswm48arP6y88Q9rZvxV/sph9Rde4Pxm0Tev6aekHU5D0sf0qwXUS+mC6khWlft3C6NRL2+WmMxU6fP3NCC+NtTHQYHq/YhHMfqvvNvikKhx9XtCP36dFkR+25Dfuhd+eV5374/gm0CrZX7b2iHc3Hfn+Sunb4Q+qfXcZT1SsHMCT/2QtucTOKhH3iJjyxp2eWncQq5efoLuo9hseTWNJ3V50hkp6vdpl4jJl8MZ1+CsfCm1aiIsew21AWYTcetaUzXamHPcG0eeQcqOjiplgN0i/3CfmXu/QmYcd28ZhE3IbpVsFRZ2Qq/jVRgBMEtEM/EhYEUTNyXX3e+asB4XZVLsMewJUH+nMnenNhHBN93HgNReYXl1VqFzOKb3EzikzFd4quuRhFs/xzcv6+pTd0i1df1e6eWEDzxlbhmEQaNuqncMIIbOYV8+RcDLsNZRf2dKZjTRfPxW+3HPZq6Re7FvWM7kuWv37lHmrx12+8eM74uCpBQAcuRhaIuR1ZNMZsZlY7Wr4xYni+WLkMu5UxVRh7T339uQt9kcdNF0dubc0s7I/7EJD/zBPc4mZkungubnsaYW+Ufua0c/RpvwGUmK76Z9jJwRh2G8pyKt7qBVTZCLu8AImdqJtuyUs+FZ9Z2C0o6rA34cT76uvPTvaYtxmm4sP7etHoNmyzwNujTm1buS0uK2E3rHOQftTdaOxRL/LjVDyVAobdhnK+eC7lLU92w26Ieseh9KNudTo5o7C/eA6zyuMzGLN0u1giuQz7IUwpF8fNYyoo2i4zTMWHBdtNszWDaK8TjBHR14Uf9qM9snBMYrbDboh669Y0o57J9SNERY5ht6G8wq5K/3a3DMJuOKeuXE0fuz2F6LlS67e7pRX2SBDnpf2aDI+nK5dhb8LYjPrcia56rwpOaVf2T2Mk0RuUDGZr9HXhh15uEW6PZSfsxnPqq/tsXH/B292ohDDsNpRj2GXpL1ATvz1h2I0Xyu3el17UbS5QE789cUD79HvYP53FleCmmEVsqtC0JYAT75zDIdPjsXIZdmO453H7TT+ajLe77TyH29rtbrOT0fPrYunM1ujrwgfR6xVtj5dp2I1RX7Ul5lRCClyghkoZw25DuYZdYXNJ2URh13/JpxT3vG6s3p7+lGqmYa+o6sGJGe0COY2y+IssssKbdCRs3KeiBxPva2M0kf3njY9P4ahpv6OYMuxj2s/4+PsT6DHtV4XtF6KL6IgWqJm/PiK8FU7E0pKy+rrwop+JBDILez+Wjxt+HpKJffO4vDsLV/0TFS+G3YayDrtMPgeb4YfAZD/skqx/CEyqI+M69IUvKlfAR2MuxfLj25i+MILtTbG3mUWP0JOLfUOgfx0pfHwRfab9ZNFlb01f4+wMzsXNNKQmz9Yk+xCYVOvCi+Q97Mp96/wQGCpdDLsNZR92IiML68ITUe4x7DYw7ERRVtaFJ6LcY9htYNiJdNbWhSei3GPYbWDYiYio2DDsNjDsRERUbBh2Gxh2IiIqNgy7DQw7EREVG4bdBoadiIiKDcNuA8NORETFhmG3gWEnIqJiw7DbwLATEVGxYdhtYNiJiKjYMOw2MOxERFRsGHYbGHYiIio2DLsNDDsRERUbht0Ghp2IiIoNw24Dw05ERMWGYbeBYc8D1wos9rSItxWTf+mHZ+0W8bZy5VqE52orUSfaRkQ5w7DbwLBnbumO+9h8/hHadvQLtyuWjaJ54pEyrmvkDJaIxhSDb36E8V/9P5yXTFw/Jx5jxdgvlec4f+uH4u0ZacK73z+Medn+JvWxZzowpz12Y33seJlhH6PRNnwjbmwCS5/Cu8e1/UKr4RONKZhavD0a8z0tbcGM9n3Obq0V7EPkHAy7DQx75iyFfd1NdElj5HGbz99ErWhMEai/9Ds1yLJPPsKTgjGW5CTsy/HDcTVYc7uWq48tb8OsFrF318WOl9Xh1Le34F3dkd3mCFrx/BZ1H8WLeFU0Jksan1ktfY1+zH1be+OS0jKcGtK+tqHVWKc8Fn0zMzvAsJOzMew2MOyZsxR213Ysf006WpfGrf12EC7RmGLw/A8RXJDD/gcce3NUPMaKnIQ9enQaCVbKsMdY96IawXTC7qrFmaGD0n4HMTu4HI2iMVnyjQG/+vXpMxIWvLpf/f6j+zDsVDoYdhvKPuzuRvTuDaC7QbAtBUthLzf5CrurGTeUiPnx9vLY8QKZhD2PshN26c/pmPpYwjc7rgb4dku/z1bViLcTFQmG3YayDntdOwYPhxEOS/b54BGNSYJhF8hJ2KPTzjM9y7TH9KPT8g37gV37lX0ipycMb4AShd3d5ld/3sMh7PF5sUgwhqgYMOw2lGvY3St6cWBYjXposB0el3icorIftTtuoXVCnVKXY9711gI63lL/f3zYR9GsjTMZv4SlpnFRSwbuqWNOX4VbsF3x1CW0Kc91Dw31gu3pMlwwZ2IlytV78PWJz3Dskz9E9/uvP2DiURrPkQb96DQarFyF3d5Fd+uebcWNVwOYO2nY94T038e24Fitcazh4reUxN+j/mYgOu2eOuyymlUDCGo/+8H+FtQk+9knKhCG3YZyDLtnrR8h5agljEBPY+KQyhpOYpV2VbvMd1oKuqRzMvpYfNiH0KSNU5zVxiYJe4XnDNYoz7eAZ9qrhWPcfnWGYPPY29m5uv6lOzj2mRRj3X9ZjPLz57DrvjZW8pa2/1v6/jkIu22Ww/4UfjgmhVg3Lp9jt7JfBbYODKpjZePR55hXIh8b52qcChle54S238n90cciXsapbLyRM1jk9WFPSHtju9sH7xLxOKJCYdhtKK+wu9H44gHll1l4OIRta1KcZ3Ttw9On1Cj7hk9iaaVxex3cuy1OxW+8mTrsFSvwxLD6Wl0h0cVrQTyjvUFYtXmFYLt9T17WroxPGuV+dP9Mi/f9n6N1g3HquAnLvv9r4XP0TNzG/IN5C6Zw1LBf1mQ6FW91vydacUcJ8yDebloUt71qaSUakxwZZzIVb1t1CwYOqnEPHxxAS7VgDFGBMOw2lE3YXR607wypv8RCe+Dzxv/yjeXafEudej91FW7BL2XL59gthV3Sfg2d8rjJW3hiWYJtZ6/lbOrUUth3/xyn5DG/+jW6nxdsT3COve/CHB4+fGjBNEYM+2VNrsOu3xo3/gK+k8HfT0HCLlMuptP+XQwH0G3h3wVRPjDsNpRF2OUr3/enf2RSe0g9Ql77re3C7VkPe8UueLUZgjV9GwyPR4/m1/t3GR7PLithj9zv/sF14fbcXDyXBbkO+9Jm3NDPq4++gONfX5bWanUFC7vCjZb+oPWZLKI8YNhtKLuwH96GVkth78fycTWmzRtF23MRdsNFdMbz6MtexyrlnH6WLppLwErYO25J26Ux45cT3OtermGXPNfSgTvGi+ZO7sfskU6cWl2dMvKFDntjT4Bhp6LCsNtQllPxwwH0rnCLx0UUJuzRi+juw9usPra47666/2tnsDh2fBblMuwlPxWvcy3Dtzra1JXujJEfexHHk7wpK9xUvPTvYpBT8VR8GHYbyvniucG1HsEY3QbUv6aG3TwtrqtGVWAh+2GPm3bfhIYx9b9zddGczkrYW2+oYX/rhng9+eqJ/xY+R8lfPCfiWoSt7R2YGdPiHln6NV5Bwp7hKSqifGDYbSivsKus3u5Ws18Nt+gq9cVSrH1yrCXZDbtEv1BOvqddv3c9hxfN6ayE3TOphVu0nvwOw33xSZ6jIAoRdl3kA2sSrzff/Q3tVrnDLTldujaigbe7UXFj2G0ox7DLLC1Qs/qaFu/7aFrdqj1eh6W9t5THfRO5OGKX6RfRLWBVWJ3uz+VFczorYa/w/RTHtHiHJ45qjzfBc/jnatQf/QFvlWHYG7112FqzCFVx2xbhW9/UjsaTPcfqF7T478e765cJnid7uEANOQHDbkO5hl2RcknZVtSG1HjLOqWQ66vNdY29jaWdarDjwi4dcUcWpzEuUDP5yPT46r4e834GkYvoFLm5aK5+8tfRxWmMC9TIK8gZHg+MGPdrQqP+BkALeWS1uc9+iY6D2lF7ocO+ptO8yIu+0MzJg6bHZ3piFgPKcL/IVLrseHRc5Dz7yd344epk568Nn9Ymk1eri7xe9haocT83qM1WcUlZKm4Muw1lHXZZqg+BcW1Arf8u1utBP3sPKweCWCwf5WhH4nFh14/QU0h6pF//Nlr1seGTOflUuMgRegpHxmL3bcPXJ36JMT3o//U7HLt+HU/+i7RNX6a20GHXj7RTiPsUtAz3W9e+Xl1KVn8joDvux8zOFnzLtJxsAq5qfGfgRdw5HvMcVpfNtYIfAkMOwbDbUPZhJyKiosOw28CwExFRsWHYbWDYiYio2DDsNjDsRERUbBh2Gxh2IiIqNgy7DQw7EREVG4bdBoadiIiKDcNuA8NORETFhmG3gWEnIqJiw7DbUOph5xsXIiLnYdhtYNiJiKjYMOw2MOxERFRsGHYbGHYiIio2DLsNDDsRERUbht0Ghp2IiIoNw24Dw05ERMWGYbeBYSciomLDsNvAsFO6lu64j83nH8Vp3igeT0SULobdBoad0rV4wyU0H7qpuYW2sww7EWUXw24Dw0729GP5OMNORNnFsNvAsJc2z9pBHNi6Gm7BtuxII+yuBvh2S/+WVtWItxMRaRh2Gxj2UuVGY08A4XBYEsK2lYsEY7LBetjdbf7I17PH58UiwRgiIhnDbgPDXoJcHrTvDKkRHQ6gd4VbOK42lCzIo2iWtm0+fx/LnxJt16U3FV+zagDBYTnuYQT7W1DjEo8jovLGsNvAsJcYdyN696vhDB8eRHudYIymEGGXLfL6sCekfo2h3T54l4jHEVH5YthtYNhLSF07/Foww/u6UwazUGFXVLdg4KD2tR4cQEu1YAwRlS2G3QaGvTS4V/TiQJpT3AUNu0y5mC56yqDbm6vrAIjIaRh2Gxh25/Os9SMkxzHNi9IKHnaFGy39QS3uIWxbwyvmiYhht4Vhd75o2MMIbHZe2Bv1q/cZdiLSMOw2MOylwTgVHxpsh8cRU/EetA9yKp6I4jHsNjDsJcR08VwvGt2CMQZ62Fd2Vgu25zjsxqv3efEcEcVg2G1g2EtMBre7rf3W9phtrag9tICuXIW9gbe7EVFyDLsNDHsJsrhATeRT2iZuolY/YnZtQO3++1rUsx92LlBDRFYw7DYw7KXKwpKy1SexalILuPS/HacX4NP+u+PoVTS/IQp7DxpGFpSxuk5tn66zxsevocb4WhL3c4MZXb1PROWHYbeBYS9tKT8E5snX8cyYPu3+CJ2n7qKpq1/aph+Jx4Y9eoSe3E3UGl9Hxg+BISKLGHYbGHYiIio2DLsNDDsRERUbht0Ghp2IiIoNw24Dw05ERMWGYbeBYSciomLDsNvAsBMRUbFh2G1g2ImIqNgw7DYw7EREVGwYdhsYdiIiKjYMuw0Mu3PxTQsRlSqG3QaG3bkYdiIqVQy7DQy7czHsRFSqGHYbGHbnYtiJqFQx7DYw7M7FsBNRqWLYbWDYnYthJ6JSxbDbwLA7F8NORKWKYbeBYXcuhj0PXCuw2NMi3lZE6p5dj9amKuE2KmbVcNVugKtStK28Mew2MOzOxbAnM4rm84+wOdb4JSwVjhdYJj3HhLpf18gZLBGNsWvgIuYePsTDWDdGxOMF+iZntf3mMRVk3LPJ4wsgHA5j6OX4N3dLd9yP//mSNG80j0tsBWoPLaj7Td5Ffb1oTPli2G1g2J2LYU9mF+oP3USz7pj2SzidsK+7ia7IL+ybqBWNsatjBBevT2NaMzM7n2bYe3BuNvqGYO5Cn2BMtmzCyOUZzD6YxbkB0fZsq0LTN8cwdWdO+/7mcDEvr6vzojcYlsIeRK83fvviDZeiP1+HbqHtbLphl944Tuo/X+nsVx4YdhsYdudi2NOw8ab6CzSdsLu2Y/lr0tG6tN/abwfhEo3Jsr4LWsTSOGJvHZ3G3KfSPg9uYyKn4RvBdD4CW9WE7eErmJlT36xE5TnsKwcwJB2th/f54BFtN+nH8vF0A12NpVvvoVOKe9f4VdQsE40pXwy7DQy7c5V92N2N6N0bQHeDYFusTMKeJrcUgsBuH7xLxNutyCTs+ZOPsD+JsfeiMZ977xwOnZ7R/jvz1/WsHcSBravhFmwTq0T7TvloPQx/W6Vge6xMwp4mVwN8u6UWraoRby8xDLsNDLtzlXXY69oxeFj9xWvpiCrnYZfeZCjTtpKDA2ipFo1JjWGvQNWRKcy9fwUjL9Wpj41O2wi7G4096nnycDiEbSsXCcYIPO5DQN4n2AuvaHuc3Ifd3eaPfB97fF4sEowpJQy7DQy7c5Vr2N0renFgWI1oaLAdHpd4nInlsNu46G6JVzqiCqm/fEN74PNajIiB1bBHxsWYHhWPN6nvw9g7tzH3wLzv/IN5zF7wm8dGompBrt6MZBp2l0c66tb+PoYD6F3hFo8T8PYElf0CPo9wezzrYa8NxfxsKe5j+VPi8UY1qwYQ1H72g/0tqLHys+9QDLsNDLtzlWPYPWv9CMm/qOVfuj2N1qdWLYd9CE2nF9Ch0y6Isnyk76pBS78ahfBwMO1pU6th75m4rYRYp8c1ZdjXSEfd81qIJZHn0B+Lfd3hKeHrPDQ8FvHOUfO+2ZJJ2OXTNPvVn5Pw4UG01wnGJOJqwcAR+e/Pj3bLt6FZD3tNwPDzJVEv0LQWdtkirw97Qur3FrJ56qeYMew2MOzOVV5hd6PxxQNaMEPYtibN84yZTsVntN8ieH17tDcg6U2bZjYV34eLH6vBTR72Khx9V43z/I0xrK+K3V6Hlme16W+hPF08FyvdsNe1w6+FL7yvO+3wVWpT3qJb3BLLdCpenyGyHnZFtfTm46D2Pdo49VPMGHYbGHbnKpuwG6dUM5zizm/YVfLFdPq0aWhrq6Vp09yGPXpr3OybmwTbUyn+sBtP02Q2Ve2Bb5+8v/gWt8TyHHaZcjFd9FRDdyb/LooYw24Dw+5cZRF245SqnSOTAoRd0RCdNrVy9JjbsFfAf1k/Nz+P25dHsD2t1eqKO+zR0zQ2Li7z9iKo/F1ZucXNqABhV7gNp34ymMkqYgy7DQy7c5Vd2A9vQ6vTwm66er/wYa+o6sGJ9wznymUPZjFzYQz+daki75SwhxHYnFnYW14eUva3doubUeHC3qhf9c+wp4dhdy6GvQTYuLo5ogBhl6eFA0U1FR9V99IhTMiryBkupJPNXg6gVTBe5aypeMt3TOgq2+GX9z0ygJa0p/ALMRUv/bsY5FR8xhh252LYS4X54rnBtVZvQ9LkOeyZTgvnK+xGdZ0BnLgenaKfCorHOfPiuV40ugVjBPR14YM9XuH25PIc9mydoipiDLsNDLtzlVfYVbm/3S1G2vsZz3nm7nY3M3thVzXhxPvqcyReb14P+zyu7BVtz5F0wy5L+3Y3fV34AHyPi7anksewG67b4O1uNjDszsWwl57cLlATI5398rhAjZnVsG+Cf28PWgSfIla1bgwz2rT89Giic+3rMXFHHfNw9iL8+fo0skzCLkvnFI6+LvzOdlSKtqeUn7BzgZosYtidi2EvUamWlG2/ZloEJLLQzOQj0+Or+3qys19FA7pf0b6eNKZGYxeamZc/zEWO2KeGxyRTw8b9ejDxvnm7Gj7JvPHxKRw1vFb0iDvm+Y0L1tyZQJ9pH7Oq4BTm9eeQx0deS5KtBWoiIU/B0psfK0vK6uvCD2FgZey2RHrQMGL4OZHIH+Yi/6x0nTU+fg01pv1iFkCS6J8g2DlheFzwMcHu5wbtX/XvIAy7DQy7c5V12GXydGuiD4HRj7RTaNvRn539JJl8CEzkCD0F85F49Ag9uWmMGF6rosKPiffkpWRjroqXIz87g4vhPtSZxou17jyhfJRq5E2ILq1ZhiSyGnZV0g+BSXtdeFn0CD252I/71Y/QUxDNEPFDYLKLYXcuhp2Ikkl/XXjKB4bdBobduRh2IpsyWhee8oFht4Fhdy6GnciezNaFp3xg2G1g2J2LYSeiUsWw28CwOxfDTkSlimG3gWF3LoadiEoVw24Dw+5cDDsRlSqG3QaG3bkYdiIqVQy7DQy7czHsRFSqGHYbGHbnYtiJqFQx7DYw7M7FsBNRqWLYbWDYnYthJ6JSxbDbwLA7F8NORKWKYbeBYXcuhp2IShXDbgPD7lwMOxGVKobdBobduRh2IipVDLsNDLtzMex54FqBxZ7i/+SvumfXo7WpSriNilk1XLUb4OJHxsZh2G1g2J2LYU9mFM3nH2FzrPFLWCocL7BMeo4Jdb+ukTNYIhpj18BFzD18iIexboyIxwv0Tc5q+81jKsi4Z5PHF0j4sa5Ld9yP//mSNG80j0tsBWoPLaj7Td5Ffb1oTPli2G1g2J2LYU9mF+oP3USz7pj2SzidsK+7ia7IL+ybqBWNsatjBBevT2NaMzM7n2bYe3BuNvqGYO5Cn2BMtmzCyOUZzD6YxbkB0fZsqkPf61O4/bH25yGbn8XMhaPoqRKNzwUveoNhKexB9Hrjty/ecCn683XoFtrOpht26Y3jpP7zlc5+5YFht4Fhdy6GPQ0bb6q/QNMJu2s7lr8mHa1L+639dhAu0Zgs67swl2bYK9A6Oo25T6V9HtzGRE6DO4JpJbJzuJjL16n34+KHWswl8w/mJdH/fjh7EdvzEfeVAxiSjtbD+3zwiLab9GP5eLqBrsbSrffQKcW9a/wqapaJxpQvht0Ght25yj7s7kb07g2gu0GwLVYmYU+TWwpBYLcP3iXi7VZkEvb8yU/Ye95UTy3M37mIQ+uipxbqdl7ErBb3uct+0z6peNYO4sDW1XALtolVon2nfLQehr+tUrA9ViZhT5OrAb7dUotW1Yi3lxiG3QaG3bnKOux17Rg8rP7itXRElfOwS28ylGlbycEBtFSLxqTGsMtaMXJhQnhUHriqTc1/fBF9MdvE3GjsUc+Th8MhbFu5SDBG4HEfAvI+wV54Rdvj5D7s7jZ/5PvY4/NikWBMKWHYbWDYnatcw+5e0YsDw2pEQ4Pt8LjE40wsh93GRXdLvNIRVUj95RvaA5/XYkQMrIY9Mi7G9Kh4vEl9H8beuY054/S2RJ7ynr0QcyQ8Om0ak1Q+3oxEvp5pjIi2G7k80lG39vcxHEDvCrd4nIC3J6jsF/B5hNvjWQ97bSjmZ0txH8ufEo83qlk1gKD2sx/sb0GNlZ99h2LYbWDYnascw+5Z60dI/kUt/9LtabQ+tWo57ENoOr2ADp12QZTlI31XDVr61SiEh4NpT5taDXvPxG3t3LNKj2vKsK+RjrrntRBLIs+hPxb7usNTwtd5aHgs4p2j5n1zoGn8tvr60hH7dsH2CPk0zX715yR8eBDtdYIxibhaMHBE/vvzo93ybWjWw14TMPx8SdQLNK2FXbbI68OekPq9hWye+ilmDLsNDLtzlVfY3Wh88YAWzBC2rUnzPGOmU/EZ7bcIXt8e7Q1IetOmmU3F9+Hix2pwk4e9CkffVeM8f2MM6+OmuuvQ8mxdzGNG+ZqKT6QJYzPq9zn/7lFUCcdI6trh18IX3teddvgqtSlv0S1uiWU6Fa/PEFkPu6JaevNxUPsebZz6KWYMuw0Mu3OVTdiNU6oZTnHnN+wq+WI6fdo0tLXV0rRpbsMevTVu9s1Ngu2pFDbsVcEpzCuvn/h2O+Npmsymqj3w7ZP3F9/illiewy5TLqaLnmrozuTfRRFj2G1g2J2rLMJunFK1c2RSgLArGqLTplaOHnMb9gr4L+vn5udx+/IItqe1Wl3hwl615QRmtNMFsxe2C4/Wo6dpbFxc5u1FUPm7snKLm1EBwq5wG079ZDCTVcQYdhsYducqu7Af3oZWp4XddPV+4cNeUdWDE+8ZzpXLHsgLv4zBb7i1TKxAYTdcFzAv/bm0isZITNdfbM4s7C0vDyn7W7vFzahwYW/Ur/pn2NPDsDsXw14CbFzdHFGAsMvTwoGimoqPqnvpECbkVeQMF9LJZi8HEoazEGGvWjdmKeq6jO6Y0FW2wy/ve2QALWlP4RdiKl76dzHIqfiMMezOxbCXCvPFc4Nrrd6GpMlz2DOdFs5X2I3qOgM4cT06RT8VFI/Ld9hNUb+eOuoRpovnetHoFowR0NeFD/Z4hduTy3PYs3WKqogx7DYw7M5VXmFX5f52txhp72c855m7293M7IVd1YQT76vPkXi9eT3s87iyV7Q9e4zn1OfePWo96rq0b3fT14UPwPe4aHsqeQy74boN3u5mA8PuXAx76cntAjUx0tkvjwvUmFkN+yb49/agRfApYvLRsR7S6dFE59rXY+KOOkZer92fo08jM10odzXZqYEU0jmFo68Lv7MdlaLtKeUn7FygJosYdudi2EtUqiVl26+ZFgGJLDQz+cj0+Oq+nuzsV9GA7le0ryeNqdHYhWbm5Q9zkcP5qeExydSwcb8eTLxv3q7sI5s3Pj6Fo4bXih5xxzy/FlHZ/J2JpEu1Rm8508ZHXkuSpQVqRm5Enz8pS8vKWllSVl8XfggDK2O3JdKDhhHDz4lE/jAX+Wel66zx8WuoMe0XswCSRP8Ewc4Jw+OCjwl2Pzdo/6p/B2HYbWDYnauswy6Tp1sTfQiMfqSdQtuO/uzsJ8nkQ2AiR+gpmI/Eo0foycUuu+rHxHvyUrIxV8XLkZ+dwcVwH+pM48Vad57A1J256JsQXVqzDIllN+yqpB8Ck/a68LLoEXpysR/3qx+hpyCaIeKHwGQXw+5cDDsRJZP+uvCUDwy7DQy7czHsRDZltC485QPDbgPD7lwMO5E9ma0LT/nAsNvAsDsXw05EpYpht4Fhdy6GnYhKFcNuA8PuXAw7EZUqht0Ght25GHYiKlUMuw0Mu3Mx7ERUqhh2Gxh252LYiahUMew2MOzOxbATUali2G1g2J2LYSeiUsWw28CwOxfDTkSlimG3gWF3LoadiEoVw24Dw+5cDDsRlSqG3QaG3bkYdiIqVQy7DQy7czHsRFSqGHYbGHbnYtjzwLUCiz3F/8lfdc+uR2tTlXAbFbNquGo3wMWPjI3DsNvAsDsXw57MKJrPP8LmWOOXsFQ4XmCZ9BwT6n5dI2ewRDTGroGLmHv4EA9j3RgRjxfom5zV9pvHVJBxzyaPL5DwY12X7rgf//Mlad5oHpfYCtQeWlD3m7yL+nrRmPLFsNvAsDsXw57MLtQfuolm3THtl3A6YV93E12RX9g3USsaY1fHCC5en8a0ZmZ2Ps2w9+DcbPQNwdyFPsGYbNmEkcszmH0wi3MDou3ZUoX1u0/gysws5j+Nfm/zH9/G9JuHsL5KtE8ueNEbDEthD6LXG7998YZL0Z+vQ7fQdjbdsEtvHCf1n6909isPDLsNDLtzMexp2HhT/QWaTthd27H8NeloXdpv7beDcInGZFnfhbk0w16B1tFpzMkBfHAbEzkN7gimlcjO4WJeXkcyP4/5BxJD4B/OXsT2fMR95QCGpKP18D4fPKLtJv1YPp5uoKuxdOs9dEpx7xq/ipplojHli2G3gWF3rrIPu7sRvXsD6G4QbIuVSdjT5JZCENjtg3eJeLsVmYQ9f/IV9kOYuDyC7c/WGR6TjuJfuYJZLe6zb24ybEvNs3YQB7auhluwTawS7Tvlo/Uw/G2Vgu2xMgl7mlwN8O2WWrSqRry9xDDsNjDszlXWYa9rx+Bh9RevpSOqnIddepOhTNtKDg6gpVo0JjWGPZkqHH033VMVbjT2qOfJw+EQtq1cJBgj8LgPAXmfYC+8ou1xch92d5s/8n3s8XmxSDCmlDDsNjDszlWuYXev6MWBYTWiocF2eFzicSaWw27jorslXumIKqT+8g3tgc9rMSIGVsMeGRdjelQ83qS+D2Pv3MbcA/O+8pT37AW/eezotGlMUnl4M5LWGx+XRzrq1v4+hgPoXeEWjxPw9gSV/QI+j3B7POthrw3F/Gwp7mP5U+LxRjWrBhDUfvaD/S2osfKz71AMuw0Mu3OVY9g9a/0Iyb+o5V+6PY3Wp1Yth30ITacX0KHTLoiyfKTvqkFLvxqF8HAw7WlTq+HqmbitnnvW6HFNGfY10lH3vBZiSeQ59MdiX3d4Svg6Dw2PRbxz1Lxv1lVh5Ib6+nOXY96AxJJP0+xXf07ChwfRXicYk4irBQNH5L8/P9ot34ZmPew1AcPPl0S9QNNa2GWLvD7sCanfW8jmqZ9ixrDbwLA7V3mF3Y3GFw9owQxh25o0zzNmOhWf0X6L4PXt0d6ApDdtmtlUfB8ufqwGL3nYo1PZ8zfGBFeX16HFdF47VmGn4lv3XVFvDZyfxsga8RhFXTv8WvjC+7rTDl+lNuUtusUtsUyn4vUZIuthV1RLbz4Oat+jjVM/xYxht4Fhd66yCbtxSjXDKe78hl0lX0ynT5uGtrZamjbNbdijt8ale/GZKr9hXx++aLgNUP26H348haPrEt+rbzxNk9lUtQe+ffL+4lvcEstz2GXKxXTRUw3dmfy7KGIMuw0Mu3OVRdiNU6p2jkwKEHZFQ3Ta1MrRY27DXgH/Ze35H87jtnzleVqr1eU37JE/C6NP53D7nTH0CG53i56msXFxmbcXQeXvysotbkYFCLvCbTj1k8FMVhFj2G1g2J2r7MJ+eBtanRZ209X7hQ97RVUPTrxnOFcuezCLmQtj8Cc5ElYVcCq+vgU9e09gek77mgX3spuuv9icWdhbXh5S9rd2i5tR4cLeqF/1z7Cnh2F3Loa9BNi4ujmiAGGXp4UDRTUVH1X3knyv+AxmDRfSyWYvB9AqGK8q7Dl2xTPS16B9zTOvN8Vtz+iOCV1lO/zyvkcG0JL2FH4hpuKlfxeDnIrPGMPuXAx7qTBfPDe41uptSJo8hz3TaeF8hd2orjOAE9ejU/RTQfG4ogh7RRXG3lO/14TL55ounutFo1swRkBfFz7Y4xVuTy7PYc/WKaoixrDbwLA7V3mFXZX7291ipL2f8Zxn7m53M7MXdlUTTryfIpiRsM/jyl7R9jyoCuCKdv/99GiSUwdp3+6mrwsfgO9x0fZU8hh2w3UbvN3NBobduRj20pPbBWpipLNfHheoMbMa9k3w7+1Bi+BTxKrWjWFGm+JOHMz1mLijjpHPcfvz/GlkdZ2HcPGOdn2AlfXi0zmFo68Lv7MdlaLtKeUn7FygJosYdudi2EtUqiVl26+ZFgGJLDQz+cj0+Oq+nuzsV9GA7le0ryeNqdHYhWYiH3byqeExydSwcb8eTLxv3q7sI9M/NEUxhaOG14oeccc8v3HBmjsT6DPtY1YVnMK8/hzy+MhrSbK0QE3cn4nM+CEw8i1vye5jN7GypKy+LvwQBlbGbkukBw0jhp8TifxhLvLPStdZ4+PXUGPaL2YBJIn+CYKdE4bHBR8T7H5u0P5V/w7CsNvAsDtXWYddJk+3JvoQGP1IO4W2Hf3Z2U+SyYfARI7QUzAfiUeP0JObxojhtSoq/Jh4T15KNuaqeDnyszO4GO5DnWm8WOvOE5i6M2eOrSytWYbEhH8m0huW2ZkrmAha+xpjJf0QmLTXhZdFj9CTi/24X/0IPQXRDBE/BCa7GHbnYtiJKJn014WnfGDYbWDYnYthJ7Ipo3XhKR8YdhsYdudi2InsyWxdeMoHht0Ght25GHYiKlUMuw0Mu3Mx7ERUqhh2Gxh252LYiahUMew2MOzOxbATUali2G1g2J2LYSeiUsWw28CwOxfDTkSlimG3gWF3LoadiEoVw24Dw+5cDDsRlSqG3QaG3bkYdiIqVQy7DQy7czHsRFSqGHYbGHbnYtiJqFQx7DYw7M7FsBNRqWLYbWDYnYthJ6JSxbDbwLA7F8NORKWKYbeBYXcuhj0PXCuw2FP8H+lZ9+x6tDZVCbdRMauGq3YDXPws+DgMuw0Mu3Mx7MmMovn8I2yONX4JS4XjBZZJzzGh7tc1cgZLRGPsGriIuYcP8TDWjRHxeIG+yVltv3lMBRn3bPL4Agk/r33pjvvxP1+S5o3mcYmtQO2hBXW/ybuorxeNKV8Muw0Mu3Mx7MnsQv2hm2jWHdN+CacT9nU30RX5hX0TtaIxdnWM4OL1aUxrZmbn0wx7D87NRt8QzF3oE4zJlk0YuTyD2QezODcg2p4rVdh+QX/zIvn4IvqE47LNi95gWAp7EL3e+O2LN1yK/nwduoW2s+mGXXrjOKn/fKWzX3lg2G1g2J2LYU/DxpvqL9B0wu7ajuWvSUfr0n5rvx2ESzQmy/ouzKUZ9gq0jk5j7lNpnwe3MZHT4I5gWonrHC7mMexV37yIWT3q+Qz7ygEMSUfr4X0+eETbTfqxfDzdQFdj6dZ76JTi3jV+FTXLRGPKF8NuA8PuXGUfdncjevcG0N0g2BYrk7CnyS2FILDbB+8S8XYrMgl7/hQg7FXbcVGZkZjHzHu3Mw67Z+0gDmxdDbdgm1gl2nfKR+th+NsqBdtjZRL2NLka4NsttWhVjXh7iWHYbWDYnausw17XjsHD6i9eS0dUOQ+79CZDmbaVHBxAS7VoTGoMu1F0Cn5e+vOQZybSD7sbjT3qefJwOIRtKxcJxgg87kNA3ifYC69oe5zch93d5o98H3t8XiwSjCklDLsNDLtzlWvY3St6cWBYjWhosB0el3icieWw27jobolXOqIKqb98Q3vg81qMiIHVsEfGxZgeFY83qe/D2Du3MffAvO/8g3nMXvCbx+oxtSLLb0YiU/Dz0xhZIz2WbthdHumoW/v7GA6gd4VbPE7A2xNU9gv4PMLt8ayHvTYU87OluI/lT4nHG9WsGkBQ+9kP9regxsrPvkMx7DYw7M5VjmH3rPUjJP+iln/p9jRan1q1HPYhNJ1eQIdOuyDK8pG+qwYt/WoUwsPBtKdNrYa9Z+K2EmKdHteUYV8jHXXPq2NlkefQH4t93eEp4es8NDwW8c5R8752GKbgp0db1cfSCbt8mma/+nMSPjyI9jrBmERcLRg4Iv/9+dFu+TY062GvCRh+viTqBZrWwi5b5PVhT0j93kI2T/0UM4bdBobducor7G40vnhAC2YI29akeZ4x06n4jPZbBK9vj/YGJL1p08ym4vtw8WM5gqnCXoWj76pxnr8xhvVVsdvr0PJsXcxjRvmaio+Zgtcftxr2unb4tfCF93WnHb5KbcpbdItbYplOxeszRNbDrqiW3nwc1L5HG6d+ihnDbgPD7lxlE3bjlGqGU9z5DbtKvphOnzYNbW21NG2a27BHb42bfXOTYHsq+Ql73BS8vs1C2I2naTKbqvbAt0/eX3yLW2J5DrtMuZgueqqhO5N/F0WMYbeBYXeusgi7cUrVzpFJAcKuaIhOm1o5esxt2Cvgv6yfm5/H7csj2J7WanV5CLtxCj7cZN6WIuzR0zQ2Li7z9iKo/F1ZucXNqABhV7gNp34ymMkqYgy7DQy7c5Vd2A9vQ6vTwm66er/wYa+o6sGJ9wznymUPZjFzYQz+dakin+uwG6bgr4+gKXa75bCHEdicWdhbXh5S9rd2i5tR4cLeqF/1z7Cnh2F3Loa9BNi4ujmiAGGXp4UDRTUVH1X30iFMyKvIGS6kk81eDkTPacfJddj155eILs4TXfQXc8FeRndM6Crb4Zf3PTKAlrSn8AsxFS/9uxjkVHzGGHbnYthLhfniucG1Vm9D0uQ57JlOC+cr7EZ1nQGcuB6dop8KisflNexWif6cTBfP9aLRHbM9AX1d+GCPV7g9uTyHPVunqIoYw24Dw+5c5RV2Ve5vd4uR9n7Gc565u93NzF7YVU048b76HInXm9fDO48re0Xbcyynt7vp68IH4HtctD2VPIbdcN0Gb3ezgWF3Loa99OR2gZoY6eyXxwVqzKyGfRP8e3vQIvgUsap1Y5jRprqnRxOda1+PiTvqmIezF+HP96eRpRN2WTqncPR14Xe2o1K0PaX8hJ0L1GQRw+5cDHuJSrWkbPs10yIgkYVmJh+ZHl/d15Od/Soa0P2K9vWkMTUau9DMvPxhLnK8PjU8JpkaNu7Xg4n3zduVfWTzxsencNTwWqapbuPzG89d35lIGs2q4BTm9eeQx0deS5LNBWpE0g27wsqSsvq68EMYWBm7LZEeNIwYfk4k8oe5yD8rXWeNj19DjWm/mAWQJPonCHZOGB4XfEyw+7lB+1f9OwjDbgPD7lxlHXaZPN2a6ENg9CPtFNp29GdnP0kmHwITOUJPwXwkHj1CT24aI4bXqqjwY+I9eSnZmKvi5cjPzuBiuA91pvFirTtPYOrOXPRNiC6tWYYMZBR2VdIPgUl7XXhZ9Ag9udiP+9WP0FMQzRDxQ2Cyi2F3LoadiJJJf114ygeG3QaG3bkYdiKbMloXnvKBYbeBYXcuhp3InszWhad8YNhtYNidi2EnolLFsNvAsDsXw05EpYpht4Fhdy6GnYhKFcNuA8PuXAw7EZUqht0Ght25GHYiKlUMuw0Mu3Mx7ERUqhh2Gxh252LYiahUMew2MOzOxbATUali2G1g2J2LYSeiUsWw28CwOxfDTkSlimG3gWF3LoadiEoVw24Dw+5cDDsRlSqG3QaG3bkYdiIqVQy7DQy7czHseeBagcWe4v/kr7pn16O1qUq4jYpZNVy1G+DiR8bGYdhtYNidi2FPZhTN5x9hc6zxS1gqHC+wTHqOCXW/rpEzWCIaY9fARcw9fIiHsW6MiMcL9E3OavvNYyrIuGeTxxdI+LGuS3fcj//5kjRvNI9LbAVqDy2o+03eRX29aEz5YthtYNidi2FPZhfqD91Es+6Y9ks4nbCvu4muyC/sm6gVjbGrYwQXr09jWjMzO59m2Htwbjb6hmDuQp9gTLZswsjlGcw+mMW5AdH2bBnBtPb9JJLb71PnRW8wLIU9iF5v/PbFGy5Ff74O3ULb2XTDLr1xnNR/vtLZrzww7DYw7M7FsKdh4031F2g6YXdtx/LXpKN1ab+13w7CJRqTZX0X5tR4pXHE3jo6jblPpX0e3MZEXoI7h4t5Cvv8g3mh2xM9gv2ybOUAhqSj9fA+Hzyi7Sb9WD6ebqCrsXTrPXRKce8av4qaZaIx5Ytht4Fhd66yD7u7Eb17A+huEGyLlUnY0+SWQhDY7YN3iXi7FZmEPX/yHfZpjAi3p8+zdhAHtq6GW7BNrBLtO+Wj9TD8bZWC7bEyCXuaXA3w7ZZatKpGvL3EMOw2MOzOVdZhr2vH4GH1F6+lI6qch116k6FM20oODqClWjQmNYZdls2wu9HYo54nD4dD2LZykWCMwOM+BOR9gr3wirbHyX3Y3W3+yPexx+fFIsGYUsKw28CwO1e5ht29ohcHhtWIhgbb4XGJx5lYDruNi+6WeKUjqpD6yze0Bz6vxYgYWA17ZFyM6VHxeJP6Poy9cxtzD8z7ylPcsxf85rGj06YxSWXtzUiWwu7ySEfd2t/HcAC9K9zicQLenqCyX8DnEW6PZz3staGYny3FfSx/SjzeqGbVAILaz36wvwU1Vn72HYpht4Fhd65yDLtnrR8h+Re1/Eu3p9H61KrlsA+h6fQCOnTaBVGWj/RdNWjpV6MQHg6mPW1qNew9E7dN55z1uKYM+xopmvNaiCWR59Afi33d4Snh6zw0PBbxzlHzvhnLQtjl0zT71Z+T8OFBtNcJxiTiasHAEfnvz492y7ehWQ97TcDw8yVRL9C0FnbZIq8Pe0Lq9xayeeqnmDHsNjDszlVeYXej8cUDWjBD2LYmzfOMmU7FZ7TfInh9e7Q3IOlNm2Y2Fd+Hix+rwU0e9iocfVeN8/yNMayvit1eh5Zn62IeM8r3VLzZ/INZzFwew/ZU9+vXtcMfUsMX3teddvgqtSlv0S1uiWU6Fa/PEFkPu6JaevNxUPsebZz6KWYMuw0Mu3OVTdiNU6oZTnHnN+wq+WI6fdo0tLXV0rRpbsMevTVu9s1Ngu2p5CvsRzEVOxsgX/WvvLbk01mc+6Y47sbTNJlNVXvg2yfvL77FLbE8h12mXEwXPdXQncm/iyLGsNvAsDtXWYTdOKVq58ikAGFXNESnTa0cPeY27BXwX9bPzc/j9uWR1Ee/JvkKu0gVmr45huk59ft8OD+FQzEzDtHTNDYuLvP2Iqj8XVm5xc2oAGFXuA2nfjKYySpiDLsNDLtzlV3YD29Dq9PCbrp6v/Bhr6jqwYn3DOfKZfIU94Ux+Nelinwhw6554Rxmta97OmzeZrr+YnNmYW95eUjZ39otbkaFC3ujftU/w54eht25GPYSYOPq5ogChF2eFg4U1VR8VN1LhzAhryJnuJBONns5gFbBeFURhL1ie9LvNaM7JnSV7fDL+x4ZQEvaU/iFmIqX/l0Mcio+Ywy7czHspcJ88dzgWqu3IWnyHPZMp4XzFXajus4ATlyPTtFPBcXjiiPshzClvRmJPWKPMF0814tGt2CMgL4ufLDHK9yeXJ7Dnq1TVEWMYbeBYXeu8gq7Kve3u8VIez/jOc/c3e5mZi/sqiaceF99jsTrsOthn8eVvaLtudf62gzmla9hBmPPiMco0r7dTV8XPgDf46LtqeQx7IbrNni7mw0Mu3Mx7KUntwvUxEhnvzwuUGNmNeyb4N/bgxbBp4hVrRvDjH4kPJroXPt6TNxRxzycvQh/Pj+NrKoJ21+fjnwS3uykhQ+BSecUjr4u/M52VIq2p5SfsHOBmixi2J2LYS9RqZaUbb9mWgQkstDM5CPT46v7Yj5MJNP9KhrQ/Yr29aQxNRq70Ezktq5PDY9JpoaN+/Vg4n3zdmUf2bzx8SkcNbxW9Ig75vmNC9bcmUCfaR+zquCUdsSsjY+8liRbC9TELIoj019PuZr/TT/qRPsJWVlSVl8XfggDK2O3JdKDhhHDz4lE/jAX+Wel66zx8WuoMe0XswCSRP8Ewc4Jw+OCjwl2Pzdo/6p/B2HYbWDYnauswy6Tp1sTfQiMfqSdQtuO/uzsJ8nkQ2AiR+gpmI/Eo0foycWu3ObHxHvyUrIxV8XLkZ+dwcVwn6Vgtu48gak7c+Z7y2VpzTIkIVrGVlmc5oSFK/fFkn4ITNrrwsuiR+jJxX7cr36EnoJohogfApNdDLtzMexEDlPfgta07q+3J/114SkfGHYbGHbnYtiJbMpoXXjKB4bdBobduRh2InsyWxee8oFht4Fhdy6GnYhKFcNuA8PuXAw7EZUqht0Ght25GHYiKlUMuw0Mu3Mx7ERUqhh2Gxh252LYiahUMew2MOzOxbATUali2G1g2ImIqNgw7DYw7EREVGwYdhsYdiIiKjYMuw0MOxERFRuG3QaGnYiIig3DbgPDTkRExYZht4FhJyKiYsOw28CwExFRsWHYbWDYScTjC2T94yxrQ4+w+Xys+1j+lHg8EZUvht0Ghp3iedEbDEthD6LXK9qeGfc3bqL5kO4u1jPsRJQAw24Dw05xVg5gSDpaD+/zwSPanhWjaGbYiSgBht0Ghr20edYO4sDW1XALtolVon2nfLQehr+tUrA9W9IIu6sBvt3Sv8FVNeLtRFRyGHYbGPZS5UZjj3qePBwOYdvKRYIxAo/7EJD3CfbCK9qeNdbD7m7zR76PPT4vFgnGEFFpYdhtYNhLkMsjHXWH1BgOB9C7wi0eJ+DtCSr7BXwe4fZokG+iVrR9401pm7R9/BKWirZHpDcVX7NqAMFhdSYh2N+CGpd4HBGVBobdBoa9xLgb0btfDWD48CDa6wRjEnG1YOCI/GbAj/ZKwXZFYcIuW+T1YU9I/d5Cu33wLhGPIyLnY9htYNhLSF07/Fr4wvu60w5fpTblnfwWt8KFXVEtvfk4qH2PBwfQUi0YQ0SOx7DbwLCXBveKXhywNVXtgW+fvH+qW9wKHHaZcjFd9FRDt9fi9QNE5BgMuw0Mu/N51voRkiNn5+Iyby+C8nOkvMWtCMKucKOlX70eIDwcwrY1vGKeqJQw7DYw7M4XDXsYgc2Zhb3l5SFl/9S3uBVP2Bv1q/4ZdqKSw7DbwLCXBuNUfGiwHZ50puIr2+GX9z0ygJaU+xVB2OWr/gc5FU9Uyhh2Gxj2EmK6eK4XjW7BGAF9Xfhgj1e43UwP8i3xm4dch9141T8vniMqWQy7DQx7iUn7djd9XfgAfI+LtseKBtnbGLOtWtp2Wt6Wo7A38HY3onLBsNvAsJegdBao0deF39mOStH2OP1YPq7G2xcaxWL9cc8QnnlDi3oOws4FaojKC8NuA8NeqqwsKauvCz+EgZWx2xJbvOUuurSAd721gI7TC+p/Ty5g5e6bWCsM+xCapHHyWJ3+HJ0ThsdHzmCJab8KuJ8btH/VPxE5CsNuA8Ne2pJ+CEzG68LXYWnXTbSeVcO8efIR1h+7Bs+Tdah46hLahGHXj9BTEB3p80NgiMoOw24Dw16+Uq8LT0RUGAy7DQx7mbK0LjwRUWEw7DYw7OXJ2rrwRESFwbDbwLATEVGxYdhtYNiJiKjYMOw2MOxERFRsGHYbGHYiIio2DLsNDDsRERUbht0Ghp2IiIoNw24Dw0dERMWGYbeBYSciomLDsNvAsBMRUbFh2G1g2ImIqNgw7DYw7EREVGwYdhsYdiIiKjYMuw0MOxERFRuG3QaGvYi5VmCxh5++RkTlh2G3gWHPXMvLQ8pHnwZ8HuF2sX4sH3+EzefvY/lTou2aZaNonpDHPULXyBksEY0hIipRDLsNDHuGKtvhHw4jPOxHe6Vge0IWw77uJrqkqMth33z+JmpFY4iIShTDbgPDnhmPL6AcrQ+9nO5UucWwu7Zj+WvS0boU9rXfDsIlGkNEVKIYdhvKPuzuRvTuDaC7QbAtIS96g9LRejiIXq9oezIWw54n7pUDCOz2wbtEvJ2IqBAYdhvKOux17Rg8LAdass8Hj2iMiBTDIXmfne2oFG1PqpjCLr2pUd6gSA4OoKVaNIaIKP8YdhvKNezuFb04IJ8jl6IWGmyHxyUeF68S7Tvl/YYwsFK03eDJUSwP3UPHW/q58kfonFhA52SisI+iOXJe3WD8EpaaxumqUfPKgjomfDLxdP1G7Xz92Wuoif0+l3jh2x1S4x7aA593kXk7EVEBMOw2lGPYPWv9CMkhkwR6GuEWjEnocR8C8r7BXnhF2xXVWLLlFnx6mCcX0HFaMqGeM1eDLQr7EJrkcbqz2tiEYZc8fw2dyvPdQ0O9YHvFCjwxrD5P5ytDgu0SVw1a+oNq3IeDGFhVIx5HRJQnDLsN5RV2NxpfPKAFLIRta9IPmLdHDWDSW9xWXsV6JbYLWNXbb95WuQtPvyFvszAVLx1ppwx7xS54T6nhbtsR81oyzxmsUb6W+/A2x2wzWQSvb4/2hieEPT4vFgnHERHlHsNuQ9mE3eVB+06bU86uFgwckd8UJLvFLXqEvH73PsH2NM6xWwp7BZYM3FPHnboaN/sQ2Tb2tqV74eWL6YL6KYqtrfFT90REecCw21AWYZevfN+vxsrORWKVbX7lOZLf4jaKZu0curdRtD37Ya9Y9jpWKa+5gGeeN26LHs2v2rzC8HgKDT7sCWl/Xvu6ecU8EeUdw25D2YX98Da0ZhR2D3z75OdIcYvbU5fQJsc44aIyOQi74SI603n0Zu2UgOiiuWRMdwsw7ESUfwy7DWU5FT8cQO8Kt3hcIt5eBJXQpbgtriBhl+gX0U3ewhPL1Mdq9mux3x+MH5+AfLdAgFPxRFRgDLsN5Xzx3OBa62u86+vC+9sqhdsjIher3UW9R7DdtQ9Np3MQ9thpd9cQnlGuqk910VxU9G4BXjxHRIXFsNtQXmFXpX27m74u/JEBtKQ8gg1qQX2E5o3VMdtaURvS7jvPetgNF8qFT2KxtK9ya52li+bcvN2NiIoKw25DOYZdls4CNfq68MEer3B7rKqAFu/xq6jSz+dX9qN+WH58AT7lU9uyH/boRXR3sSos/6+Fi+a4QA0RFSGG3YZyDbvC0pKy+rrwAfgeF20XqI5+5OpmKbTyYjPqanOP0Lp1Ozwh+f8Lwt5+Lbo4jXGBGu05dKv7esz7RRhWopOlvGiuAd2vaN8/l5QloiLCsNtQ1mGXpfoQmEzXhfcM4elj9yNB943dQsOaDcq22kRh14/QUxAuRKOT3hyoK9FJbwaE99Gb8UNgiKgYMew2lH3Yk0pjXXgiIsoaht0Ghj0JS+vCExFRtjHsNjDsiVlaF56IiLKOYbeBYSciomLDsNvAsBMRUbFh2G1g2ImIqNgw7DYw7EREVGwYdhsYdiIiKjYMuw0MOxERFZuch/3JJ59EfX29cFsyTU9/FXvWfxU7nhZvJyIionhFFfa2F7+Me//+N/jj//0T4OcG//cv8dsf/T3OtYv3IyIiIlWRhP0xnLvwN+aYC/0FfnP6K2gTPgcREREVQdgfw4+mviCIeCJ/it+/+RU0CZ+LiIiovBU87P3/+kVBvFP5Aj4/+pjw+YiIiMpZYcNe9U94+LEo3Bb87H/iuOg5iYiIylhBw77lWCZH67q/wCe74p+TiIionBU07Oeu/rkg2Nb9/sw/C5+XLKregMXLqsXbiIjIkQoa9h9NiYNt1R8vfUX4vCVB/zzzIwNocQm2JzSK5vOPsPn8TdQKt6uWbr2HLnnc5AKanmfciYhKRUHD/h//Lg62VaUcdv3zzIM9XuH2xKyEvQfLj8tjVG07+gVjiIjIiTgVX4xcLRg4Ih2thwPwPS7YnpS1I/bFG29i/eQjdJ2+i/qnxGOIiMh5Chr2puCXhMG25i/xyY745yw27hW9COztRkMa0+mVbX7laD28sx2Vgu3JWQt7Xrga4NsdwMCqGvF2IiLKuoKGvaLiK/jkZ6JoW/DTf8BB4XMWD8/aQYSG5SPvMAI+j3BMPA98++R9guj1iranUjxhd+tvUMIh7PF5sUgwhoiIsqvAYZeO2g98CX8UhTupv8a9AfHzFQc3Gl88oEZtOITBtVajLvH2Iijvt88Hj2h7RDUWN59E07H78E1Gz5f7Ti+oF8UJwr50x/3IOKPmjeZxEfVvo1UZs4CnVwq2K/qxfFx9ntaBTXHba1YNIKi9uQn2t6AmrQsBiYgoXQUPu+zov34xjbh/AZ+/WsSrzrk8aN8Z0qIeQO8Kt3hcAi0vDyn7+tsqhdtVrajarV3VLul6awEdUtA7zkZjLQr7kr676jhNp/aGIGHYKzag/jV1TOcrQ4LtkuarWK+83j001Au2SxZ5fdgTUuMe2u2Dd4l4HBER2VcUYZeNTv6VIOKxinydeHcjeverAQsf3obWasGYZCrb4ZePblPc4rZ4y13tVrV7eHrNBvP2ZSexKkHYzaJH2onDXgHX5lvaa0nPJ/iaavYvKM/RNfw6XDHbTKpbMHBQ+7M5KH1/6f7ZEBGRJUUTdkvLyxbzMrJ1UpRtHpV6fAFl/+S3uO2C95Qa5FVbWgXbrZ5jtxb2CtcQntFmAlZtXpFg2wKeabdwL7xyMV10NqPbu0g8joiIMlY8YZekuv3tt6e/Ktyv0OQr3w/YPo/sRW9Qfo4Ut7g1vI02Jdy34BG+TpbDLnH7tXPzr53BYsPjkaP5U1fhNjyenBst/eo9+vL1B9vW8Ip5IqJsKqqwHz3z10rAf/+m+f50dYW6P8fDA+bxxcIY9tDW1szCvnIAQ3LsUt3itvGmGtnxS1gq2p6DsEcvojOeR1+BJ4bV/UUXzSXmRmOPOjPBsBMRZV9Rhb3iVfW+dnHY/wr3XjKMLTaGqfjwvl40ugVjEqpE+0553yEMJLz6XFOIsBsuolvv36U+5jmDNcrr3EW9J3Z8AvKFhYOciiciyiWGPZtMF88Nor1OMEZEXxc+2AuvaLvR89fQKQf17DXUiLZXn8TqrIc9ftp9ycA9Zd+UF83pjH82vHiOiChnGPZsy+B2N31deEuL2ESOlO9jeexSsK7thjXgsxt244VyT6/U97V40VwDb3cjIsqX4gr7UW2J2Zt/h/8Y+UfNP+DhXTnsf417WwT7FKU0FqjR14Uf9qO9UrA9zgbUj6hB7gyfxBL9fL4niKflqE8uwKcEOMthl+gX0XWE76oX8Fm4aI4L1BAR5Vdxhb3qK7h3+0/VuMf449SX0S/ap4hZWVJWXxd+6OUW4Xahxkto01ebk0IuLzaj3mu+IEV6nxbs2LD3oGEkujiNcYGarrPGxxNM8csiF9GpUl00535O+v7lNzdcUpaIKG+KK+yyqscwekA/Wtcc+Ge0icY6QPIPgbGxLnzzSawc04P+COuPXYPnyTppm34kHhv26BF6csmO9DehYUwfdxdPLBONMeCHwBAR5V3xhb2cWF4XnoiIyBqGvYCsrQtPRERkHcNeKBbXhSciIkoHw05ERFRCch72QCCAgYEB4TYiIiLKLoadiIiohDDsREREJYRhJyIiKiEMOxERUQlh2ImIiEpIzsP+ta99jYiIiPKEYSciIiohDDsREVEJyWvYRduJiIgoexh2IiKiEsKwExERlRCGnYiIqITkL+zf+gp+/4s/AX7xZ/jj3N/i4dhX0SQYT0RERJnLX9i7/xc+mf4SPv/wL6W4y4H/U/z+/D8L9yEiIqLMFGQqvu3A/8Aflbh/CT+qjt+HiIiIMlOgc+xfxd0P5bD/OR5+xzyeiIiIMlewi+d+9J4c9j/B5981jyciIqLMMexEREQlhGEnIiIqIQw7ERFRCSlY2M/9+58rYf/NG4+ZHiciIqLMFSzsW773RSXs+PjvMMpb3oiIiLKiYGGvqHgMP5r+CzXuD/8Sv535Ej7/ty9jj2kMERERpaOAYa9A/4G/x+dz/58ad9mcdPQeM4aIiIisK1zYX/47de34T7+ImcHH0GbcRkRERBkpWNhP/0idhv/t2a+aHiciIqLMFSzsvN2NiIgo+xh2IiKiEsKwExERlRCGnYiIqIQw7ERERCWkQGF/DDN35LD/KT4fMY8nIiKizBUk7E3btHvYf/FFzDTH70NERESZyV/Yu/8XPpn+Ej7/8C+VKXj5aP33V76CJsE+RERElJn8hf1bX9GO0v8Mf5z7Wzz83j9ztTkiIqIsK9jFc0RERJR9eQ07ERER5RbDTkREVEIYdiIiohKS87ATERFR/jDsREREJYRhJyIiKiEMOxERUcmowP8PoX/COfMRzGkAAAAASUVORK5CYII=;" parent="1" vertex="1">
          <mxGeometry x="50" y="30" width="219.17" height="210" as="geometry" />
        </mxCell>
        <mxCell id="oqc9B1S6U0OL1mSsrtgY-5" style="edgeStyle=orthogonalEdgeStyle;rounded=0;orthogonalLoop=1;jettySize=auto;html=1;entryX=0.002;entryY=0.216;entryDx=0;entryDy=0;entryPerimeter=0;" parent="1" source="oqc9B1S6U0OL1mSsrtgY-2" target="oqc9B1S6U0OL1mSsrtgY-4" edge="1">
          <mxGeometry relative="1" as="geometry">
            <mxPoint x="410" y="425" as="targetPoint" />
          </mxGeometry>
        </mxCell>
        <mxCell id="oqc9B1S6U0OL1mSsrtgY-2" value="" style="shape=image;verticalLabelPosition=bottom;labelBackgroundColor=default;verticalAlign=top;aspect=fixed;imageAspect=0;image=data:image/png,iVBORw0KGgoAAAANSUhEUgAAA1QAAAJJCAYAAACtXnasAAAAAXNSR0IArs4c6QAAAARnQU1BAACxjwv8YQUAAAAJcEhZcwAAEnQAABJ0Ad5mH3gAANzESURBVHhe7P1bcFTXoSf+n6pzas7858yk8puTmSS+yFg2cNToAAPBxghBTLAF5qJgIFxkEHcw4qIIMBehI0BCIyMZCSESAVYhRoUwQRlZONDUwaLCtIhVsqWSS1SfAvNC3sgTecJP+f73Ze1rr1bftlpq9ffhU4n3Wqv31t5teX21LvvvMjIyQERERERERLFjoCIiIiIiIooTAxUREREREVGcGKiIiIiIiIjixEBFREREREQUJwYqIiIiIiKiODFQERERERERxYmBioiIiIiIKE4MVKPR628jM3u2vCzd+V7C53/4L/ju5MvycuHU//mv+MunLyBHUjbcdn/0I3z3p/8M/Mffab47Ka9HRERERKlv5APV5IP42ZH7yP9NEL/6VLgwgPwT5/CarP5YN/MiFl7Q70N+8UF5nbT1Mj77wz/qQeVPP0KFtI7ig/+BvzxQw8w/JD1UFZ78Ib7XgtQ/4Ps//QDfdf4Q/p3yukRERESU+kY2UM1qMcPDr5T/zW9QgpRimXqstgXjZW1SwdQKvHVMCYlVF2P+GV7bdN8Klql8D6TycX3wd3j8WBc4M0lSJ7yKS/8kwtQ/o8Inr2PI2fLP+KsWbP4x4miWd36CB98m+5xERERENJJGMFAtxbQTenBY9m91GP+6q/z1Kc5/TiW//CL+QOSrQG690vbCAOavLZTXSVUlZQiKMKW5V4RcWT2JnMPGyM8P4M+T13ErrP6BHsC+/QE+j7JNQjaKENejBD5ZORERERGNOSMYqCowRxuJ6cWbs2TlKSyRQDWG7W+/rAWp4FdNIlidRcNceV0H3wvo+1oNU3+PP5+OZeTnZXzu/096qPrDj7FaWsdDJ39onktaTkRERERjzigIVLcxeZysPIUxUEkY0/0u43qJNfUvmml/B37z3/SgEs/Iz6/+B/6itv2P/x/6hnstEwMVERERUdoZBYHqC2RLy21mtmDhEAFl/LZePcAcqXCWGe2041MwfsUXyDM2v7gQxJLKNmRP9jnbOPiQOacOOZW9+rou0S6/+jZ+9u5SR93sI6I8CnN+aT+HwrhON/fPI6X+XG2YVz2AFUa7CwNYVPl7TH5DNm1S3HftXio/37stmFcfNNsuU362aXOGYbqlMd0vWIUjyj8fudGmT/u7uy3CtD/b6FRNfOuSLv9fMUr1f38yvBtUMFARERERpZ0kBqoy5IhNJwxmJ951XDV//RqrbaKB6kQbZpwYMMOG+vnvGwGpUQl0E2xtTHnI/sgZUrRrazTChzMITiq2rt3csVANX8Yxm5z37OdR/Owc5tvrNIn2kQLVuK2YZvxcivcb9fbmz/apeh+3utqJQNXwBd4s6dV/FnGdVmi8jxkz7W0SZ073u6E/V191jR6oHtehdqhpf8X/XV879e0PcTnCRhRhHRZB5z9+iM/i/YxoMFARERERpZ0kBipjRCo6C7fZNmRINFAZn7nrIDKN6YWTP8bPRfCZt9r9zief8pn3RdgYwM/dm0NM2IrsneeQZT9ml+CUv7A/j4MPk0pEmGq8jWn20ahxS5G1S1z/p72ucOR8Do4NQV4vwpu1+vH8Xb+2tUmUNcXPX52pH/Ntgl8LVL9D1+nw0/6Ofip29vP/OIHRpZ/gOy1Q/Sc8OCwr9wgDFREREVHaSY8pf4qF29wjNRmYuEsPJO+XuN73NOFjzNNGa5Qw9X6esywayQhUk8/hXe1n68VbP5dNW8zD1GP6z+78+axAtUz5/ExHmwyMW31XP3fVuZCyuJm7+9WgyhwhmoSGe3qgGmra32d/UIPQ3+Gvl16UlkfnJdz9o/45f/nNS5JyLxgbYMQ/NZGIiIiIUk96BKrTsbUzQ0VDGybajkctCYHKvMYhziGvY9z3MJuBDMOGGsZ0P/c26blnzurHHUHL7kXc79GD0HcnZeXR8yaYhTp19of4rvMH+Ou3/6CFqe/9/xNHh3NaIRERERGNKukRqGJsF02gGVISAlVU1zirBYvUOo57HOG+ex6ohtjRb9leBLRAZZsK6DD6A5XxuZqv/xv6ql8a3o0viIiIiGhUYaCStBszgernbchX61wYwUBlTvdrwvll7vK3cOkrPVA9vr0JPkeZavQHKsOB4h/hz9+q5/hHfHeCU/6IiIiI0kVqBaoYp+7FG6he23Q/sVCRhECVuT7yWidzyt+pi3jNPJ7cQGVO94tIPu3vc78XQSgZa6gysPr0D7RzoPMn0nIiIiIiGntSK1DJ1v3Muog8Y7tvjwKVObITdsOHCBZ/oe+wF+carKhGn+a0YYm4RvkW58sxrUotd+2YmNRAZU33i4Zs2l/F//kvekhJcJe/B9ro0X9GX7Gs3CPGLn9/+hGOysqJiIiIaMxJjUA1TqkrQpNjt745FzG/UT8uDSDxBipbGPlV413McL3EN+K26eYOfMr17iiS1xlCVIHKdo0rTv8e2VOd26ZnG++YCnnPVhID1a4yDGhhqQmXVknKNfNwpU8PVOo7qkKm/XnxDikv3mUVDSNQ9fwzKmTlRERERDTmpEagyvBh4i4RMhQrfjNgvWD3wn28WSymtnkWqBQ+5foa9PNpIrzY18n2jih7W8H9Yt/X1t91lJsv9o3QTrtGW6AMebGv+oLeWe4RtuQFqj3XxHS/r/ZjpaTcsLK5Sa8XrMKxkMDzAvr61UAV/3bkl/+vup258hn/9yfDu2EEAxURERFR2kmRQKVQX1a77TaW2MJG3pGLyJqsBAYjBHgZqFTqOTd8gXdPD4gQpZ93UeXvMW2Oa9QqRB4mrv29s60w55fOuuZ1ROBup3m9ENnKfckzg54aOHvxbvHHGD9BNl0xWYFqEa4P6CNPQ724V2Pu9teGzvLQaX8Hzv9XPah8/d9xylUWUd7/xJ/Vtv/xX3B/o6TcSwxURERERGlnBAMVUZR8xhqov49xU4mX8VnnP2oh5/vhHp1SMVARERERpR0GKkoJq0/8UF8H9R//hPtbQstlCpWAY6yd+ixPXsdTW/4Zf2WgIiIiIkorDFSUMiou/ZM+AhRFQMoxws1//CMeHJbX8Zzvx/hOnPO7k3wXFREREVE6YKCiFPIyPvuDPoUPgSG2Jl/yY/Mlu38+/dLwT/WzqfhUhL7/+Ad8/8cf4LvOH8K/U16XiIiIiFIfAxWlFt9L8Pv/KcII0Mu4/H//K/78mxeSGqYMR6v/P/ylRwQ/xXcn5fWIiIiIKPUxUBEREREREcWJgYqIiIiIiChODFRERERERERxYqAiIiIiIiKKU9IC1c9//nO89dZb0jIiIiIiIqJUxEBFREREREQUJwYqIiIiIiKiODFQERERERERxYmBioiIiIiIKE4MVERERERERHFioCIiIiIiIooTAxUREaUxH/JzvkD/ygoskJaPsNdex+JJryJLVpbO3vgcL/7vv+KnzcCPLwE/3VEhr0dElAQMVEREo9Ym+B//Do/d+g5jo7Q+xWrBzC/woDiIR3vvo3mSvE7G4gL0nzmkaV+sH9u9tVgcK0DlOFf9iLJxsUJtuxMXZ8jKhRkL0VWnn7fnwxnDFKqMa1FULMQH6rHxb8Mvft7ApmxJmxE2674ZpH5y9i944dB3eDF/t7wuEVESMFCNAW/N+t+4UnILf9x+UFqeTt5ofYZPH/8tVPAZKm92IW9pjrRdajmA/GtPUD34FJs3y8opepOw/0IVAn1t8FfLyr1TdVsSjFxCr2ERzt+sgt/QfVmvy0CleAtV1+rQO9iES3H+e+DLbkHPXj1MtWb7pHU081eiRwsYJbg6Xz/2wYadeghRAlW5u35E0QWqVR9sF+dQGGHHcxNQXybOUTYfi7VjOWgX5w1sGG2Bajde+pijUkQ0ujBQjQFr1t7C/ao/4v5OBip7oGocfC7Yw9UzFJWkeqi6ilLxs2xnoErQPFzpCxdmvGUGqodtCA5eluo8IW9rqq5hoDIZo3fNuBLPvwevHMTnO5UwVRzE/8vNk9cxzFiIgBYwrACUjECVkaUEm6oD6K8rhn/l8AWb8hI9PPWbvxtHc6D6DC8qYerHl/6Ml2IeGSQiGh4MVGMAA5XFDFR93XjDXrb0PIp6Raga+AZz7WUph4HKO8kPVAOt86TlUWGgskkkUPmwb3GvFqYeramLvHZKEqiylohpgHGNHEUZqJIkNFAp11epHzOmOI4aM+/jp2qgqruPl2XlREQjgIFqDGCgsoQNVKrSQTRpQeQpCpe5ylIKA5V3GKhSVwKBauI5/D91ql9xL1rDrZuyy54v1hRtQX22OGasqxoDgWpfUYn2s/QUzRDHjOtjoCIiigYDlacO4ooabA6fwRrln/9l0i7U7ezEHyuVY+rxo9dxYf4C/EtIO9W/YOFbx9FSooQjo37FHdzcWYu9k/7FVXcVzh0WdSK6hXPT7W3FNVZdxhHHZwp5l/V24mewlx3Zafu8cQuwd2Ubbh4X56m4hY51JVjonoIx/Qz+XS3Xwt6/Ys17l602ys/57yW/wf6Qny9+Qwaqzd2oFUFk8zpXmSYHk/feQnH3MxG8FA+fo/rOUGuvcjBhWwsKtTVNz/U2ol199yAKdhVK2thMP4r81kdKW9FOpa736ujAG/bnVv3IKo/k9lXnORKWify9RejsbkbwoR4KHj9uQ7C3BpcOzYAvpL7o6IpOv2/pCly602S1HTiL6ydk7VTGucRaIdXDNvTe2Y8jSzMl9fU2udvW4Ly2nqbN0W6g+zgadk111t98GANGnUjCBZfp81DVWoPeoFU32HcWnafnYaqsvmIkAtXUDetwxX7vxT2p3TAxpO7G1malTh1qfVNxrEP9/2r9ZnSWK/fPl4fzd8UzGajD+W2SZ+GbgT2NxxEYsD2DwSZ0Na9Avs9VV2P/nijP/dBhdNnaqt+vhl2u6zR+/mjc3uRsa7P7PTE6tepjzJaUhzKmwNmm90UZqKb8LAcXS7aj5xM9oGhOFaNf22xCEqjM0TCXcFOVx83E1Vq9jn/5q/I6CmMUqmfXzJDNLYzpi9b0PgYqIqJYMFB5ygor5TNqcdMIRuV38McK8f+r7qDlbXeA+BcU/qrTDBk3917Gle1t6Dgq2lR24twMe5v3cerXymf+m2B8dqXtmOk6Tk21nyvRQPVHXFm4DnUfiXMqoe+P5eL/K/64eZczMBqB6te/wTnlmrV64jrN4FiuXMt4W5sEDBWofI1P9TLplL8czGoR5Yrau49w8OYjVA6IkKKOBm2TdWiM0SKdsW7LDGSPn6O0Okyo2taN6odW2yajrThW22pbcH1i0PxslbuNQ0eL8zwJmYqqm85wo6/3MTq+NagKaWOMHNSgdtt+9BqdebWdLZB1lro75ZnY0dJklvfeVTdiqFM66EabZlyRdeTN8+ntnNenH/NX20LVur0IiDVLjnpB45jNvb0ocJxLsUA536Boo4TDLnWziLsigCiCSkdeNoUs2YFqgVI3KK5poLtO29Siq9f4eV33RKEHqmZcbz+r1THvTfd+1N5Q/79yb40AeXcbcm1t1cB16StRpoQw7Z7cOYsB43n3HsaOkFAlnttgFa7cML5j4vmZ35Nm54YTJ47bno/t2ZnHbDrW2M5l92tc266OTg3g8xlDbEThgVXL14vNLBR1JeipLkbPqQP6P2skgWrafOXZKPUMRhAbYu2nMcLUX56HZZLyjPFzcEMLcCW4+q6kPJUwUBHRKMRA5SkjrKihQQ0K11H31r+KsnlKIBGBYu9xvGVr99b8y/ij1sYdnP4VWwpE0Cr/FHvDLMCNbcpf4oFKD0J30LFyEyaLsl8o7bSfoeo6Ku3hyAhUws31u8xRrH+ZdBS/E6NVHUtnWm0SIA1U0wsx6/Qj1GshRB5wJpx8hEat3B2cFmJum/jM4CDyQjqF51HYcQu/WLvaeXz6URTc00OPNMAtUIJYUJR/9Y1rBGwhJpfcwuaao7Zjdsma8qcEHK2TrXZaL6Or0Tn64pudh6prRZLvkT3gKIJncckcaVAC2m3REb5X5OiU5540AoA7OE3EnjZxHcEqHAl5BitwqaMI+9dOco56TZ+H8/fEuQbKsMdeZop1yt88XOrV67uDk2+p8nOLwBG4EPq7LqmBarMSZNV6IcEpE/k1xn1uwvlVVhs9UOnX2Nuap9zLPP3eBJWQY3zO3CIE1DrqczA/c5ISusV9dgen6YtwxbhfN9a4RiWd35Pg3SJsNEZllXbXxXMJtufb2tgZ7WOc8ue7iB51dKr4NmpekZR7JCs3X4w0leDGSh+m2Mtfm4IWbY1S5Cl/5uYXQ22mk2OcS/55i9ds0T+jKh87XGUph4GKiEYhBipP2QJVeRsqp7pGomb9RgQne5hZYo723Fy5xFlfswkXxEjVlTz51LikByolTP1u6fuuqYvbceHf9PIrYlthjS1Q3Vy7LmS644fr9ZCpjmzZj8fLDFQyD5+h+ITsXSUHUPiVXqe6+YCk/BSKxEhVafUQnRq3bd0ixD1Cvqts7jUxyqQEv1nS6VBDSVKgmrsNXVqHtQ1dNc7RjKHZOsrBOjSsdY0qlZSJDr19dOstc4Sjt1n2e0LpYIuRKn+1bJQqjG3G9D7ZSJoqtkDlK6/Sr10JFMckzy33dJ32WbLAYwSq8Lv8ncV56VRUm6gCVSaOaSNKshCjmoTau/q12MOdGaiU8Llf+9mse2ONSBnP1nY/VxnhrQmXbAHNtKvMegaOe2Z9T2Sjerln9JGyx917Q/790cUZqGZ+oU/329yCDbJyT7yKyo/UgHMIga3TJO+Pin4NVVSBKmMCzpWL822eErasa+0EV1mqycHLO/+qb5m+65SknIhoZDBQecoIK3dwIVcSfsxwYQszk/43OrRj13EqzOLoI9v1QPLH9dul5ckOVH/ctF2yDsxa13Ulz3bc+JlLz6DQUV/n9YYaZqAKPkPpzUc4eNdYD/UM+8rDTL1b1oVqrU74zSreu6mW/w2N7Q3Scjkj+LgDVQOKxJqpY2dcI1tRSU6gMju0g0oHW1IentHRvYzrByThx1zDZOuUL9urj3yooyZhnkHVTbV8qBELGUkAcIgtUB2xBRVZecY6I1ycRcNcZ5kZqMKKIhhEFajWoFMbKVOnVcrKM1DQIsKTbZTQCFSBM5NEPePeKM+xxGgbej/zL4hpmmGDzzrr+2B+jsr4LHXdlv24EPFnjS9QbXhXrJ9aOZzvMJqJdm2K3S5cfFNW7nWgysCsZev1erUrsc9eZoxe1a13zh5IJfl9ePHQd3jhLPATJUz9pKYPL8f8hygiouHDQOUpI6y4N4IYghmybqFju7p2KtTvDoqpgmFCR7ID1b+vXeU4PiTj55N8nmrYApV9yt82YzOKJ1i1wFlfY25W8RyVagiTKDW2XJdu+JCDCWsbkN/YjWJHu6dhRqgSDUTJCVTmiMUQi/vl4ujomiHrMgLGS2xdzPU/0uvJRO7afFQ1Hkano91ZT0eojFAU7NXXJIUyzhf6sydvyp9x/9XNPGTXqJC8INh43tZ9MO6N/WcJDVTWyNZZ+blu1pmbdzjvcehnOaRyoDI3lgj3jirvA5W1OYVzndSOzbu09rLNKFLFyzv0USnN+b/ixU3npfWIiEYKA5WnEglUUWCgiki+KUUO5rbrU+zqZSNMZqCKgjtQLTiPIjFdMDwGqohi2XnPfT0LVuD6V5J6Dt4GqshGQ6CKgpeBKgoMVIZhCFQKc3OKj+ZglnZshhWy7FOxU5Ly88/6DC9+ogern24ZzhFGIqLYMFB5Ko5ANbUWN7U2bSiP863v8QWqMOcbk4FKscqY1icZpVpnjWAtj2kayWqsuqu2U/QOIv/DQmQ6yo3gExqoDmrHY1yTZUpOoDKnhQ3ZeZeJo6NrTpULM/0rLGs90OPe46j6cKpr2/IInfZYA5WYdjjQlictH0ryApUxxU65/9tk5XLxBirze3JnU5it8MMZmUDly7k9/GuoZO+tshs3DS3V3gcq9/S+rHdX6rsMjoXNKAxv9+mbUnzCTSmIaPRgoPJUHIHK3MzhDq7kxbfT3Qpjy3XX7oFytmt0/4f8X5QysbHEmAtUtvATOkplrWkqrY5lTZMRbJ6jyLE2RJjegWNauTtQKddi7AB471aMnVCVEcjCnHcoWWvwyY0ePHjwAA8C13F0qC2Uzc0j1LUvMWwEEVdHNx/Xta3I1d3kjDU80TDO5V6fI0w3NtYIH6iMXfustUPhmevKYg6ZyQxUk9BwL/ZzxRuozO9JUDnmWjc2tEQDVbi1WRFkt6BfDVTDusufMTIke4/T6ygvESNJXgcq2wYU/uXqefT/P7ybUeShuNmPnq974G8uRp60joeMXf6av2OgIqJRg4HKU/EEKiVUmO+g6sSFt5eYW5Hr/gVvTd6Oyk212Os4bvP2p2LLciWULQz34mCDtXnEH5UQ8wtx/F8mlaClVD+uGXOBSlHyjVjTFDpK9UaLaPfwKYpKD7hGmvQ1UgUdXeb90lkjTZUXbFuc+1Zr27TXmu+YcgcqRemg2KZdCXg3XS/xjbht+m4UdovP7u3G3Bi+axnHOvUwJfS07pTX07yF891qh1XtLJ/FFddLfCNvmx7byMFGY6TjYROul77lGmnS10g1dOx3nc/oVKtbleda1+ebhB2nq6z3IIUNVMr3Wmw0oQaC2rAvDxbmKucT64GCd4qwY7ar/vSp2HHyMK7UhAaZ5AUq+xb06nb3ech1jfpNfWcRqlrLUGvbVTDuQGULpY+/KsORFa6X8SrPoqCkCJ3NK5zHEw5Utu9n72Hsifrfg4P4vEgNVEHcmjl876Ha96EITRXvY3eWOP6aD6c+Uo+XoOfUcAQq2+YUR9bDr26MMdybURScR8D2O8X/cTyj7jEwAtWl7/CSrJyIaAQwUHkqvkCVMe59VO4WG0+oKpWwY7yY13j5rWOrdbclOLVf1FOpL9sN+2LfDPxi6fWQuvo57uB36y+HDUApH6hs26OHjFL5jmLVXeuFuSrjRbnGi3bVYPSevY0StPJu2NoERX3jnwefoV5715QkUClt7S8SVg35Yl83WyCzt9UM9WJfV6DqbyuW1zPYX2KriunFvrEFqgxfLhruGp+rsm0vHjYYZVqBSKW9nNf2z4PNGNACUPhAlbHK2GHQaCPOqZK82HfBgTIxPVEwXwhsnbe3JXygCr9t+mV0nnC2cb7IViHCnOPeKAIX3Oebiv3tIqAKZn37S3M9CVRKuF5bhC7z2hQh3xPFzXVm/aE+yxRFePSVim3sBfNnVIV9sa8SdhYP6NP+Vn2M2ZJyT2TloF0LTWqoOaC9pLdf2/nvALo+yEalNnoUGqhWrdlovdTX/mJf48XAQtgX9JqbU+iGfTOK3Gr47b9T2j+S1/MKAxURjUIMVJ6KM1Bp/hVr3j2D331kC1GKP5Zex5W1B1E4Xv4OKpMSyvavbcPNcqutTnYtyrneu4yb4qW6aoD795JPUT7tX4cMQKkfqDIw4fQTEUJkO/4txBsnu1Haaw9RSljpe4qDrVcxa7bkL6++3chrfoRq4yW9an0lSJU2t2Dy9Aps71OPyQKVLnNDB4ruPkOj/Xxqe+V8zlGrUL5dt1Dc/cxxrRrpToRCLFP+DL4ZONJchUCfrXOsdJgHuo+jYa9z1EoXZ6DSTMTGk4fR1Wvv+Csd5b6z8LeuCx0RUmnXV2PuJKcZbEJX8xqsnG6EgiEClcK3dh2u3GlynFMTpjPvW7oIDR1nMWAPDMo96b1bhoYS9+iazgxUQwhZx2WEigjko16ZyN9bhM7uZufPpd6ba0XY7xpJSiRQaZR7XdWqPAfXPRnorsKVk6GjZF4EKtWCXZKfUTXUZioTjZf79uLav0rKPZKVPRMtpbvMINVTXoBzv5igBRx9Ol5ooDJHpCIInUpoObzLmFJYjJZceR0v5VX50W+Eqo4T0jqeYaAiolGIgYqIiNKMD4d/KUap1p3DSmkdilqWNUr1ZS2n/BFR+mGgIiKi9JNZgVs79bVUPe9ujWNzGNJNwc6WgD461X8dHxnrxYbLuM/xghao/oyX4twZl4jIawxURESUlnzZLejZq4aqAdyaGftW+Gntw0Z0dvgR6BdT/fq/ROPmLHldT1XgpTo1UAE/3cF3URHR6MBARUREaWvBzC/wQJ36t/c+mmN6B1qaqxAb3HwdgL/5BNZPk9QZLku+E9P+gJ988me8eOg7vJi/W16XiCgJGKiIiCiN+bA29zZ63q/AAmk5jUrv3MWLNd/jJ80crSKikcdARUREREREFCcGKiIiIiIiojgxUBEREREREcWJgYqIiIiIiChODFQeYFgkIiIiIkpPDFQeYKAiIiIiIkpPDFQeYKAiIiIiIkpPDFQeYKAiIiIiIkpPDFQeYKAiIiIiIkpPDFQeYKAiIiIiIkpPDFQeYKAiIiIiIkpPDFQeYKAiSl+zJk3Az1+TlxEREdHYx0DlAQaqoeXf/hs+fez2DNs3y+tT+vpgw070nzmk2ImLM9Rjr+LUIfWfFZVLsEnSZuS8ivI9Jfq11W1E/VRZHQ8sLhD35BDaF+vHdm8tFscKUDnOVZ+IiIiSioHKAwxUQ5v720c4eNPwFPVjJFC90frMDIjVzQekdYwwWVodWkahFq/ZIoLCFtRn68fKS/Qw0V+xEB+46o+smWivE9dmCzuem78SPdo5SnB1vn7MCp4FKHfXJyIioqRioPIAA1UsrqJ0DAaqTwe+wVxJHQaqGJmjMVZQGL2BKgObPlACoBqqKvKxb7y8TsJmLERAuyfGqB0DFRER0WjCQOUBBqpYjL1AVf/VUzQp/3vs9OqQOgxUMZIEqk2bdunHSnJC66cDSaDKWiLu0ygMmUREROmGgcoDDFSxGHuBqra1C/uCys/0VRemueowUMXImN5WuxL7xDFzNCZdA1X2fPi1QGVNgzSDJwMVERHRiGOg8kDaBaqlDSjoeIp6NURo4ehvaBp8htLm85jsk9R3iD5QZa5owPLWR6jse66NABnnaux9hO0njkrbGDI3dKC4+xkaH1rtPn34HI3KdW7fJW+TkZGDyYe6UNqrnM/dru8Rli9z1rcCVQXmXnuu/P/nKHJ9dthA5VuNWaVdKLqrXKPtPn4afIbKjluYtcBVX9y3+rYKZGzrwrEBvX7jvS7MUu65r3wQteKaazta4HO0FaYfRb5yP6vtz63vKYpPH0WmrL6drwKbv4rw+V4wRmNsQSF8oMrGxQrl+P45yMqaiavHD4iQ8T4OZ2Ug6835uFGlHjuAwEfzscm9ecO4V7Fpfh5aDm1HT61oq6rdCf+Hb2OH8hmO+oI5BdHBGj2SMn4u7Wd4FR/kr0SXcc465fpK83HYCEshctCuncM2vY+BioiIaNRgoPJAOgUqX/UjNIrOuNYhH1RDihV4Io/ERBuoKrC9T3IeW9BRg4ysreMatRDlbCu/xhzMsq+JCtraacdCr9ceqDJWdaFa+f9NN1ocdcIGKuUazXOZ1yj+WRV8hHxHqBL37c43KFLDlNLG+Hn2NernVq9Zv9bQYJex4CoOGp8/8BSl6gYhSpgznlvj7atDhqTJF57qbTXPsHmdvF5yiUClBKgWdSfAuhL0fKIGj0Pwr52Dq6eU//9JMXrExhE3lr3qbG9OLxT1qhWnbMHqlBJgJKHq8Ieirkbs8hdtoDryPi4eMXYGVK5X+QxtDZZ2vtUoH651WERERDRsGKg8kDaBals3ao0O+J1beGO6rUwdcTn5DQoO2Y5JRRuojmJ5WzfyPyx0jp74diOv3Qg+T7Bqrq1MK2/Rp98poaK0ZrezTDW9ED77dRtEINKua9fC0PLZhZjgGn1zBKqM1Vh1V23/FIWrrDphA9WhLhQ3NmDabOeoS+aGWzgmRpDqr52ylRn3TWGErZon2j83qfV7u7WRqrnt6kjZ31B9wf6zV2Bzr942JDgt7UCpOF/1BflOhaoJp/Vz6ZSf0TVaNzJEoNLCyXZcfFM59uYSLbj01CqhRQSiWcvXa3V6imY427+dh6srp2GVK8RM+dl8+Gv1zw1snuIoC2WMHkUZqISurTOwWIyYZWXPwQ1xPv9yV+gjIiKiUY+BygPpEaiMwKB04O90JDDlK9pANQSfEgLCfcY6I/Q5g01EJ8WIUXAQ70WctqhzBirlWOmgNjJmD0LxrKGa1SYCoxJ+rONWoDp2plA/Zo5yWSNSIdekKh/UR6LC/GxmWOrrxhuuMksh3rv2FPWDz3CwZujplsljBarA1mnIUo/Zgos5ImWMRMWwBiv6jTBiD1RdG7L1a7Ux3isVEvqIiIho1GOg8kBaBKq5t3DM6LyXSMqj5kGgMqcDyj7jlD4lTj3H4BMUnawIGVmSmtshfj5F3yMUlByIuK4oNLwcQKG6zsgWXOLalMIISrJANWjbnt2od+8WJohjskCVd0O/hqYb581jDmYIlYz4jWpGoFqPU8YokxFcqvOx26gXR6CKvk2MgSrMy4nTfuMNIiKiFMZA5YG0CFSbjU73I+TLyqMWW6DKfOcU8mq6UGS+GFj1BLXaNLUwn7H2Fkrt65EU2kYWpxuG3DTDd+AbVLs2o6jvHkRhqXzTBll4MUZ7jFGkIQOVbzWmlVxFQeug7WdTdOvT9qSByj6KJAlesmsyrqGp94nzPKZUfdmyEahsmzUYwcW+WcNQ4Wjcq0qInIlTG95H+57VltJhGqEKs4kEAxUREVHqYqDyAANVLKIMVL6jWHVHBIuwhvqMhXhD7KLn3LHvKYoOiClzMr7dmHu6Wwk11oYNmsEnWLXW2dmVTq8z1nCJF/2GC1Qh4U3G40AVWXoFqnfezkeXsSFEOAxUREREFAEDlQfSIlCZ08IS7XRHF6j0bciVesEnKCw54Jq2N9SUP5mFmFxyCweNXQODg8iT1nMRG21UGqNd3V2YbCuXBirb8X2lYQKVbXphbcdVzHrHtQnGUFP+4ghU793Uz6VtuS6OjQ0JBKrxc3BDhKmuohxsygqzAyADFREREUXAQOWBtAhUGQ0oEsGivr1BUh6taAKVtWX6sTOrQ8t9p1AUU6ASzHVgMbYr+UZsw+4cnQsXqIzApG6hvlwWqIwgZF8PZZNpbBLhUaCacCaaTSciGc2bUsQRqIxj9rVWNlPy9Z0BGaiIiIgoEgYqD6RHoMrANPNdRM9R2ep6ia+n26YfNbf5rldCibWj4EJMLu22Roxkn7HiFH6xzrXVuiYHk5Wgok/jU4KRay3VhG0NmLVIEt6Uc869pocUdyAJG6iUc72nbQTxBMfu6dfqCFTGjoLqToT2aYSzK7D8pjiXyqNAlTH3Kg6KrdHV7e5nubZqV7eSn3WyG9uHCEqje9v0OALVgtX6sbotqJ8mjimyxmejco8IN1EFHAYqIiKidMdA5YF0CVTqKEX+Tee6psgv9m1BsahjcLfV3OvCNFs7K7wpxItvzbVQD5+hVtvJTxKojJChsr+c11yvpITB34ZOfTOCiMp+XdY6qmcoLnUGrvCBSrHrG7HRg85xX3znxbuydPr5rH9u7BPrt7wKVAp1zZY+ZVMw7411rLYlfKAa1S/2jSdQjZuhv/hXC0MHQl7q21OxCz3uNpqZuGq+1Nf+Yl/FKdvxI/Oxyt6OgYqIiGjMYqDyQPoEKlUOJh/q0jdtsG2q0NT3VHtRbeguesaIVAQh09EW4o3Tg6g0tkBXBZ+hsqNDG2HR1yZJAtWuWyhVrs0eFPS2z1F9pxv5GyQv7VVMPvkNjvUqAcMWdFRNg+o5b2Hu0tCO7pCBSt1Cvdv6nJCgufQ8Cu8476G6E2Fh6QFkGhuAeBioNEsbUNChTtuzzqmG1eq730TeJt5Xgc3qlvDqZ3fYRw1HUmKbUmRlz8C5ku3oMTamqFOCVXkBzs2fgCnG54QEHGNEKgJ3cGKgIiIiGrMYqDyQXoGKiIiIiIgMDFQeYKAiIiIiIkpPDFQeYKAiIiIiIkpPDFQeYKAiIiIiIkpPDFQeYKAiIiIiIkpPDFQeYKAiIiIiIkpPDFQeYKAiIiIiIkpPDFQeYKAiIiIiIkpPDFQeYKAiIiIiIkpPDFQeYKAiIiIiIkpPDFRERERERERxYqAiIiIiIiKKEwMVERERERFRnBioiIiIiIiI4sRARUREREREFCcGKiIiIiIiojgxUBEREREREcWJgcpjLx0FfnwJ+MnF7/HC0bt42SevR0SUMl4/hZdq/oKXZuXIy4mIwlqIl3f+BS9sqZCUEY0NDFQee3ndd3jx0J/x04t6sPrxb7/DyxPkdYnIA5sPY+Dx7/DY7fYmeX2KzbgKvPSJ/vvsp4c+k9dRfLBhJ/rPHFLsxMUZ6rFXceqQ+s+KyiXYFNImB+1a/QKUh5QNF+OcihIRDnPz0SOO3Vjirj/2jd/Wi199Ggwx55fy+obsI6FtfvVpL2bMlNcfMYsL9OetaF+sH9u9tVgcK0DlOFd9RXmJs/5ws/7dcYp0fuM6nYx//4ZBHPdS87O7eKFZ/x3CUEVjFQPVcBm3Gy9ViE7IjtH0C+QqSh//DZ9KNPY+QdHpo8iUtksxK66i6O4zNH7VjTdk5RS9FZtw/W4Tgl/tx0ZZuVfCBSO7vsOh17BsHa7crIJf6Opt0+syUHnw7Arx0tHv9d9jR8OHKdXiNVtEx2oL6rP1Y2aHr2IhPnDVTzRQTfnZHFwt3YmeOnGOuhJ0lSzE4Wny+roZuFqr1+8pmqEfm7EQAe06kteBHk0yl7ZgzkdfCLex8Dd6OIoUqCZ+YLRR3cWS0Rqo5q8UgbkEV+frx6wAI//uJTtQLX5vCdr3rBbWo0t8RyOdf8evjDaqLeJ7PIyBKo57aZp1Hz/VQtX3eHFZobwOUQpjoBpOCx/gJ+oo1cd35eUjwhaogs/ROKhremgLVnc7ME3aNoVUP9J/nj4GqoRV14QPM16yBarg4GW5e3tRIGtrs7G1mYHKkOiz2/AX/XfY2T68HO6vzwbzr9dWx2p4AtWr2LFhuziXorYYPdXFSqAS/1y3HRfflLVTZeNihV4vsCFbP5bmgcqpEDNqowtUThWYM1oDlfl8raAx2gKVk/Udje38xr9Pwxio4riXDsv/rP8+Of9nvMTlEDTGMFANp5n38VP1l0fdfbwsKx8RVqAqrbYfX4g3Gp+gUZQdO73aVpaCGKi8k/RAVYMqWXmUGKhsEnl2Pr+YpvM9Xnw7irVTkkC1adMu/Zgxvc4hzkA1LQ9dang6tREXfzEBWcbx16bg4nH18xRV+dhhb2OSBKpxc3BDu45h7IimjPQIVFlLxHdVGvQZqMKK4146FeKlf1N/pwA/iTDiTZRqGKiGU0oFKtVuFHbrZU03zrvKUgwDlXcYqFJX3M8uBy/v16f6Rd3xMaYD1a7EPnHM/Ou1l4FK8c7ihaiXjUKZ66HCdSonoL5MLT8E/5oJ4lgSOqIpYwwGquz58GvP15qKaoZ/BqrYxHEvQ0wz1lN9jxfnSsqJUhQD1XBKuUCVgfzbetmnN6+GlGmmH0V+6yNUB0U9RVPfUxQPtfZq+gH84nQ3DnY/Q6NtamHT4DOUtrZg2pBD/zmYvPcWipW2jmmJvY9QeGi3o6557VGQ/eyJmYiNJw9b63dUD9sw0H0ctRsmhtQ3Ov1+7TqUtqePIzAg2irteu8UYc90ZxvT9Hmoaq1Bb1CcRxHsO4vO0/MwVVZfNf0t7D99GP7uZgQfWu0eDzahq3UdClzPoOq2rU4E+s8QauqGdbhyp8k63xD3QzMSgco3A3sabfdepd6T5hXID/leboJfKR9oy4Nv2150Dej11WmIO5S6C8qPo1f7WZXn17EGCxxthRifneN7orStvWm/n5cRuLYu5Dq9eHYZEz6PvdNj/PXa1rGKJVAt/kUebpSX6PXPHEBP+UpU/uxVSbuhGJ8ZvjMa2lkeXYFK3+xBBJPJBzHj33rx/gU95Kz4zX38fG2RpJ0RaL5AdkiZ4pdfaO1/VduC8bJy0xgMVK7vmXYshkCVlT0D50q2W2v1arejPd+HKZJ2mnETsGPl+/BXHdDrq05tx421M7A40rRZTXIClfZzqeuuPhHXGNV1xn4vQ+Xg5Y/EKNVHlyXlRKmJgWo4pVqg8p1H8aBeJp3yt+AqDoryTweeovTmIxy8qwQd8XmNt6/C526jeKP1md5GZazbsgWyT3u7MUsaqgqRf/O5Ve+hsebLaPsI+bb673UY5c7PN4/ZFJ+wnydBvjxc+srWUVWCg7bex+g0S0YHjI7yQOsKVN28bGtn69h378VKV7uMBUqnflCUD5xFl7oRw10RIBRBJUTIOvJmyFAFxXokW6f+ce9hLRQY9Y91iDqOeuLncumU3MsF1TUIis8e6K5zbhahfI6/empIm6QHKvtze9is38s7ZzFgBBbXPTEC1eM7Zbiuhin1eYkA1dm4FwG1LGj8jJdxfZe9rSKOZ2f8LIH2wwgYz0F7ftb3JHhzHXJtbRJ9dpo1f9Y6PD+uGc71n1bn7OIHYk1UnRKkqottG01sQf1UWdswxr8t/oK+a4h1VKObHqgGMGfH77FIBKn3GweQLzaLUC3c5F7Uz0DlJSNQ3di0UJ9eqn6nTinfy1orJFkjnDbjsnGuXNT5ZCduqJtFlCihxfiM4wuxKWKoGv5A9c67K61rqivR/52z/Wz9lStxOEve1hPG+vLm7/BSVCGTaPRjoBpOk+/iBfWXxrm+UR6ocjBhbQu2d4vwIg04FdjcKwKKOzgt7UCpCDDVFw7Y2uim1XyD7SdPwecYccnB5EODqBXXEhrgcjDLDGLPUdroGgGbXYH8a7fwC/sxu6RN+ZuKqtuic/uwCdcPzXDcm6kr8tHQsi1kIwVHwFEM3LBGGnzbDqNXO650ykvs7ebhUq9e39359i1VOuui8xy4EPrvWUFNGa6cXIRfOJ5BJvIPHTc3gug6PclWZhPrtLHN+8X1u4OTcr4aI2g14fwqWxutXTID1SQlyIrn5g5O0xfhinGfb6yxPU8RqFRB5RoXKPe9pk6vpwYp8Tn72/WA7HwO8T075/ek2fb9Uu7l6TpxL8+iIdwoUpxT/l4+pP8F+ac7h3OHUqMDqOs5kocdr4kypWNqdCp7tk5ztQtv1rL1+ufVKh3CFO2oObYjb7yNaW9MEWVTMHGn2OK8oQ0THe0YqLxkBCrNqY04l2ONlG7aJEZdq/Ox29ZG3SylfI8YYXUHJ9v6PnV3SXPdn9QwB6qp8+EXYaprq3M0asrP3saNU+I6S5T/BtvbeeozvCi2UX9xoaycKPUwUA2rU3jxrPpLYzRtE2oFKpn6u12YK5tqVj6oj0QFB/FeSNjKwITTT/TPiCnA5GD5Hf28ta2ujtvcDhwT11RaE8e9S1ag2lUmQkAzrmzLlNeRsHeUe9tXuEYmJqHhnihrmWce95VX6R3oYBWOSZ5BrtLBjr3znInaO/q5BlqtcznE1CnPxLEbelBxhhHDJNTeDXM+M1ApbSWjKZqONc42ElEFqlVG6GvCJXewU5nPVQlO5r22AlXgjAiKxr2xjUgZ57f/fPE+O+t7Ivt+5eO6NuLVhs5S+3GbuAJVBV6qE52dZbJyr1iBqqdkTsg0o1nLRTgqm4/FtuNhjZuBq6Iz2PWB2HAiBZmBqlEJR+7vyoQ6zNOCy11Mm2wvY6DykhmoThWg0lgrZDBHQW3riFRT89ClHd+Oc7JR1Zx8fUpsXQHKhwz7wxuo9hWJ0HfobbwjKc/KFdfp/vk8tRsvfaz/jnlhg3PqPlGqYqAabrPumy+0+2nNn/Hioe/w0oguxLQCVX33Ixy8+QiVA/o/N3Z3hZl6l4G8G3qdsJtVrOsWo01PsCqGn8+YDugOVBPOiIA2+A3m2o5HLUmByhiNeHyvyDHtKhKzo6y0k03RM9bB2DvlR2xBxV7XtM4ICUOMWEjIAoBDTJ3yNejURlvCd/ILWqyf3XHPbIEqrCFHnXTRBKr8C016ne69jmmjlnUiPNlHCUWgGizDfqOecW9sP4vsfsb77MzPastz1tfMw5U+tc0Qa6HiClSf4UXl99WPL/0VLw1r59joAIZ5IWgsazPG+XDqozCjAynGCFQ/f98nKQ8XXBiovGRO+ZO+6FkeXMz3sIX9A8BMtGsjQ8VoyZWVG4YzUE1DS3Wkz46mTuJeOir6RaPqPZ1E8WOgGm7jjuKl4r/oa6mE4f2rbySyKX+FyL+tT/erb2+w1bUYGz409T7RQliop6jXPvcZtm8ObZ8xvRCzSjtQeM3ZrlRMI3QHKnPd1e0wm2NEkqRAJQs+0Yim0+9mnCvYq69JCnXWGi2TPoOp2FG6DeevOdsZa5u8CVTGKI66sYbzPKZuEULdn5fEKX9mnYGz8mu8WWduHGGFFfGz2a/buDe2c8kCVbzPTvZZlrETqKS7/EUdqF5XOsAiTJ1SPms4134kgRGo5IGGgSoZ7JtShJbLg4u5AUvVFtvLdu2ifWHvcAaqaOpkoHK/fn7z1QLDgIGKxhoGqmG12vqlsecyMiZE8S6XYRdmU4oFt8QUuydYtcB2XIh+Bz13oMrBtDPW+63CYaCKzDhXZO5AlYmCM8Z6m/C8DVRRGA2BKgpeBqrIGKhM0QSqcRNQOYbClIqBauQlFKiiMLoD1as4dUg/f9cHslFSbzBQ0VjDQDWcJvj1TSnOP0iBXf5y8J6Y1icbpXrvpihri/GX365vxMjVcxy70IBps52hMtyUv2ktIlDFG4iSFahuio6w0qEOXS8UXlyBSpxLPv1rCOZ6oDZ0XchHwWznWpyhO+2KmDrlxlQ5dc2PrHwISQxU5rTDO7E8twQCVZzPbmQCVQVeOqN3dpKzhirOQGUPU9Wrx0SYUiUWqG5jsmy6IwNVTOIJVKuMnSr3z4mw6UQkwxmoZuCqNkpWgqvzZeUq25Q/yR9XvcE1VDT2MFANpzi2Tc9aXY3OQD/6A52oXp0lrZOYcIFKYYaf0FEqc01TjAHFHGm6dwsTQspzMPeaPFBllHwjRrWeo0j6DpsITopAFccarLxfX0Hg2wd48G0P/I1bh/yPY+6Zs3qHVV37EsN/fOIJVOa5Yuoc284lXeeViT3Xhuq0K06KTrl97VBY1oYaYT8vnCQGqoySMrFJhHKuqNebxR+oEn12cQeqmJ6dIQcv/Zv463FSdvmLI1DZ10wN9xbPdu8W45K/B/1/8uPSr2P8w0aUEgtUvXhzlv24wqeUNeifOboCVR6Km/3o+Vr5PdtcjDxpnZERT6AyXypdq3yfx9uOx2w4A9WrqPxI/+xwu/hlGS/ojrh5RiLO48Xz6u+Y7/Hi27Jyp+HvFxEljoFqOMURqE50KB35B0LPFeyU1EnMEIFK+Y/pqnt6Wcgo1dyrOCi2Rm+8cwuzXCNN2hqpk93YXnPUcdwcaRoYRJ4tcGSuaMH2e9Y7pkICVcYBFHbrZZ8Gn2K76yW+EbdNX9aFauOz206Ff+lwiDU4H7A9gwd+VA+1gNhnbMKgGKgJeWltxG3TYwhUGXPXmdtrB+8UYYdrpElbI3XyMK7UODvf5mjMQBWO2Z7B1BVrcOWeWM+kCBuAlol3LCl62xaFf3mwkKt04vXphZfR1ZiHXNdGJ1PfWYSq1jLUrnMeT2qgUsKIsY3546/KcGSF62XDvkkoKClCZ/MK2/H4A1W8zy7hQBXjszNt+IsWqIb3HXpxBirHBhT52J3Ekak1FwLR/26IU3yBygpCy45UWL/vJpch97R+fNQFqoLzCJj38gH8H4+GKfG6uAKVEoTOia3R+8vzsW+y66XU417Fqrlv4+raSK8BGM5AZQtMZ0rgXzsFs2yhaUpOHvzJ2Cnz7T69b6TO3okitA1/v4gocQxUwymOQLWztcf6xfHgSzTmy+vFb6hApTC2R5eMUvkOfGO+N0oPOsaLcq1jtS3OQJWxygo2Kq2+7aW7tX16qAoNVAr7i4RVEV7s65SDvBuylwLrwr/Y1x2ovsQnETpNvm370Wu8DFYVw4t9YwpUigUHysRucILxkl7bi17tW61rVlmdanXan+PaFAN9eqgKG6gyMs1d6jTGzyeEvhx2Kva3i59PMOub96kZl8IGKlt9t3t7Q8JpwYWzzjrGOSJcp29tEbps98Gqb/tZb66ztUkgUCnieXYJB6qYn51gTFdW/4I8bLuSxhmojOMRDd2xjEfOx37b74Z+XD8or5eI+AJVBjJX38UKrSyIFU0DyG8Y0P/5wgB+vusLLFL/f0igWoOfndDrGt4XLxNe8Rv78d9jkqNdGXJsbVTGubWXEBvHT5zDa452NrnV8Jv38gH62z+S1xsB8QUqJaxMs97jpPmkWH9pbrX4A4Bqz0xHm4wMH+qPGPV0/cZLd2vtx9/HYUe7mbhqa+M4h/oSYuP4kflY5WiXgU0bxPREleTFvj17cqRbqnsjBy9/pP5uAX7y0WVJeajh7xcRJY6BajjFEagysrbi0p+MXxwBnC+Q1ElIhECVcQpFYht16Y5/SxtQ0PEU9a6gU333GxSUHJCOBGVu6EBx9zMR1PT69d2DWL5ttdIh1afmSQOVyrcbec2PUCmCl719wd5Ic68LMatx0NlWkP/sulim/Jmmz0PttTr02jvjSue1985hVLlGrVTxBiqVb+kiNHScxYD7XHfL0FDylnQUYuqGbeg0dtcT9Qe6j6N22yT4RCgIH6hUU7Gn8TgCfbZzCvLOfCby9xYp52y2hSjFYBO6rhVhv3tESGULVGENFU4jkF6n8tyqWmtCnttAdxWunHSPriUWqFSxPrvEA5Uq1mensnV6jn8uKfdC6gUqdZpa9R/6zc5d5zFZncTEG6jUF/+OX/EF8n6jt/+VEoyWVP4ek9UXA89swUL1WEigskakhube7MK4jggijIjlVfnRb3SUO05I64yEeAOV5jUfyjcUoMsecJTQEihdjYvvZTtGhHTWiNTQ3P+eGNcRQZg1iItz3sbV0p3oMcJb3QH0lBfg3PwJmCKp7xmfX7xKJoZNb4a9X0SUOAaq4RRPoFJsbRF/jfn6Cool5UREw27aXdHx+R4vLhw907FGWpYSAvSOXeTRa4ogyxql+rKW37GxbzVePvS99oean+4P807LMNgvotGOgWo4GfOEP4k+UGUtrkZnv/gPTONyaR0iomR4ectf8RP1d9hvv8NLYV76nVam7cQlMSVYnaKW2G5u6W4KdraINWn91/HRGNmlkYaw7Du9TxTj7xP2iygVMFANm0Jrp6w98pflWpbgREsn/F3WPOGe9qOjatcjIkpHyu+xo/pflH+i/mFo2Hb9Gt12NnSi0x9AvzoVWA1TXY3YygAQnw8b0dnhR0B0kB/0f4nGzdy5bcybdR8/jWnEm/0iSi0MVB57ed13ePHQn/GCtiWoovnPUfwlZr0+P/jbfvR0Xccnu5bwL59ENDqMq8BLn4g/Dh2KbhH5WHPihghSAT8uHVs/vGtMxrqKTr2D/HUA/uYTWD9NUofGlsmf44Xf6mHqhTWujavCYr+IUgsDlceMt3//5KLyi+PoXbw8mfPCiSjF+c7jxY//gpdm8fcZEcWqEC/v/wte2DCc77UjGlkMVERERERERHFioCIiIiIiIooTAxUREREREVGcGKiIiIiIiIjixEDlAYZFIiIiIqL0xEDlAQYqIiIiIqL0xEDlAQYqIiIiIqL0xEDlAQYqIiIiIqL0xEDlAQYqIiIiIqL0xEDlAQYqIiIiIqL0xEDlAQYqIiIiIqL0xEDlAQYqIiKJuffxQs19vDxOUkZERDRGMFB5gIGKKPVsbG3G48e/C+GvltenGM26j582Az++9D1eXLJaXoeIiGgMYKDyQFoEqs3dqH38N3zq9vA56rsfofDQbnm7FDOhpAsHu5+h6eZVaTnFYMUmXL/bhOBX+7FRVu6RcMHIbqB1Xki7/JNl8N+sEurQG9TrMlBlILdkL/zdzQje3CQtj8j3GV78rQhTywrldYiIiMYIBioPpFugahp8jkahyRau6q81yNumkDdan+k/z20GqoRV1+iBpu9wcgLVwzYEBy9LBS6EBiqnebjSx0BlMO/p7XgC1QG89LEapoCf7kn93wlERESRMFB5IL0C1TNs32w77tuNvHYRQh4/R9EuW1kKYqDyULIDVVydfwMDlV1C93TNn/ETJUz9+Gwf104REVFaYKDyQFoHKs157AuqZX9D9YXUnvrHQOUhBqqUFfc9HXdeTPUDXlzGdVNERJQeGKg8wEBVge19eqCqbTnqKhOmH0V+6yNUi+Claup7iuLTR5Epq6/IXNGA5Uqbyj7n1MLG3kfYfiLMeUw5mLz3ForV9VAPnW2d672sa49M9rMnaPo8VLXWoHewTe/AqoLNCHRsw8bpofWrbqt1mnFFvQ7fDBxpVtqKtT+PH15G4No65PtC22mMcxn1FcG+s+g8PQ9TZfUVU1fko7a1CoE+2/U9bkOwtwZXTuTC56qvX1905MElE/l7i9DZfdmq+7ANvXf248jSTEn9EQpUMd3LTfAr5QNtefBt24uuAVH/3l7sUJ7VgvLj6H2oHlN+zo41WBDSXnkOG9bhyp0mBLV6CuWeDHQfR+2GiSF1VcY90X4W5Vprb9rbyr4n1s8fmfj+2c5nWmUbnZKVExERjUEMVB5I+0C14BYqtbIwU/4WXMXBQRFKBp6i9OYjHLyrBB0RVBpvXw3pmLuDjrFuyx6OalsrXG0Mhci/+dysp26coa/5Mto+Qr5Z9ygK71lrwhqNzzfb2D1B4Tr7eRLj27ZfdKQFY82POCbbSMEILP6aPFz6SrTT1g5ZgSd4Y03o/VygdOoHRf2Bs+hSN2K4K4KI2kYJI6EdeWcn21yTZLvm3lYlJNjaHOsQdVRm2JCvbeo8YT+XKhM7WprMNr139c0iAiKAaB35baGhKumBKuZ7qQeqx3fKcF39WdTnpd3DNnQ27kVALQsaz+8yrrv+HVpQXYOg+OyB7jptE42uXqN+m3K9Ux31VcY9CbQfRsB4DkH1vtu+JzfXIddsMw/n79mejxm+ZM/uLM5L/z1YjZcq9NGpFzYdkJQTERGNTQxUHkjfQLUQvg87cHBADyHhgtHm3jDlSztQak4VdHfAjmJ5WzfyPyx0jmA51mw9waq5tjJNDmYZ0/aUgFfa6BoBm12B/Gu38Av7MZukTflTO+VGR/erMtfoy0SsLCnCpZrwgUrXhkDzInNExOp4n0WD477Mw6VevY27s+9bal1H4IL7OzwPtW2HUfXhVOeoizoy1m4EiDrUhjwDIcYpf7knjet3B6eJ2NMmzheswhHXCFxyA1U891IEKlWwBlULlLo1dfpnqEGq97A2UrW/XR+Vc7TdrIRura07OGUiv8a4X004v8o4rjPviaYZ1w/NEP/uKe1O14X5nljiu6ef4UVtm/S/4qVZsnIiIqKxiYHKA+kVqORqO1owWTbVrHxQH4kKDuI9SfmE00/0z+jrxhuusrB8ShDTzisZLZvbgWPimkprYt+uOVmBas81MaVNCRtqZ1pWR8YKVG3oOuOecpeP62LkxH/SOu4rr9I70EoYOSY5V67SwTauJeq1Tr5N6NKuY4jpXzEFqrfMEbfeZtm/S4v00R2l3F/tHKUyO//S0RRd6GiYW3SBKr57aQWqwBkRiox7YxuRMn4Oa2QyE8du6CNK0lHHjEmovat/rns00wpUslE943vShs5S+3FLXIFq5n38VJ3ud+k7vCQrJyIiGqMYqDyQboGq9s4jHLz5BLVielz9jRZJZ0+Xd0Ov03TjvLQ8Y53xubLRpnCM6YChgWrCGRHQBr/BXNvxaCUnUFnBJ3BmkqQ8PCNQBdtXSO65PBQcsXXKnfWFdcYoSPgRi1DGuTwKVMvE1Dd1tGWZpFxRdVP/2YLt+Y7jVngIL+I0vigDVXz3UgSqwTLsN+oZ9+ZekTntLjRQrUGnNuIVPvgUtIif3fY5KvOz2vIc9XWRf9a4AtWy77Tpfj+uu8/1U0RElFYYqDyQXoHKFmJ8SrAR0/mOnZGPBuXf1subep8oIUwNYm5PUe/+XJvMd04hr6YLRY42SpjTpgqGtkk0ECUnUBkjFkOEkTCMQCVbXxWOGcJ69fU3oc5iYIjrmfrOIhyp2YvrjjbGi3A9ClSbD4truIyA4zwWc92Qq5MfV+c/RHSBKr57KZ63/T4Y98Z2zaGByvieqJtyyM6lMDbvcN3j0M+yY6AiIiLyEgOVB9I2UKlKvtED0cA3mCuZAmUEqshcn+s7ilV3bBtLSDFQRcNoE5nreny5aLhj221PyutAFYVREKgi8zJQRYGBioiIaMQwUHkgrQNVxgEUfqUHHNko1Xs39bL6tnA78snNvSbCVPAJCksOYIIjrIWf8jetRQSiWNZk2SQnUK0zO8ru9UCRxBWoxFQ5+fSv8Mx1XsE6nC/JRa7jGRidco8ClTlVrg61kmA+lKQGqrjuZbyByvieKPd4m2gXpREJVLO4hoqIiNITA5UH0jtQ2TaWkIxSmWuaYgo41pbpx85IXg7qO4WiMIFKHTFr1K7zOYpKcpxlUTAD2b1bmCApH0rer68g8O0DPPi2B/7GrciS1NFNQsM9vUOrrn2RvXconHgCVe6Zs/q5ogk2JqvTLV3n5VuE65EC1UkRGuxrh8KyNkrwV8e2riyZgSq+exlvoLK+J7E8b1WigSrc2qwhjfscL2iBirv8ERFRemGg8kC6B6oMXwOKxNbpIaNUc6/ioNgavfHOLcya7Qo50wsx62Q3ttfYX9R71Nxq3bnhxUJMLu1Gpfk+Kcm1qCNm3aI8+BTbHS/xVUTYNj2jVOxKqG65XuNqO6Q1OB9QwtQDgx/VubJ6Ol+p2C1O7fTedL/EN/K26TF1sOeuM7fzDt4pwo7ZrlGx6VOx4+RhXHGcz9oefOCG/WWzyrWVHkbAeA/TUIHK3Gjid+hts7Z3D2ej0Yl/2ITrpW+56mcid20+Gjr244jjeHIDVXz3Mt5AZd9K/jK6GvNco4T6+raq1jLUut4LlWigyjC/n0rArTG2XI9kN176WA1UwE93xDYiTURElMoYqDyQ9oFKMa35qR5iJKNUvgPfiLZC0HhRrnWstsUeqJTPuyA+TyVesmu+1PfhM9RqAU5+LY4XCdvay1/s62YLZI62qqFe7OsOVF/ikyEClfMltoKxzXcUL/aNKVApFhwoE1PqBO0lryqx0YOit8X5mSsv2K7P2JLcfOFrMwa0bcyHCFTKz2jsiuf4DCFkK3N1zdZdW32lM2/WN18mXIMqexuFGaiG2DY9cMF9v1wvsrXdB+veqI7jmKNdPPcy/kCVkTEV+813funMazPvSTMueR2oMt7C+W7rnM57G+7Fvoo1f9bXUZ3t4zoqIiJKGwxUHmCgUtje/yTd8W9pAwo6nqLeFXSq736DgpIDzpfvahbijdODqBQjX5rgM1R2dGijXPpmF2GuRaW+ALj5ESr7bBtbKOer7x5Ewd4II0++o3iv9RGq7deqGeJ8iuin/FmmbtiG63ebbJ1jxWATulrXuUatdPEGKpVv6SI0dJzFgD08KB3l3rtlaChxjwipJmLj6eMIDNjDRjMCHdu0kRn9WoYKVKqp2NOofEafPSjp5J155ZwnD6Or1x4YlBDRdxZ+5Z6EjAgpzEA1hND7ZYWKoYUGOFVs9zKRQKXKRP7eInR2N4d+T64VYf+Kia76XgQqhRJwj7XWoNf+M2qGeObjLuPF8/oo1QurJNN1iYiIxiAGKg+kRaAiIorGhr/gJ+oo1W8f4OVxknIiIqIxhoHKAwxURESGCrz0iVhLdfQzSTkREdHYwkDlAQYqIiIb32d48bfcoIKIiNIDA5UHGKiIiFzU91I1q6Hqe7y46JfyOkRERGMAA5UHGKiIiCTe6cMLH9/nWioiIhrTGKg8wEBFRERERJSeGKg8wEBFRERERJSeGKg8wEBFRERERJSeGKg8wEBFRERERJSeGKg8MNYDFQMjEREREZEcA5UHGKiIiIiIiNITA5UHGKiIiIiIiNITA5UHGKiIiIiIiNITA5UHGKiIiIiIiNITA5UHGKiIiIiIiNITA5UHGKiIiIiIiNITA5UHGKgoUVOyJuCd8fIyIiIiIhq9GKg8wEA1NnywYSf6zxxS7MTFGeqxV3HqkPrPisol2CRpM6TFBXrbkhx5ufDBB9v1enXFuDpfXidxOWjXfjbb9eTmo0ccu7HEXZ+IiIiIosFA5QEGqrFh8ZoteuA4swX12fqx8hIRQioW4gNX/YiiClQ+nDsuzqEIbMiW1PHCDFyt1c/RUzRDPzZjIQLivO2L3fWJiIiIKBoMVB5goBojjAB0pgDl4tjwB6oMvLN4JQJ1Sr3qjajXRsaGQzYuVug/ixnaGKiIiIiIEsZA5QEGqjFCEqg2bdoVVSiSijJQJYckUI2bgxvaz2tMcSQiIiKiWDFQeYCBaoyYv1JfU1S7EvvEMXNdVcoHqgmoL9MDlX/NBHHMWFfFQEVEREQULwYqDzBQjRHGFDjb9L6oAtW4Cdix8n34K0v0uqq6EvTUHgjb1toAwyns1LupeejS6hSjJVdSrrFGobrWGqHJYkxftM7BQEVERESUKAYqDzBQpbGsaWixbSrRf6oYPdUKdU2UcUwSqFat2ajXE/pF/fBrmawRpp5dM5Elq5OTL9ZEbce5qZJyIiIiIvIcA5UHGKjS1evWturH87FP7AxomLVsfdhA5WSNLA21OYT5eXUFKB8XWr6vSIyQfTQHs1xlRERERDQ8GKg8wECVpowRobr1OJUlKY96DVV0gSpj3Exz6/Mby14NU1aCq+/ajhMRERHRsGKg8gADVXpaZbyQd/8c+RQ8rwOVYsdmsetg2Xwsth03R6+q8rHDdpyIiIiIhhcDlQcYqNKTsclD2JfxDkOgsjansK+TehWVH+ntZZtREBEREdHwYaDyAANVehqRQGXbnCKweYp+LHs+/Op5zmxBvWsdFxERERENLwYqDzBQpSdjE4ieohnS8ndWbhyGQBU6vW/ZWjH1kJtREBERESUdA5UHGKjS0+I1W/QgY3tvlSHrzYXoMrZO9zhQWRtQqO+kMtoO82YU7xbjkr8H/X/y49Kv8+R1iIiIiNIQA5UHGKjSlDrVTgtNJfCv9JkbUyz+Rb4epk6VoGc4ApXC2Jyi59B6fafBYd6MYs2FAB48eCD4UR325cJERERE6YWBygMMVOlr0wYx3U5VW4ye2gP6/69ejfK3F+phJyRQ+VB/xHqpr/3FvtpnmMffx2FHOxtzcwrdcG9GkfOx3xao+nH9oLweERERUbphoPIAA1U6exU7VhagywhSn+yC/8M5+OA1pWxGuEBljUgNrQDljnZ2E3Cu3Ki3HqfGy+p4KQ/Vf+g3Q1XnMVkdIiIiovTDQOUBBipKB1lVxijVl/iEU/6IiIiINAxUHmCgojFv2k5cCuijU/3tH8lfZExERESUhhioPMBARWPVzoZOdPoD6P9WhKmuRmzNktclIiIiSkcMVB5goKKx6sQNEaQCflw6th5TJHWIiIiI0hkDlQcYqIiIiIiI0hMDlQcYqIiIiIiI0hMDlQcYqIiIiIiI0hMDlQcYqIiIiIiI0hMDlQcYqIiIiIiI0hMDlQcYqIiIiIiI0hMDlQcYqIiIiIiI0hMDlQcYqIiIiIiI0hMDlQcYqIiIiIiI0hMDlQcYqIiIiIiI0hMDlQcYqIiIiIiI0hMDlQcYqIiIiIiI0hMDlQcYqMam3R/9CN/96T8D//F3mu9Oyut5IfOd3fDNzpGWUYxeex2LJ72KLFlZGvnsD/r3Fg/+M/7q/xHO58nrERERUWIYqDzAQDX2FJ78Ib7XgtQ/4Ps//QDfdf4Q/p3yuol6o+UZPn38N8VzFJfGH6reaNU/p7a1QlqeVIsL0H/mkKZ9sX5s99ZicawAleNc9VUzFiIg2jiUxHBPlM/oqtPb9Xw4Y5SFqhy0u3+m3Hz0iGM3lrjrJ+bU2R8q39sf4K8P/l4PVt/+EJ/NkdclIiKi+DFQeYCBaqz5CR58q4apf8R3J1+WlHvpKDb3qmFKl0gYGlWBav5KERRKcHW+fuyDDTv1MKEEqnJ3fVX2TFzcsxrtwo3jJc7wEYVVH2wX51BULMQHkjremIDyzevRdWoLzs2QlcvMwNVa/dp6imbox2wh0gienvO9BH+XHqr+eulFeR0iIiKKGwOVBxioxpiN/4y/qn/R7/lnVMjKPearfoT6h0qgGnyCgs3yOtEYVYHKDAo7cVEEjoiBysWsH8sIVVYO2qsOoL+uGP6V2fI6njBGm6yfL7JsXKzQw1Ngg7i2ZAQq1eEf6qNUf/wf2C0rJyIiorgxUHmAgWqMOSk6n3/4sbx8lBrtgSpriZgGGOXIUVyBKmk8ClTj5uBGzJ8ThyT/kYCIiCidMFB5gIFqjGGgSlz2fPi1oLAF9dnimLGuKm0D1QTUl6ltDsG/ZoI4Fs/nxIGBioiIaNgwUHmAgWqMSUKgMsKPW2m1vL7D9KPIb32E6kFb24fP0ahOG1T+/9CBKgezWp6iSW3TN4j3FsjqeMEICrbpfcMVqGzT5hyiCWLjJmDf2gJ0VYv1WoZTxQgUz8Fie13bRhsRhTl3eYlebk3vY6AiIiJKdQxUHmCgGmOSEKimXXiCxkElBAlawFFEDFRrb+FYUIQoRZOrfcRAtawL1fa6LUfl9UaBqAPVtPnwVxejx/DJ0KHGNC4bF4+LumcOWO1PHdCPuYPfu+9bdewBTAlf1nHhw5nOc400BioiIqJhw0DlAQaqMSbpU/4qsL1PDzhDBipfA4oG9HqNd2/hjen28oWYey2KKX9zO3BMhClV9YXd8nqjQLxT/qJtt2yt2BHw+BLseC20fFbWUO+yStLIkld++T/wF/U73f/f0SArJyIiorgxUHmAgWoseRmf+/+TEqj+Hn+uGe4t0w3RBaoJp5/oQWjgG8z1hZZHu4bKV/4NKvueo/pmB6ZJPme0GO5AVb5HDUSH0LNrZhzvq0qxQJXxAvq+VgJVUl4FQERElF4YqDzAQJX6zJegfvsPWpj63v8/cTRpYSO6QPXeTb1OfZs8MI2qTSk8MNyBatay9Xq9MwcQ2PM2dk9+VVpPLtUCVQZytvwIf3mghqrhf1k1ERFROmGg8gADVer77A9qR1P4+r+hr/ol5EjqDY9oAlXkOgxUuujbvY7dm20vAlbV7oT/wzzs+1mkcJV6gUp9we/nn/1XfG98zxXfnZTUIyIiopgwUHmAgWrsOFD8I/z5W7Wz+Y/47sRomvLHQBWtWNtlZU9B5YbV8KsvBDaClaJn/9tYNU7eJvUC1cv47A/6VNa/fvYTHMiR1SEiIqJ4MFB5gIFqbFl9+gf6X/A7fyIt9140gWo3Crv1OvKNJHLwi/bnDFSKeNupssZno3zzRvTU6aHKel+UW4oFqjn/E39Wv9Pf/hDnZeVEREQUNwYqDzBQjTHGLn9/+hGOyso9F02gykDeDb3Op7evhpT5qh+hUS2LIlBxU4rIdm8tjvAZM9Guha5itOTKykeZOLZNz1pdjc5AP/oDnahenSWtQ0RERAxUnmCgGmOMQJW0d/ZEF6gyDg2K0PQMxQcKxfGFeKPxiXa8MRjFCBW3TRdexaacKXhnvKTstSloqVDD0iEENmSHlmsmoL5MrxNu2/VRJY5AdaLjAR48EHquYKekDhERETFQeYKBaowZ9kB1FIX3rJf6Ol7Mq4Qi6/gg3nO0K0T+bT00qbSX+j4U7b7qxqyaR9r/HzJQjeIX+65as9H5clzjBb11JY7jV9/1ol02LorQ1F8neamvqvJ97JMFLiFr/kr0GHXtLwZWjYEX++5s7bEC1YMv0Zgvr0dERJTuGKg8wEA1xgx7oLJGpIb2CPnutr7deO/aU9QbQSr4DKXN5zFZnbpXHUWgysjBrJaneoDrUwLbAlmdkWGOLEXQvtiLdhNQvnk9utTwI9ZLadRwVbkFV1dOweKwG1JY3nnrbVwt3en8DFUC0w2HRRyBKiNrKy79yQhUAZwvkNQhIiIiBiovMFCNMUmf8kc0zOIJVIqtLWKU6usrKJaUExEREQOVJxioxpgt8XU+iUat4v+uv38qho1WshZXo7NfH6H6snG5tA4RERExUHmCgWqM8f0Y36mdT/VdVCeT9S4qouHyMj73q++g+jt8/9kLknK7JTjR0gl/l7V+qqf9KPKkdYmIiEjFQOUBBqqxp+LTf9Kn/f3HP+D7P/4A33X+EP6d8rpEo9Gpsz9Uvrc/wF+//Qf9u/zgB/g8T17Xsl5fN/VtP3q6ruOTXUuQJa1HREREBgYqDzBQjU1Hq/8//KXnH0Ww+jt8d1Jej2g0+uwP+vcWD/4z/ur/Ec4vkdcjIiKixDBQeYCBioiIiIgoPTFQeYCBioiIiIgoPTFQeYCBioiIiIgoPTFQeYCBioiIiIgoPTFQeYCBioiIiIgoPTFQeYCBioiIiIgoPTFQeYCBioiIiIgoPTFQeYCBioiIiIgoPTFQeYCBioiIiIgoPTFQeYCBioiIiIgoPTFQeYCBioiIiIgoPTFQeYCBiogozfhewud/+C/47uTL8nIiIkobDFQeYKAiotFlE/yPf4fHbn2HsVFan2LzMj77wz8C//F3wJ9+hAppHcXiAvSfOaRpX6wf2721WBwrQOU4V/0EfLBhp3kuO+O84WXjYoWoX7EQH6jHxr8Nv2gf2JQtaTPGzWzBwk+D+JXbkQp5fWH8tt7QNoo5v5TXJ6Kxg4HKAwxUqS//9t/w6eNQTYPPcOxaB96YLm+XWg4g/9oTVA8+xebNsnKK3luoulaH3sEmXBrWexkmGDnUoCqk3SKcv1kFv6H7sl6XgUqR+LOruPRPIkz9Myp88jqa+SvRowWTElydrx+zgk8Byt31E7D4vSVo37NaWI+uWj0QRQ5UE1BfptftL5uPxdqxHLRr16gEqg1pGKgmV+DNj77AHOHnpwb0cBQhUGUubTHbzPnoNhb+hoGKKF0wUHmAgSr1mYHq4XM0DgpBW7gKPsGqVfK2qeMqSrWf5xm2M1AlyAg6zbiSrEA1eBlBqeM4Jm1rU13DQGVK7NnlHP4hvlfD1H/8AP48eR3TjIUIaMFkJy7O0I8NV6ByskadIgeqDJSX6HX7S3LEsTQPVC7myFOEQOVUiBm1DFRE6YKBygMMVKnPDFS3rzqOZ264hWNGsLrbgQm2stTDQOWdZAeqBM/DQGWTwD31vYC+r9Uw9ff48+ko1k5JAlXWEjEN0JheNywSDVRK+8ro2491DFREFAkDlQcYqFJfuEClmnzhqV4WHESeqyy1MFB5h4EqdcV/Tw/85r/pU/16/jn8uim77PliLdIW1GeLY8a6qlEUqPYVlWh1e4pmiGOxtR/rGKiIKBIGKg8wUKW+oQJVRvUjvezxI7znLlP5dmNu4yAqB8RnKNS1V6XN5zE53PoK32rMKu1C0d1nrqmFz1DZcQuzFkja2C1tQEHHU9Tb2krPaV57FGQ/e0Iykb+3CJ3dzQg+VDuwqjYEe2tw6dAM+Nz1Nx/GgFrn9ibtn6du2Ka0FWt/FGq7hl0TnW0MvhnY03gcgYE2s/7jwSZ0Na9AfthnMAk7Svfi+t0mBIOijSrYjEBHEfa4n4ERSqIhfoYQ0+ehqrUGvbbzBfvOovP0PEyV1R+RQGU8N+veP37Yht47+3Fkaaar7jxc6VPK72yCb8EadPaK+993HMeU++fbthddA/pnDNzdix2yZxHrs3N8TyZi4+kq2/1sw0B3GY65r9OLZ5dhG52qiXZnP2PqnG16X4RAZYwWyYOM8XnWiJdcbIHImIZoTe8bXYHKCDRaMHm9EJM/uo9lF/SwsqKpF+/uLEOmZIMPo93CbYUhZbEEHgYqIoqEgcoDDFSpL3ygysEv2p/rZbIpf74KbP5KtH34DMduPsLBO0rQeSiO9XZjlqxTaA865rot8c+q4CPkhwlVPqVto1FP0STWfDWJfy6tttU/MWitCVO42zh0tDjOk5ipqLrp7JDr632MTrNkIwWjo6x0+vcrHeCgaKu1MwNZE86717L58nDpK1H+sBld6iYMd85iwGjTe1jekbd3skOuTxFUrtH+DE4cF3Vc9cxjNh1rnOdSLVDC0aBoM3BWv867zebnBJWO/AJ3m6QHqkzsaGkS16SEqLvqphZ1StjRr1G7jm32sCIClRKgrt9T/le9j+K+B5qVQKwGHduxrtOTbG0V8Tw743ty7ziudIvnoD0/17Oba2uT6LNTFf93fe3Utz/EZdn3ySMjEahGOyPQzC9uwfxGEaR+M4B85f+vUIOOYtlHFRgXph0DFRENNwYqDzBQpT5poJp9AHmtT0V4eYbt24z1BYbVeO+mCCnu4DT9FLb36p/ZeOO8rY1wqAvFjQ2YNtv5mfY1W/XXTjnKNNu6Uatdj/K5d245dx9UR71OfoOCQ7ZjDsma8qd0yluNoHAZXY3O0Rff7DxUXSvCEdsxjdFRNgxUWSMNSsf7Sq9+PNieb2s3SQluooPs7nxPX2S1ubEmdETs0H50NuajYLZzNGPqhr0IiBGPgWuLHGWWWIPOPFwyrsUVnHxLlc8S5wtccP97ltxAlXvSCLLu4DQRe9rEMw1W4Yh5n0WgsrfZpj/HYFB5LiKU5p45q9VRn4P1mXE+O9f3pLfdGsnyLd2GLuNennGFN1N89/Top2JnP/+PkSMp9woDVSgz0Kgu3Mdb7y4VZT5krriN97Wyu5g6Qd6OgYqIhhsDlQcYqFKfGahkBp6gcNfC0HarulCt1XmKQtkOgLu+Qb1W/ij8tDOJWW3P9POGjJatxqq7+jU13ekIDQgRJSlQzVU6tVqHtQ1dNVPldWTsHeXeMux3jdAZnfLHvftRYBxftR+9WpsmXJI+gzLxmUrHPoZnsMMID2Gnf8XWKfeVV+lBRQkjxyTXkXu6Tj9fSOAxzqOQjaao7u217kc4UQWqt8zRot5m2b/vi3BdjFT5q42wZQWqASXoat9J23M0R6SM89vvZ7zPzvb5va15If8e7G/XR0ad4c0uvkD12R/U6X5/h79eelFa7hUGqlBmoFHC1IxZPlf5r/FWgxpcBpDr+p3BQEVEycJA5QEGqtRnBqqBpzh48xFKu8XIU1AJSyEjUzpzs4ruLkyWlKsB5qAWYJ6jqERWHoYxHdAdqObewrF4Ps+UnEBlBp9BJRRJysMyO8pn0SCb7igJBfkXxPS07r3It9c1rROd58u4HtMzkAQAh9g65Udu6CMxYTv564xwofzs9qlq9kAVTsRpfIpoAtWyvQhon9mE88sk5Yqqm/o5rVFCI1DZrtt4jvbnL7mfcT874/OVn2WHo75uozE66tGz072I+z16oPrupKzcOwxUoYxAs2jHVkl5+ODCQEVEycJA5QEGqtQnm/JnrlUa+AZzJaMKb7SKkSQRwkI9Qa2YvudY12Twrca0kqsoaB10tjPCnDtQbTam+z0K0wGNJDmBKnKHNgwzUNVIXlQrZ55r4Kz1EluHOnPDAr/0GUxCQck6NLQed7YzNmTwqFNedVu/hmBvnfM8prPiZ3d/XnyjKSGiCVTm/b+MgPQaq9BlbDph3hcjUNmemS3wmOeSBKq4n53s820YqFRjM1DFGowYqIgoWRioPMBAlfrkm1IUYtU9/fixM6H/QTYDVRTcgcp34BtUGxtXhMNAFZF5rii4A9WCA2XoNTe7CMPjQBXZaAhUUfAyUEWBgcrAQBVazkBFRCOPgcoDDFSpTx6oFOWD+u55klGqaS0iUN3pcByPaG6HmLr3N9R2XMWsd1zrs8JN+VtnBKp4A1FyAlVBi+jQDtV5l4kjUJnnUrftlpSHZa7z+h16O9Zhxzuu7dglAcApxkAlpsoNtOVJy8NLYqAypx3WoTbq9WbxB6q4n92IBKoMfO5P7hqqG0tk5QxUoeWRA1WsUwXdGKiIKBIGKg8wUKW+sIEq4xSKxPulQkapSr7RpwSqW5w71r1EYASmQSWkScozTz8Jcy0NKBJbq9e3N7jKohHnmi5F1upP0NnzAA8ePEDg2tGhX3BcUiZ2ilPXvjh30BtSHIHKPJd7m+xIjA5+mHVeU41NIsJ2ymNbm2WuK4s1ZCYzUGXk47q2rXsb/NXhdshziz9Qxf3sEg5U8a2rq/g//0ULVMna5S+wyXgnlOF1lO8p1spGV6DKQ3GzHz1f98DfXDwsLz9PNFD96ujHjuPq7oDjN903t1wfPYEqC2uqOhH4uh+BjmqsyZLVIaLRiIHKAwxUqS98oMqA74wIOCGjVBXYLLZG//Srb5C3wjXSpK2RuqV0Nlzbpp803kH1FIVrbRtezK7A8pu2aYSSa5lmbIShhKLKVtdLfCNum74bhd3is3u7Mde+5XoEJzr0MKXrwZUP5fV0b+F8t9phVTvLZ3HF9RLfyNumxxColA69sR3546/KcGSFa6RJWyNVhM7mFc7jJ0UHX92AYa0V+tRrq70pOuSqsJ1y28/Yexh7It3LuUonXqwHCt4pwg7XVu0Z06dix8nDuFIzz3k8qYFKCSPGqNHDJlwvfcv1suFM5K7NR0PHftuzSyBQxfvsEg5UMT47w+Ef6oHqP36Iz6IewYud8ZLd/lMFKDc61OMm4HDRLhGmRlmgKjiPgPm74QH8H8s38UlEvIEq45df6KHJsTvgFEzccBfL1OPC6AlUJ9Bpu5c9rTsldYhoNGKg8gADVeobKlBl+FqwT2wuETJKtdZ6b5TGfEmv9RLdT2+6PtN33vw8lf6SXeufG/ue6dMMZdei/Ec633j3lTDki33dSgelLwWO9GJfZ6Dqx5W98nom+0tsVbG82DemQKWEoLVF5ruH5OdS3FznbOdbo790VpS76wf7lH9W/3/YTrly3lKxFbrRxtjGXCV5Oay2ZstW/3HQqG+dt7clXKBS2D/f4TiOOdooHC+yVZg/q3FvdIELrvP5ctFw13bf7PXN9Wb255NIoIrz2SUcqGJ/droX0NevBqq/x59rXpaUeyTrbfjrRHCqO4Ce6mL0iH/u2Z+P9kpZoPKh/ohST60r9BufUWs//j4O28/lhdxq+G0hoL/9I3m9BMQdqMb9Gm/VW8FpWcMA8pv0/7+iug05J+TtXlt/F/lqXYNo86sLtmOKnPfs7dbgZyec5e9fEOdSX0JsHv89JtnO5bQTV8RMAE1XI5ZI6xHRaMNA5QEGqtQ3ZKBSzL0mQoxsx7/pR5Hf+gjVSigxgooarOq7H2H7yQpMkP01e+l5FN5RgpNtY4rG3kcoLD2ATGPziTDXoq6jmHyoCwe7ne2b+p5qLwt2jFpJ+HbdQrGrrSbs+WKc8mfwzcCR5ioE+mydY6XDPNB9HA17naNWmjgDlWb6PFS11qDX3hHXzlWFKyfzkCu5J76lK3DpTpMtKCid+d4aXFJHZoxrGaJTrlqwqwid3c22zxDCtPMtXYSGjrMYcF1n790yNJS4R4RUtkAVluR+GQEmgoFWd4BTTcTGk4fR1WsPUWrIPAt/6zrX6FpigUoT67PzIFCpYn12qgPn/6s+SvX1f8cpSblXpvxsDtrLS/RApKragqv5PkwxR57cgcoakRpaAcpt5/FKXpUf/UYI6DghrZOIuAOVavJBzPi3Xlu4uY+fbziIzHEZyD4ib2eOSEXgbGddx9C+QLbtXG5Zmy+hx7iXgfNYI6lDRKMPA5UHGKiIiNKA7yd48K0+SvWX37wkr5OOsqxRqi9rvZ/yl1624tKf9HvZ31YsKSei0YiBygMMVERE6WH1iR/ie20t1T/h/pbQ8vQzBTtbAvqISv91fMSNFBKQhSVVnWK070s0rpTVIaLRiIHKAwxURETpo+LSP+lT/779IT7Lk9cZ8z5sRGeHH4F+fTTlQb8SADZnyevS0PJP4JJyL78010/14HpprK9YIKKRxEDlAQYqIqJ08jI++8M/6qEq8CMcldYZ4yo69c7/1wH4m09g/TRJHYrOBrFuqr8HX177BDsXM5gSpRoGKg8wUBERpRnfS/D7/wnfnRzGHf+IiCglMFB5gIGKiIiIiCg9MVB5gIGKiIiIiCg9MVB5gIGKiIiIiCg9MVB5gIGKiIiIiCg9MVB5gIGKiIiIiCg9MVB5gIEqdTEsEhEREVEiGKg8wECVuhioiIiIiCgRDFQeYKBKXQxURERERJQIBioPMFClLgYqIiIiIkoEA5UHGKhSFwMVERERESWCgcoDDFSpi4GKiIiIiBLBQOUBBqrUxUBFRERERIlgoPIAA1XqYqAiIgo19V9b0FPYgu2vyMtH1LhX8U7265giKyMaQbMmTcDPX5OXUWS+CR/j1qYvcDIF7yEDlQcYqFIXAxVR6qm6/Ts8fuzWjCub5fUpNr5sJUztDeJR8QBuvTlbWicjIwftZw6hX1WSox/LzUePOHZjibu+rrxEtHHYiYsz5PVDjJ+J9lOi3ZH5WCarY7e4wDxP+2L92O6txeJYASrHueqngewjQfzqU7dezJgpr6+rwJyQNoraFoyX1h8p2bhYIb4fFQvxgXps/Nvwi+9AYFO2pE0GPtiwU3wnnIzvTGSvonxPid6ubiPqp8rqpIv4nkFGxhso/+WA8ntH+d2zI/VCFQOVBxioUldaBKrN3ah9/Dd86vbwOeq7H6Hw0G55u5SyGnMvPEJl33McrJaVUyxyS/bC392M4M1N0nKvbGxtlgQjp4HWeSHt9vy2Cv6bhrMY0OoyUGVkTML+C1UI9LXBH++/B69V4NZOEaZm5snraGbgaq3eQeopmqEfm7EQAdFpCtcR3fGr1WjfY9gi6scQqBas1jtqmgKUy+rYzV8pQl4Jrs7Xj1md5yjaj0ETP/gCcz4y3MUSLRxFClRFmGa2UVT2jtJANQH1ZeL7UTYfi7VjVvgPbJB35he/t8T2vVyPLvHdjj5QKUG/Tpw3pnZxmJyDlkPb0VMmwsqwexXL5ufhxvED4ueL9O9NfM9Al4eTK0Wo2jhKR8jDYKDyAANV6kq3QNU0+ByNQpMtXNVfa5C3TRkV2N6n/yylDFQJM4PO7SQFqodtCA5elgpcCA1UTpvgZ6AS5uFKnx5E4wtUy9G0Tg1TQfQv/jV80joG66/QZgcpikDlZHSyYghU47Jxrkzt2B1AYPsMzJLVsTOvyTpHugcqJ2PkKVKgcvnlF6M0UNlGQY2R06g78wbrux1LMNr0wRb0q6GqIh/7xsvreMIYdTVGf4bLaxOwe+VKdH2i3wtL5H9vEnoGr2xF62bxe2jB1gi/h0YPBioPMFClrvQKVM+w3d7h9O1GXvszEaqeo2iXrSzlMFB5KemBKqHzMFBZEgtUC3Lv6n8Z3taGfRH/MiwJVOPm4IbWaYo2IMURqGIlCVRZS5LUIU0J6RColO9qpX4suoAUX6BKmqQEKuue9dcVo+vDOSjfHP0fIhJ9Buq04371d1FxL1onyeuMNgxUHmCgSl1pHag057EvqAeR6gupPPWPgcpLDFSpKoFA9cpBfG5O9Qu3bsrOmtbjXzNBHIs1ICUhUGXPF2s3tqA+WxxL1l/4U8LYC1T7ivS1TOZU1JgDEgOVatnajQjseRs7xL83sYzsJv4MfDhsrKda9TFmS+uMLgxUHmCgSl0MVFYQqW056irTZW64iu13nqHpoV5PX3s1iOUbFkrrqzJXNGB5q76myT61sLH3EbafkJ/HshBvnOxGaa+treyc4daGyfR14w3HORLnW7oIDR1nMRDUO7CawSZ0Na9Avi+0vr6Rguj0+2bgSHMNeo22Dy8jcG2dtJ1q6oZ1uHKnCcGHRv02DHQfR+2GidL6qqkr8lHbqq+nMa/vcRuCvTW4ciLXNY3C6ohHFia4KD/TnsbjCAzYzjfE/VCNSKCaPg9VrbZ7rwj2nUXn6XmY6q5bXaN/7rZM7LhQhwHt/qvTEPOU+zcVxzrE9T9sRmf5VGdbIdZnZ/+e+JauwJW7l/V2qqByPxsXOa9z82GxhiwKfYex0d7WZvbs2+bo1G5JuYzxV2irgzRcgcqo5xJVh9Joa+sEjqpAJQKNFkx8yHy3BfPqg1ihhZwgllXfxrQ5U0LbzWzBwiECzfhtYo3TkYqQMqexF6iMjr81tWz4ApU5EuMQ5ff/NR8qP9yCwCljbZLqAHqqi9G1wfnM5eeRG64QGEugSvwZKCZeRI82SnUfzRMl5aMMA5UHGKhSV9oHqgW3UKmVyaf8+aofoVGEEnUDi4M3H+FYrwgpSpvS6sKQNvaQpjLWbZmBTFHbGuY/8r4KbP7KqqcGKW3NlxhFcwSjdV2oFJ/tWBMWtI6Z7nVhmv08CVqgdLSDto6qvt7HChKy0QFjZzp/TR4ufSXaamuHrHbBG2tC5ovbzzXQXadtxNDVa7RRNx+QdeSdAclck2R06hW9rWoosOqfv2etW7J3/s1jprM4v85+LoXP/jM1o0vdLOKOEjaNz+k9jB2SUJX0QLVAqTsormngrH6dd8U1KILKdSyw19cC1e/Q1V6mhxbjWQWr0HChSW9jHBsowx57W0U8z07/nlyGv63KCkrqfbcFwN4W27qydXsRMJ+N9V16HDSO2dzbiwLbuSyzcWaN2nEJomfeckn5cIk2UM3EVaWTqXY0NbWiAzomRphEoGn4Am+W9OpB6kIQ+Q0DWKb8rxZaLtwPDTsMVMMo+s7/4Q9t38tqsctfNIEqS/nuG7tV1ukhyvHdNqfK6RznMerY29lcfdd2Hg8lf+3hUmtN57uyvsbowkDlAQaq1JW+gWohfB924OCAHkIab18NXfhptnMHpxxMrjGC1lMUrrK10RzF8rZu5H9YiEz7ccearSdYNddWpilE/u3nevnDpyhy7T6ojnoVtHSECUbJm/Ln23YYvaLTGrxThI3TbeW+SdhxsgznD9mOCc6tvtsQaLZGGqyO91k02O/L5v3iXO7Odybya4w2TTgf8gzmobbtMKo+nOoczVBHxtqNAFGH2pBnoIst6ExC1U3RkXcHp+mLcKVXPZc8LCY3UM3DJeNaXMHJt1T5DBFYAhdsvw9EoLLaZKL2jvrPStBU6uuhNB/XtZCmPIdl1mfG++wc35NgHRrMkayJ2HNN3K/BMuy3tbHEO+WvAre0bdJ70WpMi0uKaAOVy5iasmcEGt2yf6vD+NdF2etFeLNWP56/69fOdgxUwyiO0RRN9N/nw7vElLiSOVgcsnX/q/h51quuYzYj9P1PfqDKwNp37usj5+vOIV9SPpowUHmAgSp1pVegkqvtaMHkkNGDHLx3Qy9vutHiKlOtxqq7on240SYZXwdKtfNKRst2fYN6o2yb869zkSUrUE1C7V29wxq84xrNiMDqKLeh64x7yp3RKVc6wieNY5k4dkMPKrIwYr8W2dbiYfk2oUu7jvABJKags8oIDk24FBLsFLvE6M7jGlS5vmfmeYbY5a/zhLNNqOgCla+8Sg8xwSock4yW5Z6u06/FPi3ODFRK0F2gHzOfozkiZYQY+/njf3bm5weV+yXOaZpbhIB2Pa7wZoozUE0yFoB/gZOy8mHDQGUPVMuU8OP4I5Ri3Oq7enCpOucsY6AaRsMdqHw4d1z//K61xvrDGKRRoMr42e/xQP3dVPR7HJaVjyIMVB5goEpd6Raoau+o0/aeoFZMv6tXwlJoZ09lbVaxr1RWnoFpLWK06d4tTJCUyxnBJzRQzW0Xo1MxfZ4hSYHK7NBexvUSSfkQjI5ysH2F5J7LOsJr0KmNmrShM8wzKGgRgeReEXIl5XKyAOAUS6DKF1PfHnfvDfMXxHUi8ITeM/M8Q4gcDKILVEdsAUdWnrHOCIa2UUIRqILt+WY94zkGzkwSx2T3M/5nZ3x+V02mo74u0s8aZ6Ca+YX+V+DNLdggKx82DFRWoLmNybKXDIcLLgxUw2j4R6h2bN6lf4friuHfnINNsWyznk6BasT+2BM7BioPMFClrvQKVLYQ41MCiFgLdeyMbG7yVTGSZIQwiW4RgMJs+JD5zink1XShyNFOCXNaUAsNVPm3xfliGfEyJSlQmRsA1KBKVj4Eo6Mc/WiS0XluQ+8d9QW2Et1iw4Iwmw1MfWcRjtTsxXVHuzqxIYM3gcqsO3DWdg7Z+UI7+bGcJ7zoApUZaHv1tUyhJC8IFoHK/syMz7F+Flmgiv/ZhX6+HQOVZkwGqi+QLStnoBoBwx+oMsb5cGp/sf49Npzajhsb5pi76oXFQDUqMVB5gIEqdaVtoFKViCl2A99gbsgUKCtQReQOVL6jWHVHhK2wGKgiMzrPUXAHKl8uGu6IDntYHgeqKIyGQBWZl4EqCgxUSgeNgYqBajRJQqASpvxsBuo3r0eXsdGE5gC6Nk/DO5L6GgaqUYmBygMMVKkrrQNVxgEUih31QkepruKg0Wab/Xhkc6+JMBV8gsKSA5jgCGvhp/y9d1O/lk9vX3Ucj06SApU5LWzozrtM7IHKmCqnnCvGZ7DnmghTwTqcL8lFruMZyAKAUyxBx5y6dmdTmOmj4SU1UN1U6yj3vy1PWi4Vd6CK/9mNSKAyX6LJNVTJl2CgOs1A5b3kBSq7KZOn4dQeI7SU4Op8eb20ClRcQxWKnfLUxWeX4sIGqgxMOP1EDzEho1SrseqeHlBiGzGygs2xM6tDy32nUBQmUE04I65F3QHQvRg/oqPYbE5hlJx3SHkobg3gwYMHeNDjR+PmLEkdg7V5xEB7fkwBIvZANQkN92Jto7I61dY6HxvfIlyPEKhiWptVUiY2e6hBVZhdA8NJZqDKPXNWP1eY6ZFScQeqeJ9d4oHK2MlQ+uzDeeVjfKkFKu7y55a1uhqdgX70BzpRvXqo3w3xSjBQydZezbqIPGPL9dEUqN4txiV/D/r/5MelX8fwh42kG5lApXsVpw7p57be4eSyYLX+/a/Oj/qdcV4YiUCV//ZdffR8TV0UL/dV/lve7EfP1z3wNxcjT1pn+DBQeYCBKnWle6DK8DWgSGyd7h6lmnDS2Br9OUobK1wjTfoaqfzWb7Dc8U4iK9g4N7xYiMml3agc1Mvk12JthPHpwKOQFwcPvW16BvLEroSfBpW2S2PYJbDgPAJqmDL4q5EjqyesNDZheNyGQKvrpbVRbJseSwc796SxvfZldDXmuUaa9DVSVa1lqHU8A6tTPXBjjW0nwolYWXoYAeM9TEMFkFKxI57yM/prZkQIjtb5Hn9VhiMrXC+sVe5JQUkROptXOI8rkhmoMuauM7dGV7e73zHbtenD9KnKszuMKzW25xN3oIr32SUaqKzNN9SAW7tUtrGFzEi972X0B6oTHbbfDT1XsFNSJzFxBqpxSjsRmhZu22odn3MR8xv146MtUK25IP5wpfGjOldeb+QNd6CagB1zffj5a6FlWdlzcKM2wrmz58OvnecQujZNwRRZnWGQ/EAV4/vxXP8t938c627BiWGg8gADVepK+0ClmNb8VIQY9yhVIX5hvjdKZ7ykt9F8Se8zbHZ1CKddEJ+nEi/mNV/q+/AZarUAJ7+WjG3dqLa9AHjIF/u6repCtdFOYV6raqgX+7oD1b9/MmSgysiYiqqbzvVJ+hbfoiOrkHWG4wlU6rn2m++Nsp9LYb6ktxmXXM/ACn0KY0ty82W9zRgY0NuFDyBv4Xy3qG//DE3oi319a4vQJcKKs751Tx7fXOdoozID1RDbpgcuuO/XGnQ66tjOYT8ueYntggNlYsqmYL781voMx0tzEwhU8T67RANVxqq9YidKwTinKuyLfTMwO1f8JXhb2zD+1dv1gl7zRaiKU7bjR+Zjlb3du+/b2ijCvNjUv8ZnO5c3drb2WL8bHnyJxnx5vfjFGagyfJi4S0zrU6z4zQDylSClvxj4Pt4sFtuthwSqMuQ0KHVttDaK9xttx0+cw2v2du/93tEm/zd6G+MlxIb568PsoqnI+dhvu5f9uH5QXi/5fKg/Yvt+KfrrxPey1n78fde0szi/z2bwUtSVWPVs66jUNkP9sWBfke1c9s9QePViXytADS3sSFqiJl5EjzZyfh/NEyXlbrnV8Jvfrwfob/9IXm+YMFB5gIEqdTFQKeZ24JgIIaFrqXIwee8tFHc/s4UoNaw8w7Frt/CLFc5RJN1CvHF6EJVi5EsTfIbKjg7Mmp0jNp8Icy2q6Uex/NoTVJujWQolWFXf6Ua+a9QqxNoWbL/jvFbNUEEspil/hkzkH9oPf3ezrXOsdJj7zqKzcZFz1EqIL1CplHPtLUKn61yPB5vQda0I+90jQpqJ2Hj6OAIDtrARbEagY5s2MqNfy1CBSuHLxbHWGvTaA4smTLvp81Dlrq8EpYHuKlw5GTpCozID1RBC75cRKiIIM7XPt3QRGjrOYsB1nb13y9BQ8pbzRcgJBSpV7M8u4UCl8K1dhyt3mpznVA013fGVMnxepP81+MvZs+V1EmbrSA7FPfJkjEhFMCwdu6ytuPQno5MWwPkCSZ2ExBuoFOOWImvbbSxpMsLNAPKOXETWZCVYGu1CApVxvgjc5zM+L4KF24Ya4cxD9R/6zQ5v5zFZnZFgjUgNzT0yE+f3OWMK6ku2IKCEHzO4qdRgVF6Ai+/5ohh1eh07Vr4Pf6UtWAmxjaqFN7KByod9i3u130cPVlZEMd1Pl1flR7/4fj3oOCGtM1wYqDzAQJW60iJQERFFYaWxXmHn73H4FXmddLS1RYxSfX0FxZJyil6W0uHVA9WX+GTUTvmjETfpInr2Kr+L9t5FUzSjU4Ysa5Tqy1pO+Us5DFSpi4GKiMhQiOaN+iiV+ldha/1d+spaXI3OftFBa4xiHQeFN20nLgX0e6lOx8qS1SF6ZStaxe+hnne3xrD50xTsbBGzTfqv46MsWZ3hw0DlAQaq1MVARURk81oFbu2MpzMzlizBiZZO+Lus9VM97UeTvmvYWLGzoROd/gD6vxVhqqsRW5Pc2aVUkYeTKwf0kfJ157BSWsflw0Z0dvgREH/4eND/ZZRT973FQOUBBqrUxUBFROTky27Rp9sUD+DWjDekdca29fq6qW/70dN1HZ/sWsLRlAScuCGCVMCPS8fWJ21XOko1b2D3gvt6mNrYhn2SXRClKjr1IPV1AP7mE1g/TVInCRioPMBAlboYqIiIQi34X23oWX8R27mWioiSxJd9Dv9v/e9RHm2YGkUYqDzAQJW6GKiIiIiIKBEMVB5goEpdDFRERERElAgGKg8wUKUuBioiIiIiSgQDlQcYqFIXAxURERERJYKBygMMVKmLgYqIiIiIEsFA5QEGqtTFQEVEREREiWCg8gADVepioCIiIiKiRDBQeYCBKnUxUBERERFRIhioPMBAlboYqIiIiIgoEQxUHmCgSl0MVERERESUCAYqDzBQpS4GKiIiIiJKBAOVBxioUhcDFRFRqKn/2oKewhZsf0VePqLGvYp3sl/HFFkZ0QiaNWkCfv6avIwi8034GLc2fYGTKXgPGag8wECVuhioiFJP1e3f4fFjt2Zc2SyvT7HxZStham8Qj4oHcOvN2dI6GRk5aD9zCP2qkhz9WG4+esSxG0vc9XXlJaKNw05cnCGvH2L8TLSfEu2OzMcyWR27xQXmedoX68d2by0WxwpQOc5VPw1kHwniV5+69WLGTHl9XQXmhLRR1LZgvLT+SMnGxQrx/ahYiA/UY+Pfhl98BwKbsiVtMvDBhp3iO+FkfGciexXle0r0dnUbUT9VViddxPcMMjLeQPkvB5TfO8rvnh2pF6oYqDzAQJW60iJQbe5G7eO/4VO3h89R3/0IhYd2y9ullNWYe+ERKvue42C1rJxikVuyF/7uZgRvbpKWe2Vja7MkGDkNtM4Labfnt1Xw3zScxYBWl4EqI2MS9l+oQqCvDf54/z14rQK3doowNTNPXkczA1dr9Q5ST9EM/diMhQiITlO4juiOX61G+x7DFlE/hkC1YLXeUdMUoFxWx27+ShHySnB1vn7M6jxH0X4MmvjBF5jzkeEulmjhKFKgKsI0s42isneUBqoJqC8T34+y+VisHbPCf2CDvDO/+L0ltu/lenSJ73b0gUoJ+nXivDG1i8PkHLQc2o6eMhFWhtO4Cdi3tgBdpw6YP1t/1RZcXTkF78jqa+J7Bro8nFwpQtXGUTpCHgYDlQcYqFJXugWqpsHnaBSabOGq/lqDvG3KqMD2Pv1nKWWgSpgZdG4nKVA9bENw8LJU4EJooHLaBD8DlTAPV/r0IBpfoFqOpnVqmAqif/Gv4ZPWMVh/hTY7SFEEKiejkxVDoBqXjXNlaufuAALbZ2CWrI6deU3WOdI9UDkZI0+RApXLL78YpYHKNgpqjJxG3Zk3WN/tWILRpg+2oF8NVRX52DdeXscTxqirMfozTLKy56C9Wr8P/XUH0FNdjJ5aK1j1KPc3XKhK6Bm8shWtm8XvoQVbI/weGj0YqDzAQJW60itQPcN2e4fTtxt57c9EqHqOol22spTDQOWlpAeqhM7DQGVJLFAtyL2r/2V4Wxv2RfzLsCRQjZuDG1qnKdqAFEegipUkUGUtSU6HNDWkQ6BSvquV+rHoAlJ8gSppkhKoXsVhMYUxsGcOPrBNv1us/PtjTu1d9qqtjSXRZ6BOO+5XfxcV96J1krzOaMNA5QEGqtSV1oFKcx77gnoQqb6QylP/GKi8xECVqhIIVK8cxOfmVL9w66bsrGk9/jUTxLFYA1ISAlX2fLF2Ywvqs8WxJP2FPzWMvUC1r0gPAuZU1JgDEgOVZlw26jfIRqFexalD+v2xApNT4s/Ah8PGeqpVH2O2tM7owkDlAQaq1MVAZQWR2pajrjJd5oar2H7nGZoe6vX0tVeDWL5hobS+KnNFA5a36mua7FMLG3sfYfsJ+XksC/HGyW6U9trays4Zbm2YTF833nCcI3G+pYvQ0HEWA0G9A6sZbEJX8wrk+0Lr6xspiE6/bwaONNeg12j78DIC19ZJ26mmbliHK3eaEHxo1G/DQPdx1G6YKK2vmroiH7Wt+noa8/oetyHYW4MrJ3Jd0yisjnhkYYKL8jPtaTyOwIDtfEPcD9WIBKrp81DVarv3imDfWXSenoep7rrVNfrnbsvEjgt1GNDuvzoNMU+5f1NxrENc/8NmdJZPdbYVYn129u+Jb+kKXLl7WW+nCir3s3GR8zo3HxZryKLQdxgb7W1tZs++bY5O7ZaUyxh/hbY6SMMVqIx6LlF1KI22tul9oypQiUCjBRMfMt9twbz6IFZoISeIZdW3MW3OlNB2M1uwcIhAM36bWON0pCKkzGnsBSpjSqc1tWz4ApU5EuMQ5ff/NR8qP9yCgH190hl9al3XBuczl59HLhkh0Jw2G+bfocSfgWLiRfRoo1T30TxRUj7KMFB5gIEqdaV9oFpwC5VamXzKn6/6ERpFKFE3sDh48xGO9YqQorQprS4MaWMPaSpj3ZYZyBS1rWH+I++rwOavrHpqkNLWfIlRNEcwWteFSvHZjjVhQeuY6V4XptnPk6AFSkc7aOuo6ut9rCAhGx0wdqbz1+Th0leirbZ2yGoXvLEmZL64/VwD3XXaRgxdvUYbdfMBWUfeGZDMNUlGp17R26qGAqv++XvWuiV75988ZjqL8+vs51L47D9TM7rUzSLuKGHT+Jzew9ghCVVJD1QLlLqD4poGzurXeVdcgyKoXMcCe30tUP0OXe1lemgxnlWwCg0XmvQ2xrGBMuyxt1XE8+z078ll+NuqrKCk3ndbAOxtsa0rW7cXAfPZWN+lx0HjmM29vSiwncsyG2fWqB2XIHrmLZeUD5doA9VMXFXXbxiMdRxjYoRJBJqGL/BmSa8epC4Ekd8wgGXK/2qh5cL90LDDQDWMou/8H/7Q9r2sFrv8RROospTvvrFbpbE+yf7ddo38OM5j1LG3s7n6ru08w8TcKXP/HGRJyr2x1FrT+a6srzG6MFB5gIEqdaVvoFoI34cdODigh5DG21dDF36a7dzBKQeTa4yg9RSFq2xtNEexvK0b+R8WItN+3LFm6wlWzbWVaQqRf/u5Xv7wKYpcuw+qo14FLR1hglHypvz5th1Gr+i0Bu8UYeN0W7lvEnacLMP5Q7ZjgnOr7zYEmq2RBqvjfRYN9vuyeb84l7vznYn8GqNNE86HPIN5qG07jKoPpzpHM9SRsXYjQNShNuQZ6GILOpNQdVN05N3BafoiXOlVzyUPi8kNVPNwybgWV3DyLVU+QwSWwAXb7wMRqKw2mai9o/6zEjSV+noozcd1LaQpz2GZ9ZnxPjvH9yRYhwZzJGsi9lwT92uwDPttbSzxTvmrwC1tm/RetBrT4pIi2kDlMqam7BmBRrfs3+ow/nVR9noR3qzVj+fv+rWzHQPVMIpjNEUT/ff58C4xJa5kDhaHbN3/Kn6eJV+bpBnx7/8UtFTp96drrTHdd3isfee+PnK+7hzyJeWjCQOVBxioUld6BSq52o4WTA4ZPcjBezf08qYbLa4y1WqsuivahxttkvF1oFQ7r2S0bNc3qDfKtsnnZYeXrEA1CbV39Q5r8I5rNCMCq6Pchq4z7il3Rqdc6QifNI5l4tgNPajIwoj9WmRbi4fl24Qu7TrCB5CYgs4qIzg04VJIsFPsEqM7j2tQ5fqemecZYpe/zhPONqGiC1S+8io9xASrcEwyWpZ7uk6/Fvu0ODNQKUF3gX7MfI7miJQRYuznj//ZmZ8fVO6XOKdpbhEC2vW4wpspzkA1yVgA/gVOysqHDQOVPVAtU8KP449QinGr7+rBpeqcs4yBahgNd6Dy4dzxBALJCH//l63Zop//1GqUD+duhqqf/R4P1N9NRb/HYVn5KMJA5QEGqtSVboGq9o46be8JasX0u3olLIV29lTWZhX7SmXlGZjWIkab7t3CBEm5nBF8QgPV3HYxOhXT5xmSFKjMDu1lXC+RlA/B6CgH21dI7rmsI7wGndqoSRs6wzyDghYRSO4VIVdSLicLAE6xBKp8MfXtcffeMH9BXCcCT+g9M88zhMjBILpAdcQWcGTlGeuMYGgbJRSBKtieb9YznmPgzCRxTHY/4392xud31WQ66usi/axxBqqZX+h/Bd7cgg2y8mHDQGUFmtuYLHvJcLjgwkA1jIZ/hGrH5l36d7iuGP7NOdgUSzAZwe//O2/no0t731aJcm9el9bx1Ij9sSd2DFQeYKBKXekVqGwhxqcEELEW6tgZ2dzkq2IkyQhhEt0iAIXZ8CHznVPIq+lCkaOdEua0oBYaqPJvi/PFMuJlSlKgMjcAqEGVrHwIRkc5+tEko/Pcht476gtsJbrFhgVhNhuY+s4iHKnZi+uOdnViQwZvApVZd+Cs7Ryy84V28mM5T3jRBSoz0Pbqa5lCSV4QLAKV/ZkZn2P9LLJAFf+zC/18OwYqzZgMVF8gW1bOQDUChj9QZYzz4dR+sQ7JcGo7bmyYgx2Rpt2O0Pc/682FIkwdQteG7GFcO2XDQBWKnfLUxWeX4qRrqBQlYordwDeYGzIFygpUEbkDle8oVt0RYSssBqrIjM5zFNyBypeLhjuiwx6Wx4EqCqMhUEXmZaCKAgOV0kFjoGKgGk2SEKiEKT+bgfrN69Fle2GuutNf1+ZpYV+aOxLf/yk5S5IfplQMVKHYKU9dfHYpLlygyjiAQrGjXugo1VUcNNpssx+PbO41EaaCT1BYcgATHGEt/JS/927q1/Lp7auO49FJUqAyp4UN3XmXiT1QGVPllHPF+Az2XBNhKliH8yW5yHU8A1kAcIol6JhT1+5sCjN9NLykBqqbah3l/rflScul4g5U8T+7EQlU5ks0uYYq+RIMVKcZqLyXvEBlN2XyNJzaI7YjP1OCq/Pl9ZL9/bfClBL0PkhimFJxDVUodspTF59digsbqDIw4fQTPcSEjFKtxqp7ekCJbcTICjbHzqwOLfedQlGYQDXhjLgWdQdA92L8iI5iszmFUXLeIeWhuDWABw8e4EGPH42bsyR1DNbmEQPt+TEFiNgD1SQ03Iu1jcrqVFvrfGx8i3A9QqCKaW1WSZnY7KEGVWF2DQwnmYEq98xZ/VxhpkdKxR2o4n12iQcqYydD6bMP55WP8aUWqLjLn1vW6mp0BvrRH+hE9eqhfjfEK8FAJVt7Nesi8owt10dToHq3GJf8Pej/kx+Xfh3DHzaSbmQClc56aa71DieXBav17391ftTvjIuXfc2Uf02Sw5Qi/+27+uj5mrooXu6r/Le82Y+er3vgby5GnrTO8GGg8gADVepK90CV4WtAkdg63T1KNeGksTX6c5Q2VrhGmvQ1Uvmt32C5451EVrBxbnixEJNLu1E5qJfJr8XaCOPTgUchLw4eetv0DOSJXQk/DSptl8awS2DBeQTUMGXwVyNHVk9YaWzC8LgNgVbXS2uj2DY9lg527klje+3L6GrMc4006WukqlrLUOt4BlaneuDGGttOhBOxsvQwAsZ7mIYKIKViRzzlZ/TXzIgQHK3zPf6qDEdWuF5Yq9yTgpIidDavcB5XJDNQZcxdZ26Nrm53v2O2a9OH6VOVZ3cYV2pszyfuQBXvs0s0UFmbb6gBt3apbGMLmZF638voD1QnOmy/G3quYKekTmLiDFTjlHYiNC3cttU6Puci5jfqx0dboFpzQfzhSuNHda683sgb7kA1ATvm+vDz10LLsrLn4EZthHNnz4dfO88hdG2agimyOh6wh6kby31JD1Mxvx/P9d9y/8ex7hacGAYqDzBQpa60D1SKac1PRYhxj1IV4hfme6N0xkt6G82X9D7DZleHcNoF8Xkq8WJe86W+D5+hVgtw8mvJ2NaNatsLgId8sa/bqi5UG+0U5rWqhnqxrztQ/fsnQwaqjIypqLrpXJ+kb/EtOrIKWWc4nkClnmu/+d4o+7kU5kt6m3HJ9Qys0KcwtiQ3X9bbjIEBvV34APIWzneL+vbP0IS+2Ne3tghdIqw461v35PHNdY42KjNQDbFteuCC+36tQaejju0c9uOSl9guOFAmpmwK5stvrc9wvDQ3gUAV77NLNFBlrNordqIUjHOqwr7YNwOzc8Vfgre1DeNfvV0v6DVfhKo4ZTt+ZD5W2du9+76tjSLMi039a3y2c3ljZ2uP9bvhwZdozJfXi1+cgSrDh4m7xLQ+xYrfDCBfCVL6i4Hv481isd16SKAqQ06DUtdGa6N4v9F2/MQ5vGZv997vHW3yf6O3MV5CbJi/Pswumoqcj/22e9mP6wfl9ZLPh/ojtu+Xol+sF+qvtR9/3zXtLM7vsxm8FHUlVj3bOiq1zVB/LNhXZDuX/TMU3rzY1wqVEbleQuyZiRfRo42c30fzREm5W241/Ob36wH62z+S1xsmDFQeYKBKXQxUirkdOCZCSOhaqhxM3nsLxd3PbCFKDSvPcOzaLfxihXMUSbcQb5weRKUY+dIEn6GyowOzZueIzSfCXItq+lEsv/YE1eZolkIJVtV3upHvGrUKsbYF2+84r1UzVBCLacqfIRP5h/bD391s6xwrHea+s+hsXOQctRLiC1Qq5Vx7i9DpOtfjwSZ0XSvCfveIkGYiNp4+jsCALWwEmxHo2KaNzOjXMlSgUvhycay1Br32wKIJ0276PFS56ytBaaC7CldOho7QqMxANYTQ+2WEigjCTO3zLV2Eho6zGHBdZ+/dMjSUvOV8EXJCgUoV+7NLOFApfGvX4cqdJuc5VUNNd3ylDJ8X6X8N/nL2bHmdhNk6kkNxjzwZI1IRhJ0ilYisrbj0J6OTFsD5AkmdhMQbqBTjliJr220saTLCzQDyjlxE1mQlWBrtQgKVcb4I3OczPi+ChduGGuHMQ/Uf+s0Ob+cxWZ2REG14KEC5o12c3+eMKagv2YKAEn7M4KZSg1F5AS6+54ti1Ol17Fj5PvyVtmAlxDaqFs5IByof9i3u1X4fPVhZEcV0P11elR/94vv1oOOEtM5wYaDyAANV6kqLQEVEFIWVxnqFnb/H4VfkddLR1hYxSvX1FRRLyil6WUqHVw9UX+KTUTvlj0bcpIvo2av8Ltp7F03RjE4ZsqxRqi9rOeUv5TBQpS4GKiIiQyGaN+qjVOpfha31d+kra3E1OvtFB60xinUcFN60nbgU0O+lOh0r+WtyKCW8shWt4vdQz7tbY9j8aQp2tojZJv3X8VGWrM7wYaDyAANV6mKgIiKyea0Ct3bG05kZS5bgREsn/F3W+qme9qNJ3zVsrNjZ0IlOfwD934ow1dWIrUnu7FKqyMPJlQP6SPm6c1gprePyYSM6O/wIiD98POj/Msqp+95ioPIAA1XqYqAiInLyZbfo022KB3BrxhvSOmPben3d1Lf96Om6jk92LeFoSgJO3BBBKuDHpWPrh21XOkp1b2D3gvt6mNrYhn2SXRClKjr1IPV1AP7mE1g/TVInCRioPMBAlboYqIiIQi34X23oWX8R27mWioiSxJd9Dv9v/e9RHm2YGkUYqDzAQJW6GKiIiIiIKBEMVB5goEpdDFRERERElAgGKg8wUKUuBioiIiIiSgQDlQcYqFIXAxURERERJYKBygMMVKmLgYqIiIiIEsFA5QEGqtTFQEVEREREiWCg8gADVepioCIiIiKiRDBQeYCBKnUxUBERERFRIhioPMBAlboYqIiIiIgoEQxUHmCgSl0MVERERESUCAYqDzBQpS4GKiIiIiJKBAOVBxioUhcDFRFRqKn/2oKewhZsf0VePqLGvYp3sl/HFFkZ0QiaNWkCfv6avIwi8034GLc2fYGTKXgPGag8wECVuhioiFJP1e3f4fFjt2Zc2SyvT7HxZStham8Qj4oHcOvN2dI6GRk5aD9zCP2qkhz9WG4+esSxG0vc9XXlJaKNw05cnCGvH2L8TLSfEu2OzMcyWR27xQXmedoX68d2by0WxwpQOc5VPw1kHwniV5+69WLGTHl9XQXmhLRR1LZgvLT+SMnGxQrx/ahYiA/UY+Pfhl98BwKbsiVtMvDBhp3iO+FkfGciexXle0r0dnUbUT9VViddxPcMMjLeQPkvB5TfO8rvnh2pF6oYqDzAQJW60iJQbe5G7eO/4VO3h89R3/0IhYd2y9ullNWYe+ERKvue42C1rJxikVuyF/7uZgRvbpKWe2Vja7MkGDkNtM4Labfnt1Xw3zScxYBWl4EqI2MS9l+oQqCvDf54/z14rQK3doowNTNPXkczA1dr9Q5ST9EM/diMhQiITlO4juiOX61G+x7DFlE/hkC1YLXeUdMUoFxWx27+ShHySnB1vn7M6jxH0X4MmvjBF5jzkeEulmjhKFKgKsI0s42isneUBqoJqC8T34+y+VisHbPCf2CDvDO/+L0ltu/lenSJ73b0gUoJ+nXivDG1i8PkHLQc2o6eMhFWhs2r+OC9hWgv3Yke42erO4Ce8vVoyfcNMUIc3zPQ5eHkShGqNo7SEfIwGKg8wECVutItUDUNPkej0GQLV/XXGuRtU0YFtvfpP0spA1XCzKBzO0mB6mEbgoOXpQIXQgOV0yb4GaiEebjSpwfR+ALVcjStU8NUEP2Lfw2ftI7B+iu02UGKIlA5GZ2sGALVuGycKzugtDmAwPYZmCWrY2dek3WOdA9UTsbIU6RA5fLLL0ZpoLKNghojp1F35g3WdzuWYLTpgy1K4FDaVeRj33h5HU8Yo67G6M9wsf373H+qGD3VClto7FHu7zuydoqEnsErW9G6WfweWrA1wu+h0YOBygMMVKkrvQLVM2y3dzh9u5HX/kyEquco2mUrSzkMVF5KeqBK6DwMVJbEAtWC3Lv6X4a3tWFfxL8MSwLVuDm4oXWaog1IcQSqWEkCVdaSJHVIU0I6BCrlu1qpH4suIMUXqJImWYFq2hycWzkNqxzh8FV8sHK9Ner7rr3MkugzUKcd96u/i4p70TpJXme0YaDyAANV6krrQKU5j31BPYhUX0jlqX8MVF5ioEpVCQSqVw7ic3OqX7h1U3bWtB7/mgniWKwBKQmBKnu+WLuxBfXZ4liyOqQpYewFqn1F+lomcypqzAGJgWpoE3CuXL8/4UabEn8GPhw21lOt+hizpXVGFwYqDzBQpS4GKiuI1LYcdZXpMjdcxfY7z9D0UK+nr70axPINC6X1VZkrGrC8VV/TZJ9a2Nj7CNtPyM9jWYg3TnajtNfWVnbOcGvDZPq68YbjHInzLV2Eho6zGAjqHVjNYBO6mlcg3xdaX99IQXT6fTNwpLkGvUbbh5cRuLZO2k41dcM6XLnThOBDo34bBrqPo3bDRGl91dQV+aht1dfTmNf3uA3B3hpcOZHrmkZhdcQjCxNclJ9pT+NxBAZs5xvifqhGJFBNn4eqVtu9VwT7zqLz9DxMddetrtE/d1smdlyow4B2/9VpiHnK/ZuKYx3i+h82o7N8qrOtEOuzs39PfEtX4Mrdy3o7VVC5n42LnNe5+bBYQxaFvsPYaG9rM3v2bXN0arekXMb4K7TVQRquQGXUc4mqQ2m0tU3vG1WBSgQaLZj4kPluC+bVB7FCCzlBLKu+jWlzpoS2m9mChUMEmvHbxBqnIxUhZU5jL1AZUzqtzv7wBSpzJMYhyu//az5UfrgFgVPqFFaj7QFtal3XBuczl59HLhkh0LiecIEq8WegmHgRPdoo1X00T5SUjzIMVB5goEpdaR+oFtxCpVYmn/Lnq36ERhFK1A0sDt58hGO9IqQobUqrC0Pa2EOayli3ZQYyRW1rmP/I+yqw+SurnhqktDVfYhTNEYzWdaFSfLZjTVjQOma614Vp9vMkaIHS0Q7aOqr6eh8rSMhGB4yd6fw1ebj0lWirrR2y2gVvrAmZL24/10B3nbYRQ1ev0UbdfEDWkXcGJHNNktGpV/S2qqHAqn/+nrVuyd75N4+ZzuL8Ovu5FD77z9SMLnWziDtK2DQ+p/cwdkhCVdID1QKl7qC4poGz+nXeFdegCCrXscBeXwtUv0NXe5keWoxnFaxCw4UmvY1xbKAMe+xtFfE8O/17chn+tiorKKn33RYAe1ts68rW7UXAfDbWd+lx0Dhmc28vCmznsszGmTVqxyWInnnLJeXDJdpANRNX1fUbhlrRAR0TI0wi0DR8gTdLevUgdSGI/IYBLFP+VwstF+6Hhh0GqmEUfef/8Ie272W12OUvmkCVpXz3jd0q1Y0e3N9tc6qcznEeo469nU24aXjese7PjWWvSsq9stRa0/murK8xujBQeYCBKnWlb6BaCN+HHTg4oIeQxttXQxd+mu3cwSkHk2uMoPUUhatsbTRHsbytG/kfFiLTftyxZusJVs21lWkKkX/7uV7+8CmKXLsPqqNeBS0dYYJR8qb8+bYdRq/otAbvFGHjdFu5bxJ2nCzD+UO2Y4Jzq+82BJqtkQar430WDfb7snm/OJe7852J/BqjTRPOhzyDeahtO4yqD6c6RzPUkbF2I0DUoTbkGehiCzqTUHVTdOTdwWn6IlzpVc8lD4vJDVTzcMm4Fldw8i1VPkMElsAF2+8DEaisNpmovaP+sxI0lfp6KM3HdS2kKc9hmfWZ8T47x/ckWIcGcyRrIvZcE/drsAz7bW0s8U75q8AtbZv0XrQa0+KSItpA5TKmpuwZgUa37N/qMP51UfZ6Ed6s1Y/n7/q1sx0D1TCKYzRFE/33+fAuMSWuZA4Wh2zd/yp+njVEUBnh7/8qYw3V8YXYNMyvHVj7zn195HzdOeRLykcTBioPMFClrvQKVHK1HS2YHDJ6kIP3bujlTTdaXGWq1Vh1V7QPN9ok4+tAqXZeyWjZrm9Qb5Rtc/51LrJkBapJqL2rd1iDd1yjGRFYHeU2dJ1xT7kzOuVKR/ikcSwTx27oQUUWRuzXIttaPCzfJnRp1xE+gMQUdFYZwaEJl0KCnWKXGN15XIMq1/fMPM8Qu/x1nnC2CRVdoPKVV+khJliFY5LRstzTdfq12KfFmYFKCboL9GPmczRHpIwQYz9//M/O/Pygcr/EOU1zixDQrscV3kxxBqpJxgLwL3BSVj5sGKjsgWqZEn4cf4RSjFt9Vw8uVeecZQxUw2i4A5UP547rn9+11lh/GIMkf/+tVx0UwF+lj471HMnDjmS8J+pnv8cD9XdT0e9xWFY+ijBQeYCBKnWlW6CqvaNO23uCWjH9rl4JS6GdPZW1WcW+Ull5Bqa1iNGme7cwQVIuZwSf0EA1t12MTsX0eYYkBSqzQ3sZ10sk5UMwOsrB9hWSey7rCK9BpzZq0obOMM+goEUEkntFyJWUy8kCgFMsgSpfTH173L03zF8Q14nAE3rPzPMMIXIwiC5QHbEFHFl5xjojGNpGCUWgCrbnm/WM5xg4M0kck93P+J+d8fldNZmO+rpIP2ucgWrmF/pfgTe3YIOsfNgwUFmB5jYmy/7aHy64MFANo+EfodqxeZf+Ha4rhn9zDjbFss16kr//0vVbn+zEjbXTwm6b7pkR+2NP7BioPMBAlbrSK1DZQoxPCSBiLdSxM7K5yVfFSJIRwiS6RQAKs+FD5junkFfThSJHOyXMaUEtNFDl3xbni2XEy5SkQGVuAFCDKln5EIyOcvSjSUbnuQ29d9QX2Ep0iw0Lwmw2MPWdRThSsxfXHe3qxIYM3gQqs+7AWds5ZOcL7eTHcp7wogtUZqDt1dcyhZK8IFgEKvszMz7H+llkgSr+Zxf6+XYMVJoxGai+QLasnIFqBAx/oMoY58Op/cX699hwajtubJiDHZGm3Y7g9z9r/OvY9F4+/GL911DvovIEA1UodspTF59dipOuoVKUiCl2A99gbsgUKCtQReQOVL6jWHVHhK2wGKgiMzrPUXAHKl8uGu6IDntYHgeqKIyGQBWZl4EqCgxUSseMgYqBajRJQqASpvxsBuo3r0eXsdGE5gC6Ng8x+jMavv/m+912oSVHUu4VBqpQ7JSnLj67FBcuUGUcQKHYUS90lOoqDhptttmPRzb3mghTwScoLDmACY6wFn7K33s39Wv59PZVx/HoJClQmdPChu68y8QeqIypcsq5YnwGe66JMBWsw/mSXOQ6noEsADjFEnTMqWt3NoWZPhpeUgPVTbWOcv/b8qTlUnEHqvif3YgEKvMlmlxDlXwJBqrTDFTeS16gspsyeRpO7dG3G9demjtfXm90fP+VexTTy5LjxDVUodgpT118dikubKDKwITTT/QQEzJKtRqr7ukBJbYRIyvYHDuzOrTcdwpFYQLVhDPiWtQdAN2L8SM6is3mFEbJeYeUh+LWAB48eIAHPX40bs6S1DFYm0cMtOfHFCBiD1ST0HAv1jYqq1NtrfOx8S3C9QiBKqa1WSVlYrOHGlSF2TUwnGQGqtwzZ/VzhZkeKRV3oIr32SUeqIydDKXPPpxXPsaXWqDiLn9uWaur0RnoR3+gE9Wrh/rdEK8EA5Vs7dWsi8gztlwfTYHq3WJc8veg/09+XPp1DH/YSLqRCVS6V3HqkH7ucO94yliwWv/+V+dH/c44z2W9LV6YncjPGln+23f10fM1dVG83Ff5b3mzHz1f98DfXIw8aZ3hw0DlAQaq1JXugSrD14AisXW6e5Rqwklja/TnKG2scI006Wuk8lu/wXLHO4msYOPc8GIhJpd2o3JQL5Nfi7URxqcDj0JeHDz0tukZyBO7En4aVNoujWGXwILzCKhhyuCvRo6snrDS2IThcRsCra6X1kaxbXosHezck8b22pfR1ZjnGmnS10hVtZah1vEMrE71wI01tp0IJ2Jl6WEEjPcwDRVASsWOeMrP6K+ZESE4Wud7/FUZjqxwvbBWuScFJUXobF7hPK5IZqDKmLvO3Bpd3e5+x2zXpg/TpyrP7jCu1NieT9yBKt5nl2igsjbfUANu7VLZxhYyI/W+l9EfqE502H439FzBTkmdxMQZqMYp7URoWrhtq3V8zkXMb9SPj7ZAteaC+MOVxo/qXHm9kTfcgWoCdsz14eeSXfKysufgRm2Ec2fPF2HmELo2TcEUWZ1hNOvNOWgXo1PDu4Yqxvfjuf5b7v841t2CE8NA5QEGqtSV9oFKMa35qQgx7lGqQvzCfG+UznhJb6P5kt5n2OzqEE67ID5PJV7Ma77U9+Ez1GoBTn4tGdu6UW17AfCQL/Z1W9WFaqOdwrxW1VAv9nUHqn//ZMhAlZExFVU3neuT9C2+RUdWIesMxxOo1HPtN98bZT+XwnxJbzMuuZ6BFfoUxpbk5st6mzEwoLcLH0DewvluUd/+GZrQF/v61hahS4QVZ33rnjy+uc7RRmUGqiG2TQ9ccN+vNeh01LGdw35c8hLbBQfKxJRNwXz5rfUZjpfmJhCo4n12iQaqjFV7xU6UgnFOVdgX+2Zgdq74S/C2tmH8q7frBb3mi1AVp2zHj8zHKnu7d9+3tVGEebGpf43Pdi5v7GztsX43PPgSjfnyevGLM1Bl+DBxl5jWp1jxmwHkK0FKfzHwfbxZLLZbDwlUZchpUOraaG0U7zfajp84h9fs7d77vaNN/m/0NsZLiA3z14fZRVOR87Hfdi/7cf2gvF7y+VB/xPb9UvTXie9lrf34+65pZ3F+n83gpagrserZ1lGpbYb6Y8G+Itu57J+h8OrFvs6XFuvM+yKucVjfQzXxInq0kfP7aJ4oKXfLrYbf/H49QH/7R/J6w4SBygMMVKmLgUoxtwPHRAgJXUuVg8l7b6G4+5ktRKlh5RmOXbuFX6xwjiLpFuKN04OoFCNfmuAzVHZ0YNbsHLH5RJhrUU0/iuXXnqDaHM1SKMGq+k438l2jViHWtmD7Hee1aoYKYjFN+TNkIv/Qfvi7m22dY6XD3HcWnY2LnKNWQnyBSqWca28ROl3nejzYhK5rRdjvHhHSTMTG08cRGLCFjWAzAh3btJEZ/VqGClQKXy6Otdag1x5YNGHaTZ+HKnd9JSgNdFfhysnQERqVGaiGEHq/jFARQZipfb6li9DQcRYDruvsvVuGhpK3nC9CTihQqWJ/dgkHKoVv7TpcudPkPKdqqOmOr5Th8yL9r8Ffzp4tr5MwW0dyKO6RJ2NEKoKwU6QSkbUVl/5kdNICOF8gqZOQeAOVYtxSZG27jSVNRrgZQN6Ri8iarARLo11IoDLOF4H7fMbnRbBw21AjnHmo/kO/2eHtPCarMxKsEamhFaDc0S7O73PGFNSXbEHAFVC0YFRegIvv+aIYdXodO1a+D3+lLVgJXq1pkm6Xfmon/HsWojJnArIkbbzjw77FvdrvowcrK6KY7qfLq/KjX3y/HnSckNYZLgxUHmCgSl1pEaiIiKKw0livsPP3OPyKvE462toiRqm+voJiSTlFL0vp8OqB6kt8Mmqn/NGIm3QRPXuV30V776IpmtEpQ5Y1SvVlLaf8pRwGqtTFQEVEZChE80Z9lEr9q7C1/i59ZS2uRme/6KA1RrGOg8KbthOXAvq9VKdjDe8IB6WsV7aiVfwe6nl3awybP03BzhYx26T/Oj7KktUZPgxUHmCgSl0MVERENq9V4NbOeDozY8kSnGjphL/LWj/V03406buGjRU7GzrR6Q+g/1sRproasTXJnV1KFXk4uXJAHylfdw4rpXVcPmxEZ4cfAfGHjwf9X0Y5dd9bDFQeYKBKXQxUREROvuwWfbpN8QBuzXhDWmdsW6+vm/q2Hz1d1/HJriUcTUnAiRsiSAX8uHRsfdJ3paNU8QZ2L7ivh6mNbdgn2QVRqqJTD1JfB+BvPoH10yR1koCBygMMVKmLgYqIKNSC/9WGnvUXsZ1rqYgoSXzZ5/D/1v8e5dGGqVGEgcoDDFSpi4GKiIiIiBLBQOUBBqrUxUBFRERERIlgoPIAA1XqYqAiIiIiokQwUHmAgSp1MVARERERUSIYqDzAQJW6GKiIiIiIKBEMVB5goEpdDFRERERElAgGKg8wUKUuBioiIiIiSgQDlQcYqFIXAxURERERJYKBygMMVKmLgYqIiIiIEsFA5QEGqtTFQEVEREREiWCg8gADVepioCIiIiKiRDBQeYCBKnUxUBERhZr6ry3oKWzB9lfk5SNq3Kt4J/t1TJGVEY2gWZMm4OevycsoMt+Ej3Fr0xc4mYL3kIHKAwxUqYuBiij1VN3+HR4/dmvGlc3y+hQbX7YSpvYG8ah4ALfenC2tk5GRg/Yzh9CvKsnRj+Xmo0ccu7HEXV9XXiLaOOzExRny+iHGz0T7KdHuyHwsk9WxW1xgnqd9sX5s99ZicawAleNc9dNA9pEgfvWpWy9mzJTX11VgTkgbRW0Lxkvrj5RsXKwQ34+KhfhAPTb+bfjFdyCwKVvSJgMfbNgpvhNOxncmsldRvqdEb1e3EfVTZXXSRXzPICPjDZT/ckD5vaP87tmReqGKgcoDDFSpKy0C1eZu1D7+Gz51e/gc9d2PUHhot7xdSlmNuRceobLvOQ5Wy8opFrkle+Hvbkbw5iZpuVc2tjZLgpHTQOu8kHZ7flsF/03DWQxodRmoMjImYf+FKgT62uCP99+D1ypwa6cIUzPz5HU0M3C1Vu8g9RTN0I/NWIiA6DSF64ju+NVqtO8xbBH1YwhUC1brHTVNAcpldezmrxQhrwRX5+vHrM5zFO3HoIkffIE5HxnuYokWjiIFqiJMM9soKntHaaCagPoy8f0om4/F2jEr/Ac2yDvzi99bYvterkeX+G5HH6iUoF8nzhtTuzhMzkHLoe3oKRNhJWleR3mJCI0q4w8pIeJ7Bro8nFwpQtXGUTpCHgYDlQcYqFJXugWqpsHnaBSabOGq/lqDvG3KqMD2Pv1nKWWgSpgZdG4nKVA9bENw8LJU4EJooHLaBD8DlTAPV/r0IBpfoFqOpnVqmAqif/Gv4ZPWMVh/hTY7SFEEKiejkxVDoBqXjXNlB5Q2BxDYPgOzZHXszGuyzpHugcrJGHmKFKhcfvnFKA1UtlFQs8MfbWfeYH23YwlGmz7Ygn41VFXkY994eR1PGKOuxuhPkryjnNcYgXbe31AJPYNXtqJ1s/g9tGBrhN9DowcDlQcYqFJXegWqZ9hu73D6diOv/ZkIVc9RtMtWlnIYqLyU9ECV0HkYqCyJBaoFuXf1vwxva8O+iH8ZlgSqcXNwQ+s0RRuQ4ghUsZIEqqwlI9MhHZ3SIVAp39VK/Vh0ASm+QJU0IxGospR/V7WptjtxY/8u1/0NlegzUKcd96u/i4p70TpJXme0YaDyAANV6krrQKU5j31BPYhUX0jlqX8MVF5ioEpVCQSqVw7ic3OqX7h1U3bWtB7/mgniWKwBKQmBKnu+WLuxBfXZ4tgI/YV/dBp7gWpfkT4tzZyKGnNAYqBysqb6dW3IxiZjhHeIQJX4M/DhsLGeatXHmC2tM7owUHmAgSp1MVBZQaS25airTJe54Sq233mGpod6PX3t1SCWb1gora/KXNGA5a36mib71MLG3kfYfkJ+HstCvHGyG6W9trayc4ZbGybT1403HOdInG/pIjR0nMVAUO/Aagab0NW8Avm+0Pr6Rgqi0++bgSPNNeg12j68jMC1ddJ2qqkb1uHKnSYEHxr12zDQfRy1GyZK66umrshHbau+nsa8vsdtCPbW4MqJXNc0CqsjHlmY4KL8THsajyMwYDvfEPdDNSKBavo8VLXa7r0i2HcWnafnYaq7bnWN/rnbMrHjQh0GtPuvTkPMU+7fVBzrENf/sBmd5VOdbYVYn539e+JbugJX7l7W26mCyv1sXOS8zs2HxRqyKPQdxkZ7W5vZs2+bo1O7JeUyxl+hrQ7ScAUqo55LVB1Ko61tet+oClQi0GjBxIfMd1swrz6IFVrICWJZ9W1MmzMltN3MFiwcItCM3ybWOB2pCClzGnuBypjSaU0tG75AZY7EOET5/X/Nh8oPtyBwSp3CarQ9gJ7qYiW4OJ+5/DxyXodAc6rf8YXYNM42ZXaIQJX4M1BMvIgebZTqPponSspHGQYqDzBQpa60D1QLbqFSK5NP+fNVP0KjCCXqBhYHbz7CsV4RUpQ2pdWFIW3sIU1lrNsyA5mitjXMf+R9Fdj8lVVPDVLami8xiuYIRuu6UCk+27EmLGgdM93rwjT7eRK0QOloB20dVX29jxUkZKMDxs50/po8XPpKtNXWDlntgjfWhMwXt59roLtO24ihq9doo24+IOvIOwOSuSbJ6NQrelvVUGDVP3/PWrdk7/ybx0xncX6d/VwKn/1nakaXulnEHSVsGp/Texg7JKEq6YFqgVJ3UFzTwFn9Ou+Ka1AEletYYK+vBarfoau9TA8txrMKVqHhQpPexjg2UIY99raKeJ6d/j25DH9blRWU1PtuC4C9LbZ1Zev2ImA+G+u79DhoHLO5txcFtnNZZuPMGrXjEkTPvOWS8uESbaCaiatKJ1PtaGpqRQd0TIwwiUDT8AXeLOnVg9SFIPIbBrBM+V8ttFy4Hxp2GKiGUfSd/8Mf2r6X1caGDVEEKnMKnaJOD1GO77YrrDjOY9Sxt7O5+q7tPIkyrrNuOy6+qR+LJlB5Y6m1pvNdWV9jdGGg8gADVepK30C1EL4PO3BwQA8hjbevhi78NNu5g1MOJtcYQespClfZ2miOYnlbN/I/LESm/bhjzdYTrJprK9MUIv/2c7384VMUuXYfVEe9Clo6wgSj5E358207jF7RaQ3eKcLG6bZy3yTsOFmG84dsxwTnVt9tCDRbIw1Wx/ssGuz3ZfN+cS535zsT+TVGmyacD3kG81DbdhhVH051jmaoI2PtRoCoQ23IM9DFFnQmoeqm6Mi7g9P0RbjSq55LHhaTG6jm4ZJxLa7g5FuqfIYILIELtt8HIlBZbTJRe0f9ZyVoKvX1UJqP61pIU57DMusz4312ju9JsA4N5kjWROy5Ju7XYBn229pY4p3yV4Fb2jbpvWg1psUlRbSBymVMTdkzAo1u2b/VYfz/v727DY6izhc9vlV77tbZs3ct73Vvuas4IChUBg5wUNQ1BHZdJCBKRGEBkWd5kKBkA6g85ICEpAKJBEJweTBFPCmCHMLFwMJQJyS1OsFNZSUVi1QslTeed+srfKWv7u92Tz9Mz8x/JvPQM5nJfF986tSZ7k4P07Oxv/l3//sRc9kjpfJknfF6yZY/hW5HUKVREqMpAfF/n3duMS+JK58pz0dM3f+w/K7g4bDXHDL2/Q+91K/AfD1zQeWRV569aYycrzguJYrl2YSgcgFBlbvyK6jU6i41y+SI0YNCee6ysfzE5eawZbqlsqTL3D7aaJOK95LsDuxXMVq25XM5Yi3bkOgv6kwF1USp6zJOWAc7wkYzhhA8UW6VzqPhl9xZJ+XaiXCV9dpY2XfZCBVVjDjfi2pq8ai8a6Uz8D6iB0hCobPECocTciYi7DRbzNGdO7VSHfY9s/cTY5a/9v2h20SKL6i8e6uNiBmsln2K0bKiw/XGe3FeFmcHlRa6c43X7ONoj0hZEePcf/LHzv75g9rnZe7TNqtU/IH3ExZvtiSDaqJ1A/gVqVItTxuCyhlUC7X4CfkjlGbM0i4jXKqPhy4jqNIo3UHllePvGj+/8xXr/sMEZOj7H36pn/V6JoPK8/hFGdB/N5VelJ2q5VmEoHIBQZW78i2o6jr0y/a+lTrz8rsjWixFnuzpgpNVbNutWu6Rac3maNMn12S8YrmaFT6RQTWrzRydSujnWTIUVPYJ7YdyoVyxPAbrRHmwbZHiM1edCC+T9sCoSau0RzkGy5vNIPmkVIoUy9VUARAqkaAqMS99u9O9NcpfEFeYwRP5mdn7iWHoMIgvqHY5Ake13LPCCkPHKKEZVINtJfZ61nH0H51ovqb6PJM/dtbP76wdG7K+Yah/a5JB9dQV46/A65pltWp52hBUwaC5LpNVDxmOFi4EVRqlf4Rq0zpzprz6MvGtK5S1iUyznonvv+NSv+Nh/5aMBtWw/bEncQSVCwiq3JVfQeWIGK8WIOa9UPuOqq5NPmeOJFkRptBtBlCUCR/GPntIims7pTRkOy3mAqEWGVQl1839JTLiZctQUNkTANRKtWp5DNaJcvyjSdbJc6v0dugPsFXoNicsiDLZwNRn58uu2q1yIWS7enNCBneCyl63/5hjH6r9RZ7kJ7Kf6OILKjtoe417mSIpHhBsBpXzmFk/J/hvUQVV8scu8uc7EVQBIzKorsgk1XKCahikP6g8Y7xyaHuZ8T22HNool1fPlE1DXXab9u+/41K/VyOfGUVQqRFULiCoclfeBpWu3LzErv9zmRVxCVQwqIYUHlTePbKkw4ytqAiqoVknz3EIDypvkTR0mCfsUbkcVHHIhqAamptBFQeCSjs5I6gIqmySgaAyTXl8uhxZt1I6rYkmAnZI57pp8qxi/YB0f/+nzZNO832oJr3oec98n/Xl9mu+ZV71z0oVQRWJk/LcxbHLcdGCyrNDVpkz6kWOUp2Tt61tNjhfH9qs82ZMDX4rq8p3yPiQWIt+yd9zV4338sH1cyGvxydDQWVfFhb75F0l8aCyLpXT9pXgMXjzvBlTg/VysrxIikKOgSoAQiUSOvalax1ro1w+Gl1Gg+qqvo72+bcWK5crJR1UyR+7YQkq+yGa3EOVeSkG1WGCyn2ZCyqnKZOnyaE3zdGfo+VybrZ6vbR//+2HYccvOD26y7iHKhIn5bmLY5fjogaVR8Yf/taImIhRqqWy5BMjUBIbMQqGzb6jSyOXew9JaZSgGn/UfC/6DIDhN+MPaY+ssy9hVOw3pmIpa/HLwMCADPT4pHFdgWIdS3DyiP62koQCIvGgmigNnyS6jS54Uh28z8fBO18uDBFUCd2bVV5hTvZQK9VRZg2MJpNBVXT0mLGvKJdHKiUdVMkeu9SDyprJUHnsoxl9UG4EgopZ/sIVLK2Rdn+f9PnbpWZprN8NyUoxqFT3Xj19WoqtKdezKajmlMkZX4/0feaTM39K4A8bGTc8QWV4WA69M0SkzF1qfP9rSuJ+ZpybMnnJX8nvu4zR82X1cTzcV/tveZNPev7eI76mMilWrpM+BJULCKrcle9B5fE2SKk5dXr4KNX4Kmtq9B9kd2Nl2EiTcY9UScvn8nLIM4mCYRM64cU8mby7Ww7cNpap30twIowP+r+OeHBw7GnTPVJszkr4waC27YIEftEvPyl+PaYsvhopVK1nWmxNwnCnVfwtYQ+tjWPa9EROsIuqrOm1P5TOxuKwkSbjHqnqlgqpCzkGwZPq/svLHDMRTpDFu3eK33oOU6wA2W3OiKf9G32104cIx+D+7vytQnYtCntgrfaZLC8vlfamRaGvazIZVJ5ZK+yp0fXp7jfNCJv04bGp2rHbKWdrHccn6aBK9tilGlTByTf0wK1boJrYQmW4nveS/UG1/5Ljd0PPWdmsWCc1SQbVGG07M5rmbVgffH3maZndaLyebUG17JT5h6sAn9QUqdcbfukOqvGyaZZXfjcuclnBpJlyuW6IfU+aLb7Aft6RzrVTZIpqnTTKXFAl+Hy8sP+W+w5m4B4vB4LKBQRV7sr7oNJMa/qHGTHho1Sr5A/2c6MM1kN6G+2H9N6VdWEnhNNOmT9PZz6Y136o71d3pS4QcOr34tnQLTWOBwDHfLBvuCWdUmNtp7Hfqy7Wg33Dg+q/3osZVB7PVKm+Gnp/kjHFt3kiq1GdDCcTVPq+ttvPjXLuS2M/pLdJzoQdg2D0aawpye2H9TZJf7+xXfQA+a2c7DbXd/6MgMgH+3pfKZVOM1ZC1w9+JneurgjZRmcHVYxp0/2nwj+vZdIeso5jH87XFQ+xnbujwrxk02Q//Db4M0IemptCUCV77FINKs+SreZMlCZrn7qoD/b1yIwi8y/BG1rT+FfvsAf02g9C1RxyvL5rtixxbjfnJcc2migPNk3HfRybW3qCvxsGbkhjiXq95CUZVB6vTNhiXtanWfR+v5RoIWU8GPimPFlmTrceEVQVUtigresQ2EbzUqPj9f3HZZxzu+cuhmxT8r6xjfUQYsvslVFm0dQUHvQ5Pss+ufC2er3M88qRXY7vl6av3vxe1jlffynssrMkv892eGkc9yHZ32uNvk2sPxZsK3Xsy/kzNK4+2FchY0E14bT0BEbOb0rTBMXycEU14rO/XwPS1/aWer00IahcQFDlLoJKM+uS7DMjJPJeqkKZvPWalHXfdUSUHit3Zd/5a/KHRaGjSIZ58sTh23LAHPkKGLwrBy5dkqdnFJqTT0R5L7rH9sjL57+VGns0S6OFVU1Ht5SEjVpFeKVZNnaEvteAWCGW0CV/lrFS8s528XU3OU6OtRPmW8ekvXF+6KiVKbmg0mn72loq7WH7unP7hHSeL5Xt4SNCARNkzeF3xd/viI3BJvFf2hAYmTHeS6yg0niLZF9LrfQ6gyUgynaPPSPV4etrodTfXS1nqyJHaHR2UMUQ+XlZUTGEKJf2eRfMl4ZLx6Q/7H32dlVIQ/lvQx+EnFJQ6RI/dikHlcb7ygo523EidJ+6WJc7jq6Qj0uNvwbfmDFDvU7KHCeSsYSPPFkjUkNIy30cBevlzGfWSZpfTi5XrJOSZINKM2aBFGy4Li+csOKmX4p3nZaCyVpYWttFBJW1vyGE78/6eUOYtyHWCGex1Pylzz7hbd+nWmc4BEekYlsue0O2S/L77JkiR8pfE78WP3a46fQw2rtcTj/njWPU6RHZtPgl8R1whJUpsVG1xGUmqLyy7fnewO+jgcWVcVzuZyiu9kmf+f0auLRfuU66EFQuIKhyV14EFQDEYbF1v8Lmi7JztHqdfLS+2Ryl+vtZKVMsR/wKtBNeI6huyHtZe8kfht3E09KzVftdtLVLTsQzOmUpCI5S3ajjkr+cQ1DlLoIKACyrpGmNMUql/1U4eP9d/ip4vkba+8wTtMY47uNAdNM2yxm/8Vnql2MVqNYBRq+XFvP3UM+c9QlM/jRFNjebV5v0XZC3ClTrpA9B5QKCKncRVADgMK5Srm1O5mRmJHlB9je3i68zeP9UT9uejM8aNlJsbmiXdp9f+r4wY6qzUdZn+GQXuaJYqhb3GyPlK47LYuU6YV5vlPZLPvGbf/gY6LsR56X77iKoXEBQ5S6CCgBCeSc1G5fblPXLtelPKNcZ2VYa90190Sc9nRfkvS0vMJqSgv2XzZDy++TMvpUZn5UOueIJeWPuTSOm1rTKNsUsiEqV7UZI/d0vvqb9snKaYp0MIKhcQFDlLoIKACLN/bdW6Vl5WjZyLxWADPFOOi6frrwoe+ONqSxCULmAoMpdBBUAAABSQVC5gKDKXQQVAAAAUkFQuYCgyl0EFQAAAFJBULmAoMpdBBUAAABSQVC5gKDKXQQVAAAAUkFQuYCgyl0EFQAAAFJBULmAoMpdBBUAAABSQVC5gKDKXQQVAAAAUkFQuYCgyl0EFQAAAFJBULmAoMpdBBUAAABSQVC5gKDKXQQVAAAAUkFQuYCgyl0EFQBEmvqvzdKzqlk2jlYvH1ZjHpZnJz0iU1TLgGH09MTx8rtx6mUYmnf8Qbm29opU5eBnSFC5gKDKXQQVkHuqr/+n3LkTrknOrlOvj8R4J2kxtXVQvi7rl2tPzlCu4/EUStvRd6RPV15ovFZUIj3ma5dfCF/fsLfc3CbEZjk9Xb1+hEefkrZD5na7ZstC1TpOzy+399P2vPHaG+vLzNeWy4ExYevngUm7BuWPH4TrlelPqdc3VMrMiG00dc3yqHL94TJJTlea34/KefKq/tqjvxef+R3wr52k2MYjr67ebH4nQlnfmaE9LHvfLDe2q18jR6aq1skXyR0Dj+cJ2ftiv/Z7R/vdsyn3ooqgcgFBlbvyIqjWdUvdnf8nH4T76gc50v21rHrnDfV2OWWpzDr1tRy49YO8XaNajkQUlW8VX3eTDF5dq1zuljUtTYowCtXf8kzEdm/+uVp8Vy3HpD+wLkHl8UyU7aeqxX+rVXzJ/u9gXKVc22zG1FPF6nUCpsu5OuMEqad0uvHa9HniN0+aop2IbvrjUml70/KauX4CQTV3qXGiFrBc9qrWcZq92Iy8cjk323gtePIcx/Yj0IRXr8jMtyxd8kIgjoYKqlKZZm+jOdCbpUE1Xo5UmN+PitnyfOC1YPz7V6tP5p9/7gXH93KldJrf7fiDSgv9enO/CW2XhMmF0vzORumpMGMlXRz/e45G/e9M7hgYiqVqsRlVa7J0hDwKgsoFBFXuyregOnH7B2k0nXDE1ZHzDeptc0albLxl/Ft2E1Qps0PneoaC6qtWGbz9oZL/VGRQhVorPoLK9IycvWWEaHJB9bKcWKHH1KD0Pf8n8SrXsQT/Cm2fIMURVKGsk6wEgmrMJDlesUPbZof4N06Xp1XrONnvKbiPfA+qUNbI01BBFebFK1kaVI5RUGvkNO6TeUvwu51IGK199TXp06OqskS2PapexxXWqKs1+pMu1v926ndIT02Z0rk5iu00KR2D0eulZZ35e2ju+iF+D2UPgsoFBFXuyq+guisbnSec3jekuO2uGVU/SOkWx7KcQ1C5KeNBldJ+CKqg1IJqblGX8ZfhDa2ybci/DCuCasxMuRw4aYo3kJIIqkQpgqrghQydkOaEfAgq7bt6wHgtvkBKLqgyJtNBlcR+Uj0G+mXHffrvorJeaZmoXifbEFQuIKhyV14HVcBJ2TZohEjNqVy+9I+gchNBlatSCKrRb8vH9qV+0e6bcgpe1uNbNt58LdFAykBQTZpt3rvxmhyZZL6WqRPSnDDygmpbqXEvk30pasKBRFAFpBBUqR8Dr+y07qdaclBmKNfJLgSVCwiq3EVQBUOkrnlP2DLD2NXnZGPHXTnxlbGece/VbXl59Tzl+rqxixrk5RbjnibnpYWNvV/Lxv3q/QTNkyequmV3r2Nb1T6j3RumcqtbngjZR+q8C+ZLw6Vj0j9onMAG3D4hnU2LpMQbub4xkYJ50u+dLruaaqXX2varD8V/foVyO93U1SvkbMcJGfzKWr9V+rvflbrVE5Tr66YuKpG6FuN+Gvv93WmVwd5aObu/KOwyiuCJ+NCihIv2b3qz8V3x9zv2F+Pz0A1LUD32jFS3OD57zeCtY9J++BmZGr5uTa3xczeMlU2n6qU/8PnrlyEWa5/fVNl3yXz/XzVJ+96poduaEj12zu+Jd8EiOdv1obGdblD7PBvnh77PdTvNe8jicGunrHFu6zBjxnV7dOoNxXIV66/QwROkdAWVtV6YuE70rG0dl/dlVVCZQRMIE6+MndMszxwZlEWByBmUhTXXZdrMKZHbPdUs82IEzaMbzHucdlVGLAs18oLKuqQzeGlZ+oLKHokJEef3f5xXDrz+mvgP6ZewWtsal9d1rg495ur9qLkWgSkEVerHQDPhtPQERqluStMExfIsQ1C5gKDKXXkfVHOvyYHAMvUlf96ar6XRjBJ9Aou3r34t+3rNSNG22V2zKmIbZ6TprPu27CDT1LVE+Y+8t1LW/S24nh5SgXu+zFG0kDBa0SkHzJ8dck/YYPA12yedMs25nxTN1U60Bx0nqsb9PsGQUI0OWDPT+WqL5czfzG0D9w4Ftxu8vCzienHnvvq76wMTMXT2Wtvokw+oTuRDA8m+J8k6qdf0tuhREFz/5CfB+5acJ//2a7ZjcnKFc18ar/Pf1CSd+mQRHVpsWj+nd6dsUkRVxoNqrrbubfM99R8z3meX+R40g9r7mOtcPxBU/ymdbRVGtFjHarBaGk6dMLaxXuuvkDed22qSOXbG9+RD8bVWB0NJ/9wdAdjb7LivbMVW8dvHJvhdujNovebwyVZZ7thX0Aw5ukw/cRmUnmdeVixPl3iD6ik557x3o848Ac2KIEqVGTQNV+TJ8l4jpE4NSklDvyzU/m8gWk7djIwdgiqN4j/53/m643tZY87yF09QFWjffWu2Suc9StZ3275UzhCyH2udKPc2RbuvKWEpBJU7FgTv6ZyjOtfILgSVCwiq3JW/QTVPvK9fkrf7jQhpvH4u8sZPe7vwcCqUybVWaP1DVi1xbBOwR15u7ZaS11fJWOfrIfdsfStLZjmWBaySkus/GMu/+oeUhs0+qI96LW++FCWMMnfJn3fDTuk1T1oHO0plzWOO5d6JsqmqQk6+43jNFDrVd6v4m4IjDcET72PS4Pxc1m039xV+8j1WSmqtbU7IyYhj8IzUte6U6tenho5m6CNjbVZA1EtdxDEwJBY6E6X6qnkiHx5Oj82Xs736vtSxmNmgekbOWO8lLJy8C7SfYQaL/5Tj94EZVMFtxkpdh/7/a6GprW9EaYlcCESadhwWBn9msscu5HsyWC8N9kjWBHnzvPl53a6Q7Y5tgpK95K9SrgWmSe+VFuuyuIyIN6jCjKhL9qygMSz893p59BFz2SOl8mSd8XrJlj+FbkdQpVESoykB8X+fd24xL4krnynPR0zd/7D8ruDhsNccMn3Jn1N9ufQceE3aXpkuCzMwrfkrz940Rs5XHJcSxfJsQlC5gKDKXfkVVGp1l5plcsToQaE8d9lYfuJyc9gy3VJZ0mVuH220ScV7SXYH9qsYLdvyuRyxlm0I/evc0DIVVBOlrss4YR3sCBvNGELwRLlVOo+GX3JnnZRrJ8JV1mtjZd9lI1RUMeJ8L6qpxaPyrpXOwPuIHiAJhc4SKxxOyJmIsNNsMUd37tRKddj3zN5PjFn+2veHbhMpvqDy7q02ImawWvYpRsuKDtcb78V5WZwdVFrozjVes4+jPSJlRYxz/8kfO/vnD2qfl7lP26xS8QfeT1i82ZIMqonWDeBXpEq1PG0IKmdQLdTiJ+SPUJoxS7uMcKk+HrqMoEqjdAeVV46/a/z8zles+w8TkKnv/7TZ2u+R0NGvwCyGgX+jpmap7C1QbOemxy/KgP67qfSi7FQtzyIElQsIqtyVb0FV16Fftvet1JmX3x3RYinyZE8XnKxi227Vco9MazZHmz65JuMVy9Ws8IkMqllt5uhUQj/PkqGgsk9oP5QL5YrlMVgnyoNtixSfuepEeJm0B0ZNWqU9yjFY3mwGySelUqRYrqYKgFCJBFWJeenbne6tUf6CuMIMnsjPzN5PDEOHQXxBtcsROKrlnhVWGDpGCc2gGmwrsdezjqP/6ETzNdXnmfyxs35+Z+3YkPUNQ/1bkwyqp64YfwVe1yyrVcvThqAKBs11max6yHC0cCGo0ij9I1Sb1m0xvsP1ZeJbVyhrE5lmfVi//w/LwtnzxGddrlgRx8O1UzFsf+xJHEHlAoIqd+VXUDkixqsFiHkv1L6jqmuTz5kjSVaEKXSbARRlwoexzx6S4tpOKQ3ZTou5QKhFBlXJdXN/iYx42TIUVPYEALVSrVoeg3WiHP9oknXy3Cq9HfoDbBW6zQkLokw2MPXZ+bKrdqtcCNmu3pyQwZ2gstftP+bYh2p/kSf5iewnuviCyg7aXuNepkiKBwSbQeU8ZtbPCf5bVEGV/LGL/PlOBFXAiAyqKzJJtZygGgbpDyrPGK8c2l5mfI8thzbK5dUzZdNQl91mwfe/YI71wOyNcnyaeh1XEFSROCnPXRy7HKe8h0pTbl5i1/+5zIq4BCoYVEMKDyrvHlnSYcZWVATV0KyT5ziEB5W3SBo6zBP2qFwOqjhkQ1ANzc2gigNBpZ2UEVQEVTbJQFCZpjw+XY6sWymd1kQTATukc900eVaxfkA2fP8TfuZckgiqSJyU5y6OXY6LFlSeHbLKnFEvcpTqnLxtbbPB+frQZp03Y2rwW1lVvkPGh8Ra9Ev+nrtqvJcPrp8LeT0+GQoq+7Kw2CfvKokHlXWpnLavBI/Bm+fNmBqsl5PlRVIUcgxUARAqkdCxL13rWBvl8tHoMhpUV/V1tM+/tVi5XCnpoEr+2A1LUNkP0eQeqsxLMagOE1Tuy1xQOU2ZPE0OvWlMN953tFzOzVavlxXff/v5bmkeoeIeqkiclOcujl2OixpUHhl/+FsjYiJGqZbKkk+MQElsxCgYNvuOLo1c7j0kpVGCavxR873oMwCG34w/pD2yzr6EUbHfmIqlrMUvAwMDMtDjk8Z1BYp1LMHJI/rbShIKiMSDaqI0fJLoNrrgSXXwPh8H73y5MERQJXRvVnmFOdlDrVRHmTUwmkwGVdHRY8a+olweqZR0UCV77FIPKmsmQ+Wxj2b0QbkRCCpm+QtXsLRG2v190udvl5qlsX43JCvFoFLde/X0aSm2plzPpqCaUyZnfD3S95lPzvwpgT9sZNzwBJXhYTn0jrHv4DOcwsxdanz/a0rifmac29auNcOvukQ2KZa7peT3Xcbo+bL6rH+4L0HlAoIqd+V7UHm8DVJqTp0ePko1vsqaGv0H2d1YGTbSZNwjVdLyubwc8kyiYNiETngxTybv7pYDt41l6vcSnAjjg/6vIx4cHHvadI8Um7MSfjCobbsggVkCl58Uvx5TFl+NFKrWMy22JmG40yr+lrCH1sYxbXoiJ9hFVdb02h9KZ2Nx2EiTcY9UdUuF1IUcg+BJdf/lZY6ZCCfI4t07xW89hylWgOw2Z8TT/o2+2ulDhGNwf3f+ViG7FoU9sFb7TJaXl0p706LQ1zWZDCrPrBX21Oj6dPebZoRN+vDYVO3Y7ZSztY7jk3RQJXvsUg2q4OQbeuDWLVBNbKEyXM97yf6g2n/J8buh56xsVqyTmiSDaoy2nRlN8zasD74+87TMbjRez7agWnbK/MNVgE9qitTrDb90B9V42TTLK79TTDteMGmmXK4bYt/26NA70rl2ikxRrZMu48bLttVrzPunyqVtbozp3VM2XM/HSw5B5QKCKnflfVBppjX9w4yY8FGqVfIH+7lRBushvY32Q3rvyrqwE8Jpp8yfpzMfzGs/1Peru1IXCDj1e/Fs6JYaxwOAYz7YN9ySTqmxttPY71UX68G+4UH1X+/FDCqPZ6pUXw29P8mY4ts8kdWoToaTCSp9X9vt50Y596WxH9LbJGfCjkEw+jTWlOT2w3qbpL/f2C56gPxWTnab6zt/RkDkg329r5RKpxkroesHP5M7V1eEbKOzgyrGtOn+U+Gf1zJpD1nHsQ/n64qH2M7dUWFesmmyH34b/BkhD81NIaiSPXapBpVnyVZzJkqTtU9d1Af7emRGkfmX4A2tafyrd9gDeu0HoWoOOV7fNVuWOLeb85JjG02UB5v6lnkd+3LH5pYeRwTckMYS9XrJSzKoPF6ZsMW8rE+z6P1+KdFCyngw8E15ssycbj0iqCqksEFb1yGwjealRsfr+4/LOOd2z10M2abkfWMb6yHEltkro8yiqSk86HN8ln1y4W31epnnlSO7HN8vjT09eJ3z9ZfCLjtL8vtsh5dGf66TtZ7jPip9m1h/LNhW6tiX82do3Hqw75JlWjg5fm7Iv69+s5ybO14KFNu5ZsJp6QmMnN+UpgmK5VmGoHIBQZW7CCrNrEuyz4yQyHupCmXy1mtS1n3XEVF6rNyVfeevyR8WhY4iGebJE4dvywFz5Ctg8K4cuHRJnp5RaE4+EeW96B7bIy+f/1Zq7NEsjRZWNR3dUhI2ahXhlWbZ2BH6XgNihVhCl/xZxkrJO9vF193kODnWTphvHZP2xvmho1am5IJKp+1ra6m0h+3rzu0T0nm+VLaHjwgFTJA1h98Vf78jNgabxH9pQ2BkxngvsYJK4y2SfS210usMloAo2z32jFSHr6+FUn93tZytihyh0dlBFUPk52VFxRCiXNrnXTBfGi4dk/6w99nbVSEN5b8NfRBySkGlS/zYpRxUGu8rK+Rsx4nQfepiXe44ukI+LjX+Gnxjxgz1OilznEjGEj7yZI1IDSHqJVKpKFgvZz6zIsAvJ5cr1klJskGlGbNACjZclxdOWHHTL8W7TkvBZC0sre0igsra3xDC92f9vCHM2xBrhLNYav7SZ36WA9K+T7XOcAiOSMW2XPaGbJfk99kzRY6UvyZ+LVJCnuukh9He5XL6OW8co06PyKbFL4nvgCNyTImNqkX36mrrfi7LDuOhvqsL5dW0P9TXK9ue7w38PhpYXJn1l/vpCCoXEFS5Ky+CCgDisNi6X2HzRdk5Wr1OPlrfbI5S/f2slCmWI34F1dYo1Q15L2sv+YOu4NFHlJclZsTE09KzVftdtLVLTuTA6JSOoHIBQZW7CCoAsKySpjXGKJX+V+Hg/Xf5q+D5GmnvM0ZUbjRm/30cWW3aZjnjNz7Lvra30nu5GHLX6PXSYv4e6pmzPuHZY4cLQeUCgip3EVQA4DCuUq5tzr2TGXe9IPub28XXGbx/qqdtjxQr18VQNje0S7vPL31fmDHV2SjrC9TrIt8VS9XifmOkfMVxWaxcJzsRVC4gqHIXQQUAobyTmo3Lbcr65dr0J5TrjGwrjfumvuiTns4L8t6WFxhNScH+y2ZI+X1yZt/KzM5KhxzyhLwx96YRU2taZdtwXW6YJILKBQRV7iKoACDS3H9rlZ6Vp2Uj91IByBDvpOPy6cqLsjfHYkpHULmAoMpdBBUAAABSQVC5gKDKXQQVAAAAUkFQuYCgyl0EFQAAAFJBULmAoMpdBBUAAABSQVC5gKDKXQQVAAAAUkFQuYCgAgAAAPITQeUCggoAAADITwSVCwgqAAAAID8RVC4gqAAAAID8RFC5gKACAAAA8hNB5QKCCgAAAMhPBJULCCoAAAAgPxFULiCoRgjvKPm4/RfyTdVD6uUAAABAGILKBQTVyPDi3nvlxy9/IvLlPxNVAAAAiAtB5QKCauRYVWVF1S/k5mvqdQAAAAALQeUCgmpkqfyPf9GCSouqnvuk0qteBwAAANARVC4gqEYY7wNys0cfpfqJfH/mQfU6AAAAgIagcgFBNfIU7rQu/btHPp6pXgcAAAAgqFxAUI1Eo6TLb4xSfXdylGI5AAAAQFC5gqAamd54/5fBe6kUywEAAACCygUE1Qj16q/k+8Blf7+UrhcVywEAAJD3CCoXEFQj1a9l4As9qH4mAztVywEAAJDvCCoXEFQj1YP2bH/fVKmWAwAAIN8RVC4gqEYqggoAAACxEVQuIKhGKoIKAAAAsRFULiCoRiruoQIAAEBsBJULCKoR6sX/I98FZvm7R3w83BcAAAAKBJULCKqRaenhewKX+4n/V7JDsRwAAAAgqFxAUI1Eo6TLb9w/9d3JUYrlAAAAAEHlCoJq5Cks+9/yoz469cW98hGX+wEAACAKgsoFBNVI86Dc/OynIl/+VL57n9EpAAAAREdQuYCgGlkqz/zCuHfqs/uk0qteBwAAANARVC4gqEaOVVX3Gpf6fflL6fqjeh0AAADAQlC5gKAaGV7cfJ98H4ipX8itbQ8p1wEAAACcCCoXEFQjhPcB6er8nzKwh5gCAABAfAgqFxBUAAAAQH4iqFxAUAEAAAD5iaByAUEFAAAA5CeCygUEFQAAAJCfCCoXEBwAAABAfiKoXEBQAQAAAPmJoHIBQQUAAADkJ4LKBQQVAAAAkJ8IKhcQVAAAAEB+IqhcQFABAAAA+YmgcgFBBQAAAOQngsoFeRVUs27KAwdvykNjFMsAAACAPENQuSB/gmqPjDoocv8ZkV/XElUAAAAAQeWCvBqhGlMpo94zouo3ez5SrwMAAADkCYLKBXkVVDrvx/LASSOqHnh5lXodAAAAIA8QVC7Iu6DSvfzf8mstqO4/+Y2MGq9YDgAAAOQBgsoFeRlUnh32/VS/2XJIsRwAAAAY+QgqF+RnUGnmD5ijVANMUAEAAIC8RFC5IG+DynNSHjTvpXpwYaFiOQAAADCyEVQuyN+g8shD7xhB9evtJ5XLAQAAgJGMoHJBPgeVZ/V3gaC6/2CXejkAAAAwghFULsjroFr4jRFU9TflIdVyAAAAYAQjqFxAUBFUAAAAyE8ElQsIKoIKAAAA+YmgckFeBxX3UAEAACCPEVQuyOegemi7FlNaUP3mzQblcgAAAGAkI6hckL9B1SAPHjeC6sH5PIcKAAAA+YegckHeBtX8Afm1frnfyQF5aIxiOQAAADDCEVQuyM+gWiWjKs3L/TZVKpYDAAAAIx9B5YK8DKoXvpHf6KNTf2Z0CgAAAPmLoHJB3gWV9yN58M/66NSP8uDCVep1AAAAgDxAULkgr4JqTKWMes+81G/7SfU6AAAAQJ4gqFyQP0H1hoz69x+NmHrXp8WVah0AAAAgfxBULsirEar5A/JAVRf3TQEAAAAagsoFeRVUAAAAAGwElQsIKgAAACA/EVQuIKgAAACA/ERQuYCgAgAAAPITQQUAAAAASSKoAAAAACBJBBUAAAAAJImgAgAAAIAkEVQAAAAAkCSCCgAAAACSRFABAAAAQJIIKtdNkTfm3pSeZ9eLV7kcAAAAwEhBULnNe1x63hiUr8sGiSoAAABghCOo0sA7qVl6tupR1S/XnipWrgMAAAAg9xFUaTK38LoMlGlRVXpdasep1wEAAACQ2wiqtCmW2j/2By79G1hcKTOU6wAAAADIZQRVOk04Lp8GLv3rlfP/qlgOAAAAIKcRVGnllb0LzVGqhRXxTVAxZ7+09wzIwECf3GhcLwWqdQAAAABkBYIq3R6/aNxLtfWKVI1WLA/zVlufFlN6UOnaZb9iHQAAAADZgaBKu0q5Zs749/HjquWhNrf0BIOq74K8pVgHAAAAQHYgqNJugZxYoQfVoHz6+wWK5WEK1st7f/FL32c+OfMnplwHAAAAshlBlQFVi42g6puzSrkcAAAAQG4iqDKAoAIAAABGJoIqAwgqAAAAYGQiqNIuwXuoAAAAAOQMgirt3paPS/Wg6pfzU1XLw8wpkzO+Hunz++Qkk1IAAAAAWY2gSreprcZzqEovyt44nkO17JQ/ZNr0PQXq9QAAAAAMP4Iqrbyyd2F/4HK/gYUV4lWuE6rwoC8YVAN9cuFt9XoAAAAAhh9BlU7j6uXTwEN9e6VlomK5UrHU/KWPoAIAAAByAEGVNjOk6iVzdOrFt+ManbJMsUepfFJTpF4HAAAAwPAjqNJk7lNXjHunNl+RqnHqdZSmbZYzfuOSv762t6RAtQ4AAACArEBQpYF3UrP0BC7165ePH/cq1wm3uaFd2n1+6fvCjKnORlnPhBQAAABAViOo3Db+oNzYbMTUjaJlcV/qt/+yFlJf9AWmSz+zb6VMUawDAAAAILsQVK4rlr0v3pRPf78+ofumAAAAAOQeggoAAAAAkkRQAQAAAECSCCoAAAAASBJBBQAAAABJylhQAQAAAMBIQ1ABAAAAQJIIKgAAAABIEkEFAAAAAEkiqAAAAAAgSQQVAAAAACSJoAIAAACAJGU+qNbcJ99/+RORL/9Jfuz5pQzUjJJC1XoAAAAAkOUyH1Qv3i+32u+Vb/76cy2q9LD6qXz/wYPqdQEAAAAgiw3rJX/ztv0v+TEQVffKR171OgAAAACQrYb5HqpR0vVXPah+JgM7VcsBAAAAIHsN+6QUH/1FD6qfyDdV6uUAAAAAkK0IKgAAAABIEkEFAAAAAEkiqAAAAAAgScMeVCf/788CQfXfhx9SLgcAAACAbDXsQbW09p5AUMln90klU6cDAAAAyCHDHlQez0PyUfs/G1E18HP5znevfPMf98sbynUBAAAAIHtkQVB5ZNW2X8k3Pf/DiCpdz31SqVgPAAAAALLJ8AfVmvvkez2ivrhHfBsfknmqdQAAAAAgCw17UDV8ZFzu9937o5TLAQAAACBbDXtQMW06AAAAgFxFUAEAAABAkggqAAAAAEgSQQUAAAAASSKoAAAAACBJwxxUD4mvUw+qn8o3+1XLAQAAACB7DWtQFb5mPoPqy3vEN1O9DgAAAABkq8wH1Yv3y632e+Wbv/48cKmfPjr1/dkHpFC1LgAAAABkscwH1RprVOqf5MeeX8pA7YMyT7UeAAAAAGS5YZ+UAgAAAAByFUEFAAAAAEkiqAAAAAAgSQQVAAAAACSJoAIAAACAJBFUAAAAAJAkggoAAAAAkuKR/w82fOKzCNZjBQAAAABJRU5ErkJggg==;" parent="1" vertex="1">
          <mxGeometry x="20" y="320" width="305.85" height="210" as="geometry" />
        </mxCell>
        <mxCell id="oqc9B1S6U0OL1mSsrtgY-4" value="" style="shape=image;verticalLabelPosition=bottom;labelBackgroundColor=default;verticalAlign=top;aspect=fixed;imageAspect=0;image=data:image/png,iVBORw0KGgoAAAANSUhEUgAAAoQAAAOkCAYAAAA/bCXNAAAAAXNSR0IArs4c6QAAAARnQU1BAACxjwv8YQUAAAAJcEhZcwAAEnQAABJ0Ad5mH3gAAIaYSURBVHhe7d1fcBTXnfD9VCX758m+cfEk2XjXfxTARgljFmJhsI0IsoNtIRajGEzAxrawZZCDwFYgBByRhUXgmhWyEUTegA1lvaEWzBP2UcBB4nlBVPwg2yoCFClRciF8g+/kK7iSr/x7u6e7p3tmzkgjnZE0p/t78amYPqdnRjpbpe/2v/laUVGRAAAAILoIQgAAgIgjCAEAACKOIAQAAIg4ghAAACDiCEIAAICIIwiH68GZsuSX0+WH9yrGAAAADEQQDteDs+SFA8vklR33yw9V48MyRR7Z8og8Un6PTFSOZzFRsQ0AAGCECMLhSgRhhcx/UDFWNEkeWDpNpuQcbFNkfuMyWbt7rjwQU41biidmxmL5HKmOz5W5P56Uuh0AAGAECMLhSgThEln563lS+cs02xfK2gPLZPWW6TlGoROEL7w8JXX7/PtlwZNTnBC03u9nv0x7Pfco5ertM+VfOHUNAAA0FUQQTqkqd0JqQ0w5ns0DG5Yk9ltZdY9yfMRmTMl+jeCgRwgDJk6Rh5f+YIhTwVmCsHJeMizvsf5t/5yrt0xL/Hdi3A3CJZWBfQAAAEaoAILwB7LgzWVWAC2SBT9WjWdR/CN5+nfWfr/7iTxcrBjX8a9WkP1uoTydfgTQ9usKWZ3tCGHQjkXWz7RUVq4ZLApTg/Ce+dPlgZnW9kQQBqLzxw/KKuu1nnneDd9RCUL39LX1uil+t0Sq95TL06/cL//yL6r9Au61IvjVx+WF3y51918qq3c/LgtX/CDziKn7M9jzlP+PwMSYLPqt+xl2Pyix9HEAAJA34x+EFXOtwLL+6L8xU6aoxrMY6VHFnAx2FLB4kkwZMkAnyuwtP5Xq7bOkZFbgGkArmOauDYbjI7LSip7V8Ues/54vq+zA3fsTmbt0jlSnvL8ba/FZzo0soxyEr/x2sRWBrre9uLP8brEs+VmWo7EPz5KV9udPzLMj0to3GYbWa74xS2KK096J8d/OlQfSg9H7v4uEeTI7OAYAAPJqnINwojy81Y6GpfL0somK8WxGeFQxV4MFYWJsqbzwasw/hZvOmlO5dqp63L5JJBk/WU4ZK96/pG6JrK5z49eNqdEKwozXLZ4iD//SuT5y7YGfWuNpN7PEpsmSvfbYUqm2r3cMnG6fWDZTfpYYs8L3l9P8OC572Ipea9tv7dP+S9Pe0/2/i98tklV77H0JQgAARtP4BuH9M2WlHRlvPij/ohrPxjt6tPVHQ1yjN0KDBeHMWdZnXiiPP5y6/Z7KefKCd5PHv0zKHospcg/ConsDITnWQZgwKXHUMxGFaes1Y619etzaHp+lPrVb7h3tCwS8e53kC1us35s9FlxL73KALbPk8cRnIggBABhN4xqE//KKExLDuynEO6q4RBZVqMbzIBBkE2OTZIoVeFP+ZYrMeHK6PLz0YXkmeQ3hI/L0zsflmZ3lsnK7fdp3nix6yT5yeI9MmaF43QyKILSCcuJgQWoblyC0eAFv/+7L3W3Ja/0GWw//tZM/qxeEL09zxgLXgk55/nFrzD5q6O33uMwb6vpFAAAwYuMXhF5IDPemkJEeVRwOL8jmT5X5VvQtqLJDcLqUlNpheL88PVis2aw5C1/MJXIDQThxkvzLijmy5NVpMqVQg9AK3flxZ04y7NxTv2sPPCIPp18HGDBj7eLEfmv/zT0SmAzCKRJ7ucL6b++ygXvkkTeseYnrCr3PNMTvGwAAaBm3IJy47CeJIBjuTSEjO6o4TIMG2TRZcmCJLHkq+0Ohpzw7X1b/OpdnETrBU71zvqzc/RMrQN3XzCkIl0rlvyrGRiyXICyS2VucOWu3THO2PfWI8+8h7gR2jvpZ8xqd08pOBLph6UW+HYvufzvXSxKEAACMhXEKQvco0HBvChnpUcXhGjTIpsgjO53nHw7mlcY52b99xHbvPVLy8nyp/p0VP/92v/wwGI9DBWHiqFy+I2lkQeiFnRd66fOT3COC6UHovJf3fw8/kcfX2HePL5YFZfb2STJvp70985pNAACQP+MThInn6ll/6If5qJmRHlUctoftz6cOrimz3G8Q8djX/AX/PYSJsR8kntVnh+DaPeWyck/g9KtnqCBMxJU1bj+zUDU+IuMZhIEjiLbA5QDe+w32mQAAgJ5xCULnG0aG+6iZER5VHIlEvMyT2TPuST1yZ0kEyp75Ms87YmXNfeXNn8j8xwOnkItj8nCF4pSyfU1c3HnMzgv2tYLuNXK5BOGUf31YFq1wTpP/8EU7pvJ95+3wgtB7BM7EnzmRPlQQpp8yth+jk/Je9p3F9rhl1Ss/SO5HEAIAMPrGPgi9R4qoHkY8mBEeVRwJJ3Ks4JoYkwW/vj/lgcqJQPGun7Ml4tEKxORdsBPlgV/aj2f5qfo6w9iPZP6z3vWPuQThJJnxyuPyTGDO7C1WVA51RG7YcgnCH8iCxHMBl8kzz7s/W/KRMoPfVOIFoPe7yww97+7xcnnkfn8/ghAAgNE35kHofcNI8ChQLkZ2VHFkYmsWJr8VxL6JJfg9wuog9I/W2c8jXG3F4NPZvtEjxRBBOH+qLHhjSerX37nXUb7yy8BnyIscgrDsYSfKg9GWPLIXeBRNBu9B4sus34uzfrmGnjcvGaAAACDvxjgIvTBIPQo0pJEeVRyRiTL33/xTos4dsP73CA8WhBN//KCsfLtcFnh3Cw8pSxAmjrrZ39RhfY5AjNqcU68/lZ9tf1yeeWVqDncy52qIIEye7nY+k3/d5CSZt93Zbt8lrHog9z1PPeIcRQzcDPTwr+33GvpO6Qd+6bx2xu8IAADkzdgG4Qi/YWSkRxVHxj4CF3zIsnunq3vEMFsQPmzF4DPxOfLAsB6grA7CxBFK+/dkf/NHMPhi02WJ/d3Hv55uhdckK6qWyOrtqae0Ry57EE58eLosanSjb68Vv+l3TydPGy+VlWtTI3XK4w+733HsR7X/XoPcOONKeTyNYhwAAOgbwyAc6TeMjPCo4kjZcZP20Gs7SL0jhuogXCw/e3EkR+vUQVgUs6K0sTw1lrwjdMEgi7lHTnfen4frKv0gfOW3i6V6j2N1Iubc7Y1z5eEsdzbHnp/vRqHld0uc/X/rRqQVg6us359/9HD4QbhqDUEIAMBoGbsgHOk3jIz29xaneWCDff1f2infQOgNdso4uc0Se/FxWfXL1NO9mbIEoS0Yl/f+QB7Z/lNZuyfz6JwTTINdv5crPwiD7Dhc+W8PyyPlaY/bUZg4a7os3LHQj8jf/VRe2DFH5v44/RT68IMw5XcOAADyasyCsGC/tzjo/vvlZ2/Yd+9OkpKX5ya+mzjdM/bRyjcf97ftsH+uRfJMYE7lvy2UVxJBtVSq06NwxjRZsLVcVu1+XJa481YO8jV3E2fdL0v2WK+zfab8y72KOYnQzkcQAgCAqBqbICzk7y0OKHl1vn/E6t6JMmWwbxrRlLgBxT6StmeuPKD6nRRPkYd/uVBWNz4ijwSfcZhhkjxQ9aM8P4IGAABEyZgEYUF/b7Hn0VmyoHJsH21yz6wpiusO75EH1j0iT2+YJbMfHv1H7AAAAIzhTSUAAAAoRAQhAABAxBGEAAAAEUcQAgAARBxBCAAAEHEEIQAAQMQRhAAAABFHEAIAAEQcQQgAABBxBCEAAEDEEYQAAAARRxACAABEHEEIAAAQcQQhAABAxBGEAAAAEUcQAgAARBxBCAAAEHEEIQAAQMQRhAAAABFHEAIAAEQcQQgAABBxBCEAAEDEEYQAAAARRxACAABEHEEIAAAQcQQhAABAxBGEAAAAEUcQAgAARBxBCAAAEHEEIQAAQMQRhAAAABFHEAIAAEQcQQgAABBxBCEAAEDEEYQAAAARRxACAABEHEEIAAAQcQQhAABAxBGEAAAAEUcQAgAARBxBCAAAEHEEIQAAQMQRhAAAABFHEAIAAEQcQQgAABBxBCEAAEDEEYQAAAARRxAC4yl2lxw4MEFuXf4bkU+/Zpkg76vmAQAwighCaLm3+ZZUfijyWHODchyDuVve/9PfOSF49e/k1v83Qa6f+EdpVM4FAGD0EIT59KMGeXj7R1L5xrsyRTU+CiZu/zwRZAn/55IUZ8zZJPe3OeNP/v79tLF062XGcWdu+duNivFMBKGG1yc4MfjXCfJ+uWIcAIAxQhDm008/kJ8d7JWfNbWOURCukOn/y43BhC9l9prMeffs/sIZP3tVpv4wczxp4Tl51H2dB15UjCsQhCPX8N43E0F46/d3KMcBABgrBGE+jXUQzumQeYmA+0J+4h4FrPjdvsx5lefkJ4l5Ig//ojRz3DUp7oZjh+pIoxpBOHLv/8m+ZvBrcn2XehwAgLFCEObTGAdh8nTx/+qQe7z/HuK08aJDB9LGPP7RxlxPF9sIwpEjCAEAhWLsg/DeKpm25rSUt/TK03Y8WZ7+zwvyRN1/yJR7FfNt0zfLA786J0/ud+bblrR8JI+s2iyTJyrmP9QqFfa8X9uRMkOmPP2BlP+nu+87vfLkziMybXoscz/P7P+Q0p0XpDLwfj9754pU7vtIZs1LnTvt14E5Q5j309R99fgB92h8/ZCne1NOG6eNJSSPNt6Smc8oxn+0Ve5rvi4/+T8iTybmWf977kupOOf8d9YgXHBA7m/9QsrdebZF/+eWzN19QCaln75+/Xri/R94rlTujX/u7vOllMXt166Sqe/ekkWJ970lD/6iKnVfAxGEAIBCMbZBOOddKbeCzAukJS12ZF2Rp9xtFWsy/8hPXvjf8q/ePokos3hxZ3n6rf+W+2Kp+ySDcMcRmbXjSsq+S7zXavlAphWn7WeZ/NMP5Cnvtfe77xf4jOlRd1+dPyf5uay5yW0BpQtT99USOF08I/G6DTLzT05wKY/wBU8bv5o2ZkkebfzTR3Jv2ljREuu9zjr72hb+HysELXacedtUQTjpF1flCW+OHY/2foHXebLDitOfBPZJBKHI3N9dknLrfxdZ8xPxaUXs9PgXif9e6AXpME5rFyqCEABQKMYuCGMNMq/FDa34EZmacoRuhtzzkz0y6+lnAtssJW/LE14srks7Gjh7j/zEfb0lv26QicH9vCB0pew7/T/kETfcfrJirr+PbeJv5MeJsSsyb8ni1DHbvY/KxGxHMW1jeMpYFXDe6Vt1LPmnjTOvM1wh0486Yxlh98N9MrvDGVt4tEPu/VFgrKhCit/OcsrYClDniKU19ru0o4HL/cBc9Pv3/bVzgzDxXtb2SUWlMu2/3HnWfOc9rM9jRaEfwjq2yh/+clku5+BsS9r/beYBQQgAKBRjFoQ/WHvBjyXVaV6F+zY4R/ee3r5HJivGix45Ik/ar3nwnJRMD2wPBGHFmtWp+1h+sM553SUbNqeOPfCuu99H8kBJYHuuxiwI/dPFKSG25pJUJIJqiNPG6dcZzvlj1tPFE//tc/+InOIO5WzXEE495Hy+J/9XhxV2qfskWJ/VPgqYEnbJIPxcprtHDu/7vfM6fuR6R0KznNoelh1y4upVuZqD7kMvKPbXUH67fP5XOwhvkz+mXYYAAMBYG6Mg/IU8vM8JtIyjcln5+8z7abbr/YJzAtu9IHxLHWZT1rhxmrjGMDhWKw82O6/39L5z8uDi1TIxx3hNGKsgTJ4uTn/MjHf0THHEzpY8bZwWjFaIJaJPcbr4vlbn9Z7Yp3g9izoI/c8x5/VsdzUH57jb3CAMHsH0gnDe9hXutnwG4Vi7QzpOTJDr/9//I19etWPw7+Xzt+6SUuVcAADGzhgFYYPMs0Pp4AWZ9ZBqXCWXfWIyfasTcCnXH3pBmCXMsgeh5YE98ogbmQn29YDx0zLr6Vr1DSxBYxSEydPFijuKvSNzymsBA6eN/esMS5PR9ZPdmwJzbf51icloS6MOwvdljv0ZBo02/3Rwcl83CIOv5X02//1NDsLb5fqnzmli25d//rb80bifAQAQRoYH4Vz50XYn3CpeClzjpROECTNkyoK3E9864t1M4sThR/LgY+WK+a4xCUL/dLHyETK/uOre7KEOpuRpYy8Yf+jF2xdyf2X6/NEMwsBp7ze3OtvGPAjH6ZRxyV2y7z9vky/tMLS/pYRTxgCAcTZ2QZi8S3eQx72k2Jy8wePHC1TjtsAp40WB7dpBGOTc8PLjJud9fvaf/y33KedZxiIIk6eLh5Yaaa7kaWM3qLyAbDsn96TPDXyVXeLRNhnjpfKD332peK8D8rB704jqjmZH4JTxr9xtYx6E43lTyd3S0WkfKfy6XN+hGgcAYOyMURD6R/Ky3iCSwdrn35x9Mu4i9iz4b+cRMe98INOCp3PzGoSu4j3yE3ufwY5YLvrAebbiviPyA9V4HqR8d/FQhjhtbJ8i9k4xZ54udiRvDlF8D/IkK+AWuu+VGoT+XcspdxEHvXrV3fe63OfdrBL6U8apvLuMbx28UzkOAMBYGaMgtHjxZvnXX6U/hDrLY2eS+1yRx1bVpt7gMe9decx97EzFS2nPLxxpEP6oVqbOfjR1W0JMJj99WpbY+6THZ9D0t+WJxOe1PtMrteo5WgKhdej/VYy7rLBK3CSiPA0ceDzN8c/dx7+o5yXUeuF2Sx78ufd7rpB7Gz5PbF94VnWE0JIMvi+lbPc+mRi8Q/nFc1LmHkF87M3AflENwvcIQgDA+Bq7ILSiaspLHyW/ncQ29IOprX3WBPZRPJi68lcNmUccRxqE3ilfy9P/6T9Q2r+O0ArTZzMfnu2LJR+Vk+B9Xpf2g6mTj4cZ/DuJi374/yZP2SqP/D3zkTzmvk6C8nSxp8qKMif6bPbDor1vJ3my7SO5tz4z4hylifB0wtSieDB1Rav9rMHAPgQhAADjYgyD0DX7PxI3awS/Fi7xNXRrGrJ8dV1MJs/bk/gquWSYWf9r3/n7wIKlivmWkQbhvLflEfsr6wJfq2ez47D8160ybfaM1PlK5fKDZ/9bnnjrSspr2HS/ui7lmYCK8aDk3cbK2POiypHtdHHSD9fLfW/7Xz/35NnAV88pIs5XKpNe7pAHj9+ShYGvrqs4eV3uf1XxngQhAADjYuyDEEACQQgAKBQEITBOGn7/TScIf3+HchwAgLFCEALjpHTXhEQQJp5FWK6eAwDAWCAIgXFzp3z08dedKLz6P+SLjgly/cQ/SqNyLgAAo4cgBMZT7C754x++Jbf++g0nDD+dIO+r5gEAMIoIQgAAgIgjCAEAACKOIAQAAIg4ghAAACDiRj0IH3nkEXn44YeVYwAAABh/BCEAAEDEEYQAAAARRxACAABEHEEIAAAQcQQhAABAxBGEAAAAEUcQAkH33CuL7pskU1VjAACEFEGIAlYqx/dukcu23zwmi5RzcjFN3m2wX2etvDtLNe6aVSGde5z36/75rFGPwudWrXV+tr0b5Ohj6jkAAIwFgjCfnj4qteduSssnXTJbNY5hekiOu4F2eUOpYjxXuQXh8udq3ECzNFTIc4o5+eS/3xChCgDAKCMI8yneJwc/+0oOXiII88MLOcsYBGHR1FI5/sYmubynTjqWTVPPyadFKwlCAEBBIAjziSDMMz8Iu1eXKMZzlWMQjrVkEL4gjVMU4wAAjBGCMJ8IwjwrlubfOEF4fpXOEbsCDcLHlkl3IghXyjbVOAAAY4Qg1FR52gpAOwJzUB/39iuVhSfd7R+2S3HaayZ5gflZn1TG/O3Oe96Ummrr34sPSNWZm7L/mvt6127K9sMHJBZ8naDYeilr6ZGdV9z5lv09N6X+0AGZHngPtVKZ09ov++39LvXIwgWqOfm1bcPwgnDGA6Xy7oYa6X7T2S+hsU4uJ65FVAThrAo5780LGuQU9evrNjhztjwqcxTjtqne0b+mZfL6RPUc/70JQgDA+CIINS1sG5CWHlevH1nJbQF1OwL7rrsozYm5/VK1PLA9aYUsP+cG28nWlDEvQrcf65Im9/0O9trv4f63peXU0czQjDVI9SfuHDscT/XJ5jP90uzF5IUumTNYFD7VKXH39W1NrVvV88bJ8qUvuEfcLHs2SHe8TrobNzn/TlAEYclj0mHP83ghOdg1i8kjezXy9o8U40WTZOevnNfpXvcQj7ABABQ8gjCfhnXKuFFq3aN0zccaM8fL2mR7IrwGpHZd6ljKUcnefqnZst4dK5Xpu/ukRbnfCll4asDZJz38ZjZKzQXn9VpOHgjskyb5mRzxd7z3HX9Tf1zpHm3bICeXxWRGcPyeGdK60x4b+pRx8lEwg97EYr3eG07wKY9cTrMiM/FZ1klradoYAAAFiCDMp2FeQ1hyqN+Z39sj5Wlj099xxxSvlQzC3j5Zujg9XDZJlXsUsOlwg799uXd0L8sRyeQRy9TT0+li2y7KzksDEj/VJiVDnmIeK/4RufOrSxRH5HK/hjC3ICySp551HxnzRqW8km1sW7k8lTYGAEAhIgjzabg3lQSOuG3cFgwQP+rihzYFtju8IKzfrY6WOUduOp/j9NHktmRgdnXK9MBc31HZbI/bRxY3qMYLmfe8wnXy7oOq8fwHYdGUeXIy8Z7pD5X2jx6efGpSYDsAAIWLIMynYd9lHLi55Fybf81f8mjeDVleFpzvSAZh8iaVVLMPu0EYiL/ktiv9stm+djDDDWlyr4HM9roFa8ibM0YhCC3ezSUp1wmWuqeuB7uZBACAAkMQ5tOwg9CiuLnEi7f0m0k8OQfhmbbMbTkgCHMLwuTNJXtekJ3ucwQ31rqRWDsrcz4AAAWKIMynkQRhxulh/2aT1NPIvqGCsOy4c/PI/sANIiWtmZEYGsmbOF6W5mmK8Ykl0hofhSBMPz088SE52mT/m5tJAABmIQjzaZcbhD0XpUw1nkXxWzec/a5Y+2246NwlbP+3Yq5t0CCM7VMHpfe6vX1SqTgNnavCvKlklhtiW+T4ovSxe2XbBve5gXkPwsANJFselce9Zw+O6s0k5VJ3qEO6/9ItHYfqMm5GAgBgJAjCfAo8p6/pSKNMVs1RibXKxsT1ewPS5D7+RXUziSdrEMbWy8KT7pHAC+lHKRuk2n3tg59clPKnKwJjltgKKdnQbsWGmY+d2fhzN/oalsj6qe72e2LS+Ct7+wbpbhydIPRvLnlROrbY/zvKN5OsPCDnr16Vq66O/8jxcwIAMAiCMK9Kpfyk+6w/27VBHkydpuxYYL+sD6t2eEFo23+pX+rtm0KCD5ju6ZNK1beIPNsu2wMPzw5+vuS2U/6dyRkK+cHUU0vleCL6LHs2JR4y7Xw7ySbpfG6a7Ex840lmEC5/5kX/odTBB1N7D7Z2HX0idb+g5DeX2Eb7ZpIfx6UjEISXj/9KPQ8AgGEgCPOuSubYXw13KRh4jkFv1qgOfOtI8I5jhWQQegHosuNw81BfQTdzq1Qe7pN4MAKtMGzu6pOaXQ1SPOhp4LH/6rrhmDrtIWmtX5cMwe5tK+Xt+cWJO4Cdr8DLDMLkEcEhZJ6K9k19wvvmki3SvbpEOSefyt/okMteFLbtUM4BAGA4CMJCkbzb2H4O4OCnAYe6qQQhN9U/Sni2iVPGAAB9BGFBCFzf92G7xJRzfARhlM2Qta3nnaODl/8gv/KulwQAQANBON5mbpWVZ7zTtzdkeQ6nYQnCCPp5i5xo65Dzl91TxZfPSkv1VPVcAACGiSAcF61S597Mkbgez3atX2rWpd35mwVBGEENJ5wQ/Mt56Ti0Q14oUcwBAGCECMJxcVTqvRDsvSk729qlbHHu14IRhAAAIJ8IQgAAgIgjCAEAACKOIAQAAIg4ghAAACDiCEIAAICIIwgBAAAijiAEAACIOIIQAAAg4ghCAACAiCMIAQAAIo4gBAAAiDiCEKH1o9h/yB+fvyBX1/dKX12vXH6iSjkPAICoIwgRSrFprdL9mhOCfWvOydklH8jhBxcr5wIAEHUEIUJosex/3onB7idWS0w5BwAAeAhChFCDtNtHButOy+7vq8YBAEAQQYjwua9VLttBWN0qq1TjAAAgBUGI8CEIAQAYFoIwD2YfvikHP/tK6uPWv2dulaVt/dJ87avEtoPXBiR+qk1KYpn7FVV3SZM95/TRxL8nr2qTuq6bst/eZtl/oU9WrqvI3C+hQma/dVG2Xxhw3sd9r+auHlm6SrXPUam351zqktlFpTJ9S6fUB/bdf+WG1Gwa5C5c7+fqcd/L26/H+vkON6r3SSqVOa39zs91qUcWLlDNySOCEACAYSEI88ALwua2LqnvdWPJirMWK5aS8XTBDrG0fb0gtCJtfrxPWty5dmTt94Lys36pWp62X6xBqroCMWfNt9/LC8mDnw3IzncaUvfxgvCzG1J7xPm8yX2T7zUgm3etSNvPssDa1/u5LPZ7JXjb3KDN6qlOibv72ppat6rn5QtBCADAsBCEeeAFoeOmbH5rq0x2xyavc6PPsv2ttNjygtBzpUcWLi51xqzoq7ngbG85vi+wX6mUn3RjsPeGrAweDYytl/Lj3me5KTXV3j42Lwjd1+zqkvLke62Xpafd17xyUcqS+9hKZeFJd5/TbTI940hnhcQez3YU01XWJtsD7x1/Z716Xr4QhAAADAtBmAd+EFoRlnGK1w+qjCNpwSC8cFHmp51KLd57wx3rkhJve/Jo24DUbnCDLkWVLP/Qec39Jw8EtvtBqAy75d7rpofkVql2wzR+aFNg+/DEtl2UnZcGOX2eNzGpWXDBeRD1wlrFOAAASEcQ5kHylPGR9NO0rt1u2CWu3wtsTwZhv6xUXVcX78vYLxmJ6a8VoJ7jnzJeqgyyBqm5ZI+710IGxsqOeaenB2TnsaMyZ64qRMdX5YOt0r7ktPzfNb3Ow6irjsjGe9RzAQBAKoIwD7wgbDqcJQi9sOvtkfLg9mQQ9kllcPsgkkcjB7tub02XNGe8rheE2d7LD8KMU7qxrbL8TOB6SMv+nptSf7hNyrzTzuNs1RPOUcGE2o+k/Se/kAWKeQAAIBNBmAc5B+GlLpkT3D5aQbjhonuDSp8sTG7PPQjrd6sjb/KqVqk6dkPigRtMbPFjBwrk20BiMndag/zxRScMux/nu4sBAMgFQZgHQwVh8hRuV6dMD46NIAinv9Ovfq0A5bWHQwbhPql1HymzsV41nmry0/tk5Sk3TnPcZ8z86IhctY8UvviuPKsaBwAAKQjCPBg8CP2bPDJuyhhBEBatu+ieDk6/+cOzSaq6nPdL/TxDBOEG93V7e2Rhzjd9rEj+bFmPjrrG7qYSi3eX8WsfyC7VOAAASEEQ5kH2IKyQskP9zunb3j5ZWBYcs4wkCAPBZz+mpvLp1MfOLDzpHrXLeL9BgnBxq2y84rxmU2v6z7BJ5mzYKrGZwW2uxW3J5xPWxwe5lnC8HjtTRxACAJALgjAPktf1WeybLbaf6pPNpwLX2l3rl+o1imAaURBa0h4UnfFgauX7eUFoj9vfaGJ/xj6pD3wzSsupo4prAVP3y3gotb1fV3vWO54TxuvB1AQhAAA5IQjzIBmEyW/8cCTi8FibzFYdXbONNAhtM7dK5eE+iQe/Sq73puxsa8vyWJhg2AX2ceOwaku2o3aNsvKM/ZV1wW9CcfZrudAnNbv8h3BnN05fXUcQAgCQE4IwD4a6qaQwDHLKOGwIQgAAhoUgzAOCsMB8/z/kbCIIT8vu7yvGAQBACoIwDwjCQlMlh6vtIOyV7idWF8gzEgEAKFwEYR4QhIVn7oMfOM8itL10WtqXfCCHH1ysnAsAQNQRhHlAEBamBfe/K2errkjfa04YXn6Cby4BAECFIAQAAIg4ghAAACDiCEIAAICIIwgBAAAijiAEAACIOIJQA7ELAADCgCDUQBACAIAwIAg1EIQAACAMCEINBCEAAAgDglADQQgAAMKAINRAEAIAgDAgCDUQhAAAIAwIQg0EIRBdc+4rlkfuUY8BgGkIQg0E4eAqT38lBz9Ld1NqqtXzgaJZFXJ+7xa5bOmunaWeM+4mybZXNyQ+4+U9L0rzj1Rz8qlUjru/k8u/eUwWKecAgB6CUANBOLiy3/XJ5lOefmkOSRDOPnwzGbjxQ5uUc7wYro9njmEQJRXS6cbP+VXT1HPG3UNyfI8baJbji1Rz8inwfhtKFeMAoI8g1EAQDsdRqQ9hEB68clHKFHMIwpHyj4YVbhAWyUvPvSyX7UhrqJSNU9Rz8meavNtAEAIYXQShBoJwOMIXhM2f9Mt+63+3v7UiYw5BOFJ+EHYsnaQYjyI/CLtXlyjGAUAfQaiBIByO8AVh0+FO2dhr/UyfdEpJ2hyCcKRmydEmJ35G/1SsKYql+TfO76SQj5oCMBtBqCFyQbh4n6xs65dmO4IScfeV7O+5KfWHDsj0mGJ+ityDcPLT+2Tp4T7ZeWkgcQTOe6+WC31Ss2Orch/P5FVtUtd1U1qu+fsdvDYgLdbnrFmn3sc+KjV9S6fUX7DeL32/S32y9KnU+X4QNkjZsQHrvwekNu21swZhbIXMqe+U2nPWZwz8Hg/23pSdbe0yZ0HafPf31nykQYrWdMr2K878lg87ZY71O49t65Em9zM3tbVKLGVf18ytUmn9PuPBdbvUL3VvbZXJqvlBsQap/mSI188r/2hY9iB05/xynkyd+pAc/fdNifmXG5bI61OLZOqDj8nJN+xtm+T8rx6Tlyam7T9xkrz0WLm0bqmR7iZ3X1vTWun4+aPyivUaKfNd2za481KslXdnqecneDfJJE71TpLnKpdJp/eee6zPV18pr09T7JfGe2+CEMBoIQg1RCkIY/E+aXFjIhEUPXZk+cE29JGwXIOwQWouKd4nEGp2iKn2TfmMiQhM3Vf9GUtlTvCawN7AfoltmZ83GIRFyzslbv33/pOtKXOyBqH1GZPvlfyM7r9tvX1SmRKF7u/tzEWptWPQ2sf7eTa2OO9tf2bns2aGadGCo7LZe/0r/VJv3+Bjxai3bi2njw4aedPf6Xf2Tbgp1c+r540tNwitAGzdYofVBul+0wmmjmfnydFG67/frJNu90aMk0+lnXpetNIJMps9L25pDIRh40rZpojC13/uzk1w7zLONQh/vUTe/bV3Z7L1ea3XSFyDmHi/FbJt1K9DBIDBEYQaIhOEa7qkyQuIM+0ye2ZgzD7iteuirNwS2KaUaxBulaVHuqTy51WpR69i66X8uBduN2R5WWAsMd7qnL61oqh+9/rUMdvMKokFP7fHDbrE51pXkTk+t0qK045+pgRh0QpZfs7ev1+qlvtzsgbhlk6pa9knJXNTbw6YvKpdtrtH8JqPNQbGvN+bxYvF3TcS/95vz7/QlThSWHbcPlL5lcTfCf7sDVJ9wdk3I/wWt0m9+37xd9R3StuK33Ley2H9jGlHS8dH4CaLPTXy7oPWtgefTIRXd5MVXW7QzVn6QmJOxuNrHi2Xo8tKZHlahM144DHpcE9Xn6+ekTKWybvWMccgdHWuniWL3COWU6fNk5Pu+3G9JIDxRhBqiEYQesFjBciZNo1ThrkG4SBiVsRke43nvWhNDbMh7XKP2PX2yMIhT3s7UoPQ2lbfkzgyGQy5kVxDOOeIG7xWvPnb/SDcvrfK2ZY8yugfEcz4TLZtPc6RwCw/WzL2LnXJ7LQxX5UsPNYvzT03ZfPuwU/Xjx0/CM+vLpGp9rZAeCWPCHpHAodxZ+5LL63LcZ/hB2HnqmnOZw1Yv7ouMVa4z1wEEBUEoYZIBGFZu2z34mODYjxneQjC5Olk1Ws0OqdU7ffouSG1uxoyjuwplbW5P5/lUp+s3LBpyOvqMuNrk1TZ19kFwmtEN5V4oacKwp7A4228eR+2S7G7TRWE5Sedz7D/5IHkthTJiFYccS1oXhC+II3eUT4vvOKVst6bN4IgzH2fYQbhziflJcX4c6vWDv8zAsAoIAg1RCIIq71o6JNK1XjOhheEkx9vlPLdnVKbfLC17YY0JU5zZnmNZ9ulPng9niVxI8pb+wa96SW26aLE024mae7qkap69U0XqvjyjrZ5R/EGDcLYCinZcFRWHu4J/GyWLue0rzIIg0fxFOGo+kzeZ9h/4Ubq+ySZ+rBwLwhXyjZvmxdeDRXynLdtsLibOMmK4IekcdUSOf7qCl/9KB0hDH6uAIIQQKEgCDUQhMORYxDGtsryM24YZTXYa1TIbPcu3tQ7hvuldpN7ylUltl7K3uqyosy/4SKh54Ysfzb1j7Xy9Kx3DaP7oOpsQZgRnyp5DsKhRSsIH3+0UjoD3zSiRBACiBiCUEMkgjB5WlE3GnILQucxLta83htStWFT2mnfwU4Zq1TI9A3tstm7a7m3R8qV89K4N8rs9I42dnXK9MC4MggD2zfWZwnCwOnpprajMufxtJtYBjtlPIIgXHjKea/EI2vcbeGgEYRT5slJNwY7a0vlpalZ7kAmCAFEDEGoIRJBWLRPat0waj6+TzGeq1yC0H/kzPa9md/+URRrlNphBaEreR3kMPfbcNF9jE3q0dFsQegFn/0ImqWqIPRCLng9YMBk7yaPPAVh8d5cbhoZSiHfVDKCIPS2Ba81DJhR6dyZHIogfKJO3uvolssfd8h7vyhXzwEAF0GoIRpBWCQlyWfRDcjOw2kPoc7rY2e2Jh+T0mxFlX9Hc4VMr+/yj9ipXuPpRpn/fNqjahJKZboVWs5pYCvs0q4lLF6zT+b8qyI+rfcsO+ZEVnpQZQ1C670WJm7kuCHbP3Q+a0oQenc023dCB09Dz22Qpafc97LlKQiLyo7KZvfRMvbjguakPerGfhTPnF1dUjNI6BX2Y2dGEIQLVjjb9rwszSXuNsvUKdNk56tunOUUaIUfhM+8c16uXr3q6pD4j9XzAMBGEGqIShDaR4kqT6Ve1zf0g6lbpc6d40nfN+HD1K998+PT4j64OXkt4LWb0pS4k1gRhF4k2YIPl05er2fF7O8yT516IWULfi7/OsKbUlefGozZg9Cy7qJ7o4Yj5fcSO+A+K9HhvJ//75ZL7vWL+QpCi33NonPK35X83fjbmlqzB2FBP5h6JEE4cZbz4OpEzG3KeCh1d8M66U7fJ+EhOZp8KHXwwdSWxsD2Xz8my4P7jWMQlv5HRyAIL8sfNqvnAYCNINQQnSC0OV/vlrjpInBTROIr0FpUd/F6RwSHkHE6s0Jmv9UjO71HyNgSX+vWljjC5VybpwjCde1Sb39lXSB0nH0HJH6mSypXKR46bZm+66Jsv2AFUiDUbPZX8tlfJVe2OPMP9aBBaD+Cpst/nYxQXnxAqs6k/g7tO6Gr6jfJZO8GnjwGYYL3lYPB340V2/FzF4d+zM6Yf3VdLvRuKpk6bZa8vaEm+U0m9lfIdW9bKW8/ViwzvNfJCDTviOAQ0sNvHIOwqKhc4n+6nIzCE9tVcwDAQRBqiFYQAjDN1De8o4Rn5U1OGQMYBEGogSAEULBK1sp7552jg5eP/yrjW1IAIIgg1EAQAig0a/edkBMd5+XyX90Y7GyR1VPVcwHAQxBqIAgBFJodJ90QPN8h721/QWYo5gBAOoJQA0EIAADCgCDUQBACAIAwIAg1EIQAACAMCEINBCEAAAgDglADQQgAAMKAINRAEAIAgDAgCDUQhAAAIAwIQg0EIQAACAOCUANBCAAAwoAg1EAQAgCAMCAINRCEAAAgDAhCDQQhAAAIA4JQA0E4BmIrJPZUlUxWjaEwPXVdbn9PMm19Xz0fADDuCEINBOEgqruk6bOv5OClLpmtGs9F2VHZ3Gu9hv06Xe1SopqTdFTq7XnpdN4/+Zp9Uqkch5IXhL/9Qu7cct33fKN6PgBg3BGEGgjCQeQjCHf1BeJuqChrlJWn+mSzp2uAIBwvXhByRBAAjEEQaiAIB5GPIIw1SPUnThA2HT8gxao52cTdmCQIxx5BCADGIQg1EISDyEcQ6iAIxw9BCADGIQg1EISDIAijiyAEAOMQhBoiF4SL98nKtn5p9m70sOzvuSn1hw7I9Fja3JQgrJDZb/XIziv+fs3nuqR8cWnqPglehKUZbtgNKwhLZfpr7VLXdVP2X/Pfc3+Pex2iIghnH76ZGKuP2/9O+/muDUj8TLuUzUzdJym2XspaUn8fWX+PNu93efqo9W/7vfokHliD5q6LslD5uwwqlTmt/bLf3udSjyxcoJqTJwQhABiHINQQpSCMWYHV4gaIEzAD0mJJBIbFCaOAZBD2SM0pN6ysUAruc7C3R8ozAqhV6tzXTvDCZ9SCsErmH3fiLvgZk++bkD0Imw4fkMq0ny+5X1dn5p3RgesiD167KdvtG2DOWJHtheiFLpmTLa4/tH6X3s0yGb/LPllYlrZf0FOdEvfmWppat6rn5QNBCADGIQg1RCYI17hBYmk50y6zg0e+Yitkzq6LsnJLYJvNixhX88lW/+jXgjapd4Nr+94VqfulG+mp3xz3i+294X7Gm1K7ZX3q+Nw22Z4Yyx6EnpSfL/n7GpDaDcH9VshCLx7Tw29mo9RccF6r5eSBwD6WtN+lfYNN8r0W5/i7LPN+Fkf8nbSfNZ8IQgAwDkGoIRpBuEKWn3MiYv+ZNokp5ygEIqbpSGPGg6XLjjthtD89ftKNahA2Sq172nb73irFePZrCINBaAda6u/F+p196I4Fj8Qt947S9UvV8uB817qL0uy9XzAWg7/Lww2p+1hy/V3Gtl2UnZcGJH6qTUqCr59vBCEAGIcg1BCJICxrd48spR/tGoIXMVaQzVGMJ4MqcV1c5njSaAbh815o3ZClykDKIQg/bFdGcuVpe7/UgJv+Tr+zT1enTA/M9R2VzYn3S/td5+t3OVYIQgAwDkGoIRJBmDw6lRlFgwpEjCrICiIIh5yTQxAOI8KS+1zp9x+gneKGNLmnf1OuyczX73KsEIQAYByCUANBOAiCMENynxwQhACAsUQQaohEECZPq96UmmrFeDYmBGF9j3OXrn23s2p8QbvstMfzFIQlre4+Z9qU41kRhACAUUYQaohEEBbtk9oeO4q+kubj+xTjWZgQhMlHsShiN9aQvOs3X0FYtOGi8+ieXuv1BntETLo8/S65qQQAkA1BqCEaQVgkJd7NEJ8NyM7DaQ9PHuqxM4UchEXrZWWX/XN9Jfs/bPcjafEBqU3EoPc8wjwFYVGDVHuR+clFKX+6InXc+l2WbGiXukNZHjuj87vksTMAgEEQhBqiEoT2w5uTD1925f5g6mFGzI4e58HQnsADooPbd76T9mDlke4XeMZi6oOlB2Rz/IDUXLL/O19BaHm2XbYHPlvyQdjJ97WcSnvNfAQhD6YGAAyCINQQnSC0lcr0LZ2yOf3r3S71S13LvsyvXBtpxHhH9oaQ8Ty+ke5nmbyuXeov+EHW3NUjS1fZR+8a8h+EtplbpfJwn8SDEWiFYXNXn9TsapDifP0uU/DVdQCA7AhCDdEKQiBHBCEAGIcg1EAQAgoEIQAYhyDUQBACCgQhABiHINRAEAIKXhD+9gu5c8t13/ON6vkAgHFHEGogCAEFLwjTccQQAAoWQaiBIAQAAGFAEGogCAEAQBgQhBoIQgAAEAYEoQaCEAAAhAFBqCHsQUjwAgAQDQShBoIQAACEAUGogSAEAABhQBBqIAgBAEAYEIQaCEIAABAGBKEGghAAAIQBQaiBIAQAAGFAEGogCMNp/a++K9c//nuRT7+WcH2Xeh4AAGFBEGogCMOnatcE+TIRgt+QLz++Ta6fmCAda9VzAQAIC4JQA0EYNv8kV/9qx+DfyfVddyvGAQAIJ4JQA0EYMi9+R27ZRwe7vyMNqnEAAEKKINRAEIbMrgnOdYN/ul09DgBASBGEGgjCkCEIAQARRRBqIAhDhiAEAEQUQaiBIAwZghAAEFEEoQaCMGQIQgBARBGEGgjCMLlb/tjxt1YQfl0+380jZwAA0UIQaiAIzdf42wly/cRtcuuv30jE4Jcd35OtMfVcAADCiiDUQBCa7/0/fc05TWz7y7fkUvwuKVXMAwAgzAhCDQRheGyq+6587n1LyQ5OGQMAooUg1EAQhsuKt25zjhSe+CflOAAAYUUQaiAIQ8a7y/jj78pW1TgAACFFEGogCEPGC0K+yxgAEDEEoQaCMGQIQgBARBGEGgjCkCEIAQARRRBqIAhDhiAEAEQUQaiBIAyZl78jtwhCAEAEEYQaCMKQid0u1+0gtJ9FuItnEQIAooMg1EAQhk/DwX9wTht/+g358s+3yfUTE6RjrXouAABhQRBqIAjDaWv8f8oX3X/nhuHX5Pou9TwAAMKCINRAEAIAgDAgCDUQhAAAIAwIQg0EIQAACAOCUANBCAAAwoAg1EAQmovYBQDARxBqIAjNRRACAOAjCDUQhOYiCAEA8BGEGghCcxGEAAD4CEINBKG5CEIAAHwEoQaC0FwEIQAAPoJQA0FoLoIQAAAfQaiBIDQXQQgAgI8g1EAQmosghI5tG7bI5b22l6V5mnpOwqwKOW/Pa6iQ51Tjo6pUjic+o+U3j8ki5RwAcBCEGghCc0UrCDdJ5bEbEu/pl+pq1TiGa9urXhCulG2K8SStIJwkz1UukY6dG9z3sjTVyMlVD8nyiar56R6S43vc/TaUKsYBwEcQaiAIzRWtIDwq9Z99JQc/uyk1BGFePLdq7egG4T0z5N1tm9z32CTd8TrpbvT+bfn3CnlpyCicJu82uPMJQgBDIAg1EITmIgihIxmE8UpZrxhPGmEQLn+2JvH63b+ukI2BU9IzSp+UTveo3/nqGSn7ZPKDsHt1iWIcAHwEoQaC0FwEIXQseuZlJwiHCr0RnzK+V7atekx5FHD96rrc3ruoWJp/48bjqmmKcQDwEYQaCEJzhT4I431WANoRmIPTR5P7lRzqd7b1XJSy4OsFVXdJU2Lf1MCcffhmYt/6uPXvmVtlaVu/NF9z3+PagMRPtUlJzJ+fqlSmv9YudV03ZX/itd19znRK+eKhT3fGrJ838V49N6RqzRicHl20cgRB6F4T+IZ76nfPJjn/q9QjgDnx3nuo09UW7+YXghDAUAhCDQShuUIfhDt6pKVnICkRWJb9gW1Jba3+fmVtst2du3GbOqzKjrmv90mnlAS2e0HY3NYl9b3Oa9hRF3z/gxe6ZHZgH0epzGl1Q9TSdK5PNp/qk51X3H3s8Bw08g7IRu/9bKf8wB13ySBcIu++6h7Z27MhcU3gZe+Gj8ZlsjGnm0Qcc5a+4Oy380l5STEOACNBEGogCM0V+iBMMZxTxitk+Tk3rM61SXHGeKPUuqG2/a0VKWNeEDpuyua3tspkd2zyOu+oYuZ+xbv6pMXdJzX8KqTsiPuavT1SnvXoov+ZbPtPHlDMGSdeELrO1z4ki7z4mzpPTjY52zuWTsrcV2mS7PyVs0/3uodkqnIOAAwfQaiBIDQXQTiIbT3uadt+qXoqbazeG+uTyrRA84PQep91FSlj9lHAhSedYAueorYfiVP1ibM9fmhTYLvHj736+CBHCde0S/2FAWk+1yXzFyjGx0sgCDtfmiEz0sa96wG7a2elbM9m6mPLpNt+vT018vYs9RwAGAmCUANBaC6CcDB+hKVGmh91+08GTjO7kqeMjzRkjCXsvpEYP3gpcNr4qU6JJz6bIj5dC08579lyfJ9yvKB5QZjl9G7ybuUcHgszteRROdnoxuWqaRwdBJBXBKEGgtBcBOHgkjeXXAncXBJrda/VG5DadanzbV4QNh3OEoTejS726V9vW/IGlQHZecq5djBd/QV73JJyZNEQKTeVZI7nHIRTS+W4G4Pd1tzHVXMAQANBqIEgNBdBOATVzSVe0KXdTOLJOQgvdckcb1syCHMQ0SCcOm0eMQhg1BGEGghCcxGEQ0k/PezfbKK+1m/oICze654y7uqU6d72570gvCFLs940YjDNIEyJwVeJQQCjhyDUQBCaK2pBuDkRXQNSu0E1nsW6i9Lsxtryp9vdI4bWf5cp5loGD8IqWf6hvX96UO6T2h5ne3089e7jYSn0m0pGEITBawbtu5PHKganrojLifOX5fL5ExJfMVU5B0D4EIQaCEJzRSsI10tVlxNd9nMAy2aq5qj4dwA3XXBiT3UziSd7EFZI2aF+59EyvX2yMC0oZ7c6+x281i+19ZuSj6pxlErxs/tkZVunzE/ZHmTAY2eGGYQpN5CsLhnTI4M72q7K1auu7v+StYo5AMKHINRAEJorWkFoqe9xn/XnRlO2B1OnKX7LPc3ryvawapsXhM7r35TtiZtCbkg8+ZDqfqlWPWA6tlWWnws8vNrifbb93jedfGaFZPp+SSY8mHp4Qeh9w8iQsryujrWHu/0gvHpWWirV8wCEC0GogSA0V+SC0BJb5341XDKyXIPdrBHzrj+0BO84VkgGYdrrJ+LwWJvMHvTIZIXM3tWVOO0b/Hz7L/XL5sNHZc7c7CFqG/OvrsuVgUFYNHW1vPexF4Tn5cBKxRwAoUMQaiAIzRXFIByRwN3G2/dWqee4hrqpBOZY3eoeJfzLf0mdYhxA+BCEGghCcxGEuVghC0+5p3Lto4ND3AVMEIbD1EVxOXHZOUJ4tmWpcg6A8CEINRCE5iIIhxBbL+XH3IdTJ+5OHvo0LEFosidlR+sJ6ej0rx/sPr7Vf4A4gNAjCDUQhOYiCFW2StWH6TdzDMjm3esVczMRhCZ7wblu8K+XpbvzD/Lmuif5ajwgYghCDQShuQhClQapueSG4LUBiZ/pkspVFYp5agQhAJiLINRAEJqLIAQAwEcQaiAIzUUQAgDgIwg1EITmIggBAPARhBoIQnMRhAAA+AhCDQShuQhCAAB8BKEGgtBcBCEAAD6CUANBaC6CEAAAH0GogSA0F0EIAICPINRAEJqLIAQAwEcQaiAIzUUQAgDgIwg1EITmIggBAPARhBoIQnMRhBg3k6pk9+Jzcnltr/TVWapbZZVqHgCMIYJQA0FoLoIQ4+L7q+Xwi24Irrsg//dnH0h7RYNUquYCwBgiCDUQhOYiCDEeKh8958Tgi61S8331HAAYDwShBoLQXAQhxsOuZc7RwbOlMeU4AIwXglADQWgughBjr0oOV9tBeEEO36caB4DxQxBqIAjNRRBi7BGEAAoXQaiBIDRXJIKwukuaPvtKDp4+av27Qma/1SM7r1j/trdZ9l/ok6XPlmbuV3RU6u05l7pktv3vxQek6sxN2X/N3e9Kv9TuWK/Yz1Yq07d0yuYua777PrYW672qtqj3qTxtz7kpNdXWv9Pe6+C1m7L98AGJKfZLiK2X8kN9Eu8ZSL6Xbb/17+bTbTJdtU9ALN4nzfZ79dyQqjWq30U+EYQAChdBqIEgNFekgvBSj9Sc9oOpxYqlZHBZIVZth1jKvm4QfmYF45ouiXshaO3XktxvQDbWpwdUlSw8edMdt/Ra81Pe6ytpPtmaEXdOEH4l24+5nze5r79fy6mjUpy2X1GsQWou+HMSny/B3eYFbVYHZGOvv/9B6z3U8/KFIARQuAhCDQShuSIVhK7mU20ye6Y7NrPRj6lzbWmx5QWhq7dfqtZVuGNVVsC5cflhe8p+Je/0u/vclNqUo4EVMrvlhrS4r1cfXxEY84PQe6+a5L6lMn13n7vfgNSu8/exlRxy3+9Cl5R5P1dSqRQ/nvo+mRqlNnjE9OQBxZx8IggBFC6CUANBaK6oBWHTkUaZnD6+rcc9rdsnlbHgWCAIe2/I8vTTyhsuupHWJwuT2/2jbdv3VqXOTyiVsuNuSHZ1ppzKTQZhb58sXZx+1HGTVH3ijDcdbkgZW3jK2b7/ZGvK9mFZ0y71Fwak+VyXzF+gGM+j2LRWuWw/cmbNEVmvGAeA8UQQaiAIzRWpILzUJXNU47E2N/zc6/eSY14QDkjdJsV1dcnQtELS2xaIxNS4DAjOCWz3grB+t/oavjlH3NPQiWsh/e3Fb91wtluaTrXL/Ke9o5gFpLhBDi/5QM4+f0H6XrNicP1Hcuz+cvVcABhHBKEGgtBcUQtC9bV0/pHAjfWq7emhOIh4nxNng123lyVAk0EYD8wNmH3YDcK0I4v2Kdj5x7zT1K7em7KzrVPKVxVIHN7nHhVMuCLdS9+Vjfco5gHAOCMINRCE5iIIbYHwW5Nlez6DsKxdtruvW/28vz3nIDzTphwvWrxPlh7uS7mD2tZypl1Ksh2tHGOxyatl1+KPnDB88V2+uxhAwSEINRCE5iIILclA65eqp4JjIwjCevd6xN4eKVeN25TXHg4dhN61hznd9DG3QSqP+TewxN/J9nic8fALOVZjHyn8SA4VSKgCgIcg1EAQmosgLJLYXvcavE86pSRlbARBWNbmxmXmXcSOUik/6d5UknYt4KBBGNuXvBN44zb1NYYqyRtY0t4rwxjeVOLfZdwr7Q+qxgFg/BCEGghCc0U9CCev65SdibuCB2TzrvSAG0EQBoPPfkzNa8HXrJCyQ/3uUbvM5x5mDcLYev+5hhfSf4YVMue1RonNVUTizEapveS8ZvqdyanG67EzVhA+pBoHgPFDEGogCM0VqSC0XRuQ+Lk+2XyqT7ZfcMPNEm9VBdNIgtCS9qDozAdTW/EZz3wkjReEtv2X+qXe+oybz/Q73yBib+/pk8qMo3fWe7nRZ3MeSJ36MOuDV3qkvCx9v6DxejA1QQig8BCEGghCc0UuCIMScXhRlma9E3eEQWiLrZeylh7ZecmPzsT7nemU8iyPhUkGYeAbTWx2HG4+dECmK6+3Wy+VR24kvrIu+E0othZrv7qWfVn2SzU+X11HEAIoPAShBoLQXJEKwsHu/C0AQ91UEh4EIYDCRRBqIAjNRRAWjugEYUx2/8wJwrOlMcU4AIwfglADQWgugrBwRCcIi2TVExcSQdj3YqvUfF89BwDGA0GogSA0F0FYOKIUhEWTG6R9rXOUsG/dR3J2yQfSXtGQ8lV+ADAeCEINBKG5CMLCEakgtN3zCzm07CO5us4Nw+pWvrkEwLgjCDUQhOaKRBACAJAjglADQWgughAAAB9BqIEgNBdBCACAjyDUQBCaiyAEAMBHEGogCM1FEAIA4CMINRCE5mLtAADwEYQaiApzsXYAAPgIQg1EhblYOwAAfAShBqLCXKwdAAA+glADUWEu1g4AAB9BqIGoMBdrBwCAjyDUQFSYi7UDAMBHEGogKszF2kFPqRT/63qJzVSNoTC9L3e+J3J7hutyl3I+EC0EoQaiwlysXVQdlfrPvpKDn/VJpXI8Fytk4akB6zWs17nWLyuXq+b4Kk/b75fuptRUq+cPrUFqLum+RhR5Qfil3LHlutyZ1CF3K+cD0UIQaiAqzMXaRVU+gvCobA7EXX1cNcdX9rs+2XzK0y/NBOE48YKQI4KACkGogagwF2sXVfkIwlKZ09ov++3XuXRRystUc7Lx3p8gHHsEITAYglADUWEu1i6q8hGEOgjC8UMQAoMhCDUQFeZi7aKKIIwughAYDEGogagwF2sXIjO3SuXhPon32JHk6r0pO9vaZHbGXcDBICyV6Vs6pf6Ce4OIZf+FPlm6qiJtH0d+bg4ZXhBOXnVUas7clJZr/nvu7xlwTlcrX8N9/UtdMtv+9+IDUmXtv9/df/+VfqndsT5tH4/1+3itXeq6rPnuex28NiDxM51SvrhUMT/4Xvbvsku2X3H3s9/L+l2uXKf+XQbF4n3SbH++nhtStUb1PvlCEAKDIQg1EBXmYu1CYk2XxNNiqcUOJndb0+GGtH28ILshNa39yf2C+xz8rF+qFHcOL2xzXtvjzB2tICyVkr03pMX9fHaYOe/r/jvra3ivb4Vt4HeT+L0kf74B2VifHl7OdZHeazedc26C2ZkMPOu9MmLNfa+ePqk5eTO5b+rv8qZUD/pzHpCNvd5cy6mjijn5QhACgyEINRAV5mLtQmCBFSReTHxyMe0oVoVM39Au1bu3BrbZvGBytHR1Spl3FDHmnYq1th/fl7ZfulzDLl2O+2246N6NPCDbW7bK5ODYzH1Sm/WUcerPd7DXitvkUboqqTzthuyH7VIc2K94V58bn+nhVyFlR9zY6+2R8pi/T8bv8ly7f0R2ZqP7GYf6XVrzgkcVTx5QzMkXghAYDEGogagwF2tnvrJjbtxc6pI5KaEyGD9iWk63yfS0/Yr33nBe0wrF6YHtmUYzCFfI8nPOZ2xWxtRg1xAGIq33hix/Nu2onhWaTvj1ycLk9k1S9YmzT/zQptT5CX601ceDrxf8XR6VWMo+w/hdrmlPnLZvPtcl8xcoxvOGIAQGQxBqICrMxdqZbp/UuqdPt+9doRjPxouYG7JUFZHxPidivGvwshrNIPSec2jNWaMazyUIB6RuU/opXkt1lzQlxgM31TzVKfHEtn6peiowN2DhKXs8/Whfvn6XY4UgBAZDEGogKszF2plON8iy3GVcCEGoirYUuQThMD5X8v0GZGfyAdqp6i/Y45bTwWv88vW7HCsEITAYglADUWEu1s50ukFGECYl3y8HBCEQWgShBqLCXKyd6fyvj0u9rm0oBgThUKdwYwekLnG6PE9B+LwXhFlO/WZFEAJhQhBqICrMxdqZboUs/9COEcuH7Rk3NGRnQBAGHsWSGbuBO4XzFYSB6zHr4yO5HlPzd8lNJUBBIAg1EBXmYu1CoL4n+Zy+5lPpD6Ee6rEzhRyERTK/zbuDusePpJlbZeU5e/uAtCSCMV9BWCSzW91Hy1zrl9r6TamPuSkqleJn98nKtk6Zn7I9H79LHjsDFAqCUANRYS7WLgxSH6acCAr3odFDP5h6uBHTKnXua3vS3zPhw04pycd+wWcsWuw53reHxFsbZGniW1PyF4RFsa2yPBGbqe+ZeN/kQ6aDj6qx5SMIeTA1UCgIQg1EhblYu/CYvKpNas+lf73bTak/fHSIr65LH7NkjRhvvyHkbT/L4lapDXyNnP1VcFVbnK+dc75GL49BmFAhs3d1JU7f+hFove+lftls/S7nzE0/fZ2PIOSr64BCQRBqICrMxdoBUUMQAoMhCDUQFeZi7YCoIQiBwRCEGogKc7F2QNQQhMBgCEINRIW5WDsgarwg/FLu2HJd7kzqkLuV84FoIQg1EBXmYu2AqPGCMB1HDAEbQaiBqDAXawcAgI8g1EBUmIu1AwDARxBqICrMxdoBAOAjCDUQFeZi7QAA8BGEGogKc7F25gr72gHAeCAINRAV5mLtzBX2tQOA8UAQaiAqzMXamSvsawcA44Eg1EBUmIu1M1fY1w4AxgNBqIGoMBdrZ66wrx0AjAeCUANRYS7WzlxhXzsAGA8EoQaiwlysnbnCvnYAMB4IQg1EhblYO3OFfe2yqaj6nlz98zfly6tfE/n0a3LrvTuV8wBgJAhCDUSFuVg7c4V97VRKX/6O3LIiUD79ushfviXXT0yQSzvuUs4FgJEgCDUQFeZi7cwV9rXLdJec+7MTg7feu0NKlXMAQA9BqIGoMBdrZ66wr12m2+V64ujgbfLHmGocAPQRhBqICnOxduYK+9pleNE9Xdz9HWlQjQNAHhCEGogKc7F25gr72mUgCAGMAYJQA1FhLtbOXGFfuwwEIYAxQBBqICrMxdqZK+xrl4EgBDAGCEINRIW5WDtzhX3tMhCEAMYAQaiBqDAXa2eusK9duobffzPxIOov/+sO5TgA5ANBqIGoMBdrZ66wr51t/Y5vy/UTt8kXf/mbRAzK+W/LgXL1XADIB4JQA1FhLtbOXGFfO1vDe85RwYS//oNcP/DPUqWYBwD5QhBqICrMxdqZK+xrF7Ti5dvl6sdft8Lw63LrIN9dDGD0EIQaiApzsXbmCvvaZaj7tnxpHyn8+LuyVTUOAHlAEGogKszF2pkr7GuXwbvL+NMJ8r5qHADygCDUQFSYi7UzV9jXLgNBCGAMEIQaiApzsXbmCvvaZSAIAYwBglADUWEu1s5cYV+7DAQhgDFAEGogKszF2pkr7GuXgSAEMAYIQg1EhblYO3OFfe0yxG6XzxNBeJv8MaYYB4A8IAg1EBXmYu3MFfa1y3SnfNRtB+HX5dZ7d0ipcg4A6CEINRAV5mLtzBX2tVNZsWOC8yxCKwrl49vk+okJcmnHXcq5ADASBKEGosJcrJ25wr522VRt/K5c//jvrSi0w/Brcus9vrkEQP4QhBqICnOxduYK+9oBwHggCDUQFeZi7cwV9rUDgPFAEGogKszF2pkr7GsHAOOBINRAVJiLtTNX2NcOAMYDQaiBqDAXa2cu1g4A8o8g1MAfJnOxduZi7QAg/whCDfxhMhdrZy7WDgDyjyDUwB8mc7F25mLtACD/CEIN/GEyF2tnLtYOAPKPINTAHyZzsXbmYu0AIP8IQg38YTIXa2cu1g4A8o8g1MAfJnOxduZi7QAg/whCDfxhMhdrZy7WDsNVeforOfhZuptSU62eHzXPrVorl/dusWyQo4+p5yTMqpDz9ryGCnlONZ53pXI88bnSDPX+3udMt6FUPT+Pcv5dFiCCUAN/mMzF2pmLtcNwlf2uTzaf8vRLM0GYYvlzNW7ErJV3Z6nnJIx5EM6Q5ldXyHFP/Trncw71/tMekncD+5389w3OfmMQhDn/LgsQQaiBP0zmYu3MxdpBz1GpJwhTLVqZW8SMeRCm8T7nMN8/edRuDIIw599lASIINfCHyVysnblYO+ghCDMkI+YFaZyiGPcQhEPL9XdZgAhCDfxhMhdrZy7WDnoIwgyPLZPuRMSslG2qcQ9BOLRcf5cFiCDUwB8mc7F25mLtDBZrlY29dox9Jdv3rlDPKSpN3gSy/2Rr6tjMTTL/rS7Z3HVTWq45cxLzem5K/eFWKYkF5maVWxDOPnwz8dpNhxsU4w1Sc8l57/p4+pitVKa/1i511ufc737Gg9cGJH6mU8oX5xAlC47K5iv2fgOy8x3V++dZ8iaM4QThJHmucol0vLHJia09m+T8rypk4zTFfp57YrJt1UrpbHL32btJune+LEcrYzJDNT/dmASh/XNVyslt7nWHiZ9tg5yvXyI7H5ikmJ8m199lASIINfCHyVysnblYO7OVn3QD6ZNOKVGMF5W1yXY3ojZuS/0D7kVaQu+AtPRY3MBMuNAlc4aMwtEOwlKZ09qf/ExN55ybWXYmAs993zWDh0nyd5TQJwsVc8ZFMgiXyLuv1iVjqTtu/fceN54al8nGiYp9p5bK8bg7542X5aR9w8cWK9Tc/bqtWHs8fZ90ox2EE6dJ868DIdhYl/qz7d0gHc9Mk6mqfUOAINTAHyZzsXbmYu0Mt+7ioHf5Tn/HjakrF6Usbaxk90Wp2dUosZnB7aUyfUuPNLkBtf2tbEcePaMbhMW7+qTFe/2U8KuQsiNu0Pb2SPkg4Vp2bMCZ581VzBkXyaNfjvO1D8kiL/6mzpOTTc72jqXpR9Kmydv/7oylh9/UafPkeKO73zPFgX0URjkIN9a6Mdj4gjQGjwZOLJaNq829ezhXBKEG/jCZi7UzF2tnuk1S9YkTO83HGrOOxQ9tShsbTKksPePspw64oNEMwqE+f6PUukcK6+ODxEmsQZafuSktl25IzaYq9ZzxEAjCzpdmZJzmXb/aOWrYXTsrZfvUJ9zr6pqWyeuKo4dznnrBia2hQm80g3DaY9Jhz9m7Tlp/rBgvulcat9jjmT9fWBCEGvjDZC7WzlysnfmK37qRiKKMo1/Jo4c3ZHlZYHsOBg+4oFEMwqc6JZ547X6peiqwPWDhKWe/luP7lOMFzQvCnU/KS4rxbOHlHXnLGlIlFdKZiLEh7swdxSCcs3ToKM1ljskIQg38YTIXa2cu1i4EAjeXBK8T9E6VZtxMEjSzSubUt0nVseDDpvuk/oLzeuMahNVd7qnrAdkZ+Gyqz3nw9NHA6xkieQ2hOoiyhde2DdY2a3v3v7/gP2Q6xcvukcchTseOYhDmdBTxwSfdz2neDSO5IAg18IfJXKyduVi7cEjeOHGuTYoT2w74kVifOd8+LVyy94Z7fV52hRGEOYhgEA6twIPwx5XOqe89KwjCkeAPk7lYO3OxduYK+8+XlH56eFuP84gWxc0kqfMHZPs7+6Rkbuof7tE6Zdx8ZBhB+LwXhDdkaU6PwDHMSIPwVWubtf38S9NStg/bKAbhomdedub85jFZpBi3JU8Z/3uFLFeMm44g1MAfJnOxduZi7cLCvwFj+96q5LMHs91M4gXawQ/b3SOKQaVSdmx0gvDgmba0sdTHyqTeVLJPanu87UPd7TyIQr+pZJhBmLdr70bzppLSyiFOWxdL82/scStsV2mGbYap8swbJ+T8Xy7L+ba4PDNVNWf0EYQa+MNkLtbOXKxdeCRvLvnwhvvswew3k5S0uoF2pUfKF/jbJz/dKjUf+o9pyVcQFsX73Ne05iUfH1MhZYf6U05bpwahFZLe57zWL7X1m2RyYMyOyeJn98nKtk6Zn7I9VcE/dmaYQVg05aHko2W6f/movJR+48g998pLCyvk3cpY6vZ0oxmEgeC7vHOZbJue+tiZ12vXOWONK2Rb3r+SboecuHpVrrq6D69VzBl9BKEG/jCZi7UzF2sXIoGbS2yD3kyy3LuD15H+UOqmS05EZQZhq9TZcwO8ffYHt3+Y9qDs2L7kI2KSc71vR/nkotR96Px3ehAWxbbK8nOBoLN477E/+e0qgz9suvAfTD3MILQ8/mildCYf8Gxpch763N3ofWvJFul8Li0In1jizPF433CyZ1PK9o5nUvdb/syLKePdb7rv6T5E23P0icB72eyHZ7vhmpD+YOo9NfL2g2n75MVa+a9uPwivdrbIk8p5o4sg1MAfJnOxduZi7cKkVBYm42dAajeo5vgmr2rL+Dq45q4eWbpmRfKIXmYQekcEh3CpS2an7GdZfEBqzgXer/em1B86INNjRclT3BlBmFAhs3d1Sf2FYARaUXmpXzYfPipz0q5/zDDWX12XK40gtE2dNkMaf/6ynA9E4OU366RzS6U0lhVnfn2dd0RwCOmncJOfYwjHFwXey+N9vV7wMzatlY6fz8s8splHU6vfk24vCM8fkGcUc0YbQaiBP0zmYu3MxdoBCJ/V8t7HThBePlKnGB99BKEG/jCZi7UzF2sHIFymypNvnJDLiSOEZ6VlmWrO6CMINfCHyVysnblYOwChULlD3mvrkLPJ6we75Q/15eq5Y4Ag1MAfJnOxduZi7QCEwir3usHL3XL22JuydtFU9bwxQhBq4A+TuVg7c7F2AJB/BKEG/jCZi7UzF2sHAPlHEGrgD5O5WDtzsXYAkH8EoQb+MJmLtTMXawcA+UcQauAPk7lYO3OxdgCQfwShBv4wmYu1M1fY1w4AxgNBqIGoMBdrZ66wrx0AjAeCUANRYS7WzlxhXzsAGA8EoQaiwlysnbnCvnYAMB4IQg1EhblYO3OFfe0AYDwQhBqICnOxduYK+9oBwHggCDUQFeZi7cwV9rUDgPFAEGogKszF2pkr7Gvnef9PXxP51HL17+VWx3flQLl6HgDkA0GogagwF2tnrrCvnafxtxPk+onb5NbVrzth+NcJ8v489VwA0EUQaiAqzMXamSvsa5chdpd0dDpReOu9O9VzAEATQaiBqDAXa2eusK+d0usTnKOEf/5HWa8aBwBNBKEGosJcrJ25wr52Si9+R27ZQdj9HWlQjQOAJoJQA1FhLtbOXGFfOyWCEMAoIwg1EBXmYu3MFfa1UyIIAYwyglADUWEu1s5cYV87JYIQwCgjCDUQFeZi7cwV9rVT+uk/yhd2EF7+tuxTjQOAJoJQA1FhLtbOXGFfO7U75NJfrCD89O/k+q67FeMAoIcg1EBUmIu1M1fY1y6b0pe/K19ctaPwG/Llx7fJ9RMTpGOtei4ADBdBqIGoMBdrZ66wr11Wsbvkj+//P/KlferYdX2XYh4AjABBqIGoMBdrZ66wr53a3fL+n/7WisCvy633/0k2larmAMDIEYQaiApzsXbmCvvaKc37nnxuHxX86wQ5oBoHAE0EoQaiwlysnbnCvnZKPHYGwCgjCDUQFeZi7cwV9rVTIggBjDKCUANRYS7WzlxhXzslghDAKCMINRAV5mLtzBX2tVMiCAGMMoJQA1FhLtbOXGFfOyWCEMAoIwg1EBXmYu3MFfa1U6r7tvP8wY+/K1tV4wCgiSDUQFSYi7UzV9jXLtPd8scO+xmEX5Mv379DMQ4A+ghCDUSFuVg7c4V97TyNv50g10/cJrf++g3nm0mu3iZ/LFfPBQBdBKEGosJcrJ25wr52nvf/ZEVgIgT/Xm51fFcOPKmeBwD5QBBqICrMxdqZK+xrBwDjgSDUQFSYi7UzV9jXDgDGA0GogagwF2tnrrCvHQCMB4JQA1FhLtbOXGFfOwAYDwShBqLCXKwdAAA+glADUWEu1g4AAB9BqIGoMBdrBwCAjyDUQFSYi7UDAMBHEGogKszF2gEA4CMINRAV5mLtAADwEYQaiApzsXYAAPgIQg1EhblYu3C4+5Vbcvt7kuGfX2lQzgcAqBGEGogKc7F2IVF5Se7ccj3pjjcJQgAYCYJQA1FhLtYunLwjhgQhAAwPQaiBqDAXaxdOBCEAjAxBqIGoMBdrF04EIQCMDEGogagwF2sXTgQhAIwMQaiBqDAXaxdOBCEAjAxBqIGoMBdrF04EIQCMDEGogagwF2sXTgQhAIwMQaiBqDAXaxdOBCEAjAxBqIGoMBdrF04EIQCMDEGogagwF2sXTgQhAIwMQaiBqDAXaxdOBCEAjAxBqIGoMBdrF04EIQCMDEGogagwF2sXTgQhAIwMQaiBqDAXaxdOBCEAjAxBqIGoMBdrF04EIQCMDEGogagwF2sXTgQhAIwMQaiBqDAXaxdOBCEAjAxBqIGoMBdrF04EIQCMDEGogagwF2sXTgQhAIwMQaiBqDAXaxcSlZfkzi3Xk+54UwhCABgBglADUWEu1i4cvCOC6QhCABgeglADUWEu1g4AAB9BqIGoMBdrBwCAjyDUQFSYi7UDAMBHEGogKszF2gEA4CMINRAV5mLtAADwEYQaiApzEUwAAPgIQg0EobkIQgAAfAShBoLQXAQhAAA+glADQWgughAAAB9BqIEgNBdBCACAjyDUQBCaiyAEAMBHEGogCM1FEAIA4CMINRCE5opMED70gfTV9Urfa71yteq0HLq/XD0PABBpBKEGgtBckQnCGW9L+5IP5OxLVhTaYVh3RdofnKueCwCILIJQA0ForsgEYVJMKuedc6KwulVWKecAAKKKINRAEJorekFo2yx/rLWPEp6T/cWqcQBAVBGEGghCc0UzCKvkcLUdhBfk8H2qcQBAVBGEGghCcxGEqnEAQFQRhBoIQnMRhKpxAEBUEYQaCEJzEYSqcQBAVBGEGghCc0UzCBfL/uftILwix36kGgcARBVBqIEgNFc0g7BI1i+8YAVhr1xd1iALFOMAgGgiCDUQhOaKahAWfX+1HKqyjxJa1n4kZ5d8IO2P1KrnAgAigyDUQBCaK7JBWBSTZ0uPSPcrbhTaljUo5gEAooQg1EAQmiuqQTj3oQ/kqh2BLx6R1384V2KKOQCA6CEINRCE5opmEM6Vvc/YRwWvyB8fUI0DAKKKINRAEJormkHIY2cAAGoEoQaC0FwEoWocABBVBKEGgtBcBKFqHAAQVQShBoLQXAShahwAEFUEoQaC0FwEoWocABBVBKEGgtBc0QzCX8ixGjsIP5JDMdU4ACCqCEINBKG5ohiEC0pPO88grDkiGxXjAIDoIgg1EITmikwQznhb2pd8IGerroj3zSRn55ar5wIAIosg1EAQmisyQfjQB04IvtYrV6tOy6GZi/l2EgBABoJQA0ForsgEIQAAOSAINRCE5iIIAQDwEYQaCEJzEYQAAPgIQg0EobkIQgAAfAShBoIQAACEAUGogSAEAABhQBBqIAgBAEAYEIQaCEIAABAGBKEGghAAAIQBQaiBIAQAAGFAEGogCAEAQBgQhBoIwjC4Uz7q/prIp5a/flO++MPtsjWmmgcAQHgRhBoIwjC4S97//QS53vEt+fKqG4Yff1calHMBAAgnglADQRgyJf8sV/9iR+HX5fouxTgAACFFEGogCMNn/X9+yzlK+L//STkOAEAYEYQaCMIQ2jXBCcI/3a4eBwAghAhCDQRhCBGEAIAIIgg1EIQhRBACACKIINRAEIYQQQgAiCCCUANBGEKvu0HY+T1ZoRoHACCECEINBGEIzfuefG4H4af/IB+9rBgHACCECEINBGE4Ve2aIF8movBv5Nafb5PrJ74t7/9UPRcAgDAgCDUQhCFV/s9y7k/fdE4dJ3xTPnpRMQ8AgJAgCDUQhGHkfbfx38nne++QqhLVHAAAwoUg1EAQhlDdt53TxX/+R1mvGgcAIIQIQg0EYQiN4LEzU1fE5cT5y3L5/AmJr5iqnAMAQCEjCDUQhCE0giDc0XZVrl51df+XrFXMAQCgkBGEGgjCEBpBEK493O0H4dWz0lKpngcAQKEiCDUQhCE0km8qmbpa3vvYC8LzcmClYg4AAAWMINRAEIbQSILQsrrVPUr4l/+SOsU4AACFjCDUQBCGz4q3bnOC8MQ/KcdVpi6Ky4nLzhHCsy1LlXMAAChkBKEGgjBkYne4zyD8mnz+1t3qOUlPyo7WE9LR6V8/2H18q5Qr5wIAUNgIQg0EYRjcJe//foJc7/iW3Lr6defoYPe3ZV9MNTfoBee6wb9elu7OP8ib656Uqcp5AAAUPoJQA0EYBt43k1j++k354g/fk618OwkAIGIIQg0EIQAACAOCUANBCAAAwoAg1EAQAgCAMCAINRCEAAAgDAhCDQQhAAAIA4JQA0EIAADCgCDUQBACAIAwIAg1EIQAACAMCEINBCEAAAgDglADQQgAAMKAINRAEAIAgDAgCDUQhOG0/lfflesf/73z/caW67vU8wAACAuCUANBGD5VuybIl4kQ/IZ8+fFtcv3EBOlYq54LAEBYEIQaCMKw+Se5+lc7Bv9Oru+6WzEOAEA4EYQaCMKQefE7css+Otj9HWlQjQMAEFIEoQaCMGR2TXCuG/zT7epxAABCiiDUQBCGDEEIAIgoglADQRgyBCEAIKIIQg0EYcgQhACAiCIINRCEIUMQAgAiiiDUQBCGyd3yx46/tYLw6/L5bh45AwCIFoJQA0FovsbfTpDrJ26TW3/9RiIGv+z4nmyNqecCABBWBKEGgtB87//pa85pYttfviWX4ndJqWIeAABhRhBqIAjDY1Pdd+Vz71tKdnDKGAAQLQShBoIwXFa8dZtzpPDEPynHAQAIK4JQA0EYMt5dxh9/V7aqxgEACCmCUANBGDJeEPJdxgCAiCEINRCEIUMQAgAiiiDUQBCGDEEIAIgoglADQRgyBCEAIKIIQg0EYci8/B25RRACACKIINRAEIZM7Ha5bgeh/SzCXTyLEAAQHQShBoIwfBoO/oNz2vjTb8iXf75Nrp+YIB1r1XMBAAgLglADQRhOW+P/U77o/js3DL8m13ep5wEAEBYEoQaCEAAAhAFBqIEgBAAAYUAQaiAIAQBAGBCEGghCAAAQBgShBoLQXMQuAAA+glADQWgughAAAB9BqIEgNBdBCACAjyDUQBCaiyAEAMBHEGogCM1FEAIA4CMINRCE5iIIAQDwEYQaCEJzEYQAAPgIQg0EobkIQhhl4iR5fNq9MkM1BgB5QBBqIAjNRRBCx7YNW+TyXtvL0jxNPScXz61am3id86umKccTpjwkxxvd9/v1Y/KUak4+zaqQ84mfbYt0185SzwEQOgShBoLQXNEKwk1SeeyGxHv6pbpaNY7h2vaqF4QrZZtiPFc5BeGCFe576b9fTkoqpNN9v0E/F4BQIQg1EITmilYQHpX6z76Sg5/dlBqCMC+8kBuTIJw4Td7+zSZr3iY5XzNL5qjm5FWpHCcIgcghCDUQhOYiCKEjGYTxSlmvGM9VTkE45vwg7Fg6STEOIIwIQg0EobkIQuhY9MzLThA2VMhzivFcFWYQzpKjTU4QHl+kGgcQRgShBoLQXKEPwnifFYB2BObg9NHkfiWH+p1tPRelLPh6QdVd0pTYNzUwZx++mdi3Pm79e+ZWWdrWL83X3Pe4NiDxU21SEvPnpyqV6a+1S13XTdmfeG13nzOdUr64VDE/Vcz6eRPv1XNDqtYMPV/bopXDC8J7YrJt1UrpbLRP/TqxdfnNOul+0/nvzCD0j9KlGOT9nnq2xpkz2FHL5A0jNfL2jxTjCdPk3Qbn/QhCIDoIQg0EoblCH4Q7eqSlZyApEViW/YFtSW2t/n5lbbLdnbtxmzqsyo65r/dJp5QEtntB2NzWJfW9zmvYURd8/4MXumR2YB9HqcxpdUPU0nSuTzaf6pOdV9x97PAcNPIOyEbv/Wyn/MAtBFNLHpWT3l3CezdJd9wKQcvlPd42VRA+JEfdeQlNbkgOFqDTHpOOxOttkKNPKMYtr1Svc15nW/no360MwCgEoQaC0FyhD8IUwzllvEKWn3PD6lybFGeMN0qtG2rb31qRMuYFoeOmbH5rq0x2xyav844qZu5XvKtPWtx9UsOvQsqOuK/Z2yPlWY8u+p/Jtv/kAcWccTKxRFrfcKKv+1ePynP3BMcnySurnUAb8pRxTkckJ8nOXznvdXlDqUzNGPdPBZ98imsDAaQiCDUQhOYiCAexrcc9bdsvVU+ljdV7Y31SmRZofhBa77OuImXMPgq48KQTbMFT1PYjcao+cbbHD20KbPf4sVcfH+Qo4Zp2qb8wIM3numT+AsX4OJnz1AtOoL1RKesnZo7nfA1hjqeopz6xTLrteXtekJ1Tsow1LZPXFZ8FQLQRhBoIQnMRhIPxIyw10vyo238ycJrZlTxlfKQhYyxh943E+MFLgdPGT3VKPPHZFPHpWnjKec+W4/uU44XMe17h+ZfUwZfvICwqmpE8ItnxTHFgu3/08Hz1jMB2AHAQhBoIQnMRhINL3lxyJXBzSazVvVZvQGrXpc63eUHYdDhLEHo3utinf71tyRtUBmTnKefawXT1F+xxS8qRRRMMfXNG/oMwcHNJ8DrBKfPkZOKaxcFuJgEQZQShBoLQXAThEFQ3l3hBl3YziSfnILzU5T9cORmEOSAIcwpC/+aSddJa6mxLPibnN4/JovT5AGAhCDUQhOYiCIeSfnrYv9lEfa3f0EFYvNc9ZdzVKdO97c97QXhDlma9acRUxdL8GycIU0/f+tb/vC7/QZhxerhY3t7m/JubSQBkQxBqIAjNFbUg3JyIrgGp3aAaz2LdRWl2Y2350+3uEUPrv8sUcy2DB2GVLP/Q3j89KPdJbY+zvT6eevfxsBToTSUbazc4Iae46/dxK/ISN3nY4ZbXIAzcQGI/k9B79uCo3kwyVZ5544Sc/8tlOd8Wl2emquYAKGQEoQaC0FzRCsL1UtXlRJf9HMCymao5Kv4dwE0XnNhT3UziyR6EFVJ2qN95tExvnyxMC8rZrc5+B6/1S239puSjahylUvzsPlnZ1inzU7YHFfBjZx5d4kbfWml99F53+yR5btkLie3djU4w5jsI/ZtL6qRji3taelRvJtkhJ65elauu7sNrFXMAFDKCUANBaK5oBaGlvsd91p8bTdkeTJ2m+C33NK8r28OqbV4QOq9/U7Ynbgq5IfHkQ6r7pVr1gOnYVll+LvDwaov32fZ733TymRWS6fslFfKDqe+VbRvco4S2Rv/bSS5vq5CXnnRCLyMIn7BCUvVg6j3+g61tHc/EUvcLSN5ckjDaN5Oslf/q9oPwameLPKmcB6BQEYQaCEJzRS4ILbF17lfDJSPLNdjNGjHv+kNL8I5jhWQQpr1+Ig6PtcnsQY9MVsjsXV2J077Bz7f/Ur9sPnxU5swd5BmEljH/6rrhmFgsr1e/LOe9EGyqkZPPzpJF9ulb98hfRhB6RwSHMOiRxR+VS6c3d8uj/o08o2Rq9XvS7QXh+QPyjGIOgMJFEGogCM0VxSAckcDdxtv3VqnnuIa6qQRht1re+9gJwstH6hTjAAoZQaiBIDQXQZiLFbLwlHsq1z46OMRdwARhlE2VJ984IZcTRwjPSssy1RwAhYwg1EAQmosgHEJsvZQfcx9Onbg7eejTsARhBFXukPfaOuRs8vrBbvlDfbl6LoCCRhBqIAjNRRCqbJWqD9Nv5hiQzbvXK+ZmIggjaJV73eDlbjl77E1Zu2iqeh6AgkcQaiAIzUUQqjRIzSU3BK8NSPxMl1SuqlDMUyMIAcBcBKEGgtBcBCEAAD6CUANBaC6CEAAAH0GogSA0F0EIAICPINRAEJqLIAQAwEcQaiAIzUUQAgDgIwg1EITmIggBAPARhBoIQnMRhAAA+AhCDQShuQhCAAB8BKEGgtBcBCEAAD6CUANBaC6CEAAAH0GogSA0F0EIAICPINRAEJqLIMS4mVQluxefk8tre6WvzlLdKqtU8wBgDBGEGghCcxGEGBffXy2HX3RDcN0F+b8/+0DaKxqkUjUXAMYQQaiBIDQXQYjxUPnoOScGX2yVmu+r5wDAeCAINRCE5iIIMR52LXOODp4tjSnHAWC8EIQaCEJzEYQYe1VyuNoOwgty+D7VOACMH4JQA0FoLoIQY48gBFC4CEINBKG5IhGE1V3S9NlXcvD0UevfFTL7rR7ZecX6t73Nsv9Cnyx9tjRzv6KjUm/PudQls+1/Lz4gVWduyv5r7n5X+qV2x3rFfrZSmb6lUzZ3WfPd97G1WO9VtUW9T+Vpe85Nqam2/p32Xgev3ZTthw9ITLFfQmy9lB/qk3jPQPK9bPutfzefbpPpqn0CYvE+abbfq+eGVK1R/S7yiSAEULgIQg0EobkiFYSXeqTmtB9MLVYsJYPLCrFqO8RS9nWD8DMrGNd0SdwLQWu/luR+A7KxPj2gqmThyZvuuKXXmp/yXl9J88nWjLhzgvAr2X7M/bzJff39Wk4dleK0/YpiDVJzwZ+T+HwJ7jYvaLM6IBt7/f0PWu+hnpcvBCGAwkUQaiAIzRWpIHQ1n2qT2TPdsZmNfkyda0uLLS8IXb39UrWuwh2rsgLOjcsP21P2K3mn393nptSmHA2skNktN6TFfb36+IrAmB+E3nvVJPctlem7+9z9BqR2nb+PreSQ+34XuqTM+7mSSqX48dT3ydQotcEjpicPKObkE0EIoHARhBoIQnNFLQibjjTK5PTxbT3uad0+qYwFxwJB2HtDlqefVt5w0Y20PlmY3O4fbdu+typ1fkKplB13Q7KrM+VUbjIIe/tk6eL0o46bpOoTZ7zpcEPK2MJTzvb9J1tTtg/LmnapvzAgzee6ZP4CxXgexaa1ymX7kTNrjsh6xTgAjCeCUANBaK5IBeGlLpmjGo+1ueHnXr+XHPOCcEDqNimuq0uGphWS3rZAJKbGZUBwTmC7F4T1u9XX8M054p6GTlwL6W8vfuuGs93SdKpd5j/tHcUsIMUNcnjJB3L2+QvS95oVg+s/kmP3l6vnAsA4Igg1EITmiloQqq+l848EbqxXbU8PxUHE+5w4G+y6vSwBmgzCeGBuwOzDbhCmHVm0T8HOP+adpnb13pSdbZ1SvqpA4vA+96hgwhXpXvqubLxHMQ8AxhlBqIEgNBdBaAuE35os2/MZhGXtst193ern/e05B+GZNuV40eJ9svRwX8od1LaWM+1Sku1o5RiLTV4tuxZ/5IThi+/y3cUACg5BqIEgNBdBaEkGWr9UPRUcG0EQ1rvXI/b2SLlq3Ka89nDoIPSuPczppo+5DVJ5zL+BJf5OtsfjjIdfyLEa+0jhR3KoQEIVADwEoQaC0FwEYZHE9rrX4H3SKSUpYyMIwrI2Ny4z7yJ2lEr5SfemkrRrAQcNwti+5J3AG7eprzFUSd7AkvZeGcbwphL/LuNeaX9QNQ4A44cg1EAQmivqQTh5XafsTNwVPCCbd6UH3AiCMBh89mNqXgu+ZoWUHep3j9plPvcwaxDG1vvPNbyQ/jOskDmvNUpsriISZzZK7SXnNdPvTE41Xo+dsYLwIdU4AIwfglADQWiuSAWh7dqAxM/1yeZTfbL9ghtulnirKphGEoSWtAdFZz6Y2orPeOYjabwgtO2/1C/11mfcfKbf+QYRe3tPn1RmHL2z3suNPpvzQOrUh1kfvNIj5WXp+wWN14OpCUIAhYcg1EAQmityQRiUiMOLsjTrnbgjDEJbbL2UtfTIzkt+dCbe70ynlGd5LEwyCAPfaGKz43DzoQMyXXm93XqpPHIj8ZV1wW9CsbVY+9W17MuyX6rx+eo6ghBA4SEINRCE5opUEA52528BGOqmkvAgCAEULoJQA0FoLoKwcEQnCGOy+2dOEJ4tjSnGAWD8EIQaCEJzEYSFIzpBWCSrnriQCMK+F1ul5vvqOQAwHghCDQShuQjCwhGlICya3CDta52jhH3rPpKzSz6Q9oqGlK/yA4DxQBBqIAjNRRAWjkgFoe2eX8ihZR/J1XVuGFa38s0lAMYdQaiBIDRXJIIQAIAcEYQaCEJzEYQAAPgIQg0EobkIQgAAfAShBoLQXAQhAAA+glADQWgughAAAB9BqIEgNBdrBwCAjyDUQFSYi7UDAMBHEGogKszF2gEA4CMINRAV5mLtAADwEYQaiApzsXYAAPgIQg1EhblYOwAAfAShBqLCXKwdAAA+glADUWEu1i58Jj++XmJzS5VjGKZ77pVF902SqaoxAKFEEGogKszF2oXL7NabcvCzrywDUlevEYXxPud1Th9Vj4+LUjm+d4tctv3mMVmknOMJzA1qqJDnlPMVZlVI5x5nv+6fzyrYKNy2wfv5Xpbmaeo5AHJHEGogKszF2oXJVqm+YMego+lwg2JOjgoyCB+S426gXd4wVOzOkOZXV8hxT/26YQfh8udq3NAa3n7DN0nWP7NCOnZukOOLVOOD2/aq+xn3rpRtinEAw0MQaiAqzMXahUvMCrnma1bI9dyQldXqOTkpyCCcJu82uPEzZBCmWbRy+GE3tVSOv7FJLu+pk45l09Rz8sL/uUYShM+tWksQAnlEEGogKszF2kGpwIOwe3WJYnwQIwnCMZOnIIxXynrFOIDhIQg1EBXmYu2gVJBBWCzNv3HC6fyqYR6xC3EQLnrm5QL+2QDzEIQaiApzsXbmm33Yu5EkVX1cPT9FbL2UtfTIzksD/r7XBqSl1/3vQYOwVOa09st+e96lHlm4QDUnv7wbKEYtCGdVyHl7XrpcTlFPLJaNz66UzviG1H0b6+R83bzUm2CyvY/KUJ+5oGMXMA9BqIGoMBdrZ76Sd25IS48Vca5EoFmGDMIFB6Q2cBPKfm9/+xpEd9ugQfhUp8S9eZam1q3qeYUg12gqeUw64nXS7XnTjbKhgnDiNHn33925ezf5+zduUr9v2vtc9m6WafK3Jf36MVke3BfAqCIINRAV5mLtwqZBai45gTZ4EFbJ8g/dmLtwUcoXB4OnVIr33hg6CMvaZLsbg7b4O+vV8wrBCI+iJa/PGyIIn3rWvSP535+UV+7JHJ8zdbBnGeqdMgaQXwShBqLCXKxd2OQYhOsuSnMi5G7IctWp3hyvIYxtu5g43Rw/1SYlMfWcgjDKQeg9+qV73UMjeF4hQQgUEoJQA1FhLtYubHILwhLvAdZn2pTjhXlTiYZRDsI5T73gzNu7Sc6/+qisnz5JOU+NIAQKCUGogagwF2sXNrkFYeVpZ07Wh1cThAm5BmFR0b2yvjrwIGtb01rp+Hm5bHxgqDgkCIFCQhBqICrMxdqFDUGoNOpB6Jg6bYbsXLVCOuwHWnthaOn+5aOyfKJ6H4IQKCwEoQaiwlysXdjkFoTlJ505+08eUI7HWvoJQstwgzBo6pRpsq36Rel27yDueKZYOY8gBAoLQaiBqDAXaxc2uQXh9Hfc4LvUJbPTx9d0SZM9lkMQclPJ0NavrhviNWLytvvImo6lw7n2UEe51B3qkO6/dEvHoTopV84Bookg1EBUmIu1C5vcgrDoqXbZ6Ubf9hbv+YGlMn3LRScGe93nGQ4WhDx2xjVJXiqdIY9PUYzdM0Na3aN/gz1Me2Ot+zDrxpWyc5p6Tl6tPCDnr16Vq66O/xh58AJhQxBqICrMxdqZbqtUfeg/lDr4YGo76vztPbIwZb9SmRP8hhN7rvftJD19UrnJPUo4WBAW8oOpn1iS+nDnJveavj2Bh0ZbOp6Jpey3/JkXU8aTD6besyFl+9EnAu8VOOWb8vreQ6ltO5fIRlUwen70mHR4D6e2NfrvNSoPpv5xXDoCQXj5+K/U84AIIgg1EBXmYu1M5x8RHJwVeRn7VkhZS5/EvRC8dlN2trXJ7JnWWHUOQTgOX12XM++I4BDSj9oljwgOIfVav2LZVv2CdNrxFow6Ow53vixHl82QRVlvKPFNLXlI3t1Q40eoZ5hHNXNV/kaHXPaisG2Hcg4QRQShBqLCXKwdEFFT/aOEZ5s4ZQx4CEINRIW5WDsgimbI2tbzztHBy3+QX01VzQGiiSDUQFSYi7UDIuTnLXKirUPOX3ZPFV8+Ky3VU9VzgYgiCDUQFeZi7YAIaTjhhOBfzkvHoR3yQoliDhBxBKEGosJcrB0AAD6CUANRYS7WDgAAH0GogagwF2sHAICPINRAVJiLtQMAwEcQaiAqzMXaAQDgIwg1EBXmYu0AAPARhBqICnOxdgAA+AhCDUSFuVg7AAB8BKEGosJcrB0AAD6CUANRYS7WDgAAH0GogagwF2sHAICPINRAVJiLtQMAwEcQaiAqzMXaQU+pFP/reonNVI2hML0vd74ncnuG63KXcr5tJPsAZiIINRAV5mLtouqo1H/2lRz8rE8qleO5WCELTw1Yr2G9zrV+WblcNcdXedp+v3Q3paZaPX9oDVJzSfc1osiLuy/lji3X5c6kDrlbOd/WKHelzP1C/pkgREgRhBqICnOxdlGVjyA8KpsDcVcfV83xlf2uTzaf8vRLM0E4Trwg1Im5fLwGUJgIQg1EhblYu6jKRxCWypzWftlvv86li1JeppqTjff+BOHYIwiBwRCEGogKc7F2UZWPINRBEI4fghAYDEGogagwF2sXVQRhdBGEwGAIQg1EhblYuxCZuVUqD/dJvMeOJFfvTdnZ1iazM+4CDgZhqUzf0in1F9wbRCz7L/TJ0lUVafs48nNzyPCCcPKqo1Jz5qa0XPPfc3/PgHO6Wvka7utf6pLZ9r8XH5Aqa//97v77r/RL7Y71aft4rN/Ha+1S12XNd9/r4LUBiZ/plPLFpYr5wfeyf5ddsv2Ku5/9XtbvcuU69e8yKBbvk2b78/XckKo1qvfJF4IQGAxBqIGoMBdrFxJruiSeFkstdjC525oON6Tt4wXZDalp7U/uF9zn4Gf9UqW4c3hhm/PaHmfuaAVhqZTsvSEt7uezw8x5X/ffWV/De30rbAO/m8TvJfnzDcjG+vTwcq6L9F676ZxzE8zOZOBZ75URa+579fRJzcmbyX1Tf5c3pXrQn/OAbOz15lpOHVXMyReCEBgMQaiBqDAXaxcCC6wg8WLik4tpR7EqZPqGdqnevTWwzeYFk6Olq1PKvKOIMe9UrLX9+L60/dLlGnbpctxvw0X3buQB2d6yVSYHx2buk9qsp4xTf76DvVbcJo/SVUnlaTdkP2yX4sB+xbv63PhMD78KKTvixl5vj5TH/H0yfpfn2v0jsjMb3c841O/Smhc8qnjygGJOvhCEwGAIQg1EhblYO/OVHXPj5lKXzEkJlcH4EdNyuk2mp+1XvPeG85pWKE4PbM80mkG4Qpafcz5jszKmBruGMBBpvTdk+bNpR/Ws0HTCr08WJrdvkqpPnH3ihzalzk/wo60+Hny94O/yqMRS9hnG73JNe+K0ffO5Lpm/QDGeNwQhMBiCUANRYS7WznT7pNY9fbp97wrFeDZexNyQpaqIjPc5EeNdg5fVaAah95xDa84a1XguQTggdZvST/FaqrukKTEeuKnmqU6JJ7b1S9VTgbkBC0/Z4+lH+/L1uxwrBCEwGIJQA1FhLtbOdLpBluUu40IIQlW0pcglCIfxuZLvNyA7kw/QTlV/wR63nA5e45ev3+VYIQiBwRCEGogKc7F2ptMNMoIwKfl+OSAICUKEFkGogagwF2tnOv/r41KvaxuKAUE41Cnc2AGpS5wuz1MQPu8FYZZTv1kRhOo5gJkIQg1EhblYO9OtkOUf2jFi+bA944aG7AwIwsCjWDJjN3CncL6CMHA9Zn18JNdjav4uuakEKAgEoQaiwlysXQjU9ySf09d8Kv0h1EM9dqaQg7BI5rd5d1D3+JE0c6usPGdvH5CWRDDmKwiLZHar+2iZa/1SW78p9TE3RaVS/Ow+WdnWKfNTtufjd8ljZ4BCQRBqICrMxdqFQerDlBNB4T40eugHUw83Ylqlzn1tT/p7JnzYKSX52C/4jEWLPcf79pB4a4MsTXxrSv6CsCi2VZYnYjP1PRPvm3zIdPBRNbZ8BCEPpgYKBUGogagwF2sXHpNXtUntufSvd7sp9YePDvHVdeljlqwR4+03hLztZ1ncKrWBr5GzvwquaovztXPO1+jlMQgTKmT2rq7E6Vs/Aq33vdQvm63f5Zy56aev8xGEfHUdUCgIQg1EhblYOyBqCEJgMAShBqLCXKwdEDUEITAYglADUWEu1g6IGoIQGAxBqIGoMBdrB0SNF3Nfyh1brsudSR1yt3K+rVHuSpn7hfwzQYiQIgg1EBXmYu2AqPGCMN1gcTeSfQAzEYQaiApzsXYAAPgIQg1EhblYOwAAfAShBqLCXKwdAAA+glADUWEu1g4AAB9BqIGoMBfBBACAjyDUQBCaiyAEAMBHEGogCM1FEAIA4CMINRCE5iIIAQDwEYQaCEJzEYQAAPgIQg0EobkIQgAAfAShBoLQXAQhAAA+glADQWiuyAThQx9IX12v9L3WK1erTsuh+8vV8wAAkUYQaiAIzRWZIJzxtrQv+UDOvmRFoR2GdVek/cG56rkAgMgiCDUQhOaKTBAmxaRy3jknCqtbZZVyDgAgqghCDQShuaIXhLbN8sda+yjhOdlfrBoHAEQVQaiBIDRXNIOwSg5X20F4QQ7fpxoHAEQVQaiBIDQXQagaBwBEFUGogSA0F0GoGgcARBVBqIEgNBdBqBoHAEQVQaiBIDRXNINwsex/3g7CK3LsR6pxAEBUEYQaCEJzRTMIi2T9wgtWEPbK1WUNskAxDgCIJoJQA0ForqgGYdH3V8uhKvsooWXtR3J2yQfS/kitei4AIDIIQg0EobkiG4RFMXm29Ih0v+JGoW1Zg2IeACBKCEINBKG5ohqEcx/6QK7aEfjiEXn9h3MlppgDAIgeglADQWiuaAbhXNn7jH1U8Ir88QHVOAAgqghCDQShuaIZhDx2BgCgRhBqIAjNRRCqxgEAUUUQaiAIzUUQqsYBAFFFEGogCM1FEKrGAQBRRRBqIAjNRRCqxgEAUUUQaiAIzRXNIPyFHKuxg/AjORRTjQMAooog1EAQmiuKQbig9LTzDMKaI7JRMQ4AiC6CUANBaK7IBOGMt6V9yQdytuqKeN9McnZuuXouACCyCEINBKG5IhOED33ghOBrvXK16rQcmrmYbycBAGQgCDUQhOaKTBACAJADglADQWgughAAAB9BqIEgNBdBCACAjyDUQBCaiyAEAMBHEGogCAEAQBgQhBoIQgAAEAYEoQaCEAAAhAFBqIEgBAAAYUAQaiAIAQBAGBCEGghCAAAQBgShBoIQAACEAUGogSAMgzvlo+6viXxq+es35Ys/3C5bY6p5AACEF0GogSAMg7vk/d9PkOsd35Ivr7ph+PF3pUE5FwCAcCIINRCEIVPyz3L1L3YUfl2u71KMAwAQUgShBoIwfNb/57eco4T/+5+U4wAAhBFBqIEgDKFdE5wg/NPt6nEAAEKIINRAEIYQQQgAiCCCUANBGEIEIQAggghCDQRhCBGEAIAIIgg1EIQh9LobhJ3fkxWqcQAAQogg1EAQhtC878nndhB++g/y0cuKcQAAQogg1EAQhlPVrgnyZSIK/0Zu/fk2uX7i2/L+T9VzAQAIA4JQA0EYUuX/LOf+9E3n1HHCN+WjFxXzAAAICYJQA0EYRt53G/+dfL73DqkqUc0BACBcCEINBGEI1X3bOV3853+U9apxAABCiCDUQBCGEI+dAQBEEEGogSAMIYIQABBBBKEGgjCECEIAQAQRhBoIwhAiCAEAEUQQaiAIQ4ggBABEEEGogSAMnxVv3eYE4Yl/Uo4DABBGBKEGgjBkYne4zyD8mnz+1t3qOQAAhBBBqIEgDIO75P3fT5DrHd+SW1e/7hwd7P627Iup5gIAEE4EoQaCMAy8byax/PWb8sUfvidb+XYSAEDEEIQaCEIAABAGBKEGghAAAIQBQaiBIAQAAGFAEGogCAEAQBgQhBoIJgAAEAYEoQaCEAAAhAFBqIEgBAAAYUAQaiAIAQBAGBCEGghCAAAQBgShBoIQAACEAUGogSAEAABhQBBqiFIQ3rVV5Pb3Mt35lHo+AAAwB0GoIUpBePfz1+XOLb47fksQAgAQFgShhigFYTrviCFBCACA+QhCDQQhQQgAQBgQhBoIQoIQAIAwIAg1EIQEIQAAYUAQaiAICUIAAMKAINRAEBKEAACEAUGogSAkCAEACAOCUANBSBACABAGBKEGgpAgBAAgDAhCDQQhQQgAQBgQhBoIQoIQAIAwIAg1EIQEIQAAYUAQaiAICUIAAMKAINRAEBKEAACEAUGogSAkCAEACAOCUANBSBACABAGBKEGgpAgBAAgDAhCDQQhQQgAQBgQhBoIQoIQAIAwIAg1RCkI737+uty5xXfHbwlCAADCgiDUEKUg9I4IpiMIAQAwH0GoIUpBCAAAwosg1EAQAgCAMCAINRCEAAAgDAhCDQQhAAAIA4JQA0EIAADCgCAEAACIOIIQAAAg4ghCAACAiCMIAQAAIo4gBAAAiDiCEAAAIOIIQgAAgIgjCPNk17Je6auzrLsi3cvelY33qOcBAAAUGoIwT9Y/8oG0Lzkt3evcMFz7geyarJ4LAABQSAjCfPv+Ytn7jBOFl5+oUs8BAAAoIAThaHjgv+WqfZTw+belUjUOAABQQAjC0XBfq1y2g7C6VVapxgEAAAoIQTgaCEIAAGAQgnA0EIQAAMAgBOFoIAgBAIBBCMLRUPy2/F87CGuOyEbVOAAAQAEhCEdFrRxbYwVh3RVpf6hcMQ4AAFA4CMJREpv2rnSvt6OwV65WnZb2JR/I/hnquQAAAOOJIBwt339Gdi/6yHkeoav9IcU8AACAcUYQjoq5smvZlUQEdi/aLM9OjinmAAAAFAaCcDRM3uPcVFL73/K6ahwAAKCAEISjgcfOAAAAgxCEo4EgBAAABiEIRwNBCAAADEIQjgaCEAAAGIQgHA0EIQAAMAhBOBp+dMR5/uCL78qzqnEAAIACQhDmXbns/pnzDMKri36hGAcAACgsBGGerH/kA2lfclq61/Y630yy/rTsvkc9FwAAoJAQhHmya5kbguuuSPeyd+X1Yr6dBAAAmIEgBAAAiDiCEAAAIOIIQgAAgIgjCAEAACJu1IMQAAAAhY0gBAAAiDiCEAAAIOIIQgAAgIgjCAEAACKOIAQAAIg4ghAAACDixi4IX/yO3Pr0ayKffkO+7P6WXI3fJaWqeQAAABhTYxeEP71dLp2YINf//D+sKLTD8Oty6+Cd6rkAAAAYM+Nyyrhi4/+ULxNROEHej6nnAAAAYGyM0zWEd8m5P9tB+Ldy9XXVOAAAAMbKuN1U8v6f7CD8mlzfpR4HAADA2CAIAQAAIo4gBAAAiDiCEAAAIOLGLQgP/O+/TQTh52/drRwHAADA2Bi3IFyx+7ZEEMrH35EGHj0DAAAwbsYtCIuK7pb3T/y9E4VX/4d80TFBrv/+dlmvnAsAAIDRMo5BWCRVG78r17v/xolCW/d3pEExDwAAAKNn/ILQ+27jv94mHTV3S4VqDgAAAEbduAXhvved08Vf/OddynEAAACMjXELQh47AwAAUBgIQgAAgIgjCAEAACKOIAQAAIg4ghAAACDixikI75aOTjsIvy7Xd6jGAQAAMFbGJQhLX3afQfjpbdIxTz0HAAAAY2PsgvCnt8ulExPk+p//R+JUsX108NZ/3SGlqrkAAAAYM2MXhN43k3z6Dfmy+1tydfedfDsJAABAARi3m0oAAABQGAhCAACAiCMIAQAAIo4gBAAAiDiCEAAAIOIIQgAAgIgjCAEAACKOIAQAAIg4ghAAACDiCEIAAICIIwgBAAAirUj+fyJCU4sgAsz5AAAAAElFTkSuQmCC;" parent="1" vertex="1">
          <mxGeometry x="390" y="320" width="338.58" height="490" as="geometry" />
        </mxCell>
        <mxCell id="oqc9B1S6U0OL1mSsrtgY-7" value="" style="rounded=0;whiteSpace=wrap;html=1;fillColor=#dae8fc;strokeColor=#6c8ebf;" parent="1" vertex="1">
          <mxGeometry x="540" y="45" width="340" height="175" as="geometry" />
        </mxCell>
        <mxCell id="oqc9B1S6U0OL1mSsrtgY-8" value="&lt;font style=&quot;font-size: 16px;&quot;&gt;react&lt;/font&gt;" style="text;html=1;strokeColor=none;fillColor=none;align=center;verticalAlign=middle;whiteSpace=wrap;rounded=0;" parent="1" vertex="1">
          <mxGeometry x="680" y="60" width="60" height="30" as="geometry" />
        </mxCell>
        <mxCell id="oqc9B1S6U0OL1mSsrtgY-9" value="1. 提供处理和虚拟dom相关的一些函数&lt;br&gt;2. 客户侧API(如hooks)" style="text;html=1;strokeColor=none;fillColor=none;align=center;verticalAlign=middle;whiteSpace=wrap;rounded=0;" parent="1" vertex="1">
          <mxGeometry x="600" y="110" width="220" height="70" as="geometry" />
        </mxCell>
        <mxCell id="oqc9B1S6U0OL1mSsrtgY-10" value="" style="rounded=0;whiteSpace=wrap;html=1;fillColor=#fff2cc;strokeColor=#d6b656;" parent="1" vertex="1">
          <mxGeometry x="930" y="45" width="720" height="175" as="geometry" />
        </mxCell>
        <mxCell id="oqc9B1S6U0OL1mSsrtgY-11" value="&lt;font style=&quot;font-size: 16px;&quot;&gt;react-reconciler&lt;/font&gt;" style="text;html=1;strokeColor=none;fillColor=none;align=center;verticalAlign=middle;whiteSpace=wrap;rounded=0;" parent="1" vertex="1">
          <mxGeometry x="1215" y="60" width="130" height="30" as="geometry" />
        </mxCell>
        <mxCell id="oqc9B1S6U0OL1mSsrtgY-12" value="&lt;font style=&quot;font-size: 16px;&quot;&gt;beginWork&lt;/font&gt;" style="rounded=0;whiteSpace=wrap;html=1;" parent="1" vertex="1">
          <mxGeometry x="960" y="130" width="120" height="60" as="geometry" />
        </mxCell>
        <mxCell id="oqc9B1S6U0OL1mSsrtgY-13" value="&lt;font style=&quot;font-size: 16px;&quot;&gt;completeWork&lt;/font&gt;" style="rounded=0;whiteSpace=wrap;html=1;" parent="1" vertex="1">
          <mxGeometry x="1220" y="130" width="120" height="60" as="geometry" />
        </mxCell>
        <mxCell id="oqc9B1S6U0OL1mSsrtgY-14" value="&lt;font style=&quot;font-size: 16px;&quot;&gt;commitWork&lt;/font&gt;" style="rounded=0;whiteSpace=wrap;html=1;" parent="1" vertex="1">
          <mxGeometry x="1510" y="130" width="120" height="60" as="geometry" />
        </mxCell>
        <mxCell id="oqc9B1S6U0OL1mSsrtgY-39" style="edgeStyle=orthogonalEdgeStyle;rounded=0;orthogonalLoop=1;jettySize=auto;html=1;entryX=0;entryY=0.5;entryDx=0;entryDy=0;" parent="1" source="oqc9B1S6U0OL1mSsrtgY-16" target="oqc9B1S6U0OL1mSsrtgY-17" edge="1">
          <mxGeometry relative="1" as="geometry" />
        </mxCell>
        <mxCell id="oqc9B1S6U0OL1mSsrtgY-16" value="document.getElementById(&#39;root&#39;)" style="rounded=0;whiteSpace=wrap;html=1;" parent="1" vertex="1">
          <mxGeometry x="680" y="250" width="210" height="40" as="geometry" />
        </mxCell>
        <mxCell id="oqc9B1S6U0OL1mSsrtgY-20" style="edgeStyle=orthogonalEdgeStyle;rounded=0;orthogonalLoop=1;jettySize=auto;html=1;entryX=0.5;entryY=0;entryDx=0;entryDy=0;" parent="1" source="oqc9B1S6U0OL1mSsrtgY-17" target="oqc9B1S6U0OL1mSsrtgY-19" edge="1">
          <mxGeometry relative="1" as="geometry" />
        </mxCell>
        <mxCell id="oqc9B1S6U0OL1mSsrtgY-21" value="Current Fiber" style="edgeLabel;html=1;align=center;verticalAlign=middle;resizable=0;points=[];" parent="oqc9B1S6U0OL1mSsrtgY-20" vertex="1" connectable="0">
          <mxGeometry x="-0.2909" relative="1" as="geometry">
            <mxPoint as="offset" />
          </mxGeometry>
        </mxCell>
        <mxCell id="oqc9B1S6U0OL1mSsrtgY-58" style="edgeStyle=orthogonalEdgeStyle;rounded=0;orthogonalLoop=1;jettySize=auto;html=1;entryX=0.5;entryY=0;entryDx=0;entryDy=0;" parent="1" source="oqc9B1S6U0OL1mSsrtgY-17" target="oqc9B1S6U0OL1mSsrtgY-43" edge="1">
          <mxGeometry relative="1" as="geometry" />
        </mxCell>
        <mxCell id="oqc9B1S6U0OL1mSsrtgY-59" value="WorkInProgress Fiber" style="edgeLabel;html=1;align=center;verticalAlign=middle;resizable=0;points=[];" parent="oqc9B1S6U0OL1mSsrtgY-58" vertex="1" connectable="0">
          <mxGeometry x="-0.0154" y="-1" relative="1" as="geometry">
            <mxPoint as="offset" />
          </mxGeometry>
        </mxCell>
        <mxCell id="oqc9B1S6U0OL1mSsrtgY-17" value="fiberRootNode" style="rounded=0;whiteSpace=wrap;html=1;" parent="1" vertex="1">
          <mxGeometry x="940" y="250" width="130" height="40" as="geometry" />
        </mxCell>
        <mxCell id="oqc9B1S6U0OL1mSsrtgY-18" value="&lt;font color=&quot;#ff0000&quot; style=&quot;font-size: 16px;&quot;&gt;1. Vdom&lt;/font&gt;" style="text;html=1;strokeColor=none;fillColor=none;align=center;verticalAlign=middle;whiteSpace=wrap;rounded=0;" parent="1" vertex="1">
          <mxGeometry x="390" y="280" width="70" height="30" as="geometry" />
        </mxCell>
        <mxCell id="oqc9B1S6U0OL1mSsrtgY-23" value="" style="edgeStyle=orthogonalEdgeStyle;rounded=0;orthogonalLoop=1;jettySize=auto;html=1;" parent="1" source="oqc9B1S6U0OL1mSsrtgY-19" target="oqc9B1S6U0OL1mSsrtgY-22" edge="1">
          <mxGeometry relative="1" as="geometry" />
        </mxCell>
        <mxCell id="oqc9B1S6U0OL1mSsrtgY-60" style="edgeStyle=orthogonalEdgeStyle;rounded=0;orthogonalLoop=1;jettySize=auto;html=1;entryX=0;entryY=0.5;entryDx=0;entryDy=0;" parent="1" source="oqc9B1S6U0OL1mSsrtgY-19" target="oqc9B1S6U0OL1mSsrtgY-43" edge="1">
          <mxGeometry relative="1" as="geometry">
            <mxPoint x="1190" y="360" as="targetPoint" />
          </mxGeometry>
        </mxCell>
        <mxCell id="oqc9B1S6U0OL1mSsrtgY-62" value="alternate" style="edgeLabel;html=1;align=center;verticalAlign=middle;resizable=0;points=[];" parent="oqc9B1S6U0OL1mSsrtgY-60" vertex="1" connectable="0">
          <mxGeometry x="-0.1459" y="1" relative="1" as="geometry">
            <mxPoint as="offset" />
          </mxGeometry>
        </mxCell>
        <mxCell id="oqc9B1S6U0OL1mSsrtgY-19" value="rootFiber" style="rounded=0;whiteSpace=wrap;html=1;" parent="1" vertex="1">
          <mxGeometry x="880" y="340" width="130" height="40" as="geometry" />
        </mxCell>
        <mxCell id="oqc9B1S6U0OL1mSsrtgY-26" value="" style="edgeStyle=orthogonalEdgeStyle;rounded=0;orthogonalLoop=1;jettySize=auto;html=1;" parent="1" source="oqc9B1S6U0OL1mSsrtgY-22" target="oqc9B1S6U0OL1mSsrtgY-24" edge="1">
          <mxGeometry relative="1" as="geometry" />
        </mxCell>
        <mxCell id="oqc9B1S6U0OL1mSsrtgY-113" style="edgeStyle=orthogonalEdgeStyle;rounded=0;orthogonalLoop=1;jettySize=auto;html=1;exitX=0.75;exitY=0;exitDx=0;exitDy=0;entryX=0.75;entryY=1;entryDx=0;entryDy=0;" parent="1" source="oqc9B1S6U0OL1mSsrtgY-22" target="oqc9B1S6U0OL1mSsrtgY-19" edge="1">
          <mxGeometry relative="1" as="geometry" />
        </mxCell>
        <mxCell id="oqc9B1S6U0OL1mSsrtgY-22" value="App 节点" style="rounded=0;whiteSpace=wrap;html=1;" parent="1" vertex="1">
          <mxGeometry x="880" y="420" width="130" height="40" as="geometry" />
        </mxCell>
        <mxCell id="oqc9B1S6U0OL1mSsrtgY-28" value="" style="edgeStyle=orthogonalEdgeStyle;rounded=0;orthogonalLoop=1;jettySize=auto;html=1;" parent="1" source="oqc9B1S6U0OL1mSsrtgY-24" target="oqc9B1S6U0OL1mSsrtgY-27" edge="1">
          <mxGeometry relative="1" as="geometry" />
        </mxCell>
        <mxCell id="oqc9B1S6U0OL1mSsrtgY-116" style="edgeStyle=orthogonalEdgeStyle;rounded=0;orthogonalLoop=1;jettySize=auto;html=1;exitX=0.75;exitY=0;exitDx=0;exitDy=0;entryX=0.75;entryY=1;entryDx=0;entryDy=0;" parent="1" source="oqc9B1S6U0OL1mSsrtgY-24" target="oqc9B1S6U0OL1mSsrtgY-22" edge="1">
          <mxGeometry relative="1" as="geometry" />
        </mxCell>
        <mxCell id="oqc9B1S6U0OL1mSsrtgY-24" value="div(main)" style="rounded=0;whiteSpace=wrap;html=1;" parent="1" vertex="1">
          <mxGeometry x="880" y="500" width="130" height="40" as="geometry" />
        </mxCell>
        <mxCell id="oqc9B1S6U0OL1mSsrtgY-32" style="edgeStyle=orthogonalEdgeStyle;rounded=0;orthogonalLoop=1;jettySize=auto;html=1;entryX=0.5;entryY=0;entryDx=0;entryDy=0;" parent="1" source="oqc9B1S6U0OL1mSsrtgY-27" target="oqc9B1S6U0OL1mSsrtgY-29" edge="1">
          <mxGeometry relative="1" as="geometry" />
        </mxCell>
        <mxCell id="oqc9B1S6U0OL1mSsrtgY-27" value="h2(hello)" style="rounded=0;whiteSpace=wrap;html=1;" parent="1" vertex="1">
          <mxGeometry x="880" y="580" width="130" height="40" as="geometry" />
        </mxCell>
        <mxCell id="oqc9B1S6U0OL1mSsrtgY-33" value="" style="edgeStyle=orthogonalEdgeStyle;rounded=0;orthogonalLoop=1;jettySize=auto;html=1;" parent="1" source="oqc9B1S6U0OL1mSsrtgY-29" target="oqc9B1S6U0OL1mSsrtgY-31" edge="1">
          <mxGeometry relative="1" as="geometry" />
        </mxCell>
        <mxCell id="oqc9B1S6U0OL1mSsrtgY-29" value="div(list)" style="rounded=0;whiteSpace=wrap;html=1;" parent="1" vertex="1">
          <mxGeometry x="980" y="650" width="100" height="40" as="geometry" />
        </mxCell>
        <mxCell id="oqc9B1S6U0OL1mSsrtgY-35" value="" style="edgeStyle=orthogonalEdgeStyle;rounded=0;orthogonalLoop=1;jettySize=auto;html=1;" parent="1" source="oqc9B1S6U0OL1mSsrtgY-31" target="oqc9B1S6U0OL1mSsrtgY-34" edge="1">
          <mxGeometry relative="1" as="geometry" />
        </mxCell>
        <mxCell id="oqc9B1S6U0OL1mSsrtgY-124" style="edgeStyle=orthogonalEdgeStyle;rounded=0;orthogonalLoop=1;jettySize=auto;html=1;exitX=0.75;exitY=0;exitDx=0;exitDy=0;entryX=0.75;entryY=1;entryDx=0;entryDy=0;" parent="1" source="oqc9B1S6U0OL1mSsrtgY-31" target="oqc9B1S6U0OL1mSsrtgY-29" edge="1">
          <mxGeometry relative="1" as="geometry" />
        </mxCell>
        <mxCell id="oqc9B1S6U0OL1mSsrtgY-31" value="ul" style="rounded=0;whiteSpace=wrap;html=1;" parent="1" vertex="1">
          <mxGeometry x="980" y="720" width="100" height="40" as="geometry" />
        </mxCell>
        <mxCell id="oqc9B1S6U0OL1mSsrtgY-37" style="edgeStyle=orthogonalEdgeStyle;rounded=0;orthogonalLoop=1;jettySize=auto;html=1;entryX=0.5;entryY=0;entryDx=0;entryDy=0;" parent="1" source="oqc9B1S6U0OL1mSsrtgY-34" target="oqc9B1S6U0OL1mSsrtgY-36" edge="1">
          <mxGeometry relative="1" as="geometry" />
        </mxCell>
        <mxCell id="oqc9B1S6U0OL1mSsrtgY-38" value="..." style="edgeLabel;html=1;align=center;verticalAlign=middle;resizable=0;points=[];" parent="oqc9B1S6U0OL1mSsrtgY-37" vertex="1" connectable="0">
          <mxGeometry x="-0.26" y="-2" relative="1" as="geometry">
            <mxPoint as="offset" />
          </mxGeometry>
        </mxCell>
        <mxCell id="oqc9B1S6U0OL1mSsrtgY-34" value="li (list1)" style="rounded=0;whiteSpace=wrap;html=1;" parent="1" vertex="1">
          <mxGeometry x="980" y="790" width="100" height="40" as="geometry" />
        </mxCell>
        <mxCell id="oqc9B1S6U0OL1mSsrtgY-36" value="li (list5)" style="rounded=0;whiteSpace=wrap;html=1;" parent="1" vertex="1">
          <mxGeometry x="1030" y="880" width="100" height="40" as="geometry" />
        </mxCell>
        <mxCell id="oqc9B1S6U0OL1mSsrtgY-42" value="" style="edgeStyle=orthogonalEdgeStyle;rounded=0;orthogonalLoop=1;jettySize=auto;html=1;" parent="1" source="oqc9B1S6U0OL1mSsrtgY-43" target="oqc9B1S6U0OL1mSsrtgY-45" edge="1">
          <mxGeometry relative="1" as="geometry" />
        </mxCell>
        <mxCell id="oqc9B1S6U0OL1mSsrtgY-138" style="edgeStyle=orthogonalEdgeStyle;rounded=0;orthogonalLoop=1;jettySize=auto;html=1;entryX=0.5;entryY=0;entryDx=0;entryDy=0;" parent="1" source="oqc9B1S6U0OL1mSsrtgY-43" target="oqc9B1S6U0OL1mSsrtgY-133" edge="1">
          <mxGeometry relative="1" as="geometry" />
        </mxCell>
        <mxCell id="oqc9B1S6U0OL1mSsrtgY-43" value="rootFiber" style="rounded=0;whiteSpace=wrap;html=1;" parent="1" vertex="1">
          <mxGeometry x="1230" y="340" width="130" height="40" as="geometry" />
        </mxCell>
        <mxCell id="oqc9B1S6U0OL1mSsrtgY-44" value="" style="edgeStyle=orthogonalEdgeStyle;rounded=0;orthogonalLoop=1;jettySize=auto;html=1;" parent="1" source="oqc9B1S6U0OL1mSsrtgY-45" target="oqc9B1S6U0OL1mSsrtgY-47" edge="1">
          <mxGeometry relative="1" as="geometry" />
        </mxCell>
        <mxCell id="oqc9B1S6U0OL1mSsrtgY-45" value="App 节点" style="rounded=0;whiteSpace=wrap;html=1;" parent="1" vertex="1">
          <mxGeometry x="1230" y="420" width="130" height="40" as="geometry" />
        </mxCell>
        <mxCell id="oqc9B1S6U0OL1mSsrtgY-46" value="" style="edgeStyle=orthogonalEdgeStyle;rounded=0;orthogonalLoop=1;jettySize=auto;html=1;" parent="1" source="oqc9B1S6U0OL1mSsrtgY-47" target="oqc9B1S6U0OL1mSsrtgY-49" edge="1">
          <mxGeometry relative="1" as="geometry" />
        </mxCell>
        <mxCell id="oqc9B1S6U0OL1mSsrtgY-47" value="div(main)" style="rounded=0;whiteSpace=wrap;html=1;" parent="1" vertex="1">
          <mxGeometry x="1230" y="500" width="130" height="40" as="geometry" />
        </mxCell>
        <mxCell id="oqc9B1S6U0OL1mSsrtgY-48" style="edgeStyle=orthogonalEdgeStyle;rounded=0;orthogonalLoop=1;jettySize=auto;html=1;entryX=0.5;entryY=0;entryDx=0;entryDy=0;" parent="1" source="oqc9B1S6U0OL1mSsrtgY-49" edge="1">
          <mxGeometry relative="1" as="geometry">
            <mxPoint x="1235" y="650" as="targetPoint" />
          </mxGeometry>
        </mxCell>
        <mxCell id="oqc9B1S6U0OL1mSsrtgY-134" value="" style="edgeStyle=orthogonalEdgeStyle;rounded=0;orthogonalLoop=1;jettySize=auto;html=1;" parent="1" source="oqc9B1S6U0OL1mSsrtgY-49" target="oqc9B1S6U0OL1mSsrtgY-133" edge="1">
          <mxGeometry relative="1" as="geometry" />
        </mxCell>
        <mxCell id="oqc9B1S6U0OL1mSsrtgY-49" value="h2(hello shenzn)" style="rounded=0;whiteSpace=wrap;html=1;fillColor=#d5e8d4;strokeColor=#82b366;" parent="1" vertex="1">
          <mxGeometry x="1230" y="580" width="130" height="40" as="geometry" />
        </mxCell>
        <mxCell id="oqc9B1S6U0OL1mSsrtgY-50" value="" style="edgeStyle=orthogonalEdgeStyle;rounded=0;orthogonalLoop=1;jettySize=auto;html=1;" parent="1" edge="1">
          <mxGeometry relative="1" as="geometry">
            <mxPoint x="1235" y="690" as="sourcePoint" />
            <mxPoint x="1235" y="720" as="targetPoint" />
          </mxGeometry>
        </mxCell>
        <mxCell id="oqc9B1S6U0OL1mSsrtgY-51" value="div(list)" style="rounded=0;whiteSpace=wrap;html=1;" parent="1" vertex="1">
          <mxGeometry x="1191" y="650" width="100" height="40" as="geometry" />
        </mxCell>
        <mxCell id="oqc9B1S6U0OL1mSsrtgY-52" value="" style="edgeStyle=orthogonalEdgeStyle;rounded=0;orthogonalLoop=1;jettySize=auto;html=1;" parent="1" edge="1">
          <mxGeometry relative="1" as="geometry">
            <mxPoint x="1235" y="760" as="sourcePoint" />
            <mxPoint x="1235" y="790" as="targetPoint" />
          </mxGeometry>
        </mxCell>
        <mxCell id="oqc9B1S6U0OL1mSsrtgY-53" value="ul" style="rounded=0;whiteSpace=wrap;html=1;" parent="1" vertex="1">
          <mxGeometry x="1191" y="720" width="100" height="40" as="geometry" />
        </mxCell>
        <mxCell id="oqc9B1S6U0OL1mSsrtgY-54" style="edgeStyle=orthogonalEdgeStyle;rounded=0;orthogonalLoop=1;jettySize=auto;html=1;entryX=0.5;entryY=0;entryDx=0;entryDy=0;" parent="1" target="oqc9B1S6U0OL1mSsrtgY-57" edge="1">
          <mxGeometry relative="1" as="geometry">
            <mxPoint x="1235" y="830" as="sourcePoint" />
          </mxGeometry>
        </mxCell>
        <mxCell id="oqc9B1S6U0OL1mSsrtgY-55" value="..." style="edgeLabel;html=1;align=center;verticalAlign=middle;resizable=0;points=[];" parent="oqc9B1S6U0OL1mSsrtgY-54" vertex="1" connectable="0">
          <mxGeometry x="-0.26" y="-2" relative="1" as="geometry">
            <mxPoint as="offset" />
          </mxGeometry>
        </mxCell>
        <mxCell id="oqc9B1S6U0OL1mSsrtgY-56" value="li (list1)" style="rounded=0;whiteSpace=wrap;html=1;" parent="1" vertex="1">
          <mxGeometry x="1191" y="790" width="100" height="40" as="geometry" />
        </mxCell>
        <mxCell id="oqc9B1S6U0OL1mSsrtgY-81" value="" style="edgeStyle=orthogonalEdgeStyle;rounded=0;orthogonalLoop=1;jettySize=auto;html=1;" parent="1" source="oqc9B1S6U0OL1mSsrtgY-57" target="oqc9B1S6U0OL1mSsrtgY-80" edge="1">
          <mxGeometry relative="1" as="geometry" />
        </mxCell>
        <mxCell id="oqc9B1S6U0OL1mSsrtgY-57" value="li (list5)" style="rounded=0;whiteSpace=wrap;html=1;" parent="1" vertex="1">
          <mxGeometry x="1160" y="880" width="100" height="40" as="geometry" />
        </mxCell>
        <mxCell id="oqc9B1S6U0OL1mSsrtgY-137" value="" style="edgeStyle=orthogonalEdgeStyle;rounded=0;orthogonalLoop=1;jettySize=auto;html=1;" parent="1" source="oqc9B1S6U0OL1mSsrtgY-80" target="oqc9B1S6U0OL1mSsrtgY-136" edge="1">
          <mxGeometry relative="1" as="geometry" />
        </mxCell>
        <mxCell id="oqc9B1S6U0OL1mSsrtgY-147" style="edgeStyle=orthogonalEdgeStyle;rounded=0;orthogonalLoop=1;jettySize=auto;html=1;entryX=0;entryY=0.5;entryDx=0;entryDy=0;" parent="1" source="oqc9B1S6U0OL1mSsrtgY-80" target="oqc9B1S6U0OL1mSsrtgY-141" edge="1">
          <mxGeometry relative="1" as="geometry">
            <Array as="points">
              <mxPoint x="1210" y="1005" />
            </Array>
          </mxGeometry>
        </mxCell>
        <mxCell id="oqc9B1S6U0OL1mSsrtgY-80" value="li (list6)" style="rounded=0;whiteSpace=wrap;html=1;fillColor=#d5e8d4;strokeColor=#82b366;" parent="1" vertex="1">
          <mxGeometry x="1160" y="950" width="100" height="40" as="geometry" />
        </mxCell>
        <mxCell id="oqc9B1S6U0OL1mSsrtgY-82" value="在mount阶段" style="text;html=1;strokeColor=none;fillColor=none;align=center;verticalAlign=middle;whiteSpace=wrap;rounded=0;" parent="1" vertex="1">
          <mxGeometry x="780" y="300" width="73" height="30" as="geometry" />
        </mxCell>
        <mxCell id="oqc9B1S6U0OL1mSsrtgY-144" style="edgeStyle=orthogonalEdgeStyle;rounded=0;orthogonalLoop=1;jettySize=auto;html=1;exitX=0.25;exitY=1;exitDx=0;exitDy=0;entryX=0.428;entryY=-0.005;entryDx=0;entryDy=0;entryPerimeter=0;" parent="1" source="oqc9B1S6U0OL1mSsrtgY-83" target="oqc9B1S6U0OL1mSsrtgY-140" edge="1">
          <mxGeometry relative="1" as="geometry" />
        </mxCell>
        <mxCell id="oqc9B1S6U0OL1mSsrtgY-145" style="edgeStyle=orthogonalEdgeStyle;rounded=0;orthogonalLoop=1;jettySize=auto;html=1;exitX=0.75;exitY=1;exitDx=0;exitDy=0;entryX=0.5;entryY=0;entryDx=0;entryDy=0;" parent="1" source="oqc9B1S6U0OL1mSsrtgY-83" target="oqc9B1S6U0OL1mSsrtgY-141" edge="1">
          <mxGeometry relative="1" as="geometry">
            <mxPoint x="1925" y="930" as="targetPoint" />
          </mxGeometry>
        </mxCell>
        <mxCell id="oqc9B1S6U0OL1mSsrtgY-83" value="" style="rounded=0;whiteSpace=wrap;html=1;fillColor=#f8cecc;strokeColor=#b85450;" parent="1" vertex="1">
          <mxGeometry x="1700" y="45" width="340" height="175" as="geometry" />
        </mxCell>
        <mxCell id="oqc9B1S6U0OL1mSsrtgY-84" value="&lt;font style=&quot;font-size: 16px;&quot;&gt;react-dom&lt;/font&gt;" style="text;html=1;strokeColor=none;fillColor=none;align=center;verticalAlign=middle;whiteSpace=wrap;rounded=0;" parent="1" vertex="1">
          <mxGeometry x="1800" y="60" width="130" height="30" as="geometry" />
        </mxCell>
        <mxCell id="oqc9B1S6U0OL1mSsrtgY-85" value="&lt;font color=&quot;#ff0000&quot; style=&quot;font-size: 16px;&quot;&gt;2. Current Fiber&lt;/font&gt;" style="text;html=1;strokeColor=none;fillColor=none;align=center;verticalAlign=middle;whiteSpace=wrap;rounded=0;" parent="1" vertex="1">
          <mxGeometry x="930" y="220" width="130" height="30" as="geometry" />
        </mxCell>
        <mxCell id="oqc9B1S6U0OL1mSsrtgY-87" value="&lt;font color=&quot;#ff0000&quot; style=&quot;font-size: 16px;&quot;&gt;3. WorkInProgress Fiber&lt;/font&gt;" style="text;html=1;strokeColor=none;fillColor=none;align=center;verticalAlign=middle;whiteSpace=wrap;rounded=0;" parent="1" vertex="1">
          <mxGeometry x="1205" y="222.5" width="185" height="30" as="geometry" />
        </mxCell>
        <mxCell id="oqc9B1S6U0OL1mSsrtgY-88" value="&lt;font color=&quot;#ff00ff&quot;&gt;beginWork (以下简称BW)&lt;/font&gt;" style="text;html=1;strokeColor=none;fillColor=none;align=center;verticalAlign=middle;whiteSpace=wrap;rounded=0;" parent="1" vertex="1">
          <mxGeometry x="840" y="340" width="80" height="30" as="geometry" />
        </mxCell>
        <mxCell id="oqc9B1S6U0OL1mSsrtgY-90" value="&lt;font color=&quot;#ff00ff&quot;&gt;BW&lt;/font&gt;" style="text;html=1;strokeColor=none;fillColor=none;align=center;verticalAlign=middle;whiteSpace=wrap;rounded=0;" parent="1" vertex="1">
          <mxGeometry x="872" y="415" width="40" height="30" as="geometry" />
        </mxCell>
        <mxCell id="oqc9B1S6U0OL1mSsrtgY-91" value="&lt;font style=&quot;font-size: 14px;&quot;&gt;diff到底是谁跟谁比？&lt;br&gt;vdom 和 current Fiber 对比，生成 workInProgress Fiber&lt;/font&gt;" style="text;html=1;strokeColor=none;fillColor=none;align=center;verticalAlign=middle;whiteSpace=wrap;rounded=0;" parent="1" vertex="1">
          <mxGeometry x="414" y="850" width="310" height="80" as="geometry" />
        </mxCell>
        <mxCell id="oqc9B1S6U0OL1mSsrtgY-92" value="&lt;font color=&quot;#ff00ff&quot;&gt;BW&lt;/font&gt;" style="text;html=1;strokeColor=none;fillColor=none;align=center;verticalAlign=middle;whiteSpace=wrap;rounded=0;" parent="1" vertex="1">
          <mxGeometry x="874" y="500" width="38" height="20" as="geometry" />
        </mxCell>
        <mxCell id="oqc9B1S6U0OL1mSsrtgY-93" value="&lt;font color=&quot;#ff00ff&quot;&gt;BW&lt;/font&gt;" style="text;html=1;strokeColor=none;fillColor=none;align=center;verticalAlign=middle;whiteSpace=wrap;rounded=0;" parent="1" vertex="1">
          <mxGeometry x="872" y="575" width="40" height="30" as="geometry" />
        </mxCell>
        <mxCell id="oqc9B1S6U0OL1mSsrtgY-94" value="&lt;font color=&quot;#0000ff&quot;&gt;child&lt;/font&gt;" style="text;html=1;strokeColor=none;fillColor=none;align=center;verticalAlign=middle;whiteSpace=wrap;rounded=0;" parent="1" vertex="1">
          <mxGeometry x="900" y="380" width="50" height="20" as="geometry" />
        </mxCell>
        <mxCell id="oqc9B1S6U0OL1mSsrtgY-95" value="&lt;font color=&quot;#0000ff&quot;&gt;child&lt;/font&gt;" style="text;html=1;strokeColor=none;fillColor=none;align=center;verticalAlign=middle;whiteSpace=wrap;rounded=0;" parent="1" vertex="1">
          <mxGeometry x="900" y="460" width="50" height="20" as="geometry" />
        </mxCell>
        <mxCell id="oqc9B1S6U0OL1mSsrtgY-96" value="&lt;font color=&quot;#0000ff&quot;&gt;child&lt;/font&gt;" style="text;html=1;strokeColor=none;fillColor=none;align=center;verticalAlign=middle;whiteSpace=wrap;rounded=0;" parent="1" vertex="1">
          <mxGeometry x="900" y="540" width="50" height="20" as="geometry" />
        </mxCell>
        <mxCell id="oqc9B1S6U0OL1mSsrtgY-97" value="&lt;font color=&quot;#0000ff&quot;&gt;sibling&lt;/font&gt;" style="text;html=1;strokeColor=none;fillColor=none;align=center;verticalAlign=middle;whiteSpace=wrap;rounded=0;" parent="1" vertex="1">
          <mxGeometry x="930" y="640" width="50" height="20" as="geometry" />
        </mxCell>
        <mxCell id="oqc9B1S6U0OL1mSsrtgY-98" value="&lt;font color=&quot;#ff00ff&quot;&gt;BW&lt;/font&gt;" style="text;html=1;strokeColor=none;fillColor=none;align=center;verticalAlign=middle;whiteSpace=wrap;rounded=0;" parent="1" vertex="1">
          <mxGeometry x="980" y="650" width="30" height="20" as="geometry" />
        </mxCell>
        <mxCell id="oqc9B1S6U0OL1mSsrtgY-99" value="用来描述当前节点与子节点的关系" style="text;html=1;strokeColor=none;fillColor=none;align=center;verticalAlign=middle;whiteSpace=wrap;rounded=0;" parent="1" vertex="1">
          <mxGeometry x="750" y="410" width="103" height="40" as="geometry" />
        </mxCell>
        <mxCell id="oqc9B1S6U0OL1mSsrtgY-101" value="" style="endArrow=classic;html=1;rounded=0;exitX=1;exitY=0.5;exitDx=0;exitDy=0;" parent="1" source="oqc9B1S6U0OL1mSsrtgY-99" edge="1">
          <mxGeometry width="50" height="50" relative="1" as="geometry">
            <mxPoint x="860" y="440" as="sourcePoint" />
            <mxPoint x="910" y="390" as="targetPoint" />
          </mxGeometry>
        </mxCell>
        <mxCell id="oqc9B1S6U0OL1mSsrtgY-102" value="用来描述当前节点与兄弟节点的关系" style="text;html=1;strokeColor=none;fillColor=none;align=center;verticalAlign=middle;whiteSpace=wrap;rounded=0;" parent="1" vertex="1">
          <mxGeometry x="787" y="680" width="103" height="40" as="geometry" />
        </mxCell>
        <mxCell id="oqc9B1S6U0OL1mSsrtgY-103" value="" style="endArrow=classic;html=1;rounded=0;exitX=1;exitY=0.5;exitDx=0;exitDy=0;" parent="1" source="oqc9B1S6U0OL1mSsrtgY-102" edge="1">
          <mxGeometry width="50" height="50" relative="1" as="geometry">
            <mxPoint x="890" y="710" as="sourcePoint" />
            <mxPoint x="940" y="660" as="targetPoint" />
          </mxGeometry>
        </mxCell>
        <mxCell id="oqc9B1S6U0OL1mSsrtgY-104" value="&lt;font color=&quot;#0000ff&quot;&gt;child&lt;/font&gt;" style="text;html=1;strokeColor=none;fillColor=none;align=center;verticalAlign=middle;whiteSpace=wrap;rounded=0;" parent="1" vertex="1">
          <mxGeometry x="980" y="690" width="50" height="20" as="geometry" />
        </mxCell>
        <mxCell id="oqc9B1S6U0OL1mSsrtgY-105" value="&lt;font color=&quot;#0000ff&quot;&gt;child&lt;/font&gt;" style="text;html=1;strokeColor=none;fillColor=none;align=center;verticalAlign=middle;whiteSpace=wrap;rounded=0;" parent="1" vertex="1">
          <mxGeometry x="980" y="760" width="50" height="20" as="geometry" />
        </mxCell>
        <mxCell id="oqc9B1S6U0OL1mSsrtgY-106" value="&lt;font color=&quot;#0000ff&quot;&gt;sibling&lt;/font&gt;" style="text;html=1;strokeColor=none;fillColor=none;align=center;verticalAlign=middle;whiteSpace=wrap;rounded=0;" parent="1" vertex="1">
          <mxGeometry x="980" y="830" width="50" height="20" as="geometry" />
        </mxCell>
        <mxCell id="oqc9B1S6U0OL1mSsrtgY-107" value="&lt;font color=&quot;#0000ff&quot;&gt;return&lt;/font&gt;" style="text;html=1;strokeColor=none;fillColor=none;align=center;verticalAlign=middle;whiteSpace=wrap;rounded=0;" parent="1" vertex="1">
          <mxGeometry x="1100" y="800" width="50" height="20" as="geometry" />
        </mxCell>
        <mxCell id="oqc9B1S6U0OL1mSsrtgY-108" value="" style="endArrow=classic;html=1;rounded=0;entryX=1;entryY=1;entryDx=0;entryDy=0;" parent="1" target="oqc9B1S6U0OL1mSsrtgY-31" edge="1">
          <mxGeometry width="50" height="50" relative="1" as="geometry">
            <mxPoint x="1120" y="880" as="sourcePoint" />
            <mxPoint x="1070" y="760" as="targetPoint" />
          </mxGeometry>
        </mxCell>
        <mxCell id="oqc9B1S6U0OL1mSsrtgY-110" value="用来描述当前节点与父节点的关系" style="text;html=1;strokeColor=none;fillColor=none;align=center;verticalAlign=middle;whiteSpace=wrap;rounded=0;" parent="1" vertex="1">
          <mxGeometry x="872" y="870" width="103" height="40" as="geometry" />
        </mxCell>
        <mxCell id="oqc9B1S6U0OL1mSsrtgY-111" value="" style="endArrow=classic;html=1;rounded=0;exitX=1;exitY=0.5;exitDx=0;exitDy=0;" parent="1" source="oqc9B1S6U0OL1mSsrtgY-110" edge="1">
          <mxGeometry width="50" height="50" relative="1" as="geometry">
            <mxPoint x="1060" y="870" as="sourcePoint" />
            <mxPoint x="1110" y="820" as="targetPoint" />
          </mxGeometry>
        </mxCell>
        <mxCell id="oqc9B1S6U0OL1mSsrtgY-112" value="&lt;font color=&quot;#00ffff&quot;&gt;completeWork (以下简称CW)&lt;/font&gt;" style="text;html=1;strokeColor=none;fillColor=none;align=center;verticalAlign=middle;whiteSpace=wrap;rounded=0;" parent="1" vertex="1">
          <mxGeometry x="980" y="340" width="80" height="30" as="geometry" />
        </mxCell>
        <mxCell id="oqc9B1S6U0OL1mSsrtgY-114" value="&lt;font color=&quot;#0000ff&quot;&gt;return&lt;/font&gt;" style="text;html=1;strokeColor=none;fillColor=none;align=center;verticalAlign=middle;whiteSpace=wrap;rounded=0;" parent="1" vertex="1">
          <mxGeometry x="980" y="390" width="50" height="20" as="geometry" />
        </mxCell>
        <mxCell id="oqc9B1S6U0OL1mSsrtgY-115" value="&lt;font color=&quot;#00ffff&quot;&gt;CW&lt;/font&gt;" style="text;html=1;strokeColor=none;fillColor=none;align=center;verticalAlign=middle;whiteSpace=wrap;rounded=0;" parent="1" vertex="1">
          <mxGeometry x="975" y="415" width="40" height="30" as="geometry" />
        </mxCell>
        <mxCell id="oqc9B1S6U0OL1mSsrtgY-117" value="&lt;font color=&quot;#0000ff&quot;&gt;return&lt;/font&gt;" style="text;html=1;strokeColor=none;fillColor=none;align=center;verticalAlign=middle;whiteSpace=wrap;rounded=0;" parent="1" vertex="1">
          <mxGeometry x="980" y="470" width="50" height="20" as="geometry" />
        </mxCell>
        <mxCell id="oqc9B1S6U0OL1mSsrtgY-119" value="&lt;font color=&quot;#0000ff&quot;&gt;return&lt;/font&gt;" style="text;html=1;strokeColor=none;fillColor=none;align=center;verticalAlign=middle;whiteSpace=wrap;rounded=0;" parent="1" vertex="1">
          <mxGeometry x="1040" y="580" width="50" height="20" as="geometry" />
        </mxCell>
        <mxCell id="oqc9B1S6U0OL1mSsrtgY-120" value="&lt;font color=&quot;#00ffff&quot;&gt;CW&lt;/font&gt;" style="text;html=1;strokeColor=none;fillColor=none;align=center;verticalAlign=middle;whiteSpace=wrap;rounded=0;" parent="1" vertex="1">
          <mxGeometry x="975" y="500" width="35" height="20" as="geometry" />
        </mxCell>
        <mxCell id="oqc9B1S6U0OL1mSsrtgY-121" value="&lt;font color=&quot;#00ffff&quot;&gt;CW&lt;/font&gt;" style="text;html=1;strokeColor=none;fillColor=none;align=center;verticalAlign=middle;whiteSpace=wrap;rounded=0;" parent="1" vertex="1">
          <mxGeometry x="975" y="575" width="40" height="30" as="geometry" />
        </mxCell>
        <mxCell id="oqc9B1S6U0OL1mSsrtgY-123" value="" style="endArrow=classic;html=1;rounded=0;" parent="1" edge="1">
          <mxGeometry width="50" height="50" relative="1" as="geometry">
            <mxPoint x="1070" y="650" as="sourcePoint" />
            <mxPoint x="1000" y="540" as="targetPoint" />
          </mxGeometry>
        </mxCell>
        <mxCell id="oqc9B1S6U0OL1mSsrtgY-125" value="&lt;font color=&quot;#0000ff&quot;&gt;return&lt;/font&gt;" style="text;html=1;strokeColor=none;fillColor=none;align=center;verticalAlign=middle;whiteSpace=wrap;rounded=0;" parent="1" vertex="1">
          <mxGeometry x="1050" y="700" width="50" height="20" as="geometry" />
        </mxCell>
        <mxCell id="oqc9B1S6U0OL1mSsrtgY-126" value="&lt;font color=&quot;#ff00ff&quot;&gt;BW&lt;/font&gt;" style="text;html=1;strokeColor=none;fillColor=none;align=center;verticalAlign=middle;whiteSpace=wrap;rounded=0;" parent="1" vertex="1">
          <mxGeometry x="980" y="720" width="30" height="20" as="geometry" />
        </mxCell>
        <mxCell id="oqc9B1S6U0OL1mSsrtgY-127" value="&lt;font color=&quot;#ff00ff&quot;&gt;BW&lt;/font&gt;" style="text;html=1;strokeColor=none;fillColor=none;align=center;verticalAlign=middle;whiteSpace=wrap;rounded=0;" parent="1" vertex="1">
          <mxGeometry x="980" y="790" width="30" height="20" as="geometry" />
        </mxCell>
        <mxCell id="oqc9B1S6U0OL1mSsrtgY-128" value="&lt;font color=&quot;#ff00ff&quot;&gt;BW&lt;/font&gt;" style="text;html=1;strokeColor=none;fillColor=none;align=center;verticalAlign=middle;whiteSpace=wrap;rounded=0;" parent="1" vertex="1">
          <mxGeometry x="1030" y="880" width="30" height="20" as="geometry" />
        </mxCell>
        <mxCell id="oqc9B1S6U0OL1mSsrtgY-129" value="&lt;font color=&quot;#00ffff&quot;&gt;CW&lt;/font&gt;" style="text;html=1;strokeColor=none;fillColor=none;align=center;verticalAlign=middle;whiteSpace=wrap;rounded=0;" parent="1" vertex="1">
          <mxGeometry x="1045" y="645" width="40" height="30" as="geometry" />
        </mxCell>
        <mxCell id="oqc9B1S6U0OL1mSsrtgY-130" value="&lt;font color=&quot;#00ffff&quot;&gt;CW&lt;/font&gt;" style="text;html=1;strokeColor=none;fillColor=none;align=center;verticalAlign=middle;whiteSpace=wrap;rounded=0;" parent="1" vertex="1">
          <mxGeometry x="1045" y="715" width="40" height="30" as="geometry" />
        </mxCell>
        <mxCell id="oqc9B1S6U0OL1mSsrtgY-131" value="&lt;font color=&quot;#00ffff&quot;&gt;CW&lt;/font&gt;" style="text;html=1;strokeColor=none;fillColor=none;align=center;verticalAlign=middle;whiteSpace=wrap;rounded=0;" parent="1" vertex="1">
          <mxGeometry x="1045" y="785" width="40" height="30" as="geometry" />
        </mxCell>
        <mxCell id="oqc9B1S6U0OL1mSsrtgY-132" value="&lt;font color=&quot;#00ffff&quot;&gt;CW&lt;/font&gt;" style="text;html=1;strokeColor=none;fillColor=none;align=center;verticalAlign=middle;whiteSpace=wrap;rounded=0;" parent="1" vertex="1">
          <mxGeometry x="1090" y="875" width="40" height="25" as="geometry" />
        </mxCell>
        <mxCell id="oqc9B1S6U0OL1mSsrtgY-139" style="edgeStyle=orthogonalEdgeStyle;rounded=0;orthogonalLoop=1;jettySize=auto;html=1;entryX=1;entryY=0.5;entryDx=0;entryDy=0;" parent="1" source="oqc9B1S6U0OL1mSsrtgY-133" target="oqc9B1S6U0OL1mSsrtgY-136" edge="1">
          <mxGeometry relative="1" as="geometry">
            <Array as="points">
              <mxPoint x="1460" y="970" />
            </Array>
          </mxGeometry>
        </mxCell>
        <mxCell id="oqc9B1S6U0OL1mSsrtgY-148" style="edgeStyle=orthogonalEdgeStyle;rounded=0;orthogonalLoop=1;jettySize=auto;html=1;" parent="1" source="oqc9B1S6U0OL1mSsrtgY-133" target="oqc9B1S6U0OL1mSsrtgY-140" edge="1">
          <mxGeometry relative="1" as="geometry" />
        </mxCell>
        <mxCell id="oqc9B1S6U0OL1mSsrtgY-133" value="Update" style="ellipse;whiteSpace=wrap;html=1;rounded=0;" parent="1" vertex="1">
          <mxGeometry x="1420" y="580" width="80" height="40" as="geometry" />
        </mxCell>
        <mxCell id="oqc9B1S6U0OL1mSsrtgY-136" value="placement" style="ellipse;whiteSpace=wrap;html=1;rounded=0;" parent="1" vertex="1">
          <mxGeometry x="1350" y="947.5" width="80" height="45" as="geometry" />
        </mxCell>
        <mxCell id="oqc9B1S6U0OL1mSsrtgY-140" value="diff properties" style="rounded=0;whiteSpace=wrap;html=1;" parent="1" vertex="1">
          <mxGeometry x="1730" y="580" width="130" height="40" as="geometry" />
        </mxCell>
        <mxCell id="oqc9B1S6U0OL1mSsrtgY-141" value="createElement" style="ellipse;whiteSpace=wrap;html=1;" parent="1" vertex="1">
          <mxGeometry x="1875" y="980" width="160" height="50" as="geometry" />
        </mxCell>
        <mxCell id="oqc9B1S6U0OL1mSsrtgY-149" value="before mutation" style="rounded=0;whiteSpace=wrap;html=1;" parent="1" vertex="1">
          <mxGeometry x="1510" y="290" width="150" height="35" as="geometry" />
        </mxCell>
        <mxCell id="oqc9B1S6U0OL1mSsrtgY-151" value="getSnapshotBeforeUpdate" style="rounded=0;whiteSpace=wrap;html=1;" parent="1" vertex="1">
          <mxGeometry x="1510" y="360" width="150" height="35" as="geometry" />
        </mxCell>
        <mxCell id="oqc9B1S6U0OL1mSsrtgY-152" value="mutation" style="rounded=0;whiteSpace=wrap;html=1;" parent="1" vertex="1">
          <mxGeometry x="1510" y="432.5" width="150" height="35" as="geometry" />
        </mxCell>
        <mxCell id="oqc9B1S6U0OL1mSsrtgY-153" value="遍历所有effect" style="rounded=0;whiteSpace=wrap;html=1;" parent="1" vertex="1">
          <mxGeometry x="1510" y="502.5" width="150" height="35" as="geometry" />
        </mxCell>
        <mxCell id="oqc9B1S6U0OL1mSsrtgY-155" value="切换Fiber树" style="rounded=0;whiteSpace=wrap;html=1;" parent="1" vertex="1">
          <mxGeometry x="1510" y="640" width="150" height="35" as="geometry" />
        </mxCell>
        <mxCell id="oqc9B1S6U0OL1mSsrtgY-156" value="layout阶段" style="rounded=0;whiteSpace=wrap;html=1;" parent="1" vertex="1">
          <mxGeometry x="1510" y="710" width="150" height="35" as="geometry" />
        </mxCell>
        <mxCell id="oqc9B1S6U0OL1mSsrtgY-157" value="componentDidMount" style="rounded=0;whiteSpace=wrap;html=1;" parent="1" vertex="1">
          <mxGeometry x="1510" y="782.5" width="150" height="35" as="geometry" />
        </mxCell>
        <mxCell id="oqc9B1S6U0OL1mSsrtgY-158" value="componentDidUpdate" style="rounded=0;whiteSpace=wrap;html=1;" parent="1" vertex="1">
          <mxGeometry x="1510" y="845" width="150" height="35" as="geometry" />
        </mxCell>
        <mxCell id="oqc9B1S6U0OL1mSsrtgY-159" value="useLayoutEffect" style="rounded=0;whiteSpace=wrap;html=1;" parent="1" vertex="1">
          <mxGeometry x="1510" y="910" width="150" height="35" as="geometry" />
        </mxCell>
        <mxCell id="oqc9B1S6U0OL1mSsrtgY-160" value="&lt;font color=&quot;#ff0000&quot; style=&quot;font-size: 16px;&quot;&gt;4. 在页面上的真实节点&lt;/font&gt;" style="text;html=1;strokeColor=none;fillColor=none;align=center;verticalAlign=middle;whiteSpace=wrap;rounded=0;" parent="1" vertex="1">
          <mxGeometry x="1490" y="222.5" width="187.5" height="27.5" as="geometry" />
        </mxCell>
        <mxCell id="oqc9B1S6U0OL1mSsrtgY-161" value="&lt;font style=&quot;font-size: 14px;&quot;&gt;beginWork：生成Fiber树&lt;br&gt;&lt;div style=&quot;&quot;&gt;&lt;span style=&quot;background-color: initial;&quot;&gt;completeWork：为Fiber树的每个节点创建实例、属性；将所有变更基于rootFiber生成一个链表（为防止commitWork更新变更时需要再整体遍历一遍链表）&lt;/span&gt;&lt;/div&gt;commitWork：将变更更新到页面上&lt;/font&gt;" style="text;html=1;strokeColor=none;fillColor=none;align=center;verticalAlign=middle;whiteSpace=wrap;rounded=0;" parent="1" vertex="1">
          <mxGeometry x="376" y="1010" width="386" height="110" as="geometry" />
        </mxCell>
      </root>
    </mxGraphModel>
  </diagram>
</mxfile>
